<?xml version="1.0" encoding="UTF-8"?>
<svg width="50px" height="54px" viewBox="0 0 50 54" version="1.1" xmlns="http://www.w3.org/2000/svg" xmlns:xlink="http://www.w3.org/1999/xlink">
    <!-- Generator: sketchtool 61.2 (101010) - https://sketch.com -->
    <title>9BBD77F5-F558-4370-99CA-4B94EBC029F2</title>
    <desc>Created with sketchtool.</desc>
    <g id="Page-1" stroke="none" stroke-width="1" fill="none" fill-rule="evenodd">
        <g id="Catsy-Cat-Studio-Langing-first-screen" transform="translate(-1202.000000, -162.000000)" fill="#6FD3D3" fill-rule="nonzero">
            <g id="android" transform="translate(1202.000000, 162.000000)">
                <path d="M37.6366882,0.260375977 C36.3755951,-0.358429008 34.8458862,0.164382961 34.2274933,1.42506411 L30.4866486,9.0484772 C30.3873597,9.25076299 30.372528,9.48435971 30.4454499,9.69735712 C30.5179596,9.91035464 30.6724548,10.0858612 30.8747406,10.1851501 L33.9242707,11.681488 C34.0445709,11.7404022 34.172287,11.7684173 34.2979431,11.7684173 C34.6114655,11.7684173 34.9130402,11.5937347 35.0609437,11.292984 L38.8013763,3.66957095 C39.4201813,2.40847784 38.8977814,0.879180961 37.6366882,0.260375977 L37.6366882,0.260375977 Z" id="Path"></path>
                <path d="M15.0251771,1.42506411 C14.4063721,0.163971 12.8770752,-0.358429008 11.6159821,0.260375977 C10.354889,0.879180961 9.832077,2.40847784 10.4512939,3.66957095 L14.1917267,11.292984 C14.3392181,11.5937347 14.6407928,11.7684173 14.9547272,11.7684173 C15.0803833,11.7684173 15.2080993,11.7404022 15.3283997,11.681488 L18.3779297,10.1847381 C18.5798034,10.0858612 18.7347106,9.91035464 18.8072204,9.69735713 C18.8801422,9.48394775 18.8653107,9.25076299 18.7660218,9.0484772 L15.0251771,1.42506411 Z" id="Path"></path>
                <path d="M45.431076,22.5806122 C43.324173,22.5806122 41.6098939,24.2944793 41.6098939,26.4017944 L41.6098939,39.1396179 C41.6098939,41.246521 43.324173,42.9608001 45.431076,42.9608001 C47.5383911,42.9608001 49.2526703,41.246521 49.2526703,39.1396179 L49.2526703,26.4017944 C49.2526703,24.2948913 47.5383911,22.5806122 45.431076,22.5806122 L45.431076,22.5806122 Z" id="Path"></path>
                <path d="M39.0621644,22.5806122 L10.190094,22.5806122 C9.72125244,22.5806122 9.34098813,22.9604645 9.34098813,23.4297181 L9.34098813,43.809906 C9.34098813,44.2787476 9.72125244,44.6590119 10.190094,44.6590119 L13.5869293,44.6590119 L13.5869293,50.1788177 C13.5869293,52.2857209 15.3012085,54 17.4081116,54 C19.5154266,54 21.2297058,52.2857209 21.2297058,50.1788177 L21.2297058,44.6590119 L28.0229645,44.6590119 L28.0229645,50.1788177 C28.0229645,52.2857209 29.7372437,54 31.8441468,54 C33.9514618,54 35.6657409,52.2857209 35.6657409,50.1788177 L35.6657409,44.6590119 L39.0621644,44.6590119 C39.5314178,44.6590119 39.9116821,44.2787476 39.9116821,43.809906 L39.9116821,23.4297181 C39.9116821,22.9604645 39.5314178,22.5806122 39.0621644,22.5806122 L39.0621644,22.5806122 Z" id="Path"></path>
                <g id="Group" transform="translate(0.000000, 22.570312)">
                    <path d="M11.8887176,21.2395935 L11.8887176,0.85940557 C11.8887176,0.390152004 12.2689819,0.0102996563 12.7378235,0.0102996563 L10.190094,0.0102996563 C9.72125244,0.0102996563 9.34098813,0.390152004 9.34098813,0.85940557 L9.34098813,21.2395935 C9.34098813,21.7084351 9.72125244,22.0886994 10.190094,22.0886994 L12.7378235,22.0886994 C12.2689819,22.0886994 11.8887176,21.7084351 11.8887176,21.2395935 Z" id="Path"></path>
                    <path d="M30.570694,27.6085052 L30.570694,22.0886994 L28.0229645,22.0886994 L28.0229645,27.6085052 C28.0229645,29.7154084 29.7372437,31.4296875 31.8441468,31.4296875 C32.2907409,31.4296875 32.7192077,31.3522339 33.1180114,31.2105103 C31.6356812,30.6848145 30.570694,29.2692261 30.570694,27.6085052 L30.570694,27.6085052 Z" id="Path"></path>
                    <path d="M16.1346588,27.6085052 L16.1346588,22.0886994 L13.5869293,22.0886994 L13.5869293,27.6085052 C13.5869293,29.7154084 15.3012085,31.4296875 17.4081116,31.4296875 C17.8547058,31.4296875 18.2831726,31.3522339 18.6819763,31.2105103 C17.199234,30.6848145 16.1346588,29.2692261 16.1346588,27.6085052 L16.1346588,27.6085052 Z" id="Path"></path>
                    <path d="M3.82118228,0.0102996563 C1.71427915,0.0102996563 0,1.72416684 0,3.83148193 L0,16.5693054 C0,18.6762085 1.71427915,20.3904876 3.82118228,20.3904876 C5.92849737,20.3904876 7.64277652,18.6762085 7.64277652,16.5693054 L7.64277652,3.83148193 C7.64277652,1.7245788 5.92849737,0.0102996563 3.82118228,0.0102996563 L3.82118228,0.0102996563 Z" id="Path"></path>
                </g>
                <path d="M24.6261292,4.7477417 C16.1981048,4.7477417 9.34098813,11.6044464 9.34098813,20.0328827 C9.34098813,20.5017243 9.72125244,20.8819886 10.190094,20.8819886 L39.0621644,20.8819886 C39.5314178,20.8819886 39.9116821,20.5017243 39.9116821,20.0328827 C39.9116821,11.6044464 33.0545654,4.7477417 24.6261292,4.7477417 Z M19.5310822,14.9378356 C19.5310822,15.8742829 18.7693177,16.6360474 17.8328705,16.6360474 C16.8964233,16.6360474 16.1346588,15.8742829 16.1346588,14.9378356 C16.1346588,14.0013885 16.8964233,13.239624 17.8328705,13.239624 C18.7693177,13.239624 19.5310822,14.0013885 19.5310822,14.9378356 Z M29.7211761,14.9378356 C29.7211761,14.0013885 30.4833527,13.239624 31.4197998,13.239624 C32.3562469,13.239624 33.1180114,14.0013885 33.1180114,14.9378356 C33.1180114,15.8742829 32.3562469,16.6360474 31.4197998,16.6360474 C30.4833527,16.6360474 29.7211761,15.8742829 29.7211761,14.9378356 Z" id="Shape"></path>
            </g>
        </g>
    </g>
</svg>