<?xml version="1.0" encoding="UTF-8"?>
<svg width="44px" height="54px" viewBox="0 0 44 54" version="1.1" xmlns="http://www.w3.org/2000/svg" xmlns:xlink="http://www.w3.org/1999/xlink">
    <!-- Generator: sketchtool 61.2 (101010) - https://sketch.com -->
    <title>080392ED-3C12-487B-998E-3873D1CADDAE</title>
    <desc>Created with sketchtool.</desc>
    <g id="Page-1" stroke="none" stroke-width="1" fill="none" fill-rule="evenodd">
        <g id="Catsy-Cat-Studio-Langing-first-screen" transform="translate(-1044.000000, -162.000000)" fill="#6FD3D3" fill-rule="nonzero">
            <g id="apple-(1)" transform="translate(1044.000000, 162.000000)">
                <path d="M2.40825498,19.850577 C-2.1118247,27.7726426 0.761673307,39.7948131 5.76014343,47.084282 C8.25517131,50.7286623 10.7812271,54 14.2410996,54 C14.3063108,54 14.3716972,53.9987607 14.4386614,53.9961049 C16.0642072,53.9305967 17.2388845,53.4251213 18.3746454,52.9366426 C19.6497689,52.3877902 20.9685418,51.8203475 23.0370677,51.8203475 C25.0049721,51.8203475 26.2608127,52.369377 27.4752829,52.9001705 C28.6722231,53.4231738 29.9050996,53.9642361 31.7268048,53.9297115 C35.6240478,53.8564131 38.0168765,50.3264066 40.128,47.2122885 C42.3309801,43.9607803 43.4360637,40.8038164 43.8089243,39.5974033 L43.824,39.549423 C43.894996,39.3350164 43.7947251,39.1009574 43.5912032,39.0065902 C43.5855936,39.0039344 43.5649084,38.995259 43.5591235,38.9927803 C42.8728287,38.7093246 36.8527171,36.0119803 36.7894343,28.6601902 C36.7307092,22.687259 41.3056574,19.5242754 42.2231713,18.9509902 L42.2659442,18.9240787 C42.3653386,18.8594557 42.4345817,18.7569443 42.4580717,18.6397377 C42.4815618,18.5227082 42.4570199,18.4008984 42.3904064,18.302459 C39.2325737,13.6350885 34.3925737,12.9316721 32.4439522,12.8470426 C32.1611952,12.8185377 31.8693227,12.8041967 31.5762231,12.8041967 C29.2875219,12.8041967 27.0950598,13.6772262 25.3336574,14.3786951 C24.1177849,14.8629246 23.0675697,15.2811148 22.3432351,15.2811148 C21.5293227,15.2811148 20.4731474,14.8577902 19.2500876,14.367718 C17.6145498,13.7121049 15.7607649,12.9692066 13.7982948,12.9692066 C13.75149,12.9692066 13.7053865,12.9697377 13.6599841,12.970623 C9.09695618,13.0384328 4.78530677,15.6750492 2.40825498,19.850577 Z" id="XMLID_229_"></path>
                <path d="M32.4479841,0.000354098361 C29.684749,0.114019672 26.3700239,1.83192787 24.3887968,4.17570492 C22.7050518,6.14573115 21.0602231,9.43034754 21.4935618,12.7411672 C21.5207331,12.9483148 21.6876175,13.1081902 21.8939442,13.1243016 C22.0804622,13.1389967 22.2708367,13.1464328 22.46051,13.1466098 C25.1623904,13.1466098 28.0770837,11.6369115 30.0676016,9.20602623 C32.1625976,6.63916721 33.2219283,3.34499016 32.9014821,0.394288525 C32.876239,0.163062295 32.6748207,-0.00867540984 32.4479841,0.000354098361 Z" id="XMLID_230_"></path>
            </g>
        </g>
    </g>
</svg>