<?xml version="1.0" encoding="UTF-8"?>
<svg width="64px" height="63px" viewBox="0 0 64 63" version="1.1" xmlns="http://www.w3.org/2000/svg" xmlns:xlink="http://www.w3.org/1999/xlink">
    <!-- Generator: sketchtool 61.2 (101010) - https://sketch.com -->
    <title>718D46AC-FEBC-4517-89C6-06C1D524766D</title>
    <desc>Created with sketchtool.</desc>
    <g id="Page-1" stroke="none" stroke-width="1" fill="none" fill-rule="evenodd">
        <g id="CCS-landing-tablet-Landscape" transform="translate(-28.000000, -1726.000000)" fill="#6FD3D3" fill-rule="nonzero">
            <g id="test" transform="translate(28.000000, 1726.000000)">
                <g id="checklist">
                    <path d="M5.15718718,55.8257799 L31.975181,55.8257799 L31.975181,53.7580529 L5.15718718,53.7580529 C3.44829366,53.7580529 2.06282318,52.3696368 2.06282318,50.6571101 L2.06282318,5.17644231 C2.06282318,3.46339744 3.44829366,2.07549948 5.15718718,2.07549948 L50.5413651,2.07549948 C52.2510341,2.07549948 53.6357291,3.46339744 53.6357291,5.17644231 L53.6357291,28.9502511 L55.6990693,28.9502511 L55.6990693,5.17644231 C55.6957084,2.32344017 53.3885729,0.0116586373 50.5413651,0.00829059829 L5.15718718,0.00829059829 C2.31075488,0.0116586373 0.00361944157,2.32344017 0,5.17644231 L0,50.6571101 C0.00361944157,53.5101121 2.31075488,55.8218937 5.15718718,55.8257799 Z" id="Path"></path>
                    <polygon id="Path" points="4.12616339 4.1432265 6.18872799 4.1432265 6.18872799 6.21017625 4.12616339 6.21017625"></polygon>
                    <polygon id="Path" points="8.25155117 4.1432265 10.3148914 4.1432265 10.3148914 6.21017625 8.25155117 6.21017625"></polygon>
                    <polygon id="Path" points="12.377456 4.1432265 14.4405377 4.1432265 14.4405377 6.21017625 12.377456 6.21017625"></polygon>
                    <polygon id="Path" points="4.12616339 8.27738513 51.5729059 8.27738513 51.5729059 10.3451121 4.12616339 10.3451121"></polygon>
                    <path d="M14.7427611,12.7149279 L12.1228025,15.3404567 C9.90822129,13.8712073 6.94260603,14.3220085 5.26189243,16.3832585 C3.58143742,18.4442495 3.73216132,21.4464824 5.61013444,23.3281891 C7.48784903,25.2106731 10.483971,25.3617174 12.540848,23.6774306 C14.5974664,21.9934027 15.0475698,19.0209642 13.5811789,16.8021928 L16.200879,14.176664 L14.7427611,12.7149279 Z M9.28283347,22.7483654 C7.57419854,22.7483654 6.18872799,21.3602084 6.18872799,19.6476816 C6.18872799,17.9348958 7.57419854,16.5469979 9.28283347,16.5469979 C9.74301968,16.5485523 10.1957084,16.6542574 10.6085832,16.8565999 L8.55403311,18.9157773 L10.012151,20.3775133 L12.0682523,18.3196314 C12.2701654,18.733125 12.3759049,19.1867762 12.377456,19.6476816 C12.377456,21.3602084 10.9925026,22.7483654 9.28283347,22.7483654 Z" id="Shape"></path>
                    <polygon id="Path" points="17.5349017 16.5469979 35.0692865 16.5469979 35.0692865 18.6139477 17.5349017 18.6139477"></polygon>
                    <polygon id="Path" points="17.5349017 20.6814156 24.7549121 20.6814156 24.7549121 22.7483654 17.5349017 22.7483654"></polygon>
                    <polygon id="Path" points="26.8179938 20.6814156 41.2580144 20.6814156 41.2580144 22.7483654 26.8179938 22.7483654"></polygon>
                    <polygon id="Path" points="37.1323681 16.5469979 47.447001 16.5469979 47.447001 18.6139477 37.1323681 18.6139477"></polygon>
                    <path d="M14.7427611,25.1186992 L12.1228025,27.7442281 C9.90822129,26.2749786 6.94260603,26.7257799 5.26189243,28.7870299 C3.58143742,30.8482799 3.73216132,33.8502538 5.61013444,35.7324786 C7.48784903,37.6144444 10.483971,37.7654888 12.540848,36.0812019 C14.5974664,34.396915 15.0475698,31.4255128 13.5811789,29.2059642 L16.200879,26.5804354 L14.7427611,25.1186992 Z M9.28283347,35.1523958 C7.57419854,35.1523958 6.18872799,33.7639797 6.18872799,32.051453 C6.18872799,30.3386672 7.57419854,28.9502511 9.28283347,28.9502511 C9.74301968,28.9520646 10.1957084,29.0580289 10.6085832,29.2603713 L8.55403311,31.3200668 L10.012151,32.7812847 L12.0682523,30.7231437 C12.2701654,31.1368964 12.3759049,31.5905475 12.377456,32.051453 C12.377456,33.7639797 10.9925026,35.1523958 9.28283347,35.1523958 Z" id="Shape"></path>
                    <polygon id="Path" points="17.5349017 28.9502511 35.0692865 28.9502511 35.0692865 31.017719 17.5349017 31.017719"></polygon>
                    <polygon id="Path" points="17.5349017 33.085187 24.7549121 33.085187 24.7549121 35.1523958 17.5349017 35.1523958"></polygon>
                    <polygon id="Path" points="26.8179938 33.085187 35.0692865 33.085187 35.0692865 35.1523958 26.8179938 35.1523958"></polygon>
                    <polygon id="Path" points="37.1323681 28.9502511 41.2580144 28.9502511 41.2580144 31.017719 37.1323681 31.017719"></polygon>
                    <path d="M14.7427611,37.5224706 L12.1228025,40.1479995 C9.90822129,38.67875 6.94260603,39.1295513 5.26189243,41.1908013 C3.58143742,43.2520513 3.73216132,46.2540251 5.61013444,48.13625 C7.48784903,50.0184749 10.483971,50.169001 12.540848,48.4849733 C14.5974664,46.8006864 15.0475698,43.8290251 13.5811789,41.6094765 L16.200879,38.9842067 L14.7427611,37.5224706 Z M9.28283347,47.5561672 C7.57419854,47.5561672 6.18872799,46.1677511 6.18872799,44.4552244 C6.18872799,42.7424386 7.57419854,41.3542815 9.28283347,41.3542815 C9.74301968,41.355836 10.1957084,41.4615411 10.6085832,41.6641426 L8.55403311,43.7238381 L10.012151,45.1850561 L12.0682523,43.126915 C12.2701654,43.5406677 12.3759049,43.994578 12.377456,44.4552244 C12.377456,46.1677511 10.9925026,47.5561672 9.28283347,47.5561672 Z" id="Shape"></path>
                    <polygon id="Path" points="17.5349017 41.3542815 30.9436401 41.3542815 30.9436401 43.4220085 17.5349017 43.4220085"></polygon>
                    <polygon id="Path" points="17.5349017 45.4889583 24.7549121 45.4889583 24.7549121 47.5561672 17.5349017 47.5561672"></polygon>
                    <polygon id="Path" points="26.8179938 45.4889583 30.9436401 45.4889583 30.9436401 47.5561672 26.8179938 47.5561672"></polygon>
                    <path d="M48.4788004,62.0276656 C57.0240434,62.0276656 63.9503619,55.0853258 63.9503619,46.5226923 C63.9503619,37.9592815 57.0240434,31.017719 48.4788004,31.017719 C39.9335574,31.017719 33.0067219,37.9592815 33.0067219,46.5226923 C33.0168045,55.0814397 39.9376939,62.0173024 48.4788004,62.0276656 Z M48.4788004,33.085187 C55.8839194,33.085187 61.8877973,39.1013114 61.8877973,46.5226923 C61.8877973,53.9440732 55.8839194,59.9599386 48.4788004,59.9599386 C41.0729059,59.9599386 35.0692865,53.9440732 35.0692865,46.5226923 C35.0780765,39.1049386 41.0762668,33.0934776 48.4788004,33.085187 Z" id="Shape"></path>
                    <path d="M42.1869183,47.0939663 L40.340486,48.0178499 L42.4035677,52.1525267 C42.5514478,52.449952 42.8337642,52.6579941 43.1613237,52.7111058 C43.2145811,52.7193964 43.2678387,52.7238008 43.3213547,52.724578 C43.5946225,52.724578 43.8570321,52.6155048 44.0509307,52.4217121 L56.4278697,40.0179407 L54.9697518,38.5562046 L43.6036712,49.9459321 L42.1869183,47.0939663 Z" id="Path"></path>
                </g>
            </g>
        </g>
    </g>
</svg>