<?xml version="1.0" encoding="UTF-8"?>
<svg width="18px" height="18px" viewBox="0 0 18 18" version="1.1" xmlns="http://www.w3.org/2000/svg" xmlns:xlink="http://www.w3.org/1999/xlink">
    <!-- Generator: sketchtool 63.1 (101010) - https://sketch.com -->
    <title>501E3D24-25DD-433E-9EE6-09C8DD50FA2F</title>
    <desc>Created with sketchtool.</desc>
    <g id="Main&amp;About" stroke="none" stroke-width="1" fill="none" fill-rule="evenodd">
        <g id="CCS-landing-main-menu-mobile" transform="translate(-287.000000, -46.000000)" fill="#FFFFFF" fill-rule="nonzero">
            <g id="icons/close" transform="translate(296.000000, 55.000000) rotate(45.000000) translate(-296.000000, -55.000000) translate(284.000000, 43.000000)">
                <path d="M23.0625,11.0625 L12.9375,11.0625 L12.9375,0.9375 C12.9375,0.41971875 12.5177812,0 12,0 C11.4822188,0 11.0625,0.41971875 11.0625,0.9375 L11.0625,11.0625 L0.9375,11.0625 C0.41971875,11.0625 0,11.4822188 0,12 C0,12.5177812 0.41971875,12.9375 0.9375,12.9375 L11.0625,12.9375 L11.0625,23.0625 C11.0625,23.5802812 11.4822188,24 12,24 C12.5177812,24 12.9375,23.5802812 12.9375,23.0625 L12.9375,12.9375 L23.0625,12.9375 C23.5802812,12.9375 24,12.5177812 24,12 C24,11.4822188 23.5802812,11.0625 23.0625,11.0625 Z" id="Path"></path>
            </g>
        </g>
    </g>
</svg>