<?xml version="1.0" encoding="UTF-8"?>
<svg width="24px" height="24px" viewBox="0 0 24 24" version="1.1" xmlns="http://www.w3.org/2000/svg" xmlns:xlink="http://www.w3.org/1999/xlink">
    <!-- Generator: sketchtool 61.2 (101010) - https://sketch.com -->
    <title>739D0C9C-E05A-41BA-92A9-6FEED16D4529</title>
    <desc>Created with sketchtool.</desc>
    <g id="Page-1" stroke="none" stroke-width="1" fill="none" fill-rule="evenodd">
        <g id="CCS-landing-tablet-Landscape" transform="translate(-972.000000, -2544.000000)" fill="#3D47D7" fill-rule="nonzero">
            <g id="dribble" transform="translate(972.000000, 2544.000000)">
                <path d="M11.9621772,23.9244304 C18.5580759,23.9244304 23.9242025,18.5579241 23.9242025,11.9616456 C23.9242025,5.36597468 18.5580759,0 11.9621772,0 C5.36627848,0 0.000151898734,5.36597468 0.000151898734,11.9616456 C0.000151898734,18.5579241 5.36635443,23.9244304 11.9621772,23.9244304 Z M11.9621772,21.1382278 C10.0673165,21.1382278 8.26792405,20.5708861 6.72850633,19.492481 C7.3563038,18.4509873 9.26453165,15.8412152 13.3519747,14.2820506 C14.3823038,17.0753924 14.907038,19.4590633 15.12,20.5771899 C14.1117722,20.9497215 13.0517468,21.1382278 11.9621772,21.1382278 Z M17.7890886,19.0402785 C17.5578228,17.9103797 17.0911899,15.9222532 16.2811899,13.5798228 C16.6907848,13.539038 17.1102532,13.5184557 17.5355696,13.5184557 C19.0201519,13.5184557 20.2588861,13.7668101 20.912962,13.9300253 C20.4761013,15.9261266 19.3684557,17.7331139 17.7890886,19.0402785 Z M19.4706835,6.73503797 C20.3898228,8.05093671 20.9503291,9.59589873 21.0892405,11.1949367 C20.2463544,11.056557 18.8023291,10.8693418 17.1587089,10.8693418 C16.5073671,10.8693418 15.8767595,10.8992658 15.2780506,10.9583544 C15.2623291,10.9208354 15.2464557,10.8831646 15.2304304,10.8453418 C15.1054937,10.5532405 14.971443,10.2535443 14.8301013,9.94974684 C17.2722532,8.85425316 18.7521266,7.51253165 19.4706835,6.73503797 Z M11.9621772,2.81529114 C14.0188861,2.81529114 16.0069367,3.50756962 17.6178987,4.77524051 C17.062481,5.39620253 15.7967848,6.57843038 13.5691139,7.49916456 C12.4585063,5.51301266 11.3188101,3.82913924 10.6671646,2.90688608 C11.0944557,2.84597468 11.5275949,2.81529114 11.9621772,2.81529114 Z M7.64582278,3.89825316 C8.18324051,4.65508861 9.36865823,6.37313924 10.5653924,8.4304557 C7.34643038,9.20658228 4.51792405,9.37503797 3.16777215,9.4078481 C3.85594937,7.06321519 5.48012658,5.06058228 7.64582278,3.89825316 Z M11.9405316,10.9735443 C12.0448101,11.1843038 12.1447595,11.3920253 12.2404557,11.5958734 C8.17450633,12.9932658 5.65032911,16.1096962 4.67475949,17.5221266 C3.51622785,16.0031392 2.86146835,14.1642532 2.80450633,12.2501772 C4.22012658,12.2353671 7.99458228,12.0823291 11.9405316,10.9735443 Z" id="XMLID_810_"></path>
            </g>
        </g>
    </g>
</svg>