<?xml version="1.0" encoding="UTF-8"?>
<svg width="12px" height="24px" viewBox="0 0 12 24" version="1.1" xmlns="http://www.w3.org/2000/svg" xmlns:xlink="http://www.w3.org/1999/xlink">
    <!-- Generator: sketchtool 63.1 (101010) - https://sketch.com -->
    <title>F67EDAC1-9734-49B0-BD84-6F688C85DCAC</title>
    <desc>Created with sketchtool.</desc>
    <g id="Main&amp;About" stroke="none" stroke-width="1" fill="none" fill-rule="evenodd">
        <g id="Catsy-Cat-Studio-Langing-first-screen" transform="translate(-1485.000000, -2457.000000)" fill="#6FD3D3" fill-rule="nonzero">
            <g id="facebook-hover" transform="translate(1485.000000, 2457.000000)">
                <path d="M0.433139241,12.7824 L3.01397468,12.7824 L3.01397468,23.6129032 C3.01397468,23.8267355 3.18394937,24 3.39372152,24 L7.76962025,24 C7.97939241,24 8.14936709,23.8267355 8.14936709,23.6129032 L8.14936709,12.8334194 L11.1162532,12.8334194 C11.3091646,12.8334194 11.4714684,12.6858581 11.4934937,12.490529 L11.9441013,8.50327742 C11.956481,8.39357419 11.9223797,8.28371613 11.8503797,8.20141935 C11.7783038,8.11904516 11.6751646,8.07189677 11.5669367,8.07189677 L8.14951899,8.07189677 L8.14951899,5.57249032 C8.14951899,4.81904516 8.54749367,4.43698065 9.33250633,4.43698065 C9.44437975,4.43698065 11.5669367,4.43698065 11.5669367,4.43698065 C11.7767089,4.43698065 11.9466835,4.26363871 11.9466835,4.04988387 L11.9466835,0.38996129 C11.9466835,0.176129032 11.7767089,0.00286451613 11.5669367,0.00286451613 L8.48756962,0.00286451613 C8.4658481,0.00178064516 8.41762025,0 8.34653165,0 C7.81222785,0 5.95503797,0.106916129 4.488,1.48265806 C2.86253165,3.0072 3.08848101,4.83259355 3.14248101,5.14908387 L3.14248101,8.07181935 L0.433139241,8.07181935 C0.223367089,8.07181935 0.0533924051,8.24508387 0.0533924051,8.45891613 L0.0533924051,12.3952258 C0.0533924051,12.6090581 0.223367089,12.7824 0.433139241,12.7824 Z" id="XMLID_835_"></path>
            </g>
        </g>
    </g>
</svg>