<?xml version="1.0" encoding="UTF-8"?>
<svg width="64px" height="64px" viewBox="0 0 64 64" version="1.1" xmlns="http://www.w3.org/2000/svg" xmlns:xlink="http://www.w3.org/1999/xlink">
    <!-- Generator: sketchtool 61.2 (101010) - https://sketch.com -->
    <title>9969202C-A76C-403D-89B9-063D4286871D</title>
    <desc>Created with sketchtool.</desc>
    <g id="Page-1" stroke="none" stroke-width="1" fill="none" fill-rule="evenodd">
        <g id="CCS-landing-tablet-Landscape" transform="translate(-535.000000, -1369.000000)" fill="#6FD3D3" fill-rule="nonzero">
            <g id="planning" transform="translate(535.000000, 1361.000000)">
                <g id="flow-chart" transform="translate(0.000000, 8.000000)">
                    <path d="M56.5333333,34.1333333 L43.7333333,34.1333333 C43.1442667,34.1333333 42.6666667,34.6109333 42.6666667,35.2 L42.6666667,37.3333333 L39.7546667,37.3333333 L33.0666667,33.5146667 L33.0666667,29.8666667 L38.4,29.8666667 C38.9890667,29.8666667 39.4666667,29.3890667 39.4666667,28.8 L39.4666667,22.4 C39.4666667,21.8109333 38.9890667,21.3333333 38.4,21.3333333 L33.0666667,21.3333333 L33.0666667,17.0666667 L35.2,17.0666667 C37.5564,17.0666667 39.4666667,15.1564 39.4666667,12.8 C39.4666667,10.4436 37.5564,8.53333333 35.2,8.53333333 L28.8,8.53333333 C26.4436,8.53333333 24.5333333,10.4436 24.5333333,12.8 C24.5333333,15.1564 26.4436,17.0666667 28.8,17.0666667 L30.9333333,17.0666667 L30.9333333,21.3333333 L25.6,21.3333333 C25.0109333,21.3333333 24.5333333,21.8109333 24.5333333,22.4 L24.5333333,24.5333333 L21.3333333,24.5333333 L21.3333333,22.4 C21.3333333,21.8109333 20.8557333,21.3333333 20.2666667,21.3333333 L7.46666667,21.3333333 C6.8776,21.3333333 6.4,21.8109333 6.4,22.4 L6.4,28.8 C6.40186667,29.1568 6.582,29.4890667 6.88,29.6853333 L7.25333333,29.9413333 C8.39173333,30.6957333 9.72773333,31.0965333 11.0933333,31.0933333 C12.1636,31.0969333 13.2196,30.8484 14.176,30.368 C14.8388,30.0382667 15.5690667,29.8666667 16.3093333,29.8666667 L20.2666667,29.8666667 C20.8557333,29.8666667 21.3333333,29.3890667 21.3333333,28.8 L21.3333333,26.6666667 L24.5333333,26.6666667 L24.5333333,28.8 C24.5333333,29.3890667 25.0109333,29.8666667 25.6,29.8666667 L30.9333333,29.8666667 L30.9333333,33.5146667 L24,37.472 C23.4874667,37.7624 23.3074667,38.4133333 23.5978667,38.9258667 C23.6930667,39.0938667 23.832,39.2328 24,39.328 L30.9333333,43.2853333 L30.9333333,49.0666667 L28.8,49.0666667 C26.4436,49.0666667 24.5333333,50.9769333 24.5333333,53.3333333 C24.5333333,55.6897333 26.4436,57.6 28.8,57.6 L35.2,57.6 C37.5564,57.6 39.4666667,55.6897333 39.4666667,53.3333333 C39.4666667,50.9769333 37.5564,49.0666667 35.2,49.0666667 L33.0666667,49.0666667 L33.0666667,46.9333333 L50.1333333,46.9333333 C50.7224,46.9333333 51.2,46.4557333 51.2,45.8666667 L51.2,42.6666667 L56.5333333,42.6666667 C57.1224,42.6666667 57.6,42.1890667 57.6,41.6 L57.6,35.2 C57.6,34.6109333 57.1224,34.1333333 56.5333333,34.1333333 Z M19.2,27.7333333 L16.3093333,27.7333333 C15.2398667,27.7364 14.1853333,27.9845333 13.2266667,28.4586667 C11.7292,29.2081333 9.94853333,29.1192 8.53333333,28.224 L8.53333333,23.4666667 L19.2,23.4666667 L19.2,27.7333333 Z M28.8,14.9333333 C27.6217333,14.9333333 26.6666667,13.9782667 26.6666667,12.8 C26.6666667,11.6217333 27.6217333,10.6666667 28.8,10.6666667 L35.2,10.6666667 C36.3782667,10.6666667 37.3333333,11.6217333 37.3333333,12.8 C37.3333333,13.9782667 36.3782667,14.9333333 35.2,14.9333333 L28.8,14.9333333 Z M26.6666667,27.7333333 L26.6666667,23.4666667 L37.3333333,23.4666667 L37.3333333,27.7333333 L26.6666667,27.7333333 Z M35.2,51.2 C36.3782667,51.2 37.3333333,52.1550667 37.3333333,53.3333333 C37.3333333,54.5116 36.3782667,55.4666667 35.2,55.4666667 L28.8,55.4666667 C27.6217333,55.4666667 26.6666667,54.5116 26.6666667,53.3333333 C26.6666667,52.1550667 27.6217333,51.2 28.8,51.2 L35.2,51.2 Z M32,41.44 L26.6666667,38.4 L32,35.36 L37.3333333,38.4 L32,41.44 Z M49.0666667,44.8 L33.0666667,44.8 L33.0666667,43.2853333 L39.7546667,39.4666667 L42.6666667,39.4666667 L42.6666667,41.6 C42.6666667,42.1890667 43.1442667,42.6666667 43.7333333,42.6666667 L49.0666667,42.6666667 L49.0666667,44.8 Z M55.4666667,40.5333333 L44.8,40.5333333 L44.8,36.2666667 L55.4666667,36.2666667 L55.4666667,40.5333333 Z" id="Shape"></path>
                    <rect id="Rectangle" x="6.4" y="8.53333333" width="11.7333333" height="2.13333333"></rect>
                    <rect id="Rectangle" x="6.4" y="12.8" width="8.53333333" height="2.13333333"></rect>
                    <path d="M62.9333333,6.4 C63.5224,6.4 64,5.9224 64,5.33333333 L64,1.06666667 C64,0.4776 63.5224,0 62.9333333,0 L1.06666667,0 C0.4776,0 0,0.4776 0,1.06666667 L0,5.33333333 C0,5.9224 0.4776,6.4 1.06666667,6.4 L2.13333333,6.4 L2.13333333,61.8666667 L0,61.8666667 L0,64 L64,64 L64,61.8666667 L61.8666667,61.8666667 L61.8666667,6.4 L62.9333333,6.4 Z M59.7333333,61.8666667 L4.26666667,61.8666667 L4.26666667,6.4 L59.7333333,6.4 L59.7333333,61.8666667 Z M2.13333333,4.26666667 L2.13333333,2.13333333 L61.8666667,2.13333333 L61.8666667,4.26666667 L2.13333333,4.26666667 Z" id="Shape"></path>
                    <rect id="Rectangle" x="42.6666667" y="57.6" width="2.13333333" height="2.13333333"></rect>
                    <rect id="Rectangle" x="46.9333333" y="57.6" width="2.13333333" height="2.13333333"></rect>
                    <rect id="Rectangle" x="51.2" y="57.6" width="2.13333333" height="2.13333333"></rect>
                    <rect id="Rectangle" x="55.4666667" y="57.6" width="2.13333333" height="2.13333333"></rect>
                </g>
            </g>
        </g>
    </g>
</svg>