<?xml version="1.0" encoding="UTF-8"?>
<svg width="24px" height="24px" viewBox="0 0 24 24" version="1.1" xmlns="http://www.w3.org/2000/svg" xmlns:xlink="http://www.w3.org/1999/xlink">
    <!-- Generator: sketchtool 63.1 (101010) - https://sketch.com -->
    <title>29442852-C12F-40A4-80B6-A3D187D0CCF7</title>
    <desc>Created with sketchtool.</desc>
    <g id="Main&amp;About" stroke="none" stroke-width="1" fill="none" fill-rule="evenodd">
        <g id="Catsy-Cat-Studio-Langing-first-screen" transform="translate(-1423.000000, -2457.000000)" fill="#6FD3D3" fill-rule="nonzero">
            <g id="linkedin-hover" transform="translate(1423.000000, 2457.000000)">
                <path d="M5.58658065,7.72103226 L0.768541935,7.72103226 C0.554709677,7.72103226 0.381445161,7.89437419 0.381445161,8.10812903 L0.381445161,23.5864258 C0.381445161,23.8002581 0.554709677,23.9735226 0.768541935,23.9735226 L5.58658065,23.9735226 C5.8004129,23.9735226 5.97367742,23.8002581 5.97367742,23.5864258 L5.97367742,8.10812903 C5.97367742,7.89437419 5.8004129,7.72103226 5.58658065,7.72103226 Z" id="XMLID_802_"></path>
                <path d="M3.17930323,0.0264 C1.42621935,0.0264 1.33226763e-15,1.45107097 1.33226763e-15,3.20221935 C1.33226763e-15,4.95414194 1.42621935,6.37935484 3.17930323,6.37935484 C4.93099355,6.37935484 6.35605161,4.95406452 6.35605161,3.20221935 C6.35612903,1.45107097 4.93099355,0.0264 3.17930323,0.0264 Z" id="XMLID_803_"></path>
                <path d="M17.8416,7.33633548 C15.9065032,7.33633548 14.4760258,8.16820645 13.6083871,9.11341935 L13.6083871,8.10812903 C13.6083871,7.89437419 13.4351226,7.72103226 13.2212903,7.72103226 L8.60717419,7.72103226 C8.39334194,7.72103226 8.22007742,7.89437419 8.22007742,8.10812903 L8.22007742,23.5864258 C8.22007742,23.8002581 8.39334194,23.9736 8.60717419,23.9736 L13.4146839,23.9736 C13.6285161,23.9736 13.8017806,23.8002581 13.8017806,23.5864258 L13.8017806,15.9282581 C13.8017806,13.3476387 14.5027355,12.342271 16.3016516,12.342271 C18.2608258,12.342271 18.4165161,13.9539871 18.4165161,16.0610323 L18.4165161,23.5865032 C18.4165161,23.8003355 18.5897806,23.9736 18.8036129,23.9736 L23.6129032,23.9736 C23.8267355,23.9736 24,23.8003355 24,23.5865032 L24,15.0963871 C24,11.2590968 23.2683097,7.33633548 17.8416,7.33633548 Z" id="XMLID_804_"></path>
            </g>
        </g>
    </g>
</svg>