<?xml version="1.0" encoding="UTF-8"?>
<svg width="736px" height="158px" viewBox="0 0 736 158" version="1.1" xmlns="http://www.w3.org/2000/svg" xmlns:xlink="http://www.w3.org/1999/xlink">
    <!-- Generator: sketchtool 63.1 (101010) - https://sketch.com -->
    <title>E0A420BD-3337-42C2-9C06-D91260770E36</title>
    <desc>Created with sketchtool.</desc>
    <g id="Main&amp;About" stroke="none" stroke-width="1" fill="none" fill-rule="evenodd">
        <g id="CCS-logo-variations" transform="translate(-2341.000000, -812.000000)" fill-rule="nonzero">
            <g id="CCS-logo-white-centered" transform="translate(2340.980160, 812.329564)">
                <path d="M335.67984,114.110436 C331.966506,112.863769 328.58984,111.590436 325.54984,110.290436 C322.715478,109.111342 320.070386,107.520918 317.69984,105.570436 C315.527397,103.761957 313.773645,101.503233 312.55984,98.9504356 C311.239305,95.9935074 310.600224,92.7775956 310.68984,89.5404356 C310.466527,82.805248 313.532589,76.3821839 318.90984,72.3204356 C324.423173,68.0004356 332.14984,65.823769 342.08984,65.7904356 C345.477313,65.7612899 348.861619,66.0054147 352.20984,66.5204356 C354.971224,66.9134014 357.664014,67.6909445 360.20984,68.8304356 C362.257236,69.724943 364.060807,71.0964802 365.46984,72.8304356 C366.742464,74.473811 367.416252,76.5022326 367.37984,78.5804356 C367.444966,80.5624924 366.926885,82.5200727 365.88984,84.2104356 C364.910391,85.7454331 363.672023,87.0988405 362.22984,88.2104356 C359.8996,86.8348682 357.383935,85.8009872 354.75984,85.1404356 C351.423403,84.2338556 347.976971,83.7963202 344.51984,83.8404356 C340.71984,83.8404356 337.93984,84.3904356 336.17984,85.4504356 C334.41984,86.5104356 333.52984,87.8404356 333.53984,89.4504356 C333.52549,90.6947644 334.147807,91.8601945 335.18984,92.5404356 C336.708574,93.5326532 338.376336,94.2753814 340.12984,94.7404356 L346.83984,96.8704356 C354.766506,99.3704356 360.866506,102.573769 365.13984,106.480436 C369.413173,110.387102 371.55984,115.720436 371.57984,122.480436 C371.773686,129.305915 368.636922,135.799501 363.16984,139.890436 C357.52984,144.337102 349.233173,146.577102 338.27984,146.610436 C334.65588,146.648451 331.036443,146.343762 327.46984,145.700436 C324.45011,145.177659 321.514005,144.252769 318.73984,142.950436 C316.469928,141.915583 314.473446,140.364286 312.90984,138.420436 C311.519831,136.635727 310.776007,134.432457 310.79984,132.170436 C310.733849,129.894146 311.486005,127.669608 312.91984,125.900436 C314.211087,124.285265 315.795461,122.9282 317.58984,121.900436 C320.236704,123.902709 323.160619,125.509515 326.26984,126.670436 C329.838297,128.044137 333.636467,128.722987 337.45984,128.670436 C341.593173,128.670436 344.49984,128.030436 346.17984,126.750436 C347.69883,125.776166 348.638316,124.114286 348.68984,122.310436 C348.760549,120.761585 347.997719,119.293137 346.68984,118.460436 C344.898397,117.380917 342.98497,116.518196 340.98984,115.890436 L335.67984,114.110436 Z" id="Path" fill="#FFFFFF"></path>
                <path d="M378.31984,85.5204356 C377.614257,84.3294031 377.056796,83.0566452 376.65984,81.7304356 C376.142814,80.0937916 375.883053,78.3867904 375.88971,76.6704356 C375.88971,73.3904356 376.61984,71.0271023 378.07984,69.5804356 C379.626054,68.1197576 381.694252,67.3414809 383.81984,67.4204356 L438.94984,67.2304356 C440.52435,69.9116224 441.36263,72.9611674 441.37984,76.0704356 C441.37984,79.363769 440.64984,81.7271023 439.18984,83.1604356 C437.647086,84.6276877 435.577413,85.4101248 433.44984,85.3304356 L419.44984,85.3804356 L419.64984,143.790436 C418.213332,144.134637 416.757348,144.391772 415.28984,144.560436 C413.343463,144.816386 411.382946,144.949982 409.41984,144.960436 C407.70035,144.98461 405.9825,144.843967 404.28984,144.540436 C402.945004,144.301739 401.670571,143.765315 400.55984,142.970436 C399.510288,142.161705 398.71538,141.068273 398.26984,139.820436 C397.703249,138.10921 397.439298,136.312314 397.48984,134.510436 L397.32984,85.4504356 L378.31984,85.5204356 Z" id="Path" fill="#FFFFFF"></path>
                <path d="M520.15984,115.630436 C520.227293,119.895218 519.445445,124.130793 517.85984,128.090436 C516.374117,131.768343 514.07298,135.061056 511.12984,137.720436 C508.016245,140.488831 504.367651,142.588815 500.40984,143.890436 C491.108899,146.789966 481.150843,146.824809 471.82984,143.990436 C467.860538,142.714839 464.195021,140.638733 461.05984,137.890436 C458.103451,135.249626 455.782271,131.974677 454.26984,128.310436 C452.653977,124.360425 451.841488,120.128002 451.87984,115.860436 L451.71984,67.5604356 C452.64984,67.3904356 454.11984,67.1604356 456.13984,66.8504356 C458.066491,66.559403 460.011391,66.4056824 461.95984,66.3904356 C463.676518,66.3643712 465.391556,66.5084076 467.07984,66.8204356 C468.426486,67.0576129 469.7038,67.5903963 470.81984,68.3804356 C471.868897,69.1916388 472.660755,70.2891256 473.09984,71.5404356 C473.668035,73.2512807 473.932027,75.048461 473.87984,76.8504356 L474.00984,115.410436 C474.00984,119.450436 475.136506,122.607102 477.38984,124.880436 C482.310533,129.410452 489.890523,129.384299 494.77984,124.820436 C496.95984,122.540436 498.043173,119.373769 498.02984,115.320436 L497.86984,67.4104356 C498.79984,67.2404356 500.26984,67.0004356 502.28984,66.6904356 C504.217056,66.4043479 506.16161,66.2506546 508.10984,66.2304356 C509.826317,66.2100767 511.540802,66.3540667 513.22984,66.6604356 C514.576238,66.8938188 515.851816,67.4307243 516.95984,68.2304356 C518.016502,69.0322261 518.813094,70.1279757 519.24984,71.3804356 C519.816431,73.0916613 520.080382,74.8885577 520.02984,76.6904356 L520.15984,115.630436 Z" id="Path" fill="#FFFFFF"></path>
                <path d="M565.39984,145.820436 C563.95984,145.820436 562.31984,145.820436 560.46984,145.710436 C558.61984,145.600436 556.68984,145.460436 554.70984,145.220436 C552.72984,144.980436 550.70984,144.670436 548.76984,144.290436 C546.887014,143.949987 545.04169,143.427536 543.25984,142.730436 C538.593173,140.983769 536.25984,137.917102 536.25984,133.530436 L536.04984,74.4804356 C535.954503,72.9721033 536.473975,71.4894419 537.48984,70.3704356 C538.630095,69.2947848 539.996924,68.488356 541.48984,68.0104356 C545.223563,66.7969431 549.080559,66.0020665 552.98984,65.6404356 C557.02984,65.2404356 560.653173,65.0371023 563.85984,65.0304356 C569.908282,64.9405126 575.937768,65.7287246 581.75984,67.3704356 C586.830887,68.8094439 591.535923,71.3153869 595.55984,74.7204356 C599.499349,78.1429772 602.58179,82.4412703 604.55984,87.2704356 C606.80588,92.9795363 607.900223,99.0765923 607.77984,105.210436 C607.916732,111.231408 606.898361,117.22282 604.77984,122.860436 C602.905062,127.685997 599.957399,132.022002 596.15984,135.540436 C592.283034,139.037768 587.699393,141.660402 582.71984,143.230436 C577.116024,144.987907 571.272638,145.861716 565.39984,145.820436 Z M558.24984,127.380436 C559.17984,127.550436 560.31984,127.690436 561.66984,127.810436 C563.01984,127.930436 564.27984,127.990436 565.45984,127.990436 C568.147192,128.010494 570.818457,127.5743 573.35984,126.700436 C575.698553,125.88628 577.814769,124.537107 579.53984,122.760436 C581.370717,120.787265 582.737372,118.429785 583.53984,115.860436 C584.575628,112.566163 585.055526,109.122382 584.95984,105.670436 C584.95984,98.0904356 583.173173,92.3871023 579.59984,88.5604356 C576.026506,84.733769 571.29984,82.8304356 565.41984,82.8502797 C564.22984,82.8502797 563.02984,82.9004356 561.80984,82.9904356 C560.58984,83.0804356 559.34984,83.2104356 558.07984,83.3804356 L558.24984,127.380436 Z" id="Shape" fill="#FFFFFF"></path>
                <path d="M642.59984,143.020436 C641.164817,143.374043 639.708452,143.634586 638.23984,143.800436 C636.290138,144.056646 634.326278,144.190242 632.35984,144.200436 C630.643329,144.221719 628.928756,144.077721 627.23984,143.770436 C625.890639,143.536146 624.612002,142.999392 623.49984,142.200436 C622.449001,141.395165 621.656496,140.300258 621.21984,139.050436 C620.652449,137.3394 620.388477,135.542362 620.43984,133.740436 L620.20984,66.9904356 C621.13984,66.8204356 622.60984,66.5804356 624.62984,66.2804356 C626.556008,65.9852232 628.501211,65.8314787 630.44984,65.8204356 C632.166168,65.7916618 633.881146,65.9323436 635.56984,66.2404356 C636.919041,66.4747253 638.197678,67.0114792 639.30984,67.8104356 C640.360679,68.6157064 641.153183,69.7106136 641.58984,70.9604356 C642.156431,72.6716613 642.420382,74.4685577 642.36984,76.2704356 L642.59984,143.020436 Z" id="Path" fill="#FFFFFF"></path>
                <path d="M655.14984,105.050436 C655.007044,99.0908799 656.026004,93.1605359 658.14984,87.5904356 C661.821868,78.0082558 669.490378,70.5040704 679.14984,67.0404356 C689.335483,63.4637007 700.429457,63.4249475 710.63984,66.9304356 C715.367498,68.608696 719.700275,71.2396751 723.36984,74.6604356 C727.108316,78.2209943 730.034857,82.5459988 731.94984,87.3404356 C734.123792,92.8936614 735.193767,98.8175871 735.09984,104.780436 C735.223314,110.758092 734.205108,116.704413 732.09984,122.300436 C730.275878,127.123631 727.423066,131.491573 723.73984,135.100436 C720.102484,138.559884 715.783979,141.223189 711.05984,142.920436 C705.947547,144.742157 700.556937,145.659204 695.12984,145.630436 C689.70034,145.691104 684.303211,144.787068 679.18984,142.960436 C674.457455,141.267428 670.138775,138.588279 666.51984,135.100436 C662.860446,131.491335 660.004767,127.149885 658.13984,122.360436 C656.0477,116.834103 655.03277,110.958371 655.14984,105.050436 L655.14984,105.050436 Z M677.909504,104.970436 C677.909504,112.650436 679.48984,118.377102 682.64984,122.150436 C685.701861,125.904277 690.345899,127.998356 695.17984,127.800436 C700.055946,127.979195 704.732888,125.857352 707.80984,122.070436 C710.90984,118.263769 712.44984,112.527102 712.430032,104.860436 C712.40984,97.193769 710.84984,91.5071023 707.74984,87.8004356 C704.656506,84.0204356 700.456506,82.1404356 695.14984,82.1604356 C690.311588,82.006254 685.674302,84.0996785 682.58984,87.8304356 C679.443173,91.5904356 677.883173,97.303769 677.909504,104.970436 L677.909504,104.970436 Z" id="Shape" fill="#FFFFFF"></path>
                <path d="M116.17984,94.8004356 C110.41984,94.8004356 106.01984,96.5904356 102.96984,100.120436 C99.9198398,103.650436 98.3998398,108.620436 98.4198398,115.050436 C98.4398398,121.480436 100.15984,126.550436 103.56984,130.050436 C106.97984,133.550436 111.56984,135.290436 117.31984,135.270436 C119.971707,135.330301 122.612063,134.903235 125.10984,134.010436 C127.19983,133.198185 129.23712,132.256356 131.20984,131.190436 C132.466293,132.207719 133.489401,133.483194 134.20984,134.930436 C134.949795,136.527251 135.319006,138.270747 135.28984,140.030436 C135.28984,143.090436 133.596506,145.693769 130.20984,147.840436 C126.823173,149.987102 121.653173,151.070436 114.69984,151.090436 C109.910419,151.134858 105.143296,150.433116 100.56984,149.010436 C96.2935233,147.68432 92.3491494,145.461562 88.9998398,142.490436 C85.5845523,139.394074 82.9086454,135.569885 81.1698398,131.300436 C79.1232747,126.156931 78.1303163,120.654854 78.2498398,115.120436 C78.1305867,109.850811 79.0444502,104.608836 80.9398398,99.6904356 C82.618792,95.4467704 85.1666608,91.6011234 88.4198398,88.4004356 C91.5938928,85.3073143 95.387147,82.9216198 99.5498398,81.4004356 C103.926022,79.7882898 108.556219,78.9753803 113.21984,78.9998736 C120.086506,78.9998736 125.41984,80.103769 129.21984,82.3104356 C132.99984,84.5304356 134.88984,87.4104356 134.90984,90.9204356 C134.944995,92.6956155 134.439272,94.4394862 133.45984,95.9204356 C132.582811,97.2589579 131.443118,98.4054548 130.10984,99.2904356 C128.141083,98.0172946 126.054886,96.9356873 123.87984,96.0604356 C121.417761,95.1503947 118.803568,94.7226177 116.17984,94.8004356 L116.17984,94.8004356 Z" id="Path" fill="#FCBC04"></path>
                <path d="M179.06984,94.5904356 C173.323173,94.5904356 168.91984,96.3604356 165.85984,99.9004356 C162.79984,103.440436 161.283173,108.417102 161.30984,114.830436 C161.30984,121.330436 163.02984,126.330436 166.46984,129.830436 C169.90984,133.330436 174.493173,135.070436 180.21984,135.050436 C182.870615,135.106586 185.509711,134.683111 188.00984,133.800436 C190.100144,132.985103 192.137449,132.039928 194.10984,130.970436 C195.365207,131.992803 196.387977,133.271265 197.10984,134.720436 C197.851785,136.316588 198.221094,138.060547 198.18984,139.820436 C198.18984,142.880436 196.49984,145.480436 193.11984,147.620436 C189.73984,149.760436 184.566506,150.843769 177.59984,150.870436 C172.810083,150.919775 168.042201,150.217921 163.46984,148.790436 C159.192789,147.466023 155.248073,145.243071 151.89984,142.270436 C148.490121,139.173116 145.815035,135.353517 144.06984,131.090436 C142.032877,125.940699 141.040296,120.437312 141.14984,114.900436 C141.029616,109.629836 141.947021,104.387036 143.84984,99.4704356 C145.516881,95.2248787 148.054702,91.3755665 151.29984,88.1704356 C154.482413,85.0881538 158.273227,82.7039944 162.42984,81.1704356 C166.808814,79.568668 171.437129,78.7560889 176.09984,78.7702489 C182.97984,78.7702489 188.313173,79.873769 192.09984,82.0804356 C195.886506,84.2871023 197.783173,87.1571023 197.78984,90.6904356 C197.845411,92.4824011 197.34216,94.2472747 196.34984,95.7404356 C195.470013,97.0794449 194.330952,98.2287068 192.99984,99.1204356 C191.029923,97.8492915 188.943922,96.7677854 186.76984,95.8904356 C184.311626,94.9623707 181.696487,94.5208537 179.06984,94.5904356 L179.06984,94.5904356 Z" id="Path" fill="#FCBC04"></path>
                <path d="M221.07984,134.480436 L205.07984,127.860436 C204.893131,127.780495 204.678881,127.798724 204.508362,127.90906 C204.337843,128.019396 204.233423,128.207364 204.22963,128.410436 C204.224945,128.598705 204.305891,128.778994 204.44984,128.900436 C206.563954,131.087605 208.962022,132.981171 211.57984,134.530436 C214.070691,136.048151 216.667377,137.384926 219.34984,138.530436 C222.040371,139.666852 224.811261,140.602738 227.63984,141.330436 C230.495784,142.110652 233.439464,142.523977 236.39984,142.560436 L236.64984,142.560436 L236.64984,142.170436 L236.64984,142.170436 L236.72984,142.610436 C237.028684,142.622196 237.291979,142.415561 237.351587,142.122486 C237.411196,141.829411 237.249535,141.536344 236.96984,141.430436 L221.07984,134.480436 Z" id="Path" fill="#FFFFFF"></path>
                <path d="M212.59984,105.490436 C215.515828,105.20669 218.406973,104.708678 221.24984,104.000436 C224.078399,103.276834 226.849345,102.344272 229.53984,101.210436 C232.368573,100.082813 235.032524,98.5792946 237.45984,96.7404356 L237.18984,96.3904356 L237.50984,96.7104356 C237.704573,96.555633 237.793873,96.3032635 237.73984,96.0604356 C237.647353,95.7370958 237.317207,95.54341 236.98984,95.6204356 L220.14984,99.6904356 L203.38984,104.110436 C203.155967,104.176373 202.980863,104.370933 202.93984,104.610436 C202.914259,104.783041 202.962595,104.958436 203.072986,105.09357 C203.183377,105.228703 203.345601,105.311064 203.51984,105.320436 C205.137087,105.5774 206.772311,105.704473 208.40984,105.700529 C209.67984,105.700529 211.05984,105.630436 212.59984,105.490436 Z" id="Path" fill="#FFFFFF"></path>
                <path d="M240.09984,119.050436 L222.86984,117.230436 L205.59984,115.770436 C205.354628,115.737765 205.115073,115.861535 204.99984,116.080436 C204.921867,116.236345 204.910865,116.417314 204.969376,116.581521 C205.027886,116.745727 205.150846,116.878963 205.30984,116.950436 C207.990714,118.387304 210.848398,119.4665 213.80984,120.160436 C216.649894,120.868157 219.537433,121.369466 222.44984,121.660436 C224.19984,121.800436 226.16984,121.920436 228.20984,121.920436 C229.20984,121.920436 230.20984,121.920436 231.20984,121.820436 C234.265894,121.710858 237.293196,121.189489 240.20984,120.270436 L240.27984,120.270436 L240.27984,120.270436 C240.507833,120.191784 240.670915,119.989873 240.69984,119.750436 C240.722578,119.57608 240.670215,119.40027 240.555785,119.266768 C240.441355,119.133267 240.275622,119.054631 240.09984,119.050436 Z" id="Path" fill="#FFFFFF"></path>
                <path d="M54.2098398,134.480436 L70.2098398,127.860436 C70.3965486,127.780495 70.610799,127.798724 70.781318,127.90906 C70.9518371,128.019396 71.0562564,128.207364 71.0600497,128.410436 C71.0647348,128.598705 70.983789,128.778994 70.8398398,128.900436 C68.725726,131.087605 66.3276573,132.981171 63.7098398,134.530436 C61.2201153,136.050158 58.6232814,137.387009 55.9398398,138.530436 C53.2493084,139.666852 50.4784185,140.602738 47.6498398,141.330436 C44.7940279,142.111293 41.850265,142.524629 38.8898398,142.560436 L38.6398398,142.560436 L38.6398398,142.170436 L38.6398398,142.170436 L38.5598398,142.610436 C38.260996,142.622196 37.9977006,142.415561 37.9380922,142.122486 C37.8784838,141.829411 38.0401449,141.536344 38.3198398,141.430436 L54.2098398,134.480436 Z" id="Path" fill="#FFFFFF"></path>
                <path d="M62.7198398,105.490436 C59.8038518,105.20669 56.9127065,104.708678 54.0698398,104.000436 C51.2412805,103.276834 48.4703344,102.344272 45.7798398,101.210436 C42.9522051,100.08052 40.2885502,98.5771697 37.8598398,96.7404356 L38.1398398,96.3904356 L37.8198398,96.7104356 C37.5741803,96.5413868 37.4867516,96.2195074 37.6131293,95.949406 C37.739507,95.6793046 38.0426415,95.5401657 38.3298398,95.6204356 L55.1798398,99.6904356 L71.9298398,104.110436 C72.1664859,104.171862 72.343594,104.368649 72.3798398,104.610436 C72.405421,104.783041 72.3570841,104.958436 72.2466935,105.09357 C72.1363029,105.228703 71.9740789,105.311064 71.7998398,105.320436 C70.1859047,105.576996 68.5540357,105.704068 66.9198398,105.700511 C65.5998398,105.700511 64.2298398,105.630436 62.7198398,105.490436 Z" id="Path" fill="#FFFFFF"></path>
                <path d="M35.1898398,119.050436 L52.4198398,117.230436 L69.6798398,115.770436 C69.9250515,115.737765 70.1646067,115.861535 70.2798398,116.080436 C70.3578121,116.236345 70.3688143,116.417314 70.3103038,116.581521 C70.2517933,116.745727 70.1288334,116.878963 69.9698398,116.950436 C67.2896843,118.388886 64.4317871,119.468163 61.4698398,120.160436 C58.6297853,120.868157 55.742247,121.369466 52.8298398,121.660436 C51.0798398,121.800436 49.1098398,121.920436 47.0698398,121.920436 C46.0698398,121.920436 45.0698398,121.920436 44.0698398,121.820436 C41.013786,121.710858 37.9864839,121.189489 35.0698398,120.270436 L34.9998398,120.270436 L34.9998398,120.270436 C34.7718471,120.191784 34.608765,119.989873 34.5798398,119.750436 C34.5569256,119.574377 34.6105882,119.396942 34.7272305,119.26309 C34.8438728,119.129239 35.0123016,119.051814 35.1898398,119.050436 Z" id="Path" fill="#FFFFFF"></path>
                <path d="M285.82984,91.2304356 L285.21984,84.7804356 C284.92984,80.4504356 283.98984,76.1904356 283.27984,71.8804356 C281.45271,63.2763775 278.831483,54.8603317 275.44984,46.7404356 C271.945248,38.550082 267.641064,30.7255101 262.59984,23.3804356 C260.017509,19.6720283 257.222842,16.1160899 254.22984,12.7304356 C252.71984,11.0104356 251.15984,9.34043565 249.48984,7.73043565 C248.64984,6.91043565 247.81984,6.09043565 246.89984,5.27043565 C245.97984,4.45043565 245.22984,3.75043565 243.80984,2.63043565 C238.504949,-1.5275971 230.845937,-0.664233704 226.59984,4.57043565 L226.11984,5.16043565 L210.59984,24.3404356 C208.24984,27.2304356 205.95984,30.1604356 203.59984,33.0704356 C196.87119,28.5061986 189.677665,24.6680876 182.13984,21.6204356 C169.869701,16.6988694 156.738106,14.2847232 143.51984,14.5204356 L143.00984,14.5204356 L142.49984,14.5204356 C129.281574,14.2847232 116.149979,16.6988694 103.87984,21.6204356 C96.3420147,24.6680876 89.1484897,28.5061986 82.4198398,33.0704356 C80.0998398,30.1604356 77.8098398,27.2304356 75.4198398,24.3404356 L59.9798398,5.17043565 L59.4998398,4.58043565 C55.2537429,-0.654233704 47.5947305,-1.5175971 42.2898398,2.64043565 C40.8698398,3.75043565 40.1498398,4.42043565 39.1998398,5.28043565 C38.2498398,6.14043565 37.4498398,6.92043565 36.6098398,7.74043565 C34.9398398,9.39043565 33.3798398,11.0604356 31.8698398,12.7404356 C28.8768376,16.1260899 26.0821705,19.6820283 23.4998398,23.3904356 C18.458616,30.7355101 14.1544316,38.560082 10.6498398,46.7504356 C7.26819673,54.8703317 4.64697005,63.2863775 2.81983979,71.8904356 C2.10983979,76.2004356 1.16983979,80.4604356 0.879839795,84.7904356 L0.269839795,91.2404356 C0.109839795,93.4004356 0.109839795,95.6004356 0.0198397947,97.7704356 C-0.137403092,106.445415 0.640418367,115.112089 2.33983979,123.620436 C4.06560681,132.035903 6.74977264,140.225964 10.3398398,148.030436 C11.4898398,150.490436 12.7398398,152.900436 14.0698398,155.250436 C16.6698398,159.810436 23.5998398,156.730436 21.8398398,151.790436 C20.9998398,149.410436 20.2431731,147.010436 19.5698398,144.590436 C17.4600205,137.155093 16.2151223,129.50115 15.8598398,121.780436 C15.4293824,114.176095 15.7274066,106.548013 16.7498398,99.0004356 C18.9144427,84.0440172 23.5973755,69.5624278 30.5998398,56.1704356 C34.0327876,49.6566494 38.0990913,43.4969026 42.7398398,37.7804356 C44.3598398,35.7304356 46.0798398,33.7804356 47.8498398,31.9204356 L54.2398398,40.6704356 C59.0898398,47.3204356 64.0098398,53.9304356 68.9398398,60.5204356 L69.0298398,60.6304356 C71.2478594,63.5213243 74.5282345,65.4070691 78.1425823,65.8689546 C81.7569301,66.3308401 85.4061067,65.330638 88.2798398,63.0904356 L88.6098398,62.8304356 C96.3902193,56.6966264 105.003043,51.6999764 114.18984,47.9904356 C123.079035,44.5766133 132.527825,42.8537185 142.04984,42.9104356 L142.32984,42.9104356 L142.32984,43.0004356 L143.01984,42.9504356 L143.70984,43.0004356 L143.70984,42.9104356 L143.98984,42.9104356 C153.511855,42.8537185 162.960644,44.5766133 171.84984,47.9904356 C181.036636,51.6999764 189.64946,56.6966264 197.42984,62.8304356 L197.75984,63.0904356 C200.633817,65.3321822 204.284518,66.3323741 207.899762,65.868496 C211.515006,65.4046179 214.79493,63.5151459 217.00984,60.6204356 L217.09984,60.5204356 C222.02984,53.9304356 226.94984,47.3204356 231.79984,40.6704356 L238.18984,31.9204356 C239.95984,33.7904356 241.67984,35.7304356 243.29984,37.7804356 C247.951005,43.4955936 252.027387,49.6553853 255.46984,56.1704356 C262.472304,69.5624278 267.155237,84.0440172 269.31984,99.0004356 C270.342273,106.548013 270.640297,114.176095 270.20984,121.780436 C269.854557,129.50115 268.609659,137.155093 266.49984,144.590436 C265.833173,147.010436 265.076506,149.410436 264.22984,151.790436 C262.46984,156.730436 269.39984,159.790436 271.99984,155.250436 C273.32984,152.900436 274.57984,150.490436 275.72984,148.030436 C279.319907,140.225964 282.004073,132.035903 283.72984,123.620436 C285.429261,115.112089 286.207083,106.445415 286.04984,97.7704356 C285.98984,95.5904356 285.98984,93.3904356 285.82984,91.2304356 Z" id="Path" fill="#FFFFFF"></path>
            </g>
        </g>
    </g>
</svg>