<?xml version="1.0" encoding="UTF-8"?>
<svg width="16px" height="12px" viewBox="0 0 16 12" version="1.1" xmlns="http://www.w3.org/2000/svg" xmlns:xlink="http://www.w3.org/1999/xlink">
    <!-- Generator: sketchtool 63.1 (101010) - https://sketch.com -->
    <title>7122D82F-B172-4055-BBD9-C55F1B751B2E</title>
    <desc>Created with sketchtool.</desc>
    <g id="Main&amp;About" stroke="none" stroke-width="1" fill="none" fill-rule="evenodd">
        <g id="Catsy-Cat-Studio-Langing-first-screen" transform="translate(-1463.000000, -379.000000)" fill="#FFFFFF" fill-rule="nonzero">
            <g id="right-arrow" transform="translate(1463.000000, 379.000000)">
                <path d="M10.6025,0.525391304 C10.388,0.29373913 10.031,0.29373913 9.809,0.525391304 C9.5945,0.749217391 9.5945,1.12173913 9.809,1.34504348 L13.8325,5.54347826 L0.5555,5.54347826 C0.246,5.544 0,5.80069565 0,6.12365217 C0,6.4466087 0.246,6.71165217 0.5555,6.71165217 L13.8325,6.71165217 L9.809,10.9022609 C9.5945,11.133913 9.5945,11.5069565 9.809,11.7302609 C10.031,11.961913 10.3885,11.961913 10.6025,11.7302609 L15.5785,6.53791304 C15.8005,6.31408696 15.8005,5.94156522 15.5785,5.71826087 L10.6025,0.525391304 Z" id="Path"></path>
            </g>
        </g>
    </g>
</svg>