<?xml version="1.0" encoding="UTF-8"?>
<svg width="64px" height="64px" viewBox="0 0 64 64" version="1.1" xmlns="http://www.w3.org/2000/svg" xmlns:xlink="http://www.w3.org/1999/xlink">
    <!-- Generator: sketchtool 61.2 (101010) - https://sketch.com -->
    <title>9EE767CE-9F91-4A4A-BC15-EB351766EE3E</title>
    <desc>Created with sketchtool.</desc>
    <g id="Page-1" stroke="none" stroke-width="1" fill="none" fill-rule="evenodd">
        <g id="CCS-landing-tablet-Landscape" transform="translate(-538.000000, -1726.000000)" fill="#6FD3D3" fill-rule="nonzero">
            <g id="launch" transform="translate(538.000000, 1726.000000)">
                <g id="rocket-(1)">
                    <path d="M63.980875,0.942375 C63.96725,0.438 63.56125,0.031875 63.057,0.018375 C55.011125,-0.1995 46.991375,1.537875 39.801875,5.051 C39.32375,5.284625 39.13125,5.86625 39.37425,6.339625 L39.374375,6.339875 C39.610375,6.799625 40.170375,6.986 40.634875,6.759125 C41.94875,6.117375 43.29175,5.53775 44.657875,5.020375 C46.416375,7.82375 48.556875,10.4945 51.0305,12.96825 C53.506125,15.443875 56.17725,17.58425 58.97975,19.340875 C58.93125,19.468625 58.88525,19.596875 58.83575,19.72425 C56.425,25.916875 52.8,31.4595 48.061625,36.197875 C41.810125,42.449375 34.003625,46.831875 25.4565,48.894125 L15.105625,38.543125 C17.16775,29.995875 21.550375,22.189375 27.801875,15.938 C30.487,13.252875 33.46925,10.899375 36.67725,8.933125 C37.1185,8.662625 37.262875,8.08975 37.001125,7.64325 C36.732125,7.184375 36.138125,7.034625 35.68475,7.312625 C32.349375,9.357125 29.249,11.8035 26.45825,14.594375 C24.746875,16.30575 23.1715,18.13 21.738125,20.050125 C16.0025,17.182125 8.987375,18.28475 4.405,22.86725 C-1.252375,28.52475 -1.490125,37.605625 3.86425,43.541 C4.047375,43.74425 4.30525,43.85475 4.569875,43.85475 C4.719375,43.85475 4.871,43.819375 5.0125,43.7455 C5.298375,43.596375 5.48125,43.30275 5.517125,42.982375 C5.66925,41.6225 6.509375,40.338375 7.714375,39.627 C9.194,38.7535 11.115375,38.731625 13.291375,39.556875 C10.719375,41.37125 7.852625,44.293 6.813375,48.67675 C6.751125,48.939 6.79225,49.220875 6.943125,49.444 C7.182875,49.798875 7.616625,49.94425 8.009375,49.824625 L9.356125,49.4155 C8.44125,51.11025 7.2875,53.591875 6.804375,56.065875 C6.762625,56.28 6.78575,56.505375 6.886375,56.698875 C7.088125,57.087 7.509125,57.27775 7.914625,57.199125 C10.389625,56.71775 12.883625,55.55825 14.585125,54.640625 L14.184,55.960625 C14.103125,56.22675 14.125625,56.519375 14.270125,56.757125 C14.448875,57.05125 14.760625,57.216625 15.084125,57.216625 C15.156625,57.216625 15.2295,57.208375 15.301875,57.19125 C19.697375,56.156375 22.625625,53.2845 24.44275,50.7085 C25.268125,52.8845 25.246125,54.805875 24.37275,56.285375 C23.6605,57.49175 22.37425,58.3325 21.0125,58.483125 C20.719375,58.5155 20.4475,58.6715 20.2915,58.92175 C20.039875,59.325625 20.122875,59.8325 20.45875,60.135375 C23.32175,62.718 26.916125,63.9995 30.505625,63.9995 C34.35775,63.9995 38.204125,62.523125 41.1325,59.594625 C41.493375,59.233875 41.836625,58.854 42.159,58.459125 C42.508375,58.03125 42.4265,57.39775 41.97575,57.07825 L41.975625,57.07825 C41.56575,56.78775 41.004125,56.86925 40.686375,57.25825 C40.404625,57.603375 40.1045,57.93525 39.788875,58.25075 C35.278125,62.7615 28.275625,63.32775 23.1465,59.836 C24.322375,59.29575 25.331875,58.398125 26.009125,57.25125 C26.79275,55.924 27.44625,53.73575 26.423875,50.610625 C32.1495,49.1635 37.545375,46.71175 42.38425,43.383 C43.9395,46.67925 44.052625,50.477875 42.68975,53.86675 C42.502625,54.332 42.70375,54.862625 43.15525,55.080875 L43.15575,55.081125 C43.647625,55.31875 44.243,55.095625 44.447375,54.588875 C46.056875,50.59825 45.877875,46.1095 43.9515,42.26 C45.871125,40.827 47.694875,39.252 49.40575,37.541125 C54.331375,32.6155 58.1,26.852875 60.606875,20.413375 C63.027625,14.19425 64.163,7.643125 63.980875,0.942375 Z M6.74775,37.9905 C5.600625,38.66775 4.703125,39.67725 4.162875,40.853125 C0.671125,35.723875 1.2375,28.7215 5.74825,24.21075 C9.678875,20.28 15.65825,19.2785 20.616125,21.615375 C17.28725,26.45425 14.8355,31.850125 13.388375,37.575875 C10.263375,36.5535 8.075,37.207 6.74775,37.9905 Z M16.513625,54.828625 L17.111875,52.86 C17.228375,52.47625 17.0915,52.060625 16.769625,51.821375 C16.447625,51.582125 16.01025,51.57075 15.676375,51.792875 C15.64,51.817125 12.456,53.92 9.0395,54.959125 C10.0775,51.541 12.18175,48.36025 12.20575,48.324125 C12.428625,47.990375 12.417625,47.5525 12.1785,47.23025 C11.939375,46.907875 11.523125,46.771 11.139375,46.887375 L9.170875,47.485625 C10.38975,44.368625 12.70775,42.230625 14.741,40.8655 L23.13375,49.258375 C21.76875,51.291625 19.630875,53.6095 16.513625,54.828625 Z M59.636375,17.507125 C57.08325,15.869125 54.6445,13.894625 52.37425,11.6245 C50.106375,9.35675 48.1325,6.9195 46.49325,4.366625 C51.500375,2.700125 56.78425,1.8605 62.097625,1.90175 C62.14425,7.242375 61.3175,12.4775 59.636375,17.507125 Z" id="Shape"></path>
                    <path d="M48.448125,15.551125 C46.544875,13.64775 44.014125,12.599625 41.3225,12.599625 C38.630875,12.599625 36.100125,13.64775 34.19675,15.551125 C30.26775,19.48025 30.26775,25.873375 34.19675,29.8025 C36.100125,31.705875 38.630875,32.754 41.3225,32.754 C44.01425,32.754 46.544875,31.705875 48.448125,29.8025 C52.37725,25.87325 52.37725,19.48025 48.448125,15.551125 Z M47.1045,28.458875 C45.56025,30.00325 43.50675,30.853875 41.3225,30.853875 C39.13825,30.853875 37.084875,30.003375 35.540375,28.458875 C32.35225,25.270625 32.35225,20.083 35.540375,16.894875 C37.08475,15.3505 39.138125,14.499875 41.3225,14.499875 C43.506625,14.499875 45.560125,15.350375 47.1045,16.894875 C50.29275,20.083 50.29275,25.270625 47.1045,28.458875 Z" id="Shape"></path>
                    <path d="M46.340125,17.659 C43.573125,14.892125 39.071625,14.892125 36.304625,17.659 C33.538125,20.425875 33.538125,24.92775 36.30475,27.694375 C37.68825,29.07775 39.505375,29.769375 41.3225,29.769375 C43.139625,29.769375 44.95675,29.07775 46.34025,27.694375 C49.10675,24.92775 49.10675,20.425875 46.340125,17.659 Z M44.9965,26.350875 C42.970875,28.37675 39.674125,28.37675 37.6485,26.350875 C35.622625,24.325 35.622625,21.028625 37.6485,19.00275 C38.6615,17.98975 39.99175,17.483375 41.3225,17.483375 C42.652875,17.483375 43.983625,17.99 44.9965,19.00275 C47.022375,21.028625 47.022375,24.325 44.9965,26.350875 Z" id="Shape"></path>
                </g>
            </g>
        </g>
    </g>
</svg>