<?xml version="1.0" encoding="UTF-8"?>
<svg width="288px" height="171px" viewBox="0 0 288 171" version="1.1" xmlns="http://www.w3.org/2000/svg" xmlns:xlink="http://www.w3.org/1999/xlink">
    <!-- Generator: sketchtool 63.1 (101010) - https://sketch.com -->
    <title>48020463-21A5-43F5-BC0B-2AF14AA94C51</title>
    <desc>Created with sketchtool.</desc>
    <g id="Main&amp;About" stroke="none" stroke-width="1" fill="none" fill-rule="evenodd">
        <g id="CCS-landing-main-mobile" transform="translate(-15.000000, -106.000000)" fill-rule="nonzero" stroke="#FFFFFF">
            <path d="M24.9649662,137.740338 L24.9649662,125.839436 L39.642901,125.839436 L39.642901,119.691368 L24.9649662,119.691368 L24.9649662,113.148068 L41.6204671,113.148068 L41.6204671,107 L18.1972956,107 L18.1972956,137.740338 L24.9649662,137.740338 Z M53.7934849,137.740338 L53.7934849,127.90343 L59.0230486,127.90343 L65.7028273,137.740338 L73.6130916,137.740338 L66.0983405,126.761646 C70.4929318,125.122161 72.6902274,121.94566 72.6902274,117.232141 C72.6902274,114.245937 71.8113092,111.874539 70.0534726,110.117949 C67.9733661,108.039316 64.985044,107 61.0885065,107 L61.0885065,107 L47.0258144,107 L47.0258144,137.740338 L53.7934849,137.740338 Z M60.6490473,121.931021 L53.7934849,121.931021 L53.7934849,113.104153 L60.5172096,113.104153 C62.1871543,113.104153 63.490883,113.477428 64.4283958,114.223979 C65.3659086,114.970531 65.834665,116.061081 65.834665,117.49563 C65.834665,118.842349 65.3805573,119.918261 64.4723417,120.723365 C63.5641262,121.528469 62.2896947,121.931021 60.6490473,121.931021 L60.6490473,121.931021 Z M85.8740012,137.740338 L85.8740012,107 L79.1063307,107 L79.1063307,137.740338 L85.8740012,137.740338 Z M116.987707,137.740338 L116.987707,131.724015 L100.288261,131.724015 L100.288261,125.268544 L114.790412,125.268544 L114.790412,119.252221 L100.288261,119.252221 L100.288261,113.016323 L116.767978,113.016323 L116.767978,107 L93.564536,107 L93.564536,137.740338 L116.987707,137.740338 Z M129.688076,137.740338 L129.688076,118.198266 L144.585741,137.740338 L150.342655,137.740338 L150.342655,107 L143.662876,107 L143.662876,125.927265 L129.248617,107 L123.008297,107 L123.008297,137.740338 L129.688076,137.740338 Z M169.722803,137.740338 C174.498259,137.740338 178.416769,136.276513 181.478334,133.348861 C184.5399,130.42121 186.070682,126.761646 186.070682,122.370169 C186.070682,117.949416 184.547224,114.282533 181.500307,111.36952 C178.453391,108.456507 174.527556,107 169.722803,107 L169.722803,107 L157.725569,107 L157.725569,137.740338 L169.722803,137.740338 Z M169.722803,131.636185 L164.493239,131.636185 L164.493239,113.104153 L169.722803,113.104153 C172.476747,113.104153 174.710664,113.96781 176.424554,115.695124 C178.138445,117.422439 178.99539,119.647453 178.99539,122.370169 C178.99539,125.122161 178.145769,127.354495 176.446527,129.067171 C174.747285,130.779847 172.506044,131.636185 169.722803,131.636185 L169.722803,131.636185 Z M214.196066,137.740338 L214.196066,131.592271 L198.858943,131.592271 L198.858943,107 L192.091272,107 L192.091272,137.740338 L214.196066,137.740338 Z M234.718808,137.740338 L234.718808,125.488118 L246.540258,107 L238.849723,107 L231.378918,119.34005 L224.039951,107 L216.129687,107 L227.951137,125.619862 L227.951137,137.740338 L234.718808,137.740338 Z M271.018132,137.740338 L271.018132,107 L264.250461,107 L264.250461,137.740338 L271.018132,137.740338 Z M292.639521,137.740338 L292.639521,113.235897 L302,113.235897 L302,107 L276.511371,107 L276.511371,113.235897 L285.87185,113.235897 L285.87185,137.740338 L292.639521,137.740338 Z M32.611555,184.17821 C35.4533907,184.17821 37.8484429,183.753701 39.7967117,182.904682 C41.7449805,182.055663 43.5540873,180.73822 45.224032,178.952353 L45.224032,178.952353 L40.9173325,174.341302 C39.5696579,175.570916 38.2952264,176.478488 37.0940381,177.064018 C35.8928498,177.649548 34.471932,177.942313 32.8312846,177.942313 C30.2531244,177.942313 28.1217476,177.005465 26.4371543,175.131768 C24.752561,173.258071 23.9102643,170.974503 23.9102643,168.281064 C23.9102643,165.558348 24.752561,163.267461 26.4371543,161.408403 C28.1217476,159.549344 30.2531244,158.619815 32.8312846,158.619815 C34.471932,158.619815 35.8708769,158.890623 37.0281192,159.432238 C38.1853616,159.973854 39.4231715,160.84483 40.7415489,162.045167 L40.7415489,162.045167 L44.7845728,157.390201 C43.1439254,155.779993 41.4153862,154.54306 39.5989551,153.679403 C37.7825241,152.815746 35.5412825,152.383918 32.8752305,152.383918 C28.2169637,152.383918 24.3790207,153.920935 21.3614014,156.994968 C18.343782,160.069002 16.8349723,163.831034 16.8349723,168.281064 C16.8349723,172.76037 18.3364577,176.529721 21.3394284,179.589117 C24.3423991,182.648513 28.0997746,184.17821 32.611555,184.17821 Z M65.5709896,184.17821 C70.2585536,184.17821 74.1550912,182.641193 77.2606023,179.56716 C80.3954108,176.463849 81.962815,172.701817 81.962815,168.281064 C81.962815,163.831034 80.4173837,160.069002 77.3265212,156.994968 C74.2356587,153.920935 70.3464454,152.383918 65.6588814,152.383918 C60.9713174,152.383918 57.0674554,153.928254 53.9472956,157.016926 C50.8271358,160.105598 49.2670559,163.860311 49.2670559,168.281064 C49.2670559,172.731094 50.8124872,176.493126 53.9033497,179.56716 C56.9942123,182.641193 60.8834255,184.17821 65.5709896,184.17821 Z M65.6588814,177.942313 C62.9635321,177.942313 60.7369392,177.005465 58.9791026,175.131768 C57.2212661,173.258071 56.3423479,170.974503 56.3423479,168.281064 C56.3423479,165.558348 57.2066175,163.267461 58.9351567,161.408403 C60.663696,159.549344 62.8756402,158.619815 65.5709896,158.619815 C68.2663389,158.619815 70.4929318,159.556663 72.2507683,161.43036 C74.0086048,163.304057 74.887523,165.587625 74.887523,168.281064 C74.887523,171.00378 74.0232534,173.294667 72.2947142,175.153725 C70.566175,177.012784 68.3542307,177.942313 65.6588814,177.942313 Z M94.6192379,183.651233 L94.6192379,163.713928 L103.188691,176.7127 L103.364474,176.7127 L112.021819,163.582184 L112.021819,183.651233 L118.745544,183.651233 L118.745544,152.910895 L111.450522,152.910895 L103.364474,165.909666 L95.2784266,152.910895 L87.983405,152.910895 L87.983405,183.651233 L94.6192379,183.651233 Z M132.896128,183.651233 L132.896128,174.429132 L138.0378,174.429132 C141.641364,174.429132 144.615038,173.484964 146.95882,171.596629 C149.302602,169.708294 150.474493,167.05145 150.474493,163.626098 C150.474493,160.405682 149.419791,157.814711 147.310387,155.853184 C145.200983,153.891658 142.32985,152.910895 138.696988,152.910895 L138.696988,152.910895 L126.128457,152.910895 L126.128457,183.651233 L132.896128,183.651233 Z M138.257529,168.412808 L132.896128,168.412808 L132.896128,159.015048 L138.125691,159.015048 C139.854231,159.015048 141.201905,159.4176 142.168715,160.222704 C143.135526,161.027808 143.618931,162.176911 143.618931,163.670013 C143.618931,165.075286 143.14285,166.21707 142.190688,167.095365 C141.238527,167.973661 139.927474,168.412808 138.257529,168.412808 L138.257529,168.412808 Z M159.747081,183.651233 L162.559619,176.756614 L175.567609,176.756614 L178.380148,183.651233 L185.455439,183.651233 L172.271666,152.691321 L166.031346,152.691321 L152.847572,183.651233 L159.747081,183.651233 Z M173.150584,170.784206 L164.976644,170.784206 L169.063614,160.815553 L173.150584,170.784206 Z M196.881377,183.651233 L196.881377,164.109161 L211.779041,183.651233 L217.535956,183.651233 L217.535956,152.910895 L210.856177,152.910895 L210.856177,171.83816 L196.441918,152.910895 L190.201598,152.910895 L190.201598,183.651233 L196.881377,183.651233 Z M240.343884,183.651233 L240.343884,171.399013 L252.165335,152.910895 L244.4748,152.910895 L237.003995,165.250945 L229.665028,152.910895 L221.754763,152.910895 L233.576214,171.530757 L233.576214,183.651233 L240.343884,183.651233 Z M32.12815,229.562128 L32.12815,205.057687 L41.4886294,205.057687 L41.4886294,198.82179 L16,198.82179 L16,205.057687 L25.3604794,205.057687 L25.3604794,229.562128 L32.12815,229.562128 Z M53.4419176,229.562128 L53.4419176,217.222078 L65.9225569,217.222078 L65.9225569,229.562128 L72.6902274,229.562128 L72.6902274,198.82179 L65.9225569,198.82179 L65.9225569,210.986181 L53.4419176,210.986181 L53.4419176,198.82179 L46.6742471,198.82179 L46.6742471,229.562128 L53.4419176,229.562128 Z M84.3358943,229.562128 L87.1484327,222.667509 L100.156423,222.667509 L102.968961,229.562128 L110.044253,229.562128 L96.8604794,198.602216 L90.6201598,198.602216 L77.436386,229.562128 L84.3358943,229.562128 Z M97.7393977,216.695101 L89.5654579,216.695101 L93.6524278,206.726448 L97.7393977,216.695101 Z M128.721266,229.562128 L128.721266,205.057687 L138.081746,205.057687 L138.081746,198.82179 L112.593116,198.82179 L112.593116,205.057687 L121.953596,205.057687 L121.953596,229.562128 L128.721266,229.562128 Z M170.865396,230.089105 C173.707232,230.089105 176.102284,229.664596 178.050553,228.815577 C179.998822,227.966558 181.807929,226.649115 183.477873,224.863248 L183.477873,224.863248 L179.171174,220.252197 C177.823499,221.48181 176.549068,222.389382 175.34788,222.974913 C174.146691,223.560443 172.725773,223.853208 171.085126,223.853208 C168.506966,223.853208 166.375589,222.91636 164.690996,221.042663 C163.006402,219.168966 162.164106,216.885398 162.164106,214.191959 C162.164106,211.469243 163.006402,209.178356 164.690996,207.319297 C166.375589,205.460239 168.506966,204.53071 171.085126,204.53071 C172.725773,204.53071 174.124718,204.801517 175.281961,205.343133 C176.439203,205.884748 177.677013,206.755725 178.99539,207.956062 L178.99539,207.956062 L183.038414,203.301096 C181.397767,201.690888 179.669228,200.453955 177.852797,199.590298 C176.036365,198.726641 173.795124,198.294812 171.129072,198.294812 C166.470805,198.294812 162.632862,199.831829 159.615243,202.905863 C156.597623,205.979897 155.088814,209.741929 155.088814,214.191959 C155.088814,218.671265 156.590299,222.440616 159.59327,225.500012 C162.596241,228.559407 166.353616,230.089105 170.865396,230.089105 Z M193.145974,229.562128 L195.958513,222.667509 L208.966503,222.667509 L211.779041,229.562128 L218.854333,229.562128 L205.670559,198.602216 L199.43024,198.602216 L186.246466,229.562128 L193.145974,229.562128 Z M206.549478,216.695101 L198.375538,216.695101 L202.462508,206.726448 L206.549478,216.695101 Z M230.28027,229.562128 L230.28027,210.020056 L245.177935,229.562128 L250.934849,229.562128 L250.934849,198.82179 L244.255071,198.82179 L244.255071,217.749055 L229.840811,198.82179 L223.600492,198.82179 L223.600492,229.562128 L230.28027,229.562128 Z M24.9649662,275.473023 L24.9649662,263.132973 L37.4456054,263.132973 L37.4456054,275.473023 L44.213276,275.473023 L44.213276,244.732684 L37.4456054,244.732684 L37.4456054,256.897075 L24.9649662,256.897075 L24.9649662,244.732684 L18.1972956,244.732684 L18.1972956,275.473023 L24.9649662,275.473023 Z M75.0193608,275.473023 L75.0193608,269.456699 L58.319914,269.456699 L58.319914,263.001228 L72.8220652,263.001228 L72.8220652,256.984905 L58.319914,256.984905 L58.319914,250.749008 L74.7996312,250.749008 L74.7996312,244.732684 L51.5961893,244.732684 L51.5961893,275.473023 L75.0193608,275.473023 Z M103.144745,275.473023 L103.144745,269.324955 L87.8076214,269.324955 L87.8076214,244.732684 L81.0399508,244.732684 L81.0399508,275.473023 L103.144745,275.473023 Z M115.010141,275.473023 L115.010141,266.250921 L120.151813,266.250921 C123.755378,266.250921 126.729051,265.306754 129.072833,263.418419 C131.416615,261.530084 132.588506,258.87324 132.588506,255.447888 C132.588506,252.227472 131.533805,249.6365 129.424401,247.674974 C127.314997,245.713448 124.443864,244.732684 120.811002,244.732684 L120.811002,244.732684 L108.242471,244.732684 L108.242471,275.473023 L115.010141,275.473023 Z M120.371543,260.234598 L115.010141,260.234598 L115.010141,250.836837 L120.239705,250.836837 C121.968244,250.836837 123.315919,251.239389 124.282729,252.044494 C125.249539,252.849598 125.732944,253.998701 125.732944,255.491803 C125.732944,256.897075 125.256863,258.038859 124.304702,258.917155 C123.35254,259.79545 122.041487,260.234598 120.371543,260.234598 L120.371543,260.234598 Z M166.20713,275.473023 L166.20713,263.220802 L178.02858,244.732684 L170.338045,244.732684 L162.86724,257.072735 L155.528273,244.732684 L147.618009,244.732684 L159.439459,263.352547 L159.439459,275.473023 L166.20713,275.473023 Z M197.188998,276 C201.876562,276 205.7731,274.462983 208.878611,271.388949 C212.013419,268.285639 213.580824,264.523607 213.580824,260.102854 C213.580824,255.652824 212.035392,251.890792 208.94453,248.816758 C205.853667,245.742724 201.964454,244.205707 197.27689,244.205707 C192.589326,244.205707 188.685464,245.750043 185.565304,248.838715 C182.445144,251.927387 180.885065,255.6821 180.885065,260.102854 C180.885065,264.552884 182.430496,268.314915 185.521358,271.388949 C188.612221,274.462983 192.501434,276 197.188998,276 Z M197.27689,269.764103 C194.581541,269.764103 192.354948,268.827254 190.597111,266.953558 C188.839275,265.079861 187.960356,262.796293 187.960356,260.102854 C187.960356,257.380138 188.824626,255.089251 190.553165,253.230192 C192.281705,251.371134 194.493649,250.441604 197.188998,250.441604 C199.884347,250.441604 202.11094,251.378453 203.868777,253.25215 C205.626613,255.125846 206.505532,257.409414 206.505532,260.102854 C206.505532,262.825569 205.641262,265.116456 203.912723,266.975515 C202.184184,268.834574 199.972239,269.764103 197.27689,269.764103 Z M232.43362,275.956085 C236.652428,275.956085 239.955696,274.785025 242.343423,272.442904 C244.731151,270.100783 245.925015,266.646154 245.925015,262.079018 L245.925015,262.079018 L245.925015,244.732684 L239.157345,244.732684 L239.157345,262.342507 C239.157345,264.743181 238.578724,266.572963 237.421481,267.831853 C236.264239,269.090743 234.630916,269.720188 232.521512,269.720188 C230.412108,269.720188 228.778785,269.068786 227.621543,267.765981 C226.4643,266.463176 225.885679,264.58216 225.885679,262.122933 L225.885679,262.122933 L225.885679,244.732684 L219.118009,244.732684 L219.118009,262.298592 C219.118009,266.748622 220.2899,270.137378 222.633682,272.464861 C224.977464,274.792344 228.24411,275.956085 232.43362,275.956085 Z" id="FRIENDLYITCOMPANYTHATCANHELPYOU"></path>
        </g>
    </g>
</svg>