<?xml version="1.0" encoding="UTF-8"?>
<svg width="436px" height="142px" viewBox="0 0 436 142" version="1.1" xmlns="http://www.w3.org/2000/svg" xmlns:xlink="http://www.w3.org/1999/xlink">
    <!-- Generator: sketchtool 63.1 (101010) - https://sketch.com -->
    <title>04CD165D-5E7F-4A5B-9FF8-A19A54A5FC24</title>
    <desc>Created with sketchtool.</desc>
    <g id="Main&amp;About" stroke="none" stroke-width="1" fill="none" fill-rule="evenodd">
        <g id="Catsy-Cat-Studio-Langing-first-screen" transform="translate(-495.000000, -114.000000)" fill-rule="nonzero" stroke="#FFFFFF">
            <path d="M507.406744,150.020173 L507.406744,138.013256 L522.865648,138.013256 L522.865648,130.358847 L507.406744,130.358847 L507.406744,122.654409 L524.966859,122.654409 L524.966859,115 L497.501037,115 L497.501037,150.020173 L507.406744,150.020173 Z M539.525245,150.020173 L539.525245,140.714813 L544.928357,140.714813 L551.282017,150.020173 L561.888127,150.020173 L554.333775,139.013833 C556.535043,137.946551 558.227685,136.470701 559.4117,134.586282 C560.595716,132.701864 561.187723,130.492257 561.187723,127.957464 C561.187723,125.322613 560.554025,123.029625 559.286628,121.078501 C558.019232,119.127378 556.218194,117.626513 553.883516,116.575908 C551.548838,115.525303 548.797253,115 545.628761,115 L545.628761,115 L529.619539,115 L529.619539,150.020173 L539.525245,150.020173 Z M545.028415,133.060403 L539.525245,133.060403 L539.525245,122.804496 L545.028415,122.804496 C547.06292,122.804496 548.597137,123.254755 549.631066,124.155274 C550.664995,125.055793 551.18196,126.323189 551.18196,127.957464 C551.18196,129.591739 550.664995,130.850797 549.631066,131.73464 C548.597137,132.618482 547.06292,133.060403 545.028415,133.060403 L545.028415,133.060403 Z M576.546571,150.020173 L576.546571,115 L566.640865,115 L566.640865,150.020173 L576.546571,150.020173 Z M611.71683,150.020173 L611.71683,142.365764 L593.406282,142.365764 L593.406282,135.962075 L608.965245,135.962075 L608.965245,128.55781 L593.406282,128.55781 L593.406282,122.654409 L611.066455,122.654409 L611.066455,115 L583.600634,115 L583.600634,150.020173 L611.71683,150.020173 Z M626.925591,150.020173 L626.925591,131.359424 L642.384496,150.020173 L650.539193,150.020173 L650.539193,115 L640.833602,115 L640.833602,133.660749 L625.374697,115 L617.22,115 L617.22,150.020173 L626.925591,150.020173 Z M674.102767,150.020173 C677.938309,150.020173 681.340269,149.303093 684.308646,147.868934 C687.277022,146.434774 689.578348,144.400269 691.212622,141.765418 C692.846897,139.130567 693.664035,136.045456 693.664035,132.510086 C693.664035,128.974717 692.846897,125.889606 691.212622,123.254755 C689.578348,120.619904 687.277022,118.585399 684.308646,117.151239 C681.340269,115.71708 677.938309,115 674.102767,115 L674.102767,115 L657.543228,115 L657.543228,150.020173 L674.102767,150.020173 Z M673.702536,142.11562 L667.448934,142.11562 L667.448934,122.904553 L673.702536,122.904553 C676.704265,122.904553 679.113987,123.755043 680.9317,125.456023 C682.749414,127.157003 683.658271,129.508357 683.658271,132.510086 C683.658271,135.511816 682.749414,137.86317 680.9317,139.56415 C679.113987,141.26513 676.704265,142.11562 673.702536,142.11562 L673.702536,142.11562 Z M725.482363,150.020173 L725.482363,142.165648 L708.772738,142.165648 L708.772738,115 L698.867032,115 L698.867032,150.020173 L725.482363,150.020173 Z M748.145418,150.020173 L748.145418,137.462939 L761.553141,115 L751.947608,115 L743.642824,128.908012 L735.33804,115 L724.882017,115 L738.239712,137.312853 L738.239712,150.020173 L748.145418,150.020173 Z M788.518674,150.020173 L788.518674,115 L778.612968,115 L778.612968,150.020173 L788.518674,150.020173 Z M812.932738,150.020173 L812.932738,122.854524 L823.638905,122.854524 L823.638905,115 L792.270836,115 L792.270836,122.854524 L803.027032,122.854524 L803.027032,150.020173 L812.932738,150.020173 Z M514.961095,202.750548 C518.162939,202.750548 521.047935,202.183554 523.616081,201.049568 C526.184227,199.915581 528.31879,198.281306 530.019769,196.146744 L530.019769,196.146744 L523.716138,190.443458 C521.448165,193.178367 518.69658,194.545821 515.461383,194.545821 C513.560288,194.545821 511.867646,194.128915 510.383458,193.295101 C508.89927,192.461287 507.748607,191.28561 506.93147,189.768069 C506.114332,188.250528 505.705764,186.507858 505.705764,184.540058 C505.705764,182.572257 506.114332,180.829587 506.93147,179.312046 C507.748607,177.794505 508.89927,176.618828 510.383458,175.785014 C511.867646,174.951201 513.560288,174.534294 515.461383,174.534294 C518.69658,174.534294 521.448165,175.901748 523.716138,178.636657 L523.716138,178.636657 L530.019769,172.933372 C528.31879,170.798809 526.184227,169.164534 523.616081,168.030548 C521.047935,166.896561 518.162939,166.329568 514.961095,166.329568 C511.292315,166.329568 507.998751,167.105014 505.080403,168.655908 C502.162056,170.206801 499.869068,172.366378 498.201441,175.13464 C496.533814,177.902901 495.7,181.03804 495.7,184.540058 C495.7,188.042075 496.533814,191.177214 498.201441,193.945476 C499.869068,196.713737 502.162056,198.873314 505.080403,200.424207 C507.998751,201.975101 511.292315,202.750548 514.961095,202.750548 Z M552.082478,202.750548 C555.784611,202.750548 559.111527,201.966763 562.063228,200.399193 C565.014928,198.831623 567.33293,196.663708 569.017233,193.895447 C570.701537,191.127185 571.543689,188.008722 571.543689,184.540058 C571.543689,181.071393 570.701537,177.95293 569.017233,175.184669 C567.33293,172.416407 565.014928,170.248492 562.063228,168.680922 C559.111527,167.113353 555.784611,166.329568 552.082478,166.329568 C548.380346,166.329568 545.053429,167.113353 542.101729,168.680922 C539.150029,170.248492 536.832027,172.416407 535.147723,175.184669 C533.46342,177.95293 532.621268,181.071393 532.621268,184.540058 C532.621268,188.008722 533.46342,191.127185 535.147723,193.895447 C536.832027,196.663708 539.150029,198.831623 542.101729,200.399193 C545.053429,201.966763 548.380346,202.750548 552.082478,202.750548 Z M552.082478,194.545821 C550.314793,194.545821 548.713871,194.128915 547.279712,193.295101 C545.845552,192.461287 544.711566,191.28561 543.877752,189.768069 C543.043939,188.250528 542.627032,186.507858 542.627032,184.540058 C542.627032,182.572257 543.043939,180.829587 543.877752,179.312046 C544.711566,177.794505 545.845552,176.618828 547.279712,175.785014 C548.713871,174.951201 550.314793,174.534294 552.082478,174.534294 C553.850163,174.534294 555.451085,174.951201 556.885245,175.785014 C558.319404,176.618828 559.453391,177.794505 560.287205,179.312046 C561.121018,180.829587 561.537925,182.572257 561.537925,184.540058 C561.537925,186.507858 561.121018,188.250528 560.287205,189.768069 C559.453391,191.28561 558.319404,192.461287 556.885245,193.295101 C555.451085,194.128915 553.850163,194.545821 552.082478,194.545821 Z M585.90196,202.050144 L585.90196,183.989741 L594.857118,198.598156 L599.259654,198.598156 L608.264841,183.489452 L608.364899,202.050144 L617.470144,202.050144 L617.370086,167.029971 L609.215389,167.029971 L597.208473,187.241614 L584.901383,167.029971 L576.746686,167.029971 L576.746686,202.050144 L585.90196,202.050144 Z M634.379885,202.050144 L634.379885,192.89487 L640.483401,192.89487 C643.651892,192.89487 646.403477,192.369568 648.738156,191.318963 C651.072834,190.268357 652.873871,188.775831 654.141268,186.841383 C655.408665,184.906936 656.042363,182.622286 656.042363,179.987435 C656.042363,177.352584 655.408665,175.059597 654.141268,173.108473 C652.873871,171.157349 651.072834,169.656484 648.738156,168.605879 C646.403477,167.555274 643.651892,167.029971 640.483401,167.029971 L640.483401,167.029971 L624.474179,167.029971 L624.474179,202.050144 L634.379885,202.050144 Z M639.883055,185.090375 L634.379885,185.090375 L634.379885,174.834467 L639.883055,174.834467 C641.91756,174.834467 643.451777,175.284726 644.485706,176.185245 C645.519635,177.085764 646.036599,178.35316 646.036599,179.987435 C646.036599,181.62171 645.519635,182.880768 644.485706,183.764611 C643.451777,184.648453 641.91756,185.090375 639.883055,185.090375 L639.883055,185.090375 Z M667.248818,202.050144 L670.000403,195.246225 L684.808934,195.246225 L687.560519,202.050144 L697.866455,202.050144 L682.357522,167.029971 L672.601902,167.029971 L657.142997,202.050144 L667.248818,202.050144 Z M681.907262,187.942017 L672.902075,187.942017 L677.404669,176.735562 L681.907262,187.942017 Z M710.37366,202.050144 L710.37366,183.389395 L725.832565,202.050144 L733.987262,202.050144 L733.987262,167.029971 L724.281671,167.029971 L724.281671,185.69072 L708.822767,167.029971 L700.668069,167.029971 L700.668069,202.050144 L710.37366,202.050144 Z M759.752104,202.050144 L759.752104,189.492911 L773.159827,167.029971 L763.554294,167.029971 L755.24951,180.937983 L746.944726,167.029971 L736.488703,167.029971 L749.846398,189.342824 L749.846398,202.050144 L759.752104,202.050144 Z M807.579654,202.050144 L807.579654,174.884496 L818.285821,174.884496 L818.285821,167.029971 L786.917752,167.029971 L786.917752,174.884496 L797.673948,174.884496 L797.673948,202.050144 L807.579654,202.050144 Z M831.89366,202.050144 L831.89366,188.392277 L845.401441,188.392277 L845.401441,202.050144 L855.307147,202.050144 L855.307147,167.029971 L845.401441,167.029971 L845.401441,180.18755 L831.89366,180.18755 L831.89366,167.029971 L821.987954,167.029971 L821.987954,202.050144 L831.89366,202.050144 Z M868.214582,202.050144 L870.966167,195.246225 L885.774697,195.246225 L888.526282,202.050144 L898.832219,202.050144 L883.323285,167.029971 L873.567666,167.029971 L858.108761,202.050144 L868.214582,202.050144 Z M882.873026,187.942017 L873.867839,187.942017 L878.370432,176.735562 L882.873026,187.942017 Z M918.993833,202.050144 L918.993833,174.884496 L929.7,174.884496 L929.7,167.029971 L898.331931,167.029971 L898.331931,174.884496 L909.088127,174.884496 L909.088127,202.050144 L918.993833,202.050144 Z M514.961095,254.780519 C518.162939,254.780519 521.047935,254.213525 523.616081,253.079539 C526.184227,251.945552 528.31879,250.311278 530.019769,248.176715 L530.019769,248.176715 L523.716138,242.473429 C521.448165,245.208338 518.69658,246.575793 515.461383,246.575793 C513.560288,246.575793 511.867646,246.158886 510.383458,245.325072 C508.89927,244.491258 507.748607,243.315581 506.93147,241.79804 C506.114332,240.2805 505.705764,238.537829 505.705764,236.570029 C505.705764,234.602229 506.114332,232.859558 506.93147,231.342017 C507.748607,229.824476 508.89927,228.648799 510.383458,227.814986 C511.867646,226.981172 513.560288,226.564265 515.461383,226.564265 C518.69658,226.564265 521.448165,227.93172 523.716138,230.666628 L523.716138,230.666628 L530.019769,224.963343 C528.31879,222.82878 526.184227,221.194505 523.616081,220.060519 C521.047935,218.926532 518.162939,218.359539 514.961095,218.359539 C511.292315,218.359539 507.998751,219.134986 505.080403,220.685879 C502.162056,222.236772 499.869068,224.39635 498.201441,227.164611 C496.533814,229.932872 495.7,233.068012 495.7,236.570029 C495.7,240.072046 496.533814,243.207185 498.201441,245.975447 C499.869068,248.743708 502.162056,250.903285 505.080403,252.454179 C507.998751,254.005072 511.292315,254.780519 514.961095,254.780519 Z M540.325706,254.080115 L543.077291,247.276196 L557.885821,247.276196 L560.637406,254.080115 L570.943343,254.080115 L555.434409,219.059942 L545.67879,219.059942 L530.219885,254.080115 L540.325706,254.080115 Z M554.98415,239.971988 L545.978963,239.971988 L550.481556,228.765533 L554.98415,239.971988 Z M583.450548,254.080115 L583.450548,235.419366 L598.909452,254.080115 L607.06415,254.080115 L607.06415,219.059942 L597.358559,219.059942 L597.358559,237.720692 L581.899654,219.059942 L573.744957,219.059942 L573.744957,254.080115 L583.450548,254.080115 Z M638.532277,254.080115 L638.532277,240.422248 L652.040058,240.422248 L652.040058,254.080115 L661.945764,254.080115 L661.945764,219.059942 L652.040058,219.059942 L652.040058,232.217522 L638.532277,232.217522 L638.532277,219.059942 L628.626571,219.059942 L628.626571,254.080115 L638.532277,254.080115 Z M697.065994,254.080115 L697.065994,246.425706 L678.755447,246.425706 L678.755447,240.022017 L694.314409,240.022017 L694.314409,232.617752 L678.755447,232.617752 L678.755447,226.714352 L696.41562,226.714352 L696.41562,219.059942 L668.949798,219.059942 L668.949798,254.080115 L697.065994,254.080115 Z M729.184496,254.080115 L729.184496,246.225591 L712.47487,246.225591 L712.47487,219.059942 L702.569164,219.059942 L702.569164,254.080115 L729.184496,254.080115 Z M742.99245,254.080115 L742.99245,244.924841 L749.095965,244.924841 C752.264457,244.924841 755.016042,244.399539 757.35072,243.348934 C759.685399,242.298329 761.486436,240.805802 762.753833,238.871354 C764.02123,236.936907 764.654928,234.652257 764.654928,232.017406 C764.654928,229.382555 764.02123,227.089568 762.753833,225.138444 C761.486436,223.18732 759.685399,221.686455 757.35072,220.63585 C755.016042,219.585245 752.264457,219.059942 749.095965,219.059942 L749.095965,219.059942 L733.086744,219.059942 L733.086744,254.080115 L742.99245,254.080115 Z M748.49562,237.120346 L742.99245,237.120346 L742.99245,226.864438 L748.49562,226.864438 C750.530125,226.864438 752.064342,227.314697 753.098271,228.215216 C754.1322,229.115735 754.649164,230.383132 754.649164,232.017406 C754.649164,233.651681 754.1322,234.91074 753.098271,235.794582 C752.064342,236.678425 750.530125,237.120346 748.49562,237.120346 L748.49562,237.120346 Z M803.277176,254.080115 L803.277176,241.522882 L816.684899,219.059942 L807.079366,219.059942 L798.774582,232.967954 L790.469798,219.059942 L780.013775,219.059942 L793.37147,241.372795 L793.37147,254.080115 L803.277176,254.080115 Z M836.846513,254.780519 C840.548646,254.780519 843.875562,253.996734 846.827262,252.429164 C849.778963,250.861595 852.096964,248.693679 853.781268,245.925418 C855.465572,243.157157 856.307723,240.038694 856.307723,236.570029 C856.307723,233.101364 855.465572,229.982901 853.781268,227.21464 C852.096964,224.446378 849.778963,222.278463 846.827262,220.710893 C843.875562,219.143324 840.548646,218.359539 836.846513,218.359539 C833.14438,218.359539 829.817464,219.143324 826.865764,220.710893 C823.914063,222.278463 821.596061,224.446378 819.911758,227.21464 C818.227454,229.982901 817.385303,233.101364 817.385303,236.570029 C817.385303,240.038694 818.227454,243.157157 819.911758,245.925418 C821.596061,248.693679 823.914063,250.861595 826.865764,252.429164 C829.817464,253.996734 833.14438,254.780519 836.846513,254.780519 Z M836.846513,246.575793 C835.078828,246.575793 833.477906,246.158886 832.043746,245.325072 C830.609587,244.491258 829.4756,243.315581 828.641787,241.79804 C827.807973,240.2805 827.391066,238.537829 827.391066,236.570029 C827.391066,234.602229 827.807973,232.859558 828.641787,231.342017 C829.4756,229.824476 830.609587,228.648799 832.043746,227.814986 C833.477906,226.981172 835.078828,226.564265 836.846513,226.564265 C838.614198,226.564265 840.21512,226.981172 841.64928,227.814986 C843.083439,228.648799 844.217426,229.824476 845.051239,231.342017 C845.885053,232.859558 846.30196,234.602229 846.30196,236.570029 C846.30196,238.537829 845.885053,240.2805 845.051239,241.79804 C844.217426,243.315581 843.083439,244.491258 841.64928,245.325072 C840.21512,246.158886 838.614198,246.575793 836.846513,246.575793 Z M877.670029,254.780519 C882.873026,254.780519 886.917022,253.363036 889.802017,250.528069 C892.687012,247.693103 894.12951,243.674121 894.12951,238.471124 L894.12951,238.471124 L894.12951,219.059942 L884.37389,219.059942 L884.37389,238.170951 C884.37389,243.774179 882.172622,246.575793 877.770086,246.575793 C873.334198,246.575793 871.116254,243.774179 871.116254,238.170951 L871.116254,238.170951 L871.116254,219.059942 L861.210548,219.059942 L861.210548,238.471124 C861.210548,243.674121 862.653045,247.693103 865.53804,250.528069 C868.423036,253.363036 872.467032,254.780519 877.670029,254.780519 Z" id="FRIENDLYITCOMPANYTHATCANHELPYOU"></path>
        </g>
    </g>
</svg>