<?xml version="1.0" encoding="UTF-8"?>
<svg width="64px" height="69px" viewBox="0 0 64 69" version="1.1" xmlns="http://www.w3.org/2000/svg" xmlns:xlink="http://www.w3.org/1999/xlink">
    <!-- Generator: sketchtool 61.2 (101010) - https://sketch.com -->
    <title>D452F26C-EB52-4F84-B8C2-D8A8F2847F14</title>
    <desc>Created with sketchtool.</desc>
    <g id="Page-1" stroke="none" stroke-width="1" fill="none" fill-rule="evenodd">
        <g id="CCS-landing-tablet-Landscape" transform="translate(-538.000000, -1557.000000)" fill="#6FD3D3" fill-rule="nonzero">
            <g id="dev" transform="translate(538.000000, 1557.000000)">
                <g id="system" transform="translate(0.000000, 0.000000)">
                    <path d="M57.3991031,44.4843049 L2.29596413,44.4843049 L2.29596413,14.6367713 C2.29809932,12.7356175 3.83875648,11.1949603 5.73991031,11.1928251 L30.9955157,11.1928251 L30.9955157,8.89686099 L5.73991031,8.89686099 C2.5713206,8.90041965 0.00355866156,11.4681816 0,14.6367713 L0,50.2242152 C0.00355866156,53.392805 2.5713206,55.9605669 5.73991031,55.9641256 L20.0707444,55.9641256 L17.6107623,61.7040359 L12.6278027,61.7040359 C10.7257637,61.7040359 9.1838565,63.2459431 9.1838565,65.1479821 C9.1838565,67.050021 10.7257637,68.5919283 12.6278027,68.5919283 L47.0672646,68.5919283 C48.9693035,68.5919283 50.5112108,67.050021 50.5112108,65.1479821 C50.5112108,63.2459431 48.9693035,61.7040359 47.0672646,61.7040359 L42.0843049,61.7040359 L39.6243229,55.9641256 L53.955157,55.9641256 C57.1237467,55.9605669 59.6915086,53.392805 59.6950673,50.2242152 L59.6950673,30.7085202 L57.3991031,30.7085202 L57.3991031,44.4843049 Z M48.2152466,65.1479821 C48.2145349,65.7817 47.7009825,66.2952524 47.0672646,66.2959641 L12.6278027,66.2959641 C11.9937897,66.2959641 11.4798206,65.781995 11.4798206,65.1479821 C11.4798206,64.5139691 11.9937897,64 12.6278027,64 L47.0672646,64 C47.7009825,64.0007117 48.2145349,64.5142641 48.2152466,65.1479821 L48.2152466,65.1479821 Z M39.5864395,61.7040359 L20.1086278,61.7040359 L22.5686099,55.9641256 L37.1264574,55.9641256 L39.5864395,61.7040359 Z M53.955157,53.6681614 L5.73991031,53.6681614 C3.83875648,53.6660262 2.29809932,52.1253691 2.29596413,50.2242152 L2.29596413,46.7802691 L57.3991031,46.7802691 L57.3991031,50.2242152 C57.3969679,52.1253691 55.8563108,53.6660262 53.955157,53.6681614 L53.955157,53.6681614 Z" id="Shape"></path>
                    <polygon id="Path" points="28.6995516 49.0762332 30.9955157 49.0762332 30.9955157 51.3721973 28.6995516 51.3721973"></polygon>
                    <path d="M63.5782601,13.0844126 C63.947052,12.7681951 64.0768747,12.2540766 63.9024215,11.8006816 L62.5290045,8.22988341 C62.3546093,7.77655643 61.9137895,7.48204444 61.4282332,7.4944574 L58.303139,7.57409865 L56.930009,6.12893274 L57.1695067,3.01201794 C57.2066842,2.52766466 56.9349743,2.07234368 56.4910493,1.8750852 L52.994583,0.32129148 C52.5506916,0.123987593 52.0306658,0.227429575 51.6960717,0.579587444 L49.5427444,2.84570404 L47.549704,2.79490583 L45.5147623,0.421596413 C45.1985558,0.0529806488 44.6846021,-0.0767719675 44.2313184,0.0975784753 L40.6603767,1.47099552 C40.2070497,1.64539069 39.9125377,2.08621049 39.9249507,2.57176682 L40.0045919,5.69671749 L38.559426,7.07013453 L35.4425112,6.83049327 C34.9581929,6.79329226 34.5028823,7.06493851 34.3055785,7.50880717 L32.7517848,11.005417 C32.5545492,11.4492696 32.6579867,11.9692153 33.0100807,12.3037848 L35.2761973,14.4572556 L35.2252556,16.450296 L32.8522332,18.4850942 C32.4834413,18.8013116 32.3536186,19.3154301 32.5280717,19.7688251 L33.9014888,23.3396233 C34.0772429,23.7918617 34.5171892,24.0857902 35.0022601,24.0750493 L38.1273543,23.9954081 L39.5004843,25.440574 L39.2609865,28.5574888 C39.2238091,29.0418421 39.495519,29.497163 39.9394439,29.6944215 L43.4354798,31.2482152 C43.8793712,31.4455191 44.399397,31.3420772 44.733991,30.9899193 L46.8873184,28.7238027 L48.8803587,28.7746009 L50.9153004,31.1479103 C51.231507,31.5165261 51.7454607,31.6462787 52.1987444,31.4719283 L55.7696861,30.0985112 C56.2230131,29.924116 56.5175251,29.4832962 56.5051121,28.9977399 L56.4254709,25.8727892 L57.8706368,24.4993722 L60.9879821,24.7390135 C61.4723004,24.7762145 61.927611,24.5045682 62.1249148,24.0606996 L63.6787085,20.5646637 C63.875944,20.1208111 63.7725066,19.6008654 63.4204126,19.266296 L61.154296,17.1128251 L61.2052377,15.1197848 L63.5782601,13.0844126 Z M59.20287,18.4251121 L61.2515874,20.3720897 L60.355157,22.3873722 L57.537435,22.1712646 C57.2134833,22.146102 56.8940889,22.2597131 56.6587982,22.4838027 L54.4739013,24.5597848 C54.2386409,24.7834693 54.1089956,25.0962442 54.1170224,25.4207713 L54.1887713,28.2459552 L52.1301525,29.0377758 L50.2905112,26.8923408 C50.0790421,26.6457983 49.7730294,26.5003784 49.4483229,26.4921256 L46.43487,26.4152108 C46.4251121,26.4152108 46.4153543,26.4152108 46.4061704,26.4152108 C46.0915169,26.4151731 45.7906403,26.5442906 45.5738834,26.7723767 L43.6270493,28.8210942 L41.6126278,27.9246637 L41.8287354,25.1070852 C41.8536061,24.7831988 41.7400945,24.4639378 41.5163408,24.2284484 L39.4402152,22.0434081 C39.217147,21.8072677 38.9039401,21.6774957 38.5792287,21.6866726 L35.7540448,21.7584215 L34.9622242,19.6998027 L37.1075157,17.8603049 C37.3541117,17.648862 37.4995854,17.3428457 37.5078744,17.0181166 L37.5849327,14.0046637 C37.5930681,13.6801164 37.4634054,13.3672991 37.2280538,13.1436771 L35.1789058,11.1975605 L36.0753363,9.18213453 L38.8930583,9.39824215 C39.2169197,9.42272812 39.5360471,9.30921196 39.7716951,9.08570404 L41.9565919,7.00972197 C42.1918524,6.78603747 42.3214976,6.4732625 42.3134709,6.14873543 L42.241722,3.32355157 L44.3003408,2.53173094 L46.1399821,4.67716592 C46.3512972,4.9232922 46.6568802,5.06852494 46.9811659,5.07695067 L49.9946188,5.15386547 C50.319521,5.16408237 50.6331377,5.0341405 50.8556054,4.79713004 L52.8024395,2.74841256 L54.8178655,3.64484305 L54.6017578,6.46242152 C54.5768872,6.78630793 54.6903988,7.10556894 54.9141525,7.3410583 L56.990278,9.52609865 C57.2134735,9.76205426 57.5265939,9.8917905 57.8512646,9.88283408 L60.6764484,9.8110852 L61.4682691,11.869704 L59.3234081,13.7083408 C59.0768121,13.9197837 58.9313383,14.2258001 58.9230493,14.5505291 L58.845991,17.5639821 C58.8378147,17.8885789 58.9674808,18.2014563 59.20287,18.4251121 L59.20287,18.4251121 Z" id="Shape"></path>
                    <path d="M45.282009,8.15842152 C41.0701677,9.77841927 38.969052,14.506049 40.5890262,18.7178993 C42.2090004,22.9297496 46.9366184,25.0308918 51.1484778,23.4109411 C55.3603371,21.7909904 57.4615057,17.0633841 55.8415785,12.8515157 C54.2175311,8.64347373 49.493771,6.5440462 45.282009,8.15842152 L45.282009,8.15842152 Z M50.3246637,21.2680897 C48.1068609,22.1212697 45.593494,21.5544678 43.9565422,19.8319829 C42.3195903,18.109498 41.8814233,15.5705441 42.8463576,13.3990314 C43.811292,11.2275188 45.9893003,9.85108975 48.3647808,9.91157106 C50.7402613,9.97205238 52.8454035,11.4575333 53.698583,13.6753363 C54.8596448,16.703598 53.3503128,20.1002368 50.3246637,21.2680897 L50.3246637,21.2680897 Z" id="Shape"></path>
                    <path d="M11.1436054,21.8608789 L8.51128251,19.2286996 L11.1436054,16.5965202 L9.52007175,14.9729865 L6.07612556,18.4169327 C5.86082437,18.6322228 5.73986848,18.9242255 5.73986848,19.2286996 C5.73986848,19.5331736 5.86082437,19.8251763 6.07612556,20.0404664 L9.52007175,23.4844126 L11.1436054,21.8608789 Z" id="Path"></path>
                    <path d="M20.3274619,23.4844126 L23.7714081,20.0404664 C23.9867093,19.8251763 24.1076651,19.5331736 24.1076651,19.2286996 C24.1076651,18.9242255 23.9867093,18.6322228 23.7714081,18.4169327 L20.3274619,14.9729865 L18.7039283,16.5965202 L21.3362511,19.2286996 L18.7039283,21.8608789 L20.3274619,23.4844126 Z" id="Path"></path>
                    <polygon id="Path" transform="translate(14.930798, 19.241901) rotate(-75.935963) translate(-14.930798, -19.241901) " points="10.1976454 18.0939486 19.663951 18.0939486 19.663951 20.3898541 10.1976454 20.3898541"></polygon>
                    <polygon id="Path" points="5.73991031 26.1165919 8.03587444 26.1165919 8.03587444 28.4125561 5.73991031 28.4125561"></polygon>
                    <polygon id="Path" points="10.3318386 26.1165919 32.1434978 26.1165919 32.1434978 28.4125561 10.3318386 28.4125561"></polygon>
                    <polygon id="Path" points="5.73991031 30.7085202 8.03587444 30.7085202 8.03587444 33.0044843 5.73991031 33.0044843"></polygon>
                    <polygon id="Path" points="10.3318386 30.7085202 35.5874439 30.7085202 35.5874439 33.0044843 10.3318386 33.0044843"></polygon>
                    <polygon id="Path" points="5.73991031 35.3004484 8.03587444 35.3004484 8.03587444 37.5964126 5.73991031 37.5964126"></polygon>
                    <polygon id="Path" points="10.3318386 35.3004484 39.0313901 35.3004484 39.0313901 37.5964126 10.3318386 37.5964126"></polygon>
                    <polygon id="Path" points="5.73991031 39.8923767 8.03587444 39.8923767 8.03587444 42.1883408 5.73991031 42.1883408"></polygon>
                    <polygon id="Path" points="10.3318386 39.8923767 44.7713004 39.8923767 44.7713004 42.1883408 10.3318386 42.1883408"></polygon>
                    <polygon id="Path" points="47.0672646 39.8923767 49.3632287 39.8923767 49.3632287 42.1883408 47.0672646 42.1883408"></polygon>
                    <polygon id="Path" points="45.9192825 35.3004484 48.2152466 35.3004484 48.2152466 37.5964126 45.9192825 37.5964126"></polygon>
                    <polygon id="Path" points="41.3273543 35.3004484 43.6233184 35.3004484 43.6233184 37.5964126 41.3273543 37.5964126"></polygon>
                    <polygon id="Path" points="51.6591928 39.8923767 53.955157 39.8923767 53.955157 42.1883408 51.6591928 42.1883408"></polygon>
                </g>
            </g>
        </g>
    </g>
</svg>