<?xml version="1.0" encoding="UTF-8"?>
<svg width="64px" height="64px" viewBox="0 0 64 64" version="1.1" xmlns="http://www.w3.org/2000/svg" xmlns:xlink="http://www.w3.org/1999/xlink">
    <!-- Generator: sketchtool 61.2 (101010) - https://sketch.com -->
    <title>AFB5FE81-3E2A-4557-9390-EF768E3A0087</title>
    <desc>Created with sketchtool.</desc>
    <g id="Page-1" stroke="none" stroke-width="1" fill="none" fill-rule="evenodd">
        <g id="CCS-landing-tablet-Landscape" transform="translate(-28.000000, -1557.000000)" fill="#6FD3D3" fill-rule="nonzero">
            <g id="design" transform="translate(28.000000, 1557.000000)">
                <g id="web-design">
                    <path d="M7.11111111,5.49517149 C7.11111111,6.03051338 6.676978,6.46464646 6.14119221,6.46464646 C5.60585017,6.46464646 5.17171717,6.03051338 5.17171717,5.49517149 C5.17171717,4.95938561 5.60585017,4.52525253 6.14119221,4.52525253 C6.676978,4.52525253 7.11111111,4.95938561 7.11111111,5.49517149 Z" id="Path"></path>
                    <path d="M11.6363636,5.49517149 C11.6363636,6.03051338 11.2022306,6.46464646 10.6664447,6.46464646 C10.1311028,6.46464646 9.6969697,6.03051338 9.6969697,5.49517149 C9.6969697,4.95938561 10.1311028,4.52525253 10.6664447,4.52525253 C11.2022306,4.52525253 11.6363636,4.95938561 11.6363636,5.49517149 Z" id="Path"></path>
                    <path d="M16.1616162,5.49517149 C16.1616162,6.03051338 15.7274832,6.46464646 15.1921411,6.46464646 C14.6563552,6.46464646 14.2222222,6.03051338 14.2222222,5.49517149 C14.2222222,4.95938561 14.6563552,4.52525253 15.1921411,4.52525253 C15.7274832,4.52525253 16.1616162,4.95938561 16.1616162,5.49517149 Z" id="Path"></path>
                    <path d="M45.8989899,5.49517149 C45.8989899,6.03051338 45.4648568,6.46464646 44.929071,6.46464646 C44.393729,6.46464646 43.959596,6.03051338 43.959596,5.49517149 C43.959596,4.95938561 44.393729,4.52525253 44.929071,4.52525253 C45.4648568,4.52525253 45.8989899,4.95938561 45.8989899,5.49517149 L45.8989899,5.49517149 Z" id="Path"></path>
                    <path d="M25.9548901,63.9067094 C26.609623,63.9690149 27.2580136,63.9999613 27.9010375,63.9999613 C36.6325995,64.0170932 44.3708408,58.3502427 47.0351455,49.9895409 C47.3517787,49.0108061 47.1829726,47.9388584 46.5814184,47.1063204 C45.9798642,46.273292 45.0182556,45.7807357 43.9946865,45.7807357 L43.6970806,45.7807357 C41.9182755,45.8072277 40.1824037,46.3365786 38.6880317,47.3079545 C36.8980054,48.4005072 34.5815582,48.0036167 33.2525771,46.3768073 C32.4329411,45.3705991 32.1045989,44.0479579 32.3582958,42.7724137 C32.6885895,41.1004696 33.980004,39.7886214 35.638791,39.4393185 C36.6691904,39.2170795 37.7449625,39.3961462 38.6485136,39.9407055 C40.1580098,40.9189498 41.9075421,41.4566407 43.7024473,41.4939259 L43.9946865,41.4939259 C45.0187435,41.4934353 45.9808399,40.9994072 46.5819063,40.1653975 C47.1829726,39.3318785 47.350315,38.2589496 47.0322182,37.2797241 C44.8235921,30.3883511 39.1163891,25.2120946 32.0723989,23.7118584 C25.0284088,22.2111315 17.7243793,24.6165136 12.9270698,30.0154997 C9.0718536,34.3695209 7.238894,40.1653975 7.88484517,45.9588212 C8.94354151,55.4787964 16.4754103,62.9598632 25.9548901,63.9067094 L25.9548901,63.9067094 Z M14.5170658,31.4465622 C18.8055181,26.6186274 25.33626,24.4688449 31.6337962,25.8111098 C37.9313321,27.1533748 43.03259,31.7821285 45.0050829,37.9444788 C45.1114405,38.2702331 45.0563102,38.6278762 44.85628,38.9065335 C44.6562497,39.1847002 44.3362014,39.3495398 43.9946865,39.350521 L43.7014714,39.350521 C42.2875995,39.3132359 40.9127578,38.8785696 39.7316039,38.0965629 C37.9552382,37.039333 35.7788121,36.9161939 33.8951131,37.765412 C32.0119019,38.6151207 30.6560875,40.3312183 30.2599302,42.3681643 C29.8867031,44.2711781 30.3804361,46.2423845 31.6050113,47.7406583 C33.610192,50.1901939 37.1014507,50.7838125 39.7964917,49.1339451 C40.9566669,48.3666563 42.3105297,47.9467079 43.6995199,47.9241405 L43.9946865,47.9241405 C44.3347378,47.9251216 44.6542983,48.0899612 44.8538406,48.3671469 C45.0538707,48.6438418 45.1099768,49.0005035 45.0050829,49.3257673 C42.6852204,56.3231086 36.3808542,61.2099146 29.0607248,61.684319 C21.7410832,62.1587234 14.8649233,58.1260413 11.6712704,51.4858524 C8.47761761,44.8461543 9.60266544,36.9220811 14.5170658,31.4465622 L14.5170658,31.4465622 Z" id="Shape"></path>
                    <path d="M15.5151515,47.8383838 C17.6569567,47.8383838 19.3939394,46.1019084 19.3939394,43.959596 C19.3939394,41.8172835 17.6569567,40.0808081 15.5151515,40.0808081 C13.3728389,40.0808081 11.6363636,41.8172835 11.6363636,43.959596 C11.6363636,46.1019084 13.3728389,47.8383838 15.5151515,47.8383838 Z M15.5151515,42.2971858 C16.4328505,42.2971858 17.1770543,43.0413896 17.1770543,43.959596 C17.1770543,44.8778023 16.4328505,45.6220061 15.5151515,45.6220061 C14.5969451,45.6220061 13.8527413,44.8778023 13.8527413,43.959596 C13.8527413,43.0413896 14.5969451,42.2971858 15.5151515,42.2971858 Z" id="Shape"></path>
                    <path d="M17.2977342,50.2658533 C15.7829101,51.7811108 15.7829101,54.2376956 17.2977342,55.7524457 C18.8125582,57.2677033 21.26844,57.2677033 22.7832642,55.7524457 C24.2975809,54.2376956 24.2980881,51.7811108 22.7832642,50.2658533 C21.2674255,48.7531331 18.8135728,48.7531331 17.2977342,50.2658533 Z M21.2161872,54.1854278 C20.566832,54.8344615 19.5146736,54.8344615 18.8653183,54.1849204 C18.2164704,53.5358867 18.2164704,52.4829197 18.8653183,51.833886 C19.5146736,51.1843449 20.566832,51.1843449 21.2161872,51.8333786 C21.5281821,52.1449554 21.703711,52.568172 21.703711,53.0091496 C21.703711,53.4506345 21.5281821,53.8738511 21.2161872,54.1854278 L21.2161872,54.1854278 Z" id="Shape"></path>
                    <path d="M29.7376275,59.4747475 C31.8795728,59.4747475 33.6161616,57.7382721 33.6161616,55.5959596 C33.6161616,53.4536471 31.8795728,51.7171717 29.7376275,51.7171717 C27.5951748,51.7171717 25.8585859,53.4536471 25.8585859,55.5959596 C25.8585859,57.7382721 27.5951748,59.4747475 29.7376275,59.4747475 L29.7376275,59.4747475 Z M29.7376275,53.9335495 C30.6553865,53.9335495 31.399639,54.6777533 31.399639,55.5959596 C31.399639,56.5141659 30.6553865,57.2583697 29.7376275,57.2583697 C28.8193611,57.2583697 28.0751086,56.5141659 28.0751086,55.5959596 C28.0751086,55.1551191 28.2501373,54.7320339 28.562145,54.420554 C28.8736452,54.1085667 29.2967581,53.9335495 29.7376275,53.9335495 Z" id="Shape"></path>
                    <path d="M20.0416328,38.7878746 C21.892159,38.7873629 23.4844841,37.479569 23.8446468,35.6639776 C24.2048095,33.8488935 23.2323701,32.0322876 21.522358,31.3251251 C19.8123461,30.6179625 17.8405819,31.2170723 16.8138645,32.7566978 C15.7866398,34.2963234 15.9905629,36.3467902 17.2998306,37.6540768 C18.0267505,38.3815308 19.0133935,38.7893922 20.0416328,38.7878746 L20.0416328,38.7878746 Z M18.8667921,33.7357678 C19.5160995,33.0869437 20.5681805,33.0869437 21.2174879,33.7362751 C21.8662881,34.3856064 21.8662881,35.4377262 21.2174879,36.0870576 C20.5681805,36.7358817 19.5160995,36.736389 18.8667921,36.0870576 C18.5517764,35.7771033 18.3737242,35.353516 18.3732125,34.911159 C18.3722024,34.4693093 18.5487328,34.0447075 18.8622267,33.7337386 L18.8667921,33.7357678 Z" id="Shape"></path>
                    <path d="M29.7376275,35.5555556 C31.8795728,35.5555556 33.6161616,33.8185728 33.6161616,31.6767677 C33.6161616,29.5344551 31.8795728,27.7979798 29.7376275,27.7979798 C27.5951748,27.7979798 25.8585859,29.5344551 25.8585859,31.6767677 C25.8585859,33.8185728 27.5951748,35.5555556 29.7376275,35.5555556 L29.7376275,35.5555556 Z M29.7376275,30.0143575 C30.6553865,30.0143575 31.399639,30.7585612 31.399639,31.6767677 C31.399639,32.5944668 30.6553865,33.3391778 29.7376275,33.3391778 C28.8193611,33.3391778 28.0751086,32.5944668 28.0751086,31.6767677 C28.0751086,31.2359272 28.2501373,30.8128419 28.562145,30.5013621 C28.8736452,30.1893748 29.2967581,30.0143575 29.7376275,30.0143575 L29.7376275,30.0143575 Z" id="Shape"></path>
                    <path d="M3.9908579,44.4393044 C4.35906508,44.5345936 4.75016321,44.4256917 5.01706461,44.1548952 C5.283479,43.8840987 5.38478464,43.4917598 5.28299199,43.1256741 C5.18071219,42.7600746 4.89140671,42.4761515 4.52271265,42.3813485 C3.11320043,42.0181798 2.12790562,40.7492771 2.12790562,39.2961162 L2.12790562,10.6203748 L48.9428016,10.6203748 L48.9428016,39.2961162 C48.9428016,41.055564 47.5133205,42.4819855 45.7506998,42.4819855 C45.1628348,42.4819855 44.6865035,42.9574595 44.6865035,43.5442662 C44.6865035,44.1305867 45.1628348,44.6060606 45.7506998,44.6060606 C48.6871023,44.6026574 51.0668107,42.2272327 51.0707071,39.2961162 L51.0707071,5.31043054 C51.0668107,2.37882781 48.6871023,0.0034031934 45.7506998,0 L5.32000751,0 C2.38311791,0.0034031934 0.00340943911,2.37882781 0,5.31043054 L0,39.2961162 C0,41.7186993 1.64085926,43.8345094 3.9908579,44.4393044 Z M5.32000751,2.12407494 L45.7506998,2.12407494 C47.5133205,2.12407494 48.9428016,3.5504966 48.9428016,5.31043054 L48.9428016,8.49629988 L2.12790562,8.49629988 L2.12790562,5.31043054 C2.12790562,3.5504966 3.55689969,2.12407494 5.32000751,2.12407494 Z" id="Shape"></path>
                    <path d="M61.8103603,49.6574959 L61.8103603,42.8175478 L63.9584023,35.492729 C63.9664211,35.4434119 63.9704306,35.3936064 63.9704306,35.3433128 C63.9834612,35.296437 63.9934847,35.2485847 64,35.2007323 L64,10.3199817 C63.9919812,7.8892805 63.3334354,5.50252533 62.0895155,3.3950713 L60.8250474,1.20021356 C60.3138475,0.450690502 59.4518241,0 58.5286572,0 C57.6049891,0 56.7429656,0.450690502 56.2322669,1.20021356 L54.9632882,3.3950713 C53.7188673,5.50203707 53.0598203,7.8892805 53.0518014,10.3199817 L53.0518014,35.2007323 C53.0583167,35.2485847 53.0678391,35.296437 53.0813709,35.3433128 C53.0813709,35.3936064 53.0853803,35.4434119 53.0933991,35.492729 L55.2414411,42.8175478 L55.2414411,49.8576943 C54.8635541,50.0827954 54.5232554,50.3616083 54.2305684,50.6853436 C53.167072,52.0252078 52.7711427,53.7571678 53.1515355,55.4100252 C53.9985236,61.1112839 62.0599461,63.8369115 62.4017485,63.9433584 C62.5150143,63.9804685 62.6332919,64 62.7530731,64 C63.1595272,64 63.5329036,63.7807583 63.7223483,63.4301671 C63.911793,63.080064 63.8862329,62.6562295 63.6561929,62.3295643 C62.835266,61.1635308 61.446005,58.3744258 62.3982402,57.1913024 C63.9508848,55.2625619 65.2820093,52.9339132 61.8103603,49.6574959 L61.8103603,49.6574959 Z M55.5982787,36.2671549 L61.4535227,36.2671549 L59.8898523,41.6007324 L57.161448,41.6007324 L55.5982787,36.2671549 Z M55.2414411,10.3199817 C55.2509635,8.25549709 55.8127822,6.22909892 56.8717679,4.4404975 L58.1382408,2.24515151 C58.3737937,2.0957351 58.6780077,2.0957351 58.9135607,2.24515151 L60.1810358,4.4404975 C61.2390192,6.2295873 61.8008379,8.25549709 61.8103603,10.3199817 L61.8103603,34.1338216 L55.2414411,34.1338216 L55.2414411,10.3199817 Z M57.4310808,49.0676432 L57.4310808,43.7340658 L59.6207206,43.7340658 L59.6207206,49.0676432 L57.4310808,49.0676432 Z M60.6751958,55.8758525 C59.5420358,57.2831005 59.7991393,59.152758 60.3674734,60.6977035 C58.2795724,59.5697565 55.7010199,57.6795911 55.3171188,55.1004501 C55.0534999,54.0657663 55.2564764,52.9710231 55.8754293,52.0916151 C56.4061751,51.5540092 57.1283703,51.2351567 57.8931655,51.2009765 L60.3018193,51.2009765 C62.6488284,53.4065766 61.8203838,54.4529793 60.6751958,55.8758525 L60.6751958,55.8758525 Z" id="Shape"></path>
                    <path d="M58.5048285,16.1616162 C57.9694866,16.1616162 57.5353535,16.6291358 57.5353535,17.2061258 L57.5353535,28.6928641 C57.5353535,29.269854 57.9694866,29.7373737 58.5048285,29.7373737 C59.0406144,29.7373737 59.4747475,29.269854 59.4747475,28.6928641 L59.4747475,17.2061258 C59.4747475,16.6291358 59.0406144,16.1616162 58.5048285,16.1616162 Z" id="Path"></path>
                    <path d="M58.5048285,10.3434343 C57.9694866,10.3434343 57.5353535,10.8257676 57.5353535,11.4210399 L57.5353535,12.4981522 C57.5353535,13.0934243 57.9694866,13.5757576 58.5048285,13.5757576 C59.0406144,13.5757576 59.4747475,13.0934243 59.4747475,12.4981522 L59.4747475,11.4210399 C59.4747475,10.8257676 59.0406144,10.3434343 58.5048285,10.3434343 Z" id="Path"></path>
                    <path d="M43.9917484,25.673951 C43.4023974,25.673951 42.9248619,26.1494146 42.9248619,26.7357223 C42.9248619,27.3225162 43.4023974,27.7979798 43.9917484,27.7979798 L45.0581465,27.7979798 C46.2363601,27.7979798 47.1919192,26.8470527 47.1919192,25.673951 L47.1919192,15.0533216 C47.1919192,13.8802198 46.2363601,12.9292929 45.0581465,12.9292929 L6.65853712,12.9292929 C5.48032349,12.9292929 4.52525253,13.8802198 4.52525253,15.0533216 L4.52525253,25.673951 C4.52525253,26.8470527 5.48032349,27.7979798 6.65853712,27.7979798 L11.9919925,27.7979798 C12.5808552,27.7979798 13.0583907,27.3225162 13.0583907,26.7357223 C13.0583907,26.1494146 12.5808552,25.673951 11.9919925,25.673951 L6.65853712,25.673951 L6.65853712,15.0533216 L45.0581465,15.0533216 L45.0581465,25.673951 L43.9917484,25.673951 Z" id="Path"></path>
                </g>
            </g>
        </g>
    </g>
</svg>