<?xml version="1.0" encoding="UTF-8"?>
<svg width="368px" height="38px" viewBox="0 0 368 38" version="1.1" xmlns="http://www.w3.org/2000/svg" xmlns:xlink="http://www.w3.org/1999/xlink">
    <!-- Generator: sketchtool 63.1 (101010) - https://sketch.com -->
    <title>BED9A996-7C62-43CE-848B-821D1E76CAE5</title>
    <desc>Created with sketchtool.</desc>
    <g id="Main&amp;About" stroke="none" stroke-width="1" fill="none" fill-rule="evenodd">
        <g id="CCS-Langing-Who-we-are-Desktop" transform="translate(-493.000000, -185.000000)" fill-rule="nonzero" stroke="#FFFFFF">
            <path d="M514.152753,221.403315 L522.103839,197.834254 L529.804891,221.403315 L538.50608,221.403315 L549.957644,186.596685 L542.206586,186.596685 L534.055472,211.259669 L526.054379,186.596685 L518.553354,186.596685 L510.302227,211.060773 L502.401148,186.596685 L494,186.596685 L505.501571,221.403315 L514.152753,221.403315 Z M563.309469,221.403315 L563.309469,207.132597 L579.211641,207.132597 L579.211641,221.403315 L587.312748,221.403315 L587.312748,186.596685 L579.211641,186.596685 L579.211641,200.320442 L563.309469,200.320442 L563.309469,186.596685 L555.208362,186.596685 L555.208362,221.403315 L563.309469,221.403315 Z M612.566198,222 C616.200027,222 619.46714,221.220994 622.367537,219.662983 C625.267933,218.104972 627.551578,215.958564 629.218472,213.223757 C630.885367,210.48895 631.718814,207.414365 631.718814,204 C631.718814,200.585635 630.885367,197.51105 629.218472,194.776243 C627.551578,192.041436 625.267933,189.895028 622.367537,188.337017 C619.46714,186.779006 616.200027,186 612.566198,186 C608.932368,186 605.65692,186.779006 602.739855,188.337017 C599.82279,189.895028 597.539145,192.041436 595.888919,194.776243 C594.238694,197.51105 593.413581,200.585635 593.413581,204 C593.413581,207.414365 594.238694,210.48895 595.888919,213.223757 C597.539145,215.958564 599.82279,218.104972 602.739855,219.662983 C605.65692,221.220994 608.932368,222 612.566198,222 Z M612.566198,215.138122 C610.499249,215.138122 608.632327,214.665746 606.965432,213.720994 C605.298538,212.776243 603.990026,211.458564 603.039896,209.767956 C602.089766,208.077348 601.614701,206.154696 601.614701,204 C601.614701,201.845304 602.089766,199.922652 603.039896,198.232044 C603.990026,196.541436 605.298538,195.223757 606.965432,194.279006 C608.632327,193.334254 610.499249,192.861878 612.566198,192.861878 C614.633147,192.861878 616.500068,193.334254 618.166963,194.279006 C619.833857,195.223757 621.142369,196.541436 622.092499,198.232044 C623.042629,199.922652 623.517694,201.845304 623.517694,204 C623.517694,206.154696 623.042629,208.077348 622.092499,209.767956 C621.142369,211.458564 619.833857,212.776243 618.166963,213.720994 C616.500068,214.665746 614.633147,215.138122 612.566198,215.138122 Z M669.073917,221.403315 L677.025003,197.834254 L684.726055,221.403315 L693.427244,221.403315 L704.878809,186.596685 L697.12775,186.596685 L688.976636,211.259669 L680.975543,186.596685 L673.474518,186.596685 L665.223391,211.060773 L657.322312,186.596685 L648.921164,186.596685 L660.422735,221.403315 L669.073917,221.403315 Z M737.233229,221.403315 L737.233229,214.939227 L718.180626,214.939227 L718.180626,206.883978 L734.432846,206.883978 L734.432846,200.618785 L718.180626,200.618785 L718.180626,193.060773 L736.58314,193.060773 L736.58314,186.596685 L710.129526,186.596685 L710.129526,221.403315 L737.233229,221.403315 Z M761.536549,221.403315 L764.636972,213.944751 L780.889193,213.944751 L783.989616,221.403315 L792.490777,221.403315 L776.838639,186.596685 L768.837546,186.596685 L753.235415,221.403315 L761.536549,221.403315 Z M778.338844,207.828729 L767.237328,207.828729 L772.788086,194.502762 L778.338844,207.828729 Z M804.242383,221.403315 L804.242383,211.707182 L811.693401,211.707182 L818.444323,221.403315 L827.145512,221.403315 L819.294439,210.21547 C821.594753,209.220994 823.369996,207.787293 824.620167,205.914365 C825.870337,204.041436 826.495423,201.812155 826.495423,199.226519 C826.495423,196.640884 825.878672,194.403315 824.64517,192.513812 C823.411668,190.624309 821.653095,189.165746 819.369449,188.138122 C817.085804,187.110497 814.39377,186.596685 811.293346,186.596685 L811.293346,186.596685 L796.141276,186.596685 L796.141276,221.403315 L804.242383,221.403315 Z M810.843285,205.292818 L804.242383,205.292818 L804.242383,193.160221 L810.843285,193.160221 C813.27695,193.160221 815.127203,193.68232 816.394043,194.726519 C817.660883,195.770718 818.294303,197.270718 818.294303,199.226519 C818.294303,201.149171 817.660883,202.640884 816.394043,203.701657 C815.127203,204.762431 813.27695,205.292818 810.843285,205.292818 L810.843285,205.292818 Z M860,221.403315 L860,214.939227 L840.947397,214.939227 L840.947397,206.883978 L857.199617,206.883978 L857.199617,200.618785 L840.947397,200.618785 L840.947397,193.060773 L859.349911,193.060773 L859.349911,186.596685 L832.896297,186.596685 L832.896297,221.403315 L860,221.403315 Z" id="WHOWEARE"></path>
        </g>
    </g>
</svg>