<svg width="56" height="55" viewBox="0 0 56 55" fill="none" xmlns="http://www.w3.org/2000/svg">
<path fill-rule="evenodd" clip-rule="evenodd" d="M20.99 27.3303C20.99 25.9613 21.396 24.6228 22.1569 23.4846C22.9177 22.3464 23.999 21.4595 25.264 20.936C26.5291 20.4126 27.9211 20.2761 29.2637 20.5439C30.6063 20.8118 31.8393 21.4719 32.8066 22.4407C33.774 23.4095 34.4324 24.6433 34.6982 25.9863C34.9641 27.3293 34.8256 28.7211 34.3003 29.9854C33.775 31.2496 32.8865 32.3297 31.7472 33.0889C30.6079 33.848 29.269 34.2522 27.8999 34.2502C26.0672 34.245 24.3111 33.5139 23.0161 32.217C21.7211 30.9201 20.9926 29.1631 20.99 27.3303ZM34.99 13.8003H20.8199C19.1242 13.8056 17.4994 14.4816 16.3003 15.6807C15.1012 16.8798 14.4252 18.5044 14.4199 20.2002V34.4702C14.4278 36.1652 15.1047 37.7885 16.3032 38.9871C17.5017 40.1856 19.125 40.8622 20.8199 40.8701H35.09C36.7865 40.8675 38.4129 40.1923 39.6125 38.9927C40.8122 37.793 41.4873 36.1668 41.49 34.4702V20.2302C41.4873 18.5337 40.8122 16.9074 39.6125 15.7078C38.4129 14.5081 36.7865 13.833 35.09 13.8303L34.99 13.8003ZM20.72 15.4001H34.99C36.263 15.4001 37.4839 15.906 38.384 16.8062C39.2842 17.7063 39.7899 18.9272 39.7899 20.2002V34.4702C39.7899 35.7433 39.2842 36.9641 38.384 37.8643C37.4839 38.7644 36.263 39.2703 34.99 39.2703H20.8199C19.5469 39.2703 18.326 38.7644 17.4258 37.8643C16.5256 36.9641 16.0199 35.7433 16.0199 34.4702V20.2302C16.0199 18.9572 16.5256 17.7364 17.4258 16.8362C18.326 15.936 19.5469 15.4302 20.8199 15.4302L20.72 15.4001ZM36.4099 17.4001C36.1306 17.4002 35.8577 17.4833 35.6256 17.6387C35.3935 17.7941 35.2127 18.0147 35.1063 18.2729C34.9999 18.5312 34.9726 18.8153 35.0278 19.0891C35.0831 19.3629 35.2183 19.614 35.4165 19.8108C35.6147 20.0076 35.8668 20.1411 36.141 20.1943C36.4152 20.2476 36.6991 20.2184 36.9565 20.1101C37.214 20.0019 37.4334 19.8194 37.5872 19.5862C37.7409 19.353 37.8219 19.0796 37.8199 18.8003C37.82 18.6156 37.7834 18.4327 37.7124 18.2622C37.6414 18.0917 37.5374 17.9368 37.4064 17.8066C37.2753 17.6765 37.1197 17.5737 36.9487 17.5039C36.7777 17.4341 36.5946 17.3988 36.4099 17.4001ZM36.58 27.3103C36.58 25.5837 36.0679 23.8958 35.1086 22.4602C34.1494 21.0246 32.786 19.9056 31.1908 19.2449C29.5956 18.5841 27.8403 18.4112 26.1469 18.748C24.4534 19.0849 22.8978 19.9163 21.6769 21.1372C20.456 22.3581 19.6246 23.9137 19.2877 25.6072C18.9509 27.3006 19.1237 29.0559 19.7844 30.6511C20.4452 32.2463 21.5642 33.6096 22.9999 34.5688C24.4355 35.5281 26.1233 36.0403 27.85 36.0403C30.1653 36.0403 32.3858 35.1203 34.0229 33.4832C35.6601 31.846 36.58 29.6256 36.58 27.3103Z" fill="#E6E6E6"/>
<path d="M27.9095 54.1497C42.7163 54.1497 54.7196 42.1466 54.7196 27.3398C54.7196 12.5331 42.7163 0.529785 27.9095 0.529785C13.1028 0.529785 1.09961 12.5331 1.09961 27.3398C1.09961 42.1466 13.1028 54.1497 27.9095 54.1497Z" stroke="#E6E6E6" stroke-miterlimit="10"/>
</svg>
