<svg width="55" height="56" viewBox="0 0 55 56" fill="none" xmlns="http://www.w3.org/2000/svg">
<path fill-rule="evenodd" clip-rule="evenodd" d="M29.3889 22.3301V20.1199C29.3651 19.9504 29.379 19.7777 29.4297 19.6143C29.4805 19.4508 29.5668 19.3007 29.6825 19.1746C29.7982 19.0484 29.9403 18.9493 30.0988 18.8845C30.2572 18.8198 30.428 18.791 30.5989 18.8H33.6889V14.0801H29.4289C24.6889 14.0801 23.6289 17.5801 23.6289 19.8501V22.3301H20.8789V27.8501H23.6589V41.6299H29.1789V27.8501H33.2589L33.4389 25.6799L33.7689 22.3301H29.3889Z" fill="#E6E6E6"/>
<path d="M27.3198 54.6599C42.1265 54.6599 54.1298 42.6569 54.1298 27.8501C54.1298 13.0433 42.1265 1.04004 27.3198 1.04004C12.513 1.04004 0.509766 13.0433 0.509766 27.8501C0.509766 42.6569 12.513 54.6599 27.3198 54.6599Z" stroke="#E6E6E6" stroke-miterlimit="10"/>
</svg>
