<svg width="102" height="102" viewBox="0 0 102 102" fill="none" xmlns="http://www.w3.org/2000/svg">
<path d="M89.78 0H12C5.37258 0 0 5.37258 0 12V89.78C0 96.4074 5.37258 101.78 12 101.78H89.78C96.4074 101.78 101.78 96.4074 101.78 89.78V12C101.78 5.37258 96.4074 0 89.78 0Z" fill="white"/>
<g clip-path="url(#clip0)">
<path d="M27.3218 50.2317C26.0419 50.2317 25.018 50.6585 24.1647 51.5975C23.3114 52.4512 22.8848 53.561 22.8848 54.7561C22.8848 56.0366 23.3114 57.061 24.1647 58C25.018 58.8536 26.1272 59.3658 27.3218 59.3658C28.5164 59.3658 29.6257 58.939 30.4789 58C31.3322 57.1463 31.8442 56.0366 31.8442 54.7561V50.3171H27.3218V50.2317ZM27.3218 50.2317C26.0419 50.2317 25.018 50.6585 24.1647 51.5975C23.3114 52.4512 22.8848 53.561 22.8848 54.7561C22.8848 56.0366 23.3114 57.061 24.1647 58C25.018 58.8536 26.1272 59.3658 27.3218 59.3658C28.5164 59.3658 29.6257 58.939 30.4789 58C31.3322 57.1463 31.8442 56.0366 31.8442 54.7561V50.3171H27.3218V50.2317ZM27.3218 50.2317C26.0419 50.2317 25.018 50.6585 24.1647 51.5975C23.3114 52.4512 22.8848 53.561 22.8848 54.7561C22.8848 56.0366 23.3114 57.061 24.1647 58C25.018 58.8536 26.1272 59.3658 27.3218 59.3658C28.5164 59.3658 29.6257 58.939 30.4789 58C31.3322 57.1463 31.8442 56.0366 31.8442 54.7561V50.3171H27.3218V50.2317Z" fill="#436384"/>
<path d="M86.8803 42.5488C83.4672 39.1341 79.3715 37.5122 74.6785 37.5122C69.9001 37.5122 65.8044 39.2195 62.4766 42.5488C61.8793 43.061 61.4527 43.6585 60.9407 44.2561C61.538 42.9756 61.8793 41.6098 61.8793 40.1585C61.8793 37.3415 60.8554 34.9512 58.8928 32.9878C56.845 31.0244 54.4558 30 51.7253 30C48.9948 30 46.6056 31.0244 44.6431 32.9878C44.0458 33.5854 43.6191 34.1829 43.1925 34.7805C42.7659 34.0976 42.2539 33.5 41.7419 32.9878C39.6941 31.0244 37.3902 30 34.5744 30C32.2706 30 30.2227 30.6829 28.5161 32.1341C26.7242 33.5854 25.615 35.378 25.0177 37.5976C20.7513 38.1951 17.0822 40.0732 14.2664 43.3171C11.4506 46.561 10 50.3171 10 54.6707C10 59.4512 11.7066 63.5488 15.0343 66.9634C18.3621 70.378 22.4579 72.0854 27.3215 72.0854C32.0999 72.0854 36.1956 70.378 39.5234 66.9634C40.3767 66.1098 41.1446 65.0854 41.8273 64.1463C42.1686 66.0244 43.1072 67.7317 44.5578 69.1829C46.5203 71.1463 48.9095 72.1707 51.64 72.1707C54.3704 72.1707 56.7596 71.2317 58.7222 69.1829C59.7461 68.1585 60.5994 66.9634 61.026 65.6829C61.3673 66.1098 61.794 66.6219 62.2206 67.0488C65.6337 70.4634 69.7295 72.1707 74.4225 72.1707H81.6753C84.4058 72.1707 86.795 71.2317 88.7575 69.1829C90.7201 67.2195 91.744 64.8293 91.744 62.0122V54.7561C92 49.9756 90.2934 45.878 86.8803 42.5488ZM38.2435 54.6707C38.2435 57.6585 37.2196 60.3049 35.001 62.439C32.8678 64.5732 30.308 65.6829 27.2362 65.6829C24.2497 65.6829 21.6899 64.6585 19.5567 62.439C17.4235 60.3049 16.3996 57.7439 16.3996 54.7561C16.3996 51.7683 17.4235 49.2073 19.5567 47.0732C21.6899 44.939 24.2497 43.8293 27.2362 43.8293H30.82V40.0732C30.82 39.0488 31.1613 38.1951 31.8439 37.5122C32.5265 36.8293 33.4651 36.4878 34.4891 36.4878C35.513 36.4878 36.3663 36.8293 37.1342 37.5122C37.9022 38.1951 38.2435 39.0488 38.2435 40.0732V54.6707ZM49.1655 37.5122C49.8481 36.8293 50.7014 36.4024 51.7253 36.4024C52.7492 36.4024 53.6025 36.7439 54.2851 37.5122C54.9677 38.2805 55.3091 39.1341 55.3091 40.0732C55.3091 41.0976 54.9677 41.9512 54.2851 42.6341C53.6025 43.3171 52.7492 43.6585 51.7253 43.6585C50.7014 43.6585 49.8481 43.3171 49.1655 42.6341C48.4828 41.9512 48.1415 41.0976 48.1415 40.0732C48.1415 39.1341 48.4828 38.2805 49.1655 37.5122ZM55.3944 62.0122C55.3944 63.0366 55.0531 63.8902 54.2851 64.5732C53.5172 65.2561 52.6639 65.5976 51.7253 65.5976C50.7014 65.5976 49.8481 65.2561 49.1655 64.5732C48.4828 63.8902 48.1415 63.0366 48.1415 62.0122V50.1463C48.1415 49.122 48.4828 48.2683 49.1655 47.5854C49.8481 46.9024 50.7014 46.561 51.7253 46.561C52.7492 46.561 53.6025 46.9024 54.2851 47.5854C54.9677 48.2683 55.3944 49.122 55.3944 50.1463V62.0122ZM85.6004 61.9268C85.6004 62.9512 85.2591 63.8049 84.5765 64.5732C83.8939 65.2561 83.0406 65.5976 82.0167 65.5976H74.7638C71.7773 65.5976 69.1322 64.5732 67.0843 62.3537C64.9511 60.2195 63.9272 57.6585 63.9272 54.6707C63.9272 51.6829 64.9511 49.122 67.1696 46.9878C69.3028 44.8537 71.8626 43.7439 74.8491 43.7439C77.8356 43.7439 80.3954 44.7683 82.5286 46.9878C84.6618 49.2073 85.6857 51.6829 85.6857 54.6707V61.9268H85.6004Z" fill="#436384"/>
<path d="M74.678 59.1951C73.3981 59.1951 72.3742 58.7683 71.4356 57.8292C70.5823 56.9756 70.0703 55.8658 70.0703 54.6707C70.0703 53.3902 70.497 52.3658 71.4356 51.5122C72.2888 50.6585 73.3981 50.2317 74.678 50.2317C75.8726 50.2317 76.9819 50.6585 77.8351 51.5122C78.6884 52.3658 79.2004 53.4756 79.2004 54.6707V59.1951H74.678Z" fill="#436384"/>
</g>
<defs>
<clipPath id="clip0">
<rect width="82" height="42" fill="white" transform="translate(10 30)"/>
</clipPath>
</defs>
</svg>
