<svg width="48" height="46" viewBox="0 0 48 46" fill="none" xmlns="http://www.w3.org/2000/svg">
<path d="M43.7375 13.8294L33.1808 12.3L28.4596 2.76262C26.6361 -0.921414 21.3631 -0.920293 19.5403 2.7625L14.8191 12.2999L4.2623 13.8294C0.184291 14.4201 -1.44352 19.42 1.50612 22.2869L9.1451 29.7107L7.34182 40.1931C6.64531 44.2424 10.9114 47.3309 14.5578 45.4202L24 40.4707L33.4424 45.4202C37.0837 47.3287 41.3548 44.2418 40.6584 40.1931L38.8551 29.7106L46.4942 22.2868C49.4444 19.4189 47.8138 14.42 43.7375 13.8294ZM43.5182 19.2435L35.0769 27.4471C34.5745 27.9353 34.3454 28.6387 34.4639 29.328L36.4566 40.9118C36.5567 41.4935 35.9496 41.9328 35.4258 41.6585L24.9917 36.1894C24.3708 35.8641 23.6289 35.8641 23.0081 36.1894L12.5739 41.6585C12.0499 41.9331 11.4431 41.4934 11.5431 40.9118L13.5358 29.328C13.6543 28.6387 13.4252 27.9353 12.9229 27.4471L4.48148 19.2435C4.05748 18.8315 4.2894 18.1202 4.87526 18.0352L16.5409 16.3451C17.235 16.2445 17.8353 15.81 18.1457 15.1828L23.3629 4.64343C23.6248 4.11449 24.375 4.11411 24.637 4.64355L29.8541 15.1828C30.1646 15.81 30.7648 16.2447 31.4589 16.3451L43.1246 18.0352C43.7103 18.1202 43.9421 18.8316 43.5182 19.2435Z" fill="#FFE4B5"/>
</svg>
