<svg width="211" height="61" viewBox="0 0 211 61" fill="none" xmlns="http://www.w3.org/2000/svg">
<path d="M207.82 0.830078H3.82031C2.16346 0.830078 0.820312 2.17322 0.820312 3.83008V57.8301C0.820312 59.4869 2.16346 60.8301 3.82031 60.8301H207.82C209.477 60.8301 210.82 59.4869 210.82 57.8301V3.83008C210.82 2.17322 209.477 0.830078 207.82 0.830078Z" fill="black"/>
<path d="M66.1695 16.7897H69.8196V21.3498C68.7852 21.7712 67.6763 21.9785 66.5595 21.9596C65.8951 22.0048 65.2285 21.9097 64.6031 21.6806C63.9778 21.4515 63.4075 21.0933 62.9295 20.6296C62.0314 19.5789 61.5792 18.2191 61.6695 16.8398C61.6543 15.9028 61.867 14.976 62.2895 14.1396C62.6978 13.3693 63.3239 12.7365 64.0896 12.3197C64.9129 11.8791 65.836 11.6585 66.7696 11.6796C67.7782 11.6643 68.7781 11.8691 69.6996 12.2797L69.4195 12.9096C68.574 12.5152 67.6526 12.3105 66.7196 12.3097C66.1412 12.2799 65.5631 12.3731 65.0235 12.5834C64.484 12.7937 63.9952 13.1163 63.5896 13.5297C62.785 14.431 62.3682 15.6131 62.4295 16.8197C62.3391 18.0501 62.734 19.2668 63.5296 20.2096C63.9626 20.6116 64.4737 20.9203 65.0311 21.1164C65.5885 21.3125 66.1802 21.392 66.7696 21.3498C67.5673 21.3701 68.3615 21.2376 69.1095 20.9596V17.4496H66.1095L66.1695 16.7897ZM75.1695 21.9596C74.7007 21.985 74.2319 21.9088 73.7953 21.7362C73.3586 21.5637 72.9644 21.2987 72.6396 20.9596C71.9913 20.1759 71.6659 19.1747 71.7295 18.1596C71.6811 17.1391 71.9925 16.1341 72.6095 15.3197C72.8904 14.967 73.2505 14.6854 73.6605 14.4977C74.0705 14.3101 74.519 14.2216 74.9696 14.2397C75.3621 14.2239 75.7529 14.2986 76.1119 14.4582C76.4708 14.6177 76.7882 14.8577 77.0395 15.1596C77.5813 15.8726 77.8508 16.7556 77.7995 17.6496V18.1896H72.4396C72.39 19.0309 72.6457 19.8618 73.1596 20.5297C73.4122 20.8044 73.7226 21.0195 74.0685 21.1596C74.4143 21.2997 74.787 21.3612 75.1596 21.3398C75.5316 21.3438 75.9031 21.3136 76.2696 21.2497C76.6865 21.1589 77.0947 21.0316 77.4895 20.8695V21.4797C77.1194 21.6498 76.7299 21.7742 76.3296 21.8498C75.9572 21.9216 75.5788 21.9583 75.1996 21.9596H75.1695ZM74.9696 14.8498C74.6462 14.8371 74.324 14.8949 74.0252 15.0192C73.7265 15.1435 73.4584 15.3314 73.2395 15.5697C72.7741 16.1344 72.5101 16.8382 72.4895 17.5697H77.0796C77.1189 16.8595 76.922 16.1563 76.5196 15.5697C76.3417 15.3376 76.111 15.151 75.8467 15.0258C75.5823 14.9006 75.2919 14.8403 74.9995 14.8498H74.9696ZM81.8095 21.3595C82.1859 21.3682 82.562 21.3314 82.9295 21.2497V21.7997C82.5638 21.913 82.1823 21.9669 81.7995 21.9596C81.5331 21.983 81.2647 21.9488 81.0128 21.859C80.7608 21.7693 80.5312 21.6262 80.3396 21.4396C79.9912 20.9598 79.8278 20.3704 79.8796 19.7797V14.9797H78.8196V14.5898L79.9295 14.2797L80.2696 12.5998H80.6195V14.3996H82.8196V14.9797H80.6396V19.6896C80.6063 20.1306 80.7112 20.5709 80.9396 20.9496C81.0435 21.0825 81.1774 21.1889 81.3304 21.2602C81.4833 21.3314 81.6509 21.3654 81.8196 21.3595H81.8095ZM88.8095 21.8298H88.1396V14.3996H88.8095V21.8298ZM88.0395 12.3298C88.0395 11.8898 88.1796 11.6796 88.4696 11.6796C88.5347 11.6764 88.5995 11.6905 88.6574 11.7204C88.7154 11.7502 88.7644 11.7949 88.7995 11.8498C88.8886 11.9933 88.9306 12.1612 88.9195 12.3298C88.9288 12.5014 88.8871 12.6718 88.7995 12.8197C88.7649 12.8758 88.7162 12.9217 88.6584 12.9533C88.6005 12.9848 88.5355 13.0009 88.4696 12.9997C88.2496 12.9997 88.1095 12.7698 88.1095 12.3298H88.0395ZM93.2696 21.3298C93.646 21.3384 94.022 21.3013 94.3896 21.2196V21.7697C94.0238 21.8829 93.6423 21.9369 93.2596 21.9296C92.9931 21.953 92.7248 21.9188 92.4728 21.829C92.2209 21.7393 91.9912 21.5961 91.7995 21.4096C91.4476 20.9311 91.2807 20.3416 91.3296 19.7497V14.9496H90.2295V14.5597L91.3296 14.2497L91.6795 12.5697H92.0196V14.3695H94.1996V14.9496H92.0196V19.6596C91.9887 20.1017 92.0971 20.5423 92.3296 20.9196C92.4422 21.0776 92.5957 21.2022 92.7736 21.2797C92.9515 21.3572 93.1471 21.3847 93.3396 21.3595L93.2696 21.3298ZM105.78 18.0697C105.836 19.0943 105.524 20.105 104.9 20.9196C104.365 21.4588 103.665 21.8045 102.912 21.9023C102.159 22 101.394 21.8444 100.74 21.4596C100.23 21.1377 99.8316 20.6661 99.5996 20.1095C99.3263 19.4787 99.1899 18.797 99.1996 18.1095C99.1411 17.0908 99.4537 16.0856 100.08 15.2797C100.381 14.9409 100.756 14.6748 101.175 14.5016C101.594 14.3284 102.047 14.2526 102.5 14.2797C102.949 14.2557 103.398 14.3332 103.814 14.5063C104.229 14.6794 104.6 14.9437 104.9 15.2797C105.543 16.0743 105.871 17.0785 105.82 18.0998L105.78 18.0697ZM99.9096 18.0697C99.8622 18.9186 100.098 19.7591 100.58 20.4596C100.818 20.7299 101.111 20.9464 101.439 21.0946C101.768 21.2429 102.124 21.3195 102.485 21.3195C102.845 21.3195 103.201 21.2429 103.53 21.0946C103.858 20.9464 104.151 20.7299 104.39 20.4596C104.879 19.7624 105.119 18.9203 105.07 18.0697C105.122 17.2204 104.879 16.379 104.38 15.6896C104.14 15.4224 103.848 15.2088 103.52 15.0624C103.193 14.9161 102.838 14.8405 102.48 14.8405C102.121 14.8405 101.766 14.9161 101.439 15.0624C101.112 15.2088 100.819 15.4224 100.58 15.6896C100.109 16.4002 99.8967 17.2514 99.9795 18.0998L99.9096 18.0697ZM113.02 21.7997V16.9797C113.069 16.3969 112.902 15.8165 112.55 15.3498C112.353 15.1674 112.121 15.0277 111.868 14.9399C111.615 14.8521 111.347 14.8181 111.08 14.8398C110.717 14.7989 110.349 14.8384 110.004 14.956C109.658 15.0735 109.342 15.2661 109.08 15.5197C108.61 16.1443 108.389 16.9212 108.46 17.6996V21.7997H107.79V14.3695H108.36L108.49 15.3695C108.775 14.9612 109.165 14.6371 109.619 14.4313C110.073 14.2255 110.574 14.1455 111.07 14.1996C112.75 14.1996 113.6 15.1096 113.6 16.9196V21.7797L113.02 21.7997Z" fill="white"/>
<path d="M70.0903 38.5298H76.3903V47.1396C75.4115 47.4584 74.4081 47.6961 73.3903 47.8499C72.3735 47.9946 71.3474 48.0648 70.3203 48.0598C69.2144 48.1311 68.1062 47.9635 67.0708 47.5684C66.0355 47.1732 65.0974 46.5597 64.3203 45.7698C62.8142 43.9473 62.0596 41.6192 62.2103 39.2598C62.1417 38.0757 62.3176 36.8902 62.727 35.7771C63.1365 34.664 63.7708 33.6471 64.5903 32.7898C65.47 31.9814 66.503 31.3578 67.6281 30.9558C68.7532 30.5539 69.9475 30.3818 71.1403 30.4497C72.8844 30.4301 74.6138 30.7705 76.2203 31.4497L75.2203 33.7798C73.9201 33.1458 72.4966 32.8045 71.0503 32.7798C70.2461 32.7407 69.4428 32.8738 68.6943 33.1704C67.9458 33.4671 67.2694 33.9204 66.7103 34.4998C65.5941 35.8067 65.0246 37.4936 65.1203 39.2097C64.9977 40.9272 65.5062 42.6305 66.5503 43.9998C67.0783 44.5554 67.7218 44.9884 68.4354 45.2683C69.149 45.5482 69.9153 45.6681 70.6803 45.6196C71.6598 45.6133 72.6357 45.4995 73.5903 45.2798V40.8696H70.0403L70.0903 38.5298ZM91.7203 41.3198C91.8412 43.1342 91.2573 44.9253 90.0903 46.3198C89.5093 46.927 88.8032 47.4007 88.021 47.708C87.2389 48.0154 86.3992 48.1491 85.5603 48.0999C84.4356 48.1238 83.3257 47.8402 82.3503 47.2798C81.4156 46.728 80.667 45.9096 80.2003 44.9297C79.6787 43.8133 79.422 42.5915 79.4503 41.3596C79.3413 39.5728 79.921 37.8122 81.0703 36.4397C81.6584 35.8341 82.3702 35.3626 83.1571 35.0571C83.9441 34.7517 84.7876 34.6195 85.6303 34.6697C86.4598 34.6306 87.2879 34.7733 88.0566 35.0876C88.8252 35.402 89.5159 35.8805 90.0803 36.4897C91.2203 37.8332 91.8066 39.56 91.7203 41.3198ZM82.2903 41.3198C82.2903 44.3198 83.3903 45.8098 85.6103 45.8098C87.8303 45.8098 88.8903 44.3198 88.8903 41.3198C88.8903 38.3198 87.7803 36.8796 85.5803 36.8796C85.0972 36.8422 84.6126 36.9282 84.1718 37.1294C83.731 37.3305 83.3485 37.6403 83.0603 38.0298C82.49 39.0286 82.2224 40.1717 82.2903 41.3198ZM106.39 41.3198C106.509 43.1322 105.929 44.9213 104.77 46.3198C104.187 46.9262 103.479 47.3991 102.695 47.7063C101.911 48.0135 101.071 48.1478 100.23 48.0999C99.1056 48.1238 97.9957 47.8402 97.0203 47.2798C96.0856 46.728 95.3369 45.9096 94.8703 44.9297C94.3487 43.8133 94.092 42.5915 94.1203 41.3596C94.0113 39.5728 94.591 37.8122 95.7403 36.4397C96.3284 35.8341 97.0402 35.3626 97.8271 35.0571C98.6141 34.7517 99.4576 34.6195 100.3 34.6697C101.13 34.6299 101.958 34.7723 102.727 35.0867C103.496 35.4011 104.186 35.88 104.75 36.4897C105.89 37.8332 106.477 39.56 106.39 41.3198ZM96.9603 41.3198C96.9603 44.3198 98.0703 45.8098 100.28 45.8098C102.49 45.8098 103.56 44.3198 103.56 41.3198C103.56 38.3198 102.46 36.8796 100.25 36.8796C99.7672 36.8422 99.2826 36.9282 98.8418 37.1294C98.401 37.3305 98.0185 37.6403 97.7303 38.0298C97.16 39.0286 96.8925 40.1717 96.9603 41.3198ZM120.52 34.8696V36.3796L118.3 36.7898C118.519 37.0945 118.688 37.432 118.8 37.7898C118.939 38.1952 119.006 38.6215 119 39.0498C119.029 39.6458 118.92 40.2403 118.68 40.7869C118.441 41.3334 118.078 41.817 117.62 42.1997C116.527 43.0235 115.177 43.4314 113.81 43.3499C113.435 43.353 113.06 43.3228 112.69 43.2598C112.441 43.3763 112.227 43.5572 112.07 43.7839C111.914 44.0107 111.821 44.2751 111.8 44.5498C111.796 44.6892 111.833 44.8266 111.906 44.9456C111.979 45.0645 112.084 45.1597 112.21 45.2197C112.7 45.3979 113.221 45.4728 113.74 45.4397H116C117.16 45.3548 118.312 45.6768 119.26 46.3499C119.636 46.6749 119.931 47.0822 120.124 47.54C120.316 47.9979 120.401 48.494 120.37 48.9897C120.395 49.6657 120.24 50.3361 119.922 50.9331C119.605 51.5301 119.135 52.0325 118.56 52.3896C116.959 53.2778 115.138 53.6909 113.31 53.5798C111.915 53.6607 110.527 53.3376 109.31 52.6497C108.861 52.3669 108.494 51.9699 108.248 51.499C108.002 51.0282 107.885 50.5004 107.91 49.9697C107.895 49.2316 108.163 48.5156 108.66 47.9697C109.239 47.3913 109.977 46.9981 110.78 46.8398C110.408 46.687 110.091 46.4256 109.87 46.0898C109.643 45.7681 109.521 45.3837 109.52 44.9897C109.506 44.544 109.651 44.1078 109.93 43.7598C110.277 43.359 110.689 43.0207 111.15 42.7598C110.471 42.4663 109.896 41.975 109.5 41.3499C109.079 40.658 108.863 39.8599 108.88 39.0498C108.846 38.4403 108.947 37.8307 109.177 37.2651C109.407 36.6996 109.76 36.1922 110.21 35.7798C111.29 34.9449 112.638 34.5323 114 34.6196C114.385 34.6224 114.769 34.6492 115.15 34.6997C115.46 34.7307 115.768 34.7841 116.07 34.8596L120.52 34.8696ZM110.33 49.8696C110.323 50.1497 110.395 50.4263 110.536 50.6682C110.677 50.9102 110.883 51.1081 111.13 51.2397C111.828 51.5964 112.608 51.762 113.39 51.7197C114.543 51.7944 115.696 51.5743 116.74 51.0798C117.065 50.9263 117.341 50.6846 117.535 50.3823C117.73 50.08 117.835 49.7291 117.84 49.3696C117.861 49.1312 117.815 48.8919 117.707 48.6782C117.599 48.4645 117.434 48.2849 117.23 48.1597C116.524 47.8707 115.761 47.751 115 47.8098H112.91C112.236 47.7754 111.571 47.9689 111.02 48.3596C110.8 48.5376 110.624 48.7635 110.504 49.02C110.385 49.2765 110.325 49.5569 110.33 49.8398V49.8696ZM111.52 39.0898C111.473 39.7735 111.696 40.4483 112.14 40.9697C112.38 41.1957 112.663 41.3701 112.973 41.4819C113.282 41.5938 113.612 41.6405 113.94 41.6196C115.53 41.6196 116.33 40.7698 116.33 39.0698C116.377 38.3682 116.163 37.6738 115.73 37.1196C115.503 36.8775 115.224 36.6898 114.914 36.5703C114.604 36.4509 114.271 36.4028 113.94 36.4297C113.606 36.4074 113.271 36.4565 112.957 36.5737C112.643 36.691 112.358 36.8736 112.12 37.1096C111.69 37.6651 111.477 38.3585 111.52 39.0598V39.0898ZM125.68 47.8596H122.93V29.6196H125.68V47.8596ZM135.29 48.0898C134.423 48.1402 133.555 48.0095 132.74 47.7065C131.926 47.4036 131.184 46.9349 130.56 46.3298C129.373 44.9986 128.761 43.2509 128.86 41.4697C128.755 39.6656 129.318 37.8859 130.44 36.4697C130.984 35.8611 131.656 35.3818 132.409 35.0669C133.162 34.752 133.975 34.6094 134.79 34.6497C135.529 34.6181 136.266 34.7407 136.954 35.0093C137.643 35.2778 138.268 35.6866 138.79 36.2097C139.308 36.7918 139.707 37.4704 139.962 38.2065C140.218 38.9426 140.326 39.7219 140.28 40.4998V41.9897H131.65C131.608 43.0476 131.965 44.0826 132.65 44.8896C133.007 45.2365 133.433 45.5048 133.899 45.677C134.366 45.8492 134.864 45.9216 135.36 45.8896C136.076 45.8951 136.79 45.8248 137.49 45.6797C138.226 45.5085 138.943 45.264 139.63 44.9497V47.2297C138.995 47.5408 138.323 47.7692 137.63 47.9097C136.857 48.0363 136.073 48.0867 135.29 48.0598V48.0898ZM134.79 36.7498C134.4 36.7327 134.011 36.7977 133.647 36.9407C133.284 37.0837 132.954 37.3015 132.68 37.5798C132.105 38.2622 131.774 39.1176 131.74 40.0098H137.62C137.673 39.1324 137.399 38.2666 136.85 37.5798C136.594 37.2992 136.279 37.0771 135.929 36.9287C135.579 36.7803 135.201 36.709 134.82 36.7197L134.79 36.7498ZM161.33 35.8997C161.378 36.676 161.243 37.4527 160.938 38.168C160.632 38.8832 160.164 39.5172 159.57 40.0198C158.118 41.0581 156.352 41.5631 154.57 41.4497H152.82V47.8596H150.02V30.7197H154.95C156.658 30.5932 158.357 31.0594 159.76 32.0398C160.298 32.5151 160.719 33.1076 160.992 33.7717C161.264 34.4359 161.38 35.1536 161.33 35.8696V35.8997ZM152.79 39.0898H154.28C155.386 39.1747 156.491 38.9125 157.44 38.3398C157.784 38.0603 158.055 37.7012 158.23 37.2935C158.404 36.8857 158.476 36.4417 158.44 35.9998C158.473 35.5882 158.408 35.1748 158.252 34.7927C158.096 34.4106 157.852 34.0706 157.54 33.7998C156.709 33.247 155.716 32.9899 154.72 33.0698H152.82L152.79 39.0898ZM167.22 47.8596H164.46V29.6196H167.22V47.8596ZM179.27 47.8596L178.72 46.0498H178.63C178.133 46.7281 177.487 47.2824 176.74 47.6697C175.965 47.9778 175.134 48.121 174.3 48.0898C173.759 48.129 173.215 48.0605 172.701 47.8889C172.186 47.7173 171.71 47.4459 171.3 47.0898C170.928 46.7047 170.641 46.2458 170.456 45.7429C170.272 45.24 170.195 44.7041 170.23 44.1697C170.201 43.584 170.323 43.0008 170.584 42.4756C170.845 41.9504 171.236 41.5007 171.72 41.1697C173.098 40.386 174.666 40.0018 176.25 40.0598L178.49 39.9897V39.2898C178.544 38.6196 178.332 37.955 177.9 37.4397C177.662 37.2173 177.379 37.0472 177.071 36.9404C176.763 36.8337 176.435 36.7927 176.11 36.8198C175.463 36.8193 174.819 36.9169 174.2 37.1096C173.602 37.3039 173.017 37.538 172.45 37.8098L171.55 35.8098C172.28 35.4311 173.057 35.1519 173.86 34.9797C174.636 34.7877 175.431 34.687 176.23 34.6797C177.563 34.5824 178.886 34.9656 179.96 35.7598C180.408 36.1965 180.753 36.727 180.971 37.3132C181.189 37.8994 181.274 38.5266 181.22 39.1497V47.8796L179.27 47.8596ZM175.17 45.9797C176.048 46.0266 176.909 45.7287 177.57 45.1497C177.885 44.8483 178.131 44.482 178.289 44.0762C178.448 43.6703 178.517 43.2348 178.49 42.7998V41.6697L176.82 41.7397C175.836 41.7116 174.861 41.9389 173.99 42.3997C173.703 42.5932 173.471 42.8582 173.316 43.1685C173.162 43.4787 173.091 43.8237 173.11 44.1697C173.096 44.4163 173.135 44.6632 173.223 44.894C173.311 45.1249 173.446 45.3347 173.62 45.5098C174.063 45.8463 174.617 46.0033 175.17 45.9497V45.9797ZM183.12 34.8997H186.12L188.75 42.2397C189.129 43.2065 189.397 44.2129 189.55 45.2397H189.64C189.739 44.7125 189.87 44.1915 190.03 43.6797C190.217 43.0597 191.217 40.1464 193.03 34.9397H196.03L190.49 49.6196C189.49 52.3196 187.8 53.6196 185.49 53.6196C184.891 53.624 184.294 53.5569 183.71 53.4197V51.2297C184.177 51.3313 184.653 51.3781 185.13 51.3696C186.46 51.3696 187.39 50.6098 187.93 49.0698L188.41 47.8499L183.12 34.8997Z" fill="white"/>
<path d="M48.9902 27.9797L42.5502 24.2598L33.7402 30.8499L42.5502 37.4397L49.0103 33.7097C49.5053 33.4131 49.915 32.9933 50.1995 32.4912C50.4839 31.9891 50.6335 31.4218 50.6335 30.8447C50.6335 30.2676 50.4839 29.7003 50.1995 29.1982C49.915 28.6961 49.5053 28.2764 49.0103 27.9797H48.9902Z" fill="#FF9100"/>
<path d="M35.9695 30.8501L28.1695 40.8501L18.0195 48.8501C17.3799 48.2111 17.0202 47.3441 17.0195 46.4399V15.23C17.0201 14.7838 17.1087 14.3423 17.2803 13.9304C17.4519 13.5186 17.7031 13.1446 18.0195 12.8301L28.1695 20.8301L35.9695 30.8501Z" fill="#25D9F8"/>
<path d="M35.9703 30.8499L33.7402 33.7297V27.9697L35.9703 30.8499Z" fill="#00C0F1"/>
<path d="M42.5695 24.23L35.9695 30.83L18.0195 12.76C18.2353 12.5686 18.4661 12.3947 18.7095 12.24C19.2281 11.9438 19.8172 11.794 20.4142 11.8064C21.0112 11.8187 21.5937 11.9927 22.0995 12.31L33.7395 19.1499L42.5695 24.23Z" fill="#7FE881"/>
<path d="M42.5703 24.23L35.9703 30.8301L33.7402 28.6001V19.1499L42.5703 24.23Z" fill="#5BC980"/>
<path d="M42.5695 37.4502L33.7395 42.5303L22.0795 49.3403C21.5604 49.6547 20.9664 49.8239 20.3595 49.8303C19.7807 49.8191 19.2139 49.6643 18.7095 49.3801C18.4662 49.229 18.2354 49.0584 18.0195 48.8701L35.9695 30.8701L42.5695 37.4502Z" fill="#FF637B"/>
<path d="M42.5703 37.45L33.7402 42.53V33.0801L35.9703 30.8501L42.5703 37.45Z" fill="#E63950"/>
</svg>
