<svg width="211" height="61" viewBox="0 0 211 61" fill="none" xmlns="http://www.w3.org/2000/svg">
<path d="M207.82 0.830078H3.82031C2.16346 0.830078 0.820312 2.17322 0.820312 3.83008V57.8301C0.820312 59.4869 2.16346 60.8301 3.82031 60.8301H207.82C209.477 60.8301 210.82 59.4869 210.82 57.8301V3.83008C210.82 2.17322 209.477 0.830078 207.82 0.830078Z" fill="black"/>
<path d="M24.4403 48.8303C19.1703 48.8303 14.8203 38.1602 14.8203 32.7502C14.8203 23.9002 21.5203 21.9702 24.1103 21.9702C25.3163 22.0558 26.4994 22.3432 27.6103 22.8202C28.2491 23.0972 28.9215 23.2887 29.6103 23.3901C30.1066 23.2934 30.5899 23.1391 31.0503 22.9301C32.4112 22.318 33.8788 21.9782 35.3703 21.9301C36.8152 21.9004 38.2457 22.2225 39.5384 22.8688C40.8311 23.5152 41.9472 24.4663 42.7903 25.6401L43.3403 26.4501L42.5603 27.0302C41.6288 27.5864 40.8521 28.3678 40.3017 29.3027C39.7513 30.2376 39.4447 31.2957 39.4103 32.3801C39.3781 33.5403 39.683 34.6851 40.2883 35.6755C40.8936 36.6659 41.7731 37.4595 42.8203 37.9601C43.3003 38.2501 43.8203 38.5501 43.8203 39.2101C43.8203 39.6301 40.3703 48.8102 35.3703 48.8102C34.3792 48.7913 33.4038 48.5592 32.5103 48.1301C31.7215 47.7349 30.8525 47.5263 29.9703 47.5202C29.2791 47.5925 28.6039 47.7748 27.9703 48.0602C26.866 48.5405 25.6833 48.8148 24.4803 48.8701L24.4403 48.8303Z" fill="white"/>
<path d="M35.9 13.8301C36.03 18.4801 32.67 21.71 29.31 21.51C28.76 17.79 32.67 13.8301 35.9 13.8301Z" fill="white"/>
<path d="M68.8205 16.73C68.871 17.4214 68.7799 18.1159 68.553 18.771C68.326 19.4261 67.9679 20.028 67.5005 20.54C66.972 20.9991 66.3581 21.3492 65.694 21.5706C65.0299 21.7919 64.3287 21.8802 63.6305 21.8301H61.2305V11.8301H63.9405C64.6026 11.7486 65.2746 11.8194 65.9051 12.0371C66.5357 12.2549 67.1082 12.6137 67.5789 13.0864C68.0497 13.5591 68.4063 14.1329 68.6214 14.7644C68.8366 15.3959 68.9047 16.0682 68.8205 16.73ZM68.0605 16.73C68.1391 16.1472 68.0825 15.5542 67.895 14.9968C67.7075 14.4395 67.3942 13.9329 66.9794 13.5161C66.5645 13.0993 66.0593 12.7836 65.5028 12.5935C64.9463 12.4034 64.3536 12.344 63.7705 12.4199H61.9305V21.23H63.5905C66.5705 21.23 68.0605 19.74 68.0605 16.76V16.73ZM77.0605 18.0701C77.122 19.0953 76.8093 20.1079 76.1805 20.9199C75.6471 21.4583 74.9496 21.8036 74.1981 21.9014C73.4465 21.9992 72.6838 21.8439 72.0305 21.46C71.5206 21.138 71.1225 20.6665 70.8905 20.1099C70.6172 19.479 70.4808 18.7973 70.4905 18.1099C70.4274 17.0906 70.7405 16.0838 71.3705 15.28C71.672 14.9413 72.0464 14.6752 72.4656 14.502C72.8848 14.3287 73.3377 14.2529 73.7905 14.28C74.2399 14.256 74.689 14.3335 75.1044 14.5066C75.5199 14.6797 75.8911 14.944 76.1905 15.28C76.8227 16.0797 77.1426 17.082 77.0905 18.1001L77.0605 18.0701ZM71.2005 18.0701C71.1476 18.9195 71.3837 19.7618 71.8705 20.46C72.1088 20.7302 72.402 20.9467 72.7304 21.095C73.0589 21.2432 73.4151 21.3198 73.7755 21.3198C74.1358 21.3198 74.4921 21.2432 74.8205 21.095C75.149 20.9467 75.4421 20.7302 75.6805 20.46C76.1672 19.7618 76.4033 18.9195 76.3505 18.0701C76.4062 17.2219 76.1659 16.3806 75.6705 15.6899C75.4304 15.4225 75.1367 15.2087 74.8084 15.0623C74.4802 14.9158 74.1249 14.8401 73.7655 14.8401C73.4061 14.8401 73.0507 14.9158 72.7225 15.0623C72.3943 15.2087 72.1006 15.4225 71.8605 15.6899C71.3835 16.3987 71.1613 17.2486 71.2305 18.1001L71.2005 18.0701ZM85.0605 21.8L83.4405 16.8C83.3305 16.46 83.2005 15.9701 83.0305 15.3101L82.8905 15.8201L82.5805 16.8201L80.9305 21.8201H80.2605L78.1305 14.3899H78.8205L80.0105 18.6899C80.2905 19.7599 80.4705 20.54 80.5605 21.05C80.8305 19.98 81.0305 19.2699 81.1505 18.9199L82.6805 14.3899H83.3005L84.7505 18.9099C85.0805 19.9799 85.2805 20.69 85.3505 21.03C85.3505 20.74 85.5705 19.9399 85.9005 18.6499L87.0405 14.3899H87.8205L85.8205 21.8201L85.0605 21.8ZM94.4405 21.8V16.98C94.4924 16.3955 94.3209 15.8132 93.9605 15.3501C93.7668 15.1669 93.5366 15.0266 93.285 14.9387C93.0334 14.8508 92.766 14.8173 92.5005 14.8401C92.1457 14.8067 91.7878 14.8499 91.4513 14.9673C91.1148 15.0846 90.8076 15.2732 90.5505 15.52C90.0805 16.1446 89.8595 16.9215 89.9305 17.7V21.8H89.2505V14.3699H89.8205L89.9505 15.3699C90.2362 14.9615 90.6264 14.6375 91.0803 14.4316C91.5342 14.2258 92.035 14.1458 92.5305 14.2C94.2105 14.2 95.0505 15.1099 95.0505 16.9199V21.78L94.4405 21.8ZM98.1905 21.8H97.5105V11.23H98.1905V21.8ZM106.83 18.0701C106.887 19.0946 106.574 20.1053 105.95 20.9199C105.415 21.4591 104.716 21.8048 103.963 21.9026C103.21 22.0004 102.445 21.8447 101.79 21.46C101.281 21.138 100.883 20.6665 100.65 20.1099C100.377 19.479 100.241 18.7973 100.25 18.1099C100.192 17.0912 100.505 16.0859 101.13 15.28C101.432 14.9413 101.806 14.6752 102.226 14.502C102.645 14.3287 103.098 14.2529 103.55 14.28C104 14.256 104.449 14.3335 104.864 14.5066C105.28 14.6797 105.651 14.944 105.95 15.28C106.576 16.0817 106.886 17.0853 106.82 18.1001L106.83 18.0701ZM100.96 18.0701C100.913 18.9189 101.149 19.7594 101.63 20.46C101.869 20.7302 102.162 20.9467 102.49 21.095C102.819 21.2432 103.175 21.3198 103.535 21.3198C103.896 21.3198 104.252 21.2432 104.581 21.095C104.909 20.9467 105.202 20.7302 105.44 20.46C105.93 19.7627 106.17 18.9206 106.12 18.0701C106.173 17.2207 105.929 16.3793 105.43 15.6899C105.191 15.4227 104.898 15.2091 104.571 15.0627C104.244 14.9164 103.889 14.8408 103.53 14.8408C103.172 14.8408 102.817 14.9164 102.49 15.0627C102.163 15.2091 101.87 15.4227 101.63 15.6899C101.145 16.3954 100.919 17.247 100.99 18.1001L100.96 18.0701ZM113.4 21.8L113.23 20.6199H113.17C112.864 21.0325 112.472 21.3737 112.02 21.6199C111.584 21.828 111.104 21.9275 110.62 21.9099C110.003 21.9505 109.393 21.7499 108.92 21.3501C108.713 21.1507 108.552 20.9091 108.446 20.6416C108.341 20.3741 108.295 20.0871 108.31 19.8C108.299 19.4642 108.377 19.1313 108.535 18.8347C108.693 18.5382 108.926 18.2882 109.21 18.1099C110.013 17.6623 110.923 17.4444 111.84 17.48H113.25V16.98C113.292 16.4134 113.14 15.8495 112.82 15.3799C112.648 15.1885 112.434 15.0401 112.194 14.9463C111.955 14.8525 111.697 14.8163 111.44 14.8401C110.691 14.8584 109.957 15.0572 109.3 15.4199L109.04 14.8301C109.796 14.4656 110.622 14.2709 111.46 14.26C111.792 14.2335 112.126 14.2756 112.441 14.384C112.756 14.4924 113.045 14.6646 113.29 14.8899C113.741 15.4547 113.959 16.1699 113.9 16.8899V21.8301L113.4 21.8ZM110.66 21.3201C111.003 21.3386 111.347 21.288 111.67 21.1711C111.993 21.0543 112.289 20.8736 112.54 20.6399C112.779 20.3891 112.964 20.092 113.082 19.7668C113.201 19.4417 113.251 19.0955 113.23 18.75V18.02H111.93C111.156 18.0076 110.389 18.1754 109.69 18.51C109.509 18.6434 109.357 18.8135 109.245 19.0093C109.133 19.2051 109.064 19.4221 109.041 19.6465C109.018 19.8709 109.043 20.0976 109.114 20.3118C109.184 20.526 109.299 20.7229 109.45 20.8899C109.79 21.1959 110.234 21.3607 110.69 21.3501L110.66 21.3201ZM119.03 14.22C119.511 14.2071 119.988 14.3101 120.42 14.52C120.858 14.7503 121.225 15.0962 121.48 15.52C121.48 14.95 121.48 14.3901 121.48 13.8301V11.23H122.15V21.8699H121.7L121.53 20.73C121.27 21.1365 120.908 21.4678 120.48 21.6907C120.052 21.9135 119.573 22.0201 119.09 22C118.653 22.0284 118.214 21.9577 117.807 21.7932C117.4 21.6287 117.036 21.3748 116.74 21.05C116.149 20.2452 115.862 19.2566 115.93 18.26C115.86 17.2135 116.145 16.1739 116.74 15.3101C117.013 14.958 117.366 14.6762 117.769 14.4883C118.173 14.3004 118.616 14.2118 119.06 14.23L119.03 14.22ZM119.03 14.8401C118.679 14.8167 118.327 14.8822 118.007 15.0308C117.687 15.1793 117.41 15.406 117.2 15.6899C116.746 16.4338 116.533 17.3001 116.59 18.1699C116.59 20.2799 117.41 21.3301 119.04 21.3301C119.384 21.3606 119.731 21.3106 120.052 21.1838C120.373 21.0571 120.66 20.8573 120.89 20.6001C121.345 19.8827 121.552 19.0361 121.48 18.1899V18.0701C121.551 17.2063 121.348 16.3422 120.9 15.6001C120.672 15.3431 120.387 15.1431 120.067 15.0164C119.748 14.8896 119.403 14.8393 119.06 14.8699L119.03 14.8401ZM134.43 18.0701C134.492 19.0953 134.179 20.1079 133.55 20.9199C133.245 21.2561 132.868 21.5202 132.448 21.6931C132.028 21.866 131.574 21.9435 131.12 21.9199C130.51 21.9359 129.909 21.7725 129.39 21.45C128.884 21.1246 128.486 20.6543 128.25 20.1001C127.985 19.4673 127.852 18.7865 127.86 18.1001C127.81 17.057 128.152 16.0327 128.82 15.23C129.122 14.8912 129.496 14.6251 129.916 14.4519C130.335 14.2787 130.788 14.2029 131.24 14.23C131.69 14.206 132.139 14.2834 132.554 14.4565C132.97 14.6296 133.341 14.8939 133.64 15.23C134.256 16.054 134.548 17.0753 134.46 18.1001L134.43 18.0701ZM128.57 18.0701C128.518 18.9195 128.754 19.7618 129.24 20.46C129.478 20.73 129.77 20.9463 130.098 21.0945C130.425 21.2427 130.781 21.3193 131.14 21.3193C131.5 21.3193 131.856 21.2427 132.183 21.0945C132.511 20.9463 132.803 20.73 133.04 20.46C133.485 19.744 133.721 18.9178 133.721 18.075C133.721 17.2321 133.485 16.4059 133.04 15.6899C132.8 15.4225 132.507 15.2087 132.178 15.0623C131.85 14.9158 131.495 14.8401 131.135 14.8401C130.776 14.8401 130.421 14.9158 130.092 15.0623C129.764 15.2087 129.471 15.4225 129.23 15.6899C128.753 16.3987 128.531 17.2486 128.6 18.1001L128.57 18.0701ZM141.67 21.8V16.98C141.72 16.3973 141.553 15.8168 141.2 15.3501C141.007 15.1669 140.777 15.0266 140.525 14.9387C140.273 14.8508 140.006 14.8173 139.74 14.8401C139.378 14.802 139.011 14.8428 138.666 14.9602C138.32 15.0776 138.005 15.2687 137.74 15.52C137.275 16.1464 137.058 16.9229 137.13 17.7V21.8H136.45V14.3699H137.02L137.15 15.3699C137.449 14.954 137.855 14.628 138.326 14.427C138.797 14.226 139.314 14.1578 139.82 14.23C141.51 14.23 142.35 15.14 142.35 16.95V21.8101L141.67 21.8ZM150.35 21.3301C150.727 21.3382 151.103 21.3012 151.47 21.22V21.77C151.101 21.884 150.717 21.9379 150.33 21.9299C150.066 21.9525 149.799 21.9179 149.549 21.8281C149.299 21.7384 149.071 21.5957 148.88 21.4099C148.529 20.9315 148.362 20.3419 148.41 19.75V14.95H147.31V14.5601L148.41 14.25L148.75 12.5701H149.1V14.3699H151.28V14.95H149.1V19.6599C149.067 20.1009 149.172 20.5412 149.4 20.9199C149.512 21.0716 149.661 21.1919 149.832 21.269C150.004 21.3462 150.193 21.3774 150.38 21.3599L150.35 21.3301ZM158.25 21.8V16.98C158.305 16.3968 158.137 15.8146 157.78 15.3501C157.587 15.1669 157.357 15.0266 157.105 14.9387C156.853 14.8508 156.586 14.8173 156.32 14.8401C155.966 14.8067 155.608 14.8499 155.271 14.9673C154.935 15.0846 154.628 15.2732 154.37 15.52C153.9 16.1446 153.679 16.9215 153.75 17.7V21.8H153.07V11.23H153.82V14.6099V15.5601C154.068 15.1296 154.436 14.7817 154.88 14.5601C155.379 14.3448 155.918 14.2423 156.46 14.26C158.14 14.26 158.99 15.17 158.99 16.98V21.8401L158.25 21.8ZM164.33 21.9299C163.862 21.9546 163.393 21.8781 162.957 21.7056C162.52 21.533 162.126 21.2684 161.8 20.9299C161.156 20.1448 160.834 19.1436 160.9 18.1299C160.849 17.1106 161.157 16.1057 161.77 15.29C162.053 14.9391 162.413 14.6587 162.823 14.4712C163.233 14.2837 163.68 14.1943 164.13 14.21C164.525 14.1934 164.917 14.2677 165.278 14.4272C165.638 14.5868 165.958 14.8272 166.21 15.1299C166.745 15.8462 167.01 16.7276 166.96 17.6199V18.1599H161.61C161.563 18.9994 161.814 19.8287 162.32 20.5C162.573 20.7747 162.884 20.9898 163.229 21.1299C163.575 21.27 163.948 21.3315 164.32 21.3101C164.696 21.3145 165.071 21.2843 165.44 21.22C165.857 21.1292 166.266 21.0021 166.66 20.8401V21.45C166.289 21.6174 165.9 21.7416 165.5 21.8201C165.126 21.902 164.744 21.9488 164.36 21.96L164.33 21.9299ZM164.13 14.8201C163.809 14.8075 163.488 14.8654 163.191 14.9897C162.894 15.1141 162.627 15.3019 162.41 15.54C161.942 16.1038 161.675 16.8075 161.65 17.54H166.25C166.29 16.8298 166.093 16.1266 165.69 15.54C165.507 15.3132 165.273 15.1326 165.008 15.0127C164.742 14.8928 164.452 14.8372 164.16 14.8501L164.13 14.8201Z" fill="white"/>
<path d="M72.7103 47.8301L71.0003 43.0701H64.4503L62.8203 47.8301H59.8203L66.2303 30.6199H69.2303L75.6403 47.8301H72.7103ZM70.2603 40.6599L68.6603 35.99C68.5403 35.68 68.3703 35.19 68.1603 34.52C67.9503 33.85 67.8203 33.35 67.7403 33.04C67.499 34.1211 67.1917 35.1864 66.8203 36.23L65.2703 40.7L70.2603 40.6599ZM84.2603 48.0601C83.528 48.0954 82.798 47.9528 82.1328 47.6445C81.4675 47.3363 80.8868 46.8716 80.4403 46.29H80.2803C80.3903 47.39 80.4403 48.05 80.4403 48.29V53.6001H77.6903V34.8799H79.9103C79.9703 35.1199 80.1003 35.6999 80.3003 36.6099H80.4403C80.8504 35.9635 81.4248 35.4379 82.1048 35.0864C82.7848 34.735 83.5459 34.5705 84.3103 34.6099C85.0341 34.5773 85.755 34.7204 86.4115 35.0269C87.068 35.3333 87.6405 35.7941 88.0803 36.3699C88.9767 37.8636 89.4502 39.5729 89.4502 41.315C89.4502 43.057 88.9767 44.7663 88.0803 46.26C87.6347 46.852 87.0507 47.3256 86.3795 47.6394C85.7083 47.9532 84.9703 48.0978 84.2303 48.0601H84.2603ZM83.5903 36.8799C83.1399 36.8467 82.688 36.92 82.2711 37.0938C81.8541 37.2675 81.4839 37.5367 81.1903 37.8799C80.615 38.7952 80.3518 39.8725 80.4403 40.95V41.3599C80.3474 42.5553 80.6082 43.7518 81.1903 44.8001C81.4852 45.1551 81.8629 45.432 82.2902 45.6065C82.7175 45.7809 83.1812 45.8474 83.6403 45.8001C84.0776 45.8165 84.5115 45.7167 84.8979 45.5112C85.2843 45.3057 85.6094 45.0017 85.8403 44.6299C86.4198 43.6162 86.6908 42.4556 86.6203 41.29C86.6971 40.1399 86.4253 38.9933 85.8403 38C85.5913 37.6303 85.2497 37.3325 84.8497 37.136C84.4497 36.9395 84.0051 36.851 83.5603 36.8799H83.5903ZM99.2103 48.0601C98.478 48.0954 97.748 47.9528 97.0827 47.6445C96.4175 47.3363 95.8368 46.8716 95.3903 46.29H95.2303C95.3403 47.39 95.3903 48.05 95.3903 48.29V53.6001H92.6403V34.8799H94.8203C94.8803 35.1199 95.0103 35.6999 95.2003 36.6099H95.3403C95.7504 35.9635 96.3248 35.4379 97.0048 35.0864C97.6847 34.735 98.4459 34.5705 99.2103 34.6099C99.9343 34.5756 100.656 34.7181 101.313 35.0247C101.969 35.3313 102.542 35.7928 102.98 36.3699C103.877 37.8636 104.35 39.5729 104.35 41.315C104.35 43.057 103.877 44.7663 102.98 46.26C102.541 46.8461 101.965 47.3163 101.303 47.6299C100.641 47.9435 99.9123 48.0912 99.1803 48.0601H99.2103ZM98.5503 36.8799C98.0983 36.8459 97.6447 36.9188 97.226 37.0925C96.8074 37.2663 96.4355 37.5359 96.1403 37.8799C95.565 38.7952 95.3018 39.8725 95.3903 40.95V41.3599C95.2974 42.5553 95.5582 43.7518 96.1403 44.8001C96.4352 45.1551 96.8129 45.432 97.2402 45.6065C97.6675 45.7809 98.1312 45.8474 98.5903 45.8001C99.029 45.8162 99.4642 45.7166 99.8521 45.5112C100.24 45.3059 100.567 45.0018 100.8 44.6299C101.371 43.6132 101.639 42.4541 101.57 41.29C101.645 40.1413 101.377 38.9962 100.8 38C100.551 37.6303 100.21 37.3325 99.8097 37.136C99.4096 36.9395 98.9651 36.851 98.5203 36.8799H98.5503ZM124 43.1799C124.03 43.8649 123.896 44.5471 123.609 45.1697C123.322 45.7923 122.89 46.3375 122.35 46.76C121.022 47.698 119.414 48.1564 117.79 48.0601C116.156 48.1213 114.529 47.8135 113.03 47.1599V44.51C113.825 44.8845 114.656 45.176 115.51 45.3799C116.316 45.5778 117.141 45.6818 117.97 45.69C118.834 45.7588 119.697 45.5372 120.42 45.0601C120.679 44.8604 120.886 44.602 121.025 44.3064C121.164 44.0108 121.231 43.6864 121.22 43.3599C121.224 43.0525 121.161 42.748 121.037 42.4668C120.913 42.1856 120.73 41.9344 120.5 41.73C119.585 41.0556 118.574 40.5228 117.5 40.1499C116.229 39.7228 115.089 38.9755 114.19 37.98C113.528 37.1486 113.174 36.1131 113.19 35.0501C113.163 34.4086 113.286 33.7696 113.55 33.1843C113.814 32.5991 114.211 32.0839 114.71 31.6799C115.89 30.8085 117.336 30.3738 118.8 30.45C120.491 30.4606 122.161 30.8288 123.7 31.53L122.81 33.8101C121.53 33.2102 120.143 32.8703 118.73 32.8101C117.994 32.7594 117.264 32.9719 116.67 33.4099C116.441 33.5982 116.259 33.837 116.137 34.1077C116.016 34.3783 115.959 34.6735 115.97 34.97C115.958 35.3715 116.055 35.7688 116.25 36.1199C116.484 36.4834 116.799 36.7881 117.17 37.01C117.913 37.4411 118.689 37.8121 119.49 38.1199C120.47 38.4914 121.4 38.9819 122.26 39.5801C122.803 39.9873 123.244 40.5141 123.55 41.1199C123.853 41.7809 123.996 42.5036 123.97 43.23L124 43.1799ZM131.85 45.8401C132.529 45.8337 133.203 45.7258 133.85 45.52V47.5901C133.47 47.7511 133.07 47.8618 132.66 47.9199C132.17 48.0179 131.67 48.065 131.17 48.0601C128.557 48.0601 127.254 46.6866 127.26 43.94V36.94H125.49V35.72L127.39 34.72L128.33 31.97H130.03V34.8599H133.72V36.94H130.02V43.8799C129.999 44.1468 130.031 44.4155 130.115 44.6697C130.199 44.9239 130.334 45.1586 130.51 45.3599C130.867 45.6856 131.338 45.8583 131.82 45.8401H131.85ZM147.96 41.3201C148.081 43.1345 147.497 44.9255 146.33 46.3201C145.749 46.9272 145.043 47.4009 144.261 47.7083C143.479 48.0156 142.639 48.1493 141.8 48.1001C140.676 48.124 139.566 47.8404 138.59 47.28C137.656 46.7283 136.907 45.9099 136.44 44.9299C135.919 43.8136 135.662 42.5918 135.69 41.3599C135.581 39.5731 136.161 37.8125 137.31 36.44C137.898 35.8344 138.61 35.3628 139.397 35.0574C140.184 34.7519 141.028 34.6197 141.87 34.6699C142.7 34.6301 143.528 34.7725 144.297 35.0869C145.066 35.4013 145.756 35.8802 146.32 36.49C147.449 37.8379 148.025 39.5643 147.93 41.3201H147.96ZM138.53 41.3201C138.53 44.3201 139.64 45.8101 141.85 45.8101C144.06 45.8101 145.13 44.3201 145.13 41.3201C145.13 38.3201 144.03 36.8799 141.82 36.8799C141.337 36.8424 140.853 36.9285 140.412 37.1296C139.971 37.3308 139.589 37.6406 139.3 38.03C138.72 39.0257 138.442 40.169 138.5 41.3201H138.53ZM157.71 34.6299C158.17 34.6203 158.629 34.6607 159.08 34.75L158.81 37.3201C158.414 37.2225 158.008 37.1754 157.6 37.1799C157.102 37.1587 156.605 37.2431 156.141 37.4275C155.677 37.6119 155.258 37.8922 154.91 38.25C154.222 39.0158 153.863 40.0216 153.91 41.0501V47.8301H151.16V34.8301H153.32L153.68 37.1099H153.82C154.223 36.3729 154.796 35.7424 155.49 35.27C156.145 34.8528 156.904 34.6306 157.68 34.6299H157.71ZM167.16 48.0601C166.291 48.1112 165.421 47.981 164.605 47.678C163.789 47.375 163.045 46.9059 162.42 46.3001C161.235 44.9679 160.628 43.2199 160.73 41.44C160.62 39.6352 161.183 37.8539 162.31 36.44C162.852 35.8316 163.523 35.3523 164.274 35.0374C165.025 34.7224 165.837 34.5797 166.65 34.6199C167.399 34.5799 168.147 34.6982 168.847 34.9671C169.546 35.2359 170.181 35.6491 170.71 36.1799C171.75 37.3595 172.285 38.9 172.2 40.47V41.96H163.56C163.523 43.0171 163.879 44.0504 164.56 44.8599C164.916 45.2082 165.341 45.4776 165.808 45.6499C166.275 45.8223 166.774 45.8937 167.27 45.8599C167.986 45.8643 168.7 45.794 169.4 45.6499C170.133 45.4786 170.847 45.234 171.53 44.9199V47.23C170.895 47.541 170.223 47.7695 169.53 47.9099C168.737 48.0412 167.933 48.0916 167.13 48.0601H167.16ZM166.65 36.72C166.262 36.7043 165.874 36.7702 165.513 36.9131C165.151 37.056 164.823 37.273 164.55 37.5501C163.969 38.2292 163.637 39.0865 163.61 39.98H169.49C169.539 39.1032 169.265 38.239 168.72 37.5501C168.453 37.2661 168.126 37.0446 167.763 36.9011C167.4 36.7577 167.01 36.6958 166.62 36.72H166.65Z" fill="white"/>
</svg>
