<svg width="58" height="54" viewBox="0 0 58 54" fill="none" xmlns="http://www.w3.org/2000/svg">
<path d="M0 46.9C0 50.5 2.3 53.4 5.1 53.4L55.8 53.6C56.5 53.6 57.1 52.9 57.1 51.9C57.1 51 56.5 50.2 55.9 50.2L5.1 50.1C3.7 50.1 2.5 48.7 2.5 46.9C2.5 45.1 3.7 43.7 5.1 43.7L55.8 43.9C56.5 43.9 57.1 43.2 57.1 42.2C57.1 41.3 56.5 40.5 55.9 40.5L5.1 40.4C2.3 40.4 0 43.3 0 46.9Z" fill="#94B3D6"/>
<path d="M2.5 46.9C2.5 48.7 3.6 50.1 5.1 50.1L54.3 50.3V43.9L5.1 43.7C3.7 43.7 2.5 45.1 2.5 46.9Z" fill="#FAF3E7"/>
<path d="M50.8999 46.6H45.9999C45.8999 46.6 45.8999 46.7 45.8999 46.7V52.8C45.8999 52.9 46.0999 53 46.0999 52.9L48.2999 50C48.3999 49.9 48.4999 49.9 48.4999 50L50.6999 52.9C50.7999 53 50.8999 52.9 50.8999 52.8V46.7C51.0999 46.6 50.9999 46.6 50.8999 46.6Z" fill="#FFAFA7"/>
<path d="M34.6 42C30.9 41.6 27.1 41.6 23.4 42C9.60004 43.5 6.70004 24.7 9.40004 14.1C11.3 6.59999 18.7 6.59999 23.8 7.59999C27.2 8.29999 30.7 8.29999 34.1 7.59999C39.2 6.59999 46.6 6.59999 48.5 14.1C51.3 24.7 48.4 43.5 34.6 42Z" fill="#FFAFA7"/>
<path d="M29.7001 9.6C29.4001 9.6 29.1001 9.2 29.1001 8.8C29.0001 7.1 29.4001 3.6 31.9001 2.1C32.2001 1.9 32.6001 2.2 32.7001 2.7C32.8001 3.2 32.7001 3.8 32.3001 4C30.0001 5.3 30.3001 8.5 30.3001 8.7C30.4001 9 30.1001 9.5 29.7001 9.6Z" fill="#B3816B"/>
<path d="M29.3 9.39999C29.3 9.39999 30.1 1.89999 21.5 0.299991C21.1 0.199991 20.8 0.499991 20.8 0.899991C21 3.09999 22 9.49999 29.3 9.39999Z" fill="#44BCBC"/>
</svg>
