<svg width="86" height="109" viewBox="0 0 86 109" fill="none" xmlns="http://www.w3.org/2000/svg">
<path d="M72.7884 29.5952C65.2519 24.9952 67.9734 20.1861 63.1584 11.4043C58.3434 2.83157 41.805 -4.6957 29.2441 5.34066C28.8254 5.54975 28.4067 5.75884 27.988 5.75884C10.8215 6.38611 13.543 20.6043 10.4028 26.877C6.63458 34.1952 0.563505 36.2861 0.772852 47.1588C0.9822 58.0315 12.4963 60.1224 13.7524 63.2588C15.0085 66.3951 14.5898 69.3224 22.7543 74.3406C26.1039 76.4315 29.6628 77.8951 33.4311 78.5224L47.0386 78.3133C49.3415 77.8951 51.6443 77.0588 53.9471 76.2224C65.6706 71.4133 63.3677 64.7224 67.764 62.4224C84.5118 53.6406 81.9997 35.2406 72.7884 29.5952Z" fill="#A84367"/>
<path d="M73.6245 108.841H6.424C5.16791 108.841 4.33053 108.631 4.53987 107.377C7.47074 97.7587 13.5418 90.4406 21.9157 85.4224C22.5438 85.0042 23.1718 84.7951 23.5905 84.3769C28.8242 81.6588 33.8485 80.6133 34.2672 72.877H45.3626C45.7813 80.8224 50.5963 81.6588 56.0393 84.3769C56.6674 84.586 57.2954 85.0042 57.7141 85.4224C66.088 90.4406 72.1591 97.7587 75.09 107.377C75.718 108.631 74.8806 108.841 73.6245 108.841Z" fill="#EED3C7"/>
<path d="M74.6726 108.841H5.16928C4.95994 108.841 4.54124 108.841 4.33189 108.632C4.12255 108.423 3.9132 108.213 3.70385 108.004C3.4945 107.795 3.4945 107.586 3.28516 107.168C3.28516 106.959 3.28516 106.541 3.28516 106.332C6.21602 96.7135 13.3338 89.3953 21.7077 84.168C22.3358 83.7498 22.9638 83.5407 23.5919 83.1226C24.0106 83.3316 24.4292 83.5407 24.8479 83.7498C29.4536 86.0498 34.6873 87.0953 39.921 86.8862C45.1546 87.0953 50.3883 85.8407 54.994 83.7498C55.4127 83.5407 55.8314 83.3316 56.2501 83.1226C56.8781 83.3316 57.5061 83.7498 58.1342 84.168C66.5081 89.3953 73.6259 96.7135 76.5568 106.332C76.5568 106.541 76.5568 106.959 76.5568 107.168C76.5568 107.377 76.3474 107.795 76.1381 108.004C75.9287 108.213 75.7194 108.423 75.51 108.632C75.3007 108.841 75.0913 108.841 74.6726 108.841Z" fill="#96DAD5"/>
<path d="M46.4073 76.8498C44.5231 78.1043 42.2203 78.5225 39.9175 78.5225C37.6147 78.5225 35.5212 77.8952 33.4277 76.8498C33.8464 75.5952 34.0558 72.2498 34.0558 70.7861H45.7792C45.9886 72.2498 45.9886 75.3861 46.4073 76.8498Z" fill="#CAA39F"/>
<path d="M18.5686 56.3588C12.0788 56.777 8.9386 50.0861 9.3573 45.6952C11.8695 45.9042 14.3816 45.4861 16.4751 44.2315C16.8938 44.0224 17.1032 43.8133 17.5218 43.6042L18.5686 56.3588Z" fill="#F2C1BD"/>
<path d="M61.6914 55.9406C68.1812 56.3588 72.1588 50.0861 71.9494 45.6952C69.4373 45.9042 66.9251 45.4861 64.8316 44.2315C64.4129 44.0224 64.2036 43.8133 63.7849 43.6042L61.6914 55.9406Z" fill="#F2C1BD"/>
<path d="M63.7852 44.2317C63.5758 47.1589 62.9478 50.0862 62.5291 53.0135C61.6917 57.1953 59.8076 60.9589 56.8767 64.0953C54.1552 67.2317 50.5963 69.7407 46.6187 71.2044C44.5252 72.0407 42.2224 72.4589 40.1289 72.668C37.8261 72.668 35.7326 72.0407 33.6391 71.2044C29.6615 69.7407 26.1026 67.2317 23.3811 64.0953C20.6596 60.9589 18.7755 56.9862 17.7287 53.0135C17.1007 50.2953 16.682 47.1589 16.4727 44.2317C20.2409 42.5589 23.3811 39.6317 24.4279 37.1226C26.94 31.6862 26.94 20.8135 33.8485 18.5135C45.5719 14.5408 51.8524 29.3862 56.0393 37.1226C57.0861 39.6317 60.2263 42.5589 63.7852 44.2317Z" fill="#EED3C7"/>
<path d="M41.596 50.5042C41.1773 50.5042 40.968 50.5041 40.7586 50.7132C40.7586 50.7132 40.7586 50.7132 40.5493 50.7132C40.5493 50.7132 40.5493 50.7132 40.3399 50.7132C40.1306 50.5041 39.9212 50.5042 39.7119 50.5042C39.5025 50.5042 39.2932 50.5042 38.8745 50.5042C38.4558 50.5042 38.4558 50.7132 38.2465 50.9223C38.0371 51.1314 38.0371 51.3405 38.0371 51.5496C38.0371 52.5951 39.5025 52.8041 40.3399 52.8041C41.1773 52.8041 42.6428 52.5951 42.6428 51.5496C42.6428 51.3405 42.4334 50.9223 42.2241 50.9223C42.2241 50.7132 42.0147 50.5042 41.596 50.5042Z" fill="#CAA39F"/>
<path d="M43.0615 56.3588C43.2709 56.3588 43.2709 56.3588 43.4802 56.5678C43.6896 56.5678 43.6896 56.7769 43.8989 56.7769C43.8989 56.986 44.1083 56.986 44.1083 57.1951C44.1083 57.4042 44.1083 57.6133 44.1083 57.6133C43.8989 58.8678 43.4802 59.9133 42.6428 60.7497C41.8054 61.586 40.9681 62.0042 39.9213 62.0042C38.8746 62.0042 38.0372 61.586 37.1998 60.7497C36.3624 59.9133 35.9437 58.8678 35.7344 57.6133C35.7344 57.4042 35.7344 57.1951 35.7344 57.1951C35.7344 56.986 35.7344 56.7769 35.9437 56.7769C35.9437 56.5678 36.1531 56.5678 36.3624 56.3588C36.5718 56.3588 36.5718 56.1497 36.7811 56.1497L43.0615 56.3588Z" fill="white"/>
<path d="M40.1279 97.3406C40.9653 97.3406 41.8027 96.5042 41.8027 95.6678C41.8027 94.8315 40.9653 93.9951 40.1279 93.9951C39.2905 93.9951 38.4531 94.8315 38.4531 95.6678C38.4531 96.7133 39.2905 97.3406 40.1279 97.3406Z" fill="white"/>
<path d="M39.9179 88.9771C33.0095 88.9771 27.3571 87.7226 22.5421 85.4226C22.1234 85.2135 21.9141 85.0044 21.9141 84.5862C21.9141 84.3771 21.9141 83.9589 22.1234 83.7498C22.3328 83.5407 22.5421 83.3316 22.9608 83.1226C23.3795 83.1226 23.7982 83.1226 24.0075 83.3316C28.4038 85.4226 33.4282 86.468 39.9179 86.468C46.1984 86.468 51.432 85.4226 55.8283 83.3316C56.247 83.1226 56.4564 83.1226 56.8751 83.1226C57.2938 83.1226 57.5031 83.3316 57.7125 83.7498C57.9218 83.9589 57.9218 84.3771 57.9218 84.5862C57.9218 85.0044 57.5031 85.2135 57.2938 85.4226C52.4788 87.9316 46.8264 88.9771 39.9179 88.9771Z" fill="white"/>
<path d="M50.8064 65.5588L47.6662 63.8861C47.4568 63.8861 47.2475 63.677 47.0381 63.677C46.8288 63.677 46.6194 63.677 46.4101 63.8861C46.2008 64.0952 46.2008 64.0952 45.9914 64.3043C45.9914 64.5134 45.9914 64.7225 45.9914 64.9316L47.4568 69.1134C47.6662 69.5316 47.6662 69.9498 47.6662 70.3679C47.6662 70.7861 47.4568 71.2043 47.2475 71.6225C44.526 76.0134 43.4792 81.2406 44.3166 86.2588C45.154 91.277 47.8755 95.877 51.8531 99.2224C55.8307 102.568 60.8551 104.032 66.0888 103.822C71.3224 103.613 76.1374 101.313 79.6963 97.7588C83.2553 94.2043 85.5581 89.1861 85.7674 84.1679C85.9768 78.9406 84.5113 73.9225 81.1618 69.9498C78.0216 65.977 73.4159 63.2588 68.1822 62.4225C63.1579 61.5861 57.9242 62.6316 53.5279 65.3498C53.1092 65.5588 52.4812 65.7679 52.0625 65.7679C51.6438 65.977 51.2251 65.977 50.8064 65.5588Z" fill="#FAF3E7"/>
<path d="M63.7869 77.6861L63.9962 77.8951C63.9962 77.8951 64.2056 77.8951 64.4149 77.8951C64.6242 77.8951 64.6242 77.8951 64.8336 77.8951L65.0429 77.6861C67.1364 75.3861 71.5327 76.0133 73.2075 78.5224C75.929 82.7042 74.0449 88.977 65.4616 92.5315C64.8336 92.7406 64.2055 92.7406 63.7869 92.5315C55.2036 89.186 53.1101 82.7042 56.041 78.5224C57.2971 76.0133 61.6934 75.3861 63.7869 77.6861Z" fill="#FFAFA7"/>
<path d="M31.3361 44.8588C31.3361 43.6043 30.2894 42.5588 29.0333 42.5588C27.7772 42.5588 26.7305 43.6043 26.7305 44.8588V46.1134C26.7305 47.3679 27.7772 48.4134 29.0333 48.4134C30.2894 48.4134 31.3361 47.3679 31.3361 46.1134V44.8588Z" fill="#A84367"/>
<path d="M25.6826 43.6042C25.4733 43.6042 25.0546 43.6042 24.8452 43.3951C24.6359 43.3951 24.4265 43.186 24.4265 42.9769C24.2172 42.7678 24.2172 42.7678 24.4265 42.5587C24.4265 42.3496 24.6359 42.3496 24.8452 42.1405C27.1481 40.6769 31.335 40.886 33.2191 41.7223C33.4285 41.7223 33.4285 41.9314 33.6378 41.9314C33.8472 41.9314 33.8472 42.1405 33.8472 42.1405V42.3496L33.6378 42.5587C33.4285 42.5587 33.4285 42.7678 33.2191 42.7678C33.0098 42.7678 32.8004 42.7678 32.8004 42.7678C32.5911 42.7678 32.3817 42.7678 32.1724 42.7678C31.9631 42.7678 31.7537 42.7678 31.7537 42.5587C30.9163 42.1405 28.1948 42.1405 26.9387 42.7678C26.7294 42.7678 26.7294 42.9769 26.52 42.9769C26.3107 42.9769 25.892 43.6042 25.6826 43.6042Z" fill="#993959"/>
<path d="M48.7129 45.9044C48.7129 47.1589 49.969 48.2044 51.6437 48.2044C53.3185 48.2044 54.5746 47.1589 54.5746 45.9044V44.6498C54.5746 43.3953 53.3185 42.3499 51.6437 42.3499C49.969 42.3499 48.7129 43.3953 48.7129 44.6498V45.9044Z" fill="#A84367"/>
<path d="M55.4122 43.6043C55.2029 43.6043 54.9935 43.6043 54.7842 43.6043C54.5748 43.6043 54.3655 43.6043 54.3655 43.3952C53.1094 42.7679 50.3879 42.7679 49.5505 43.1861C49.3412 43.1861 49.3412 43.3952 49.1318 43.3952C48.9225 43.3952 48.7131 43.3952 48.5038 43.3952C48.2944 43.3952 48.0851 43.3952 48.0851 43.3952C47.8757 43.3952 47.8757 43.1861 47.6664 43.1861C47.457 43.1861 47.457 42.977 47.457 42.977V42.7679C47.457 42.7679 47.457 42.5588 47.6664 42.5588C47.6664 42.5588 47.8757 42.3497 48.0851 42.3497C49.9692 41.5134 54.1561 41.5134 56.459 42.7679C56.6683 42.977 56.6683 42.977 56.8777 43.1861C56.8777 43.3952 56.8777 43.3952 56.8777 43.6043C56.8777 43.8134 56.6683 43.8134 56.459 44.0225C56.0403 43.6043 55.8309 43.6043 55.4122 43.6043Z" fill="#993959"/>
<path d="M22.1233 37.7495C21.7046 37.7495 21.4952 37.7495 21.2859 37.5404C21.0765 37.3314 20.8672 37.1223 20.8672 36.9132C20.8672 36.7041 20.8672 36.495 20.8672 36.2859C21.0765 36.0768 21.2859 35.8677 21.4952 35.8677C24.8448 34.4041 28.8224 33.9859 32.3813 34.8223C32.5906 34.8223 32.8 34.8223 32.8 35.0314C33.0093 35.0314 33.0093 35.2404 33.2187 35.4495C33.2187 35.6586 33.428 35.6586 33.428 35.8677C33.428 36.0768 33.428 36.0768 33.428 36.2859C33.428 36.495 33.2187 36.495 33.2187 36.7041C33.0093 36.9132 33.0093 36.9132 32.8 36.9132C32.5906 36.9132 32.3813 37.1223 32.1719 37.1223C31.9626 37.1223 31.7533 37.1223 31.5439 37.1223C28.613 36.495 25.2635 36.7041 22.542 37.9586C22.7513 37.7495 22.542 37.7495 22.1233 37.7495Z" fill="#A84367"/>
<path d="M56.6682 37.7497C56.4588 37.7497 56.2495 37.7497 56.0401 37.5407C53.528 36.2861 50.5971 36.077 47.8756 36.7043C47.6662 36.7043 47.4569 36.7043 47.4569 36.7043C47.2475 36.7043 47.0382 36.7043 47.0382 36.4952C46.8288 36.4952 46.8289 36.2861 46.6195 36.2861C46.6195 36.077 46.4102 36.077 46.4102 35.8679C46.4102 35.6588 46.4102 35.6588 46.4102 35.4497C46.4102 35.2407 46.4102 35.2407 46.6195 35.0316C46.6195 34.8225 46.8288 34.8225 47.0382 34.6134C47.2475 34.6134 47.2475 34.4043 47.4569 34.4043C50.8065 33.5679 54.3654 33.9861 57.5056 35.4497C57.7149 35.6588 57.9243 35.6588 58.1336 35.8679C58.343 36.077 58.343 36.2861 58.1336 36.4952C58.1336 36.7043 57.9243 36.9134 57.7149 37.1225C57.2962 37.7497 57.0869 37.7497 56.6682 37.7497Z" fill="#A84367"/>
<path d="M9.35601 47.1589C8.93731 47.1589 8.51862 47.1589 8.09992 47.1589C7.05318 46.9498 6.00645 46.7407 5.16906 46.3225C4.95971 46.3225 4.95971 46.1134 4.75036 45.9043C4.54101 45.6952 4.54102 45.6952 4.54102 45.4861C4.54102 45.277 4.54102 45.0679 4.54102 44.8589C4.54102 44.6498 4.54101 44.4407 4.75036 44.4407C4.75036 44.2316 4.95971 44.2316 5.16906 44.0225C5.37841 43.8134 5.58775 43.8134 5.58775 43.8134C5.7971 43.8134 6.00645 43.8134 6.2158 43.8134C6.42514 43.8134 6.63449 43.8134 6.84384 44.0225C7.47188 44.2316 8.09992 44.4407 8.72796 44.6498C10.8214 44.8589 12.9149 44.4407 14.799 43.3952C15.0084 43.1861 15.4271 43.1861 15.6364 42.977C15.6364 42.977 15.6364 42.977 15.8458 42.977C18.7766 41.3043 21.4982 39.0043 22.3355 37.1225C22.9636 35.2407 23.5916 33.568 24.0103 31.6861C25.4758 26.2498 26.9412 19.9771 32.5936 18.0952C44.5264 14.1225 51.0161 26.4589 55.4124 34.6134C55.8311 35.4498 56.2498 36.2861 56.6685 37.1225C57.7153 39.0043 60.6461 41.7225 64.205 43.3952C66.0892 44.2316 69.6481 45.4861 72.1602 44.2316C72.3696 44.2316 72.5789 44.0225 72.7883 44.0225C72.9976 44.0225 73.207 44.0225 73.4163 44.0225C73.6257 44.0225 73.835 44.2316 73.835 44.2316C74.0444 44.4407 74.0444 44.4407 74.2537 44.6498C74.2537 44.8589 74.4631 45.0679 74.4631 45.0679C74.4631 45.277 74.4631 45.4861 74.4631 45.6952C74.4631 45.9043 74.2537 46.1134 74.2537 46.1134C74.0444 46.3225 74.0444 46.3225 73.835 46.5316C71.1135 47.9952 67.3452 47.7861 63.1583 45.9043C59.39 44.0225 55.8311 41.0952 54.3657 38.377C53.947 37.5407 53.5283 36.7043 53.1096 35.868C48.9227 28.1316 43.2703 17.468 33.8497 20.6043C29.6627 22.068 28.1973 27.5043 26.9412 32.3134C26.5225 34.4043 25.8945 36.2861 25.0571 38.377C24.0103 40.8861 21.0795 43.6043 17.5206 45.4861C17.5206 45.4861 17.5206 45.4861 17.3112 45.4861C16.8925 45.6952 16.6832 45.9043 16.2645 46.1134C13.9616 46.5316 11.6588 46.9498 9.35601 47.1589Z" fill="#993959"/>
</svg>
