<svg width="121" height="113" viewBox="0 0 121 113" fill="none" xmlns="http://www.w3.org/2000/svg">
<path d="M0.910156 98.4268C0.910156 105.954 5.71924 112.018 11.5738 112.018L117.583 112.436C119.046 112.436 120.301 110.972 120.301 108.881C120.301 107 119.046 105.327 117.792 105.327L11.5738 105.118C8.64651 105.118 6.13742 102.19 6.13742 98.4268C6.13742 94.6632 8.64651 91.7359 11.5738 91.7359L117.583 92.1541C119.046 92.1541 120.301 90.6905 120.301 88.5996C120.301 86.7177 119.046 85.045 117.792 85.045L11.5738 84.8359C5.71924 84.8359 0.910156 90.8996 0.910156 98.4268Z" fill="#94B3D6"/>
<path d="M6.13867 98.4272C6.13867 102.191 8.43867 105.118 11.575 105.118L114.448 105.536V92.1545L11.575 91.7363C8.64776 91.7363 6.13867 94.6636 6.13867 98.4272Z" fill="#FAF3E7"/>
<path d="M107.339 97.7993H97.0939C96.8848 97.7993 96.8848 98.0084 96.8848 98.0084V110.763C96.8848 110.972 97.3029 111.181 97.3029 110.972L101.903 104.908C102.112 104.699 102.321 104.699 102.321 104.908L106.921 110.972C107.13 111.181 107.339 110.972 107.339 110.763V98.0084C107.757 97.7993 107.548 97.7993 107.339 97.7993Z" fill="#FFAFA7"/>
<path d="M73.259 88.1813C65.5226 87.345 57.5772 87.345 49.8408 88.1813C20.9863 91.3177 14.9226 52.0086 20.5681 29.845C24.5408 14.1632 40.0135 14.1632 50.6772 16.2541C57.7862 17.7177 65.1044 17.7177 72.2135 16.2541C82.8771 14.1632 98.3498 14.1632 102.323 29.845C108.177 52.0086 102.113 91.3177 73.259 88.1813Z" fill="#FFAFA7"/>
<path d="M63.0156 20.4363C62.3883 20.4363 61.7611 19.6 61.7611 18.7636C61.552 15.2091 62.3883 7.89088 67.6156 4.75452C68.2429 4.33634 69.0792 4.96361 69.2883 6.00907C69.4974 7.05452 69.2883 8.30906 68.452 8.72724C63.6429 11.4454 64.2701 18.1363 64.2701 18.5545C64.4792 19.1818 63.852 20.2272 63.0156 20.4363Z" fill="#B3816B"/>
<path d="M62.177 20.018C62.177 20.018 63.8497 4.33617 45.8679 0.99072C45.0316 0.781629 44.4043 1.4089 44.4043 2.24527C44.8225 6.84526 46.9134 20.2271 62.177 20.018Z" fill="#44BCBC"/>
</svg>
