<svg width="99" height="114" viewBox="0 0 99 114" fill="none" xmlns="http://www.w3.org/2000/svg">
<path d="M73.1616 1.01111L5.95577 15.1807C4.02131 15.5886 2.78415 17.4854 3.19251 19.4175L10.7768 55.3012C11.1852 57.2333 13.0844 58.4689 15.0188 58.061L82.2246 43.8914C84.1591 43.4836 85.3963 41.5867 84.9879 39.6547L77.4036 3.77089C76.9953 1.8388 75.096 0.603248 73.1616 1.01111Z" fill="#F2C1BD"/>
<path d="M76.4188 29.0658L62.4082 32.0198L64.2286 40.6327L78.2392 37.6787L76.4188 29.0658Z" fill="#A84367"/>
<path d="M78.2755 7.93302L4.06445 23.5796L5.50002 30.3717L79.7111 14.7252L78.2755 7.93302Z" fill="#A84367"/>
<path d="M44.1497 44.3968L17.4395 50.0283L17.5346 50.4783L44.2448 44.8468L44.1497 44.3968Z" fill="#A84367"/>
<path d="M43.6458 42.022L16.9355 47.6536L17.0307 48.1036L43.7409 42.472L43.6458 42.022Z" fill="#A84367"/>
<path d="M9.07038 113.392L86.4871 113.392C91.2275 113.392 95.0703 109.554 95.0703 104.819L95.0703 50.3512C95.0703 45.6166 91.2275 41.7785 86.4871 41.7785L9.07038 41.7785C4.32999 41.7785 0.487137 45.6166 0.487137 50.3512L0.487137 104.819C0.487137 109.554 4.32999 113.392 9.07038 113.392Z" fill="#C3D7ED"/>
<path d="M5.25781 107.621H7.6653V107.203H5.63464V104.987H5.25781V107.621Z" fill="white"/>
<path d="M11.8945 107.203H16.0815V107.6H11.8945V107.203ZM20.394 107.203H24.581V107.6H20.394V107.203ZM28.7679 107.203H32.9549V107.6H28.9773L28.7679 107.203ZM37.1418 107.203H41.3288V107.6H37.3512L37.1418 107.203ZM45.6413 107.203H49.8283V107.6H45.6413V107.203ZM54.0152 107.203H58.2022V107.6H54.0152V107.203ZM62.3891 107.203H66.5761V107.6H62.3891V107.203ZM70.763 107.203H74.95V107.6H70.763V107.203ZM79.2625 107.203H83.4495V107.6H79.2625V107.203Z" fill="white"/>
<path d="M88.2656 107.621H90.6522V104.987H90.2963V107.203H88.2656V107.621Z" fill="white"/>
<path d="M90.2988 94.8252H90.6757V99.9061H90.2988V94.8252ZM90.2988 84.6634H90.6757V89.7653H90.2988V84.6634ZM90.2988 74.5017H90.6757V79.5826H90.2988V74.5017ZM90.2988 64.3399H90.6757V69.4208H90.2988V64.3399ZM90.2988 54.178H90.6757V59.2589H90.2988V54.178Z" fill="white"/>
<path d="M90.2963 49.1174H90.6522V46.4829H88.2656V46.8802H90.2963V49.1174Z" fill="white"/>
<path d="M11.8945 46.4829H16.0815V46.8802H11.8945V46.4829ZM20.394 46.4829H24.581V46.8802H20.394V46.4829ZM28.7679 46.4829H32.9549V46.8802H28.9773L28.7679 46.4829ZM37.1418 46.4829H41.3288V46.8802H37.3512L37.1418 46.4829ZM45.6413 46.4829H49.8283V46.8802H45.6413V46.4829ZM54.0152 46.4829H58.2022V46.8802H54.0152V46.4829ZM62.3891 46.4829H66.5761V46.8802H62.3891V46.4829ZM70.763 46.4829H74.95V46.8802H70.763V46.4829ZM79.2625 46.4829H83.4495V46.8802H79.2625V46.4829Z" fill="white"/>
<path d="M5.25781 49.1174H5.63464V46.8802H7.6653V46.4829H5.25781V49.1174Z" fill="white"/>
<path d="M5.25781 94.8252H5.63464V99.9061H5.25781V94.8252ZM5.25781 84.6634H5.63464V89.7653H5.25781V84.6634ZM5.25781 74.5017H5.63464V79.5826H5.25781V74.5017ZM5.25781 64.3399H5.63464V69.4208H5.25781V64.3399ZM5.25781 54.178H5.63464V59.2589H5.25781V54.178Z" fill="white"/>
<path d="M74.2 86.4822H88.7706C94.2163 86.4822 98.6309 82.073 98.6309 76.634V75.8185C98.6309 70.3795 94.2163 65.9704 88.7706 65.9704H74.2C68.7543 65.9704 64.3398 70.3795 64.3398 75.8185V76.634C64.3398 82.073 68.7543 86.4822 74.2 86.4822Z" fill="#6C86A1"/>
<path d="M74.7022 83.973C78.8298 83.973 82.1759 80.631 82.1759 76.5085C82.1759 72.3859 78.8298 69.0439 74.7022 69.0439C70.5746 69.0439 67.2285 72.3859 67.2285 76.5085C67.2285 80.631 70.5746 83.973 74.7022 83.973Z" fill="#9CAFC4"/>
<path d="M72.209 82.6142C72.247 82.6154 72.2844 82.6035 72.3148 82.5807C72.3452 82.5579 72.367 82.5255 72.3765 82.4887C72.4059 82.4576 72.4223 82.4165 72.4223 82.3737C72.4223 82.3309 72.4059 82.2897 72.3765 82.2586C71.0834 81.7415 69.9992 80.8097 69.2943 79.6099C68.5894 78.41 68.3039 77.0101 68.4826 75.6305C68.4855 75.6057 68.4835 75.5807 68.4766 75.5567C68.4698 75.5328 68.4582 75.5104 68.4426 75.491C68.427 75.4715 68.4078 75.4553 68.3859 75.4434C68.364 75.4314 68.34 75.424 68.3151 75.4214C68.2662 75.4204 68.2184 75.4366 68.1802 75.4671C68.1419 75.4977 68.1156 75.5407 68.1058 75.5886C67.9388 77.0558 68.2578 78.5372 69.014 79.806C69.7701 81.0749 70.9219 82.0613 72.2928 82.6142H72.209Z" fill="white"/>
</svg>
