<svg width="129" height="119" viewBox="0 0 129 119" fill="none" xmlns="http://www.w3.org/2000/svg">
<path d="M123.978 57.5632C123.768 62.7905 127.746 78.6814 123.14 86.2086C118.744 92.8995 120 100.845 120.419 104.609C120.837 106.072 120.209 107.745 119.163 109C116.86 111.509 112.254 115.063 102.415 116.945C93.2035 118.827 87.3417 117.781 83.7828 116.736C81.6894 116.109 80.4333 114.436 80.2239 112.345V112.136C80.0146 109.418 79.3865 106.49 78.7585 103.772C77.2931 98.545 75.4089 94.3632 72.6874 88.7177C71.6407 86.4177 70.5939 83.9087 69.9659 80.7723L65.3603 58.8178L64.7322 55.6814L64.1042 58.8178L59.7079 81.1905C59.0798 84.1177 58.0331 86.8359 56.9864 89.1359C54.2648 94.7814 52.3807 98.9632 50.9153 104.19C50.0779 106.909 49.6592 109.627 49.4499 112.554V112.763C49.2405 114.645 47.9844 116.527 45.8909 117.154C42.5414 118.2 36.6797 119.245 27.4684 117.363C17.629 115.481 13.0234 111.718 10.7206 109.418C9.67384 108.163 9.0458 106.49 9.46449 105.027C9.67384 101.263 10.9299 93.5268 6.74298 86.6268C2.13733 79.0996 6.11493 62.9996 5.90559 57.9814L1.0906 37.2814C0.462553 34.1451 1.50929 30.3814 6.32428 29.7542C10.7206 29.336 13.8608 36.4451 14.6982 38.536L18.2571 48.1541L25.7936 9.47236C26.2123 7.79964 27.0497 6.54509 28.3058 5.49964C29.5618 4.66328 31.6553 4.45419 33.1208 3.82692C39.6105 1.52692 42.7507 -0.145807 45.4723 0.481465C45.8909 0.481465 46.519 0.690553 47.147 0.899644C47.3564 0.899644 47.5657 1.10874 47.5657 1.10874C50.4966 2.78146 54.4742 6.12691 56.5677 7.38146C59.2892 9.05418 61.592 11.3542 60.964 14.4905L60.7546 15.3269C60.3359 18.0451 59.0798 22.0178 58.0331 27.036C57.8237 27.8723 58.6611 28.4996 59.2892 28.2905C60.7546 27.8723 62.8481 27.8723 64.5229 28.2905C66.407 27.6633 68.2911 27.6633 69.7566 28.2905C70.5939 28.4996 71.222 27.8723 71.222 27.036C70.1752 22.0178 68.9192 17.836 68.5005 15.3269L68.2911 14.4905C67.6631 11.3542 69.7565 8.84509 72.6874 7.38146C74.7809 6.12691 78.7585 2.78146 81.6894 1.10874C81.8987 1.10874 82.108 0.899644 82.108 0.899644C82.7361 0.481463 83.3641 0.481464 83.7828 0.272374C86.295 -0.145808 89.4352 1.31783 96.1343 3.61783C97.8091 4.2451 99.6932 4.45419 100.949 5.29055C102.205 6.12691 103.252 7.59055 103.461 9.26327L110.998 47.945L114.557 38.536C115.394 36.4451 118.535 29.336 122.931 29.7542C127.746 30.3814 128.793 34.1451 127.955 37.2814L123.978 57.5632Z" fill="#EED3C7"/>
<path d="M112.884 48.7814L109.953 60.6996L109.743 60.9087C94.0422 69.4814 99.4853 90.1814 99.4853 90.3904C99.6946 90.8086 99.2759 91.2268 98.8572 91.4359C98.4385 91.4359 98.0198 91.2268 98.0198 90.8086C98.0198 90.5995 92.1581 69.0632 108.487 59.445L111.209 48.1541C111.209 47.945 111.209 47.945 111.418 47.736L111.627 49.1996H111.837L112.255 47.5269C112.674 47.945 112.884 48.3632 112.884 48.7814Z" fill="#EED3C7"/>
<path d="M77.2916 55.4724C77.2916 55.8906 77.0823 56.3088 76.6636 56.5179C76.2449 56.5179 75.8262 56.3088 75.6169 55.8906L70.1738 28.7088C70.1738 28.2906 70.3832 27.8724 70.8019 27.6633C71.0112 27.6633 71.2206 27.6633 71.4299 27.8724C71.6393 27.8724 71.6393 28.0815 71.8486 28.2906L77.2916 55.4724Z" fill="#CAA39F"/>
<path d="M88.1787 50.6635C88.1787 51.0816 87.9693 51.4998 87.5506 51.4998C87.1319 51.4998 86.7132 51.2907 86.7132 50.8726L77.502 4.66351C77.502 4.24533 77.7113 3.82715 78.13 3.82715C78.5487 3.82715 78.9674 4.03624 79.1767 4.45442L88.1787 50.6635Z" fill="#CAA39F"/>
<path d="M100.533 46.6906C100.533 47.1088 100.324 47.527 99.9054 47.7361C99.4867 47.9452 99.068 47.527 98.8586 47.1088L90.2754 2.99066C90.2754 2.57248 90.4847 2.1543 90.9034 2.1543C91.3221 2.1543 91.7408 2.36339 91.9502 2.78157L100.533 46.6906Z" fill="#CAA39F"/>
<path d="M112.884 48.7814L109.953 60.6996L109.743 60.9087C94.0422 69.4814 99.4853 90.1814 99.4853 90.3904C99.6946 90.8086 99.2759 91.2268 98.8572 91.4359C98.4385 91.4359 98.0198 91.2268 98.0198 90.8086C98.0198 90.5995 92.1581 69.0632 108.487 59.445L111.209 48.1541C111.209 47.945 111.209 47.945 111.418 47.736C111.627 47.5269 111.837 47.5269 112.255 47.5269C112.255 47.5269 112.255 47.5269 112.465 47.5269C112.674 47.945 112.884 48.3632 112.884 48.7814Z" fill="#CAA39F"/>
<path d="M16.7911 48.7815L19.722 60.6997L19.9313 60.9088C35.423 69.6906 29.98 90.3906 29.98 90.5997C29.7707 91.0178 30.1893 91.436 30.608 91.6451C31.0267 91.6451 31.4454 91.436 31.4454 91.0179C31.4454 90.8088 37.3072 69.2724 20.9781 59.6543L18.2565 48.3634C18.2565 48.1543 18.2565 48.1543 18.0472 47.9452L17.8378 49.4088H17.6285L17.2098 47.7361C16.7911 47.9452 16.5818 48.3634 16.7911 48.7815Z" fill="#EED3C7"/>
<path d="M52.3789 55.4724C52.3789 55.8906 52.5883 56.3088 53.007 56.5179C53.4256 56.5179 53.8443 56.3088 54.0537 55.8906L59.4967 28.7088C59.4967 28.2906 59.2874 27.8724 58.8687 27.6633C58.6593 27.6633 58.45 27.6633 58.2406 27.8724C58.0313 27.8724 58.0313 28.0815 57.8219 28.2906L52.3789 55.4724Z" fill="#CAA39F"/>
<path d="M41.4961 50.6635C41.4961 51.0816 41.7054 51.4998 42.1241 51.4998C42.5428 51.4998 42.9615 51.2907 42.9615 50.8726L52.1728 4.66351C52.1728 4.24533 51.9635 3.82715 51.5448 3.82715C51.1261 3.82715 50.7074 4.03624 50.498 4.45442L41.4961 50.6635Z" fill="#CAA39F"/>
<path d="M29.1426 46.6906C29.1426 47.1088 29.3519 47.527 29.7706 47.7361C30.1893 47.9452 30.608 47.527 30.8174 47.1088L39.4006 2.99066C39.4006 2.57248 39.1913 2.1543 38.7726 2.1543C38.3539 2.1543 37.9352 2.36339 37.7258 2.78157L29.1426 46.6906Z" fill="#CAA39F"/>
<path d="M16.7918 48.7815L19.7227 60.6997L19.932 60.9088C35.4237 69.6906 29.9807 90.3906 29.9807 90.5997C29.7713 91.0178 30.19 91.436 30.6087 91.6451C31.0274 91.6451 31.4461 91.436 31.4461 91.0179C31.4461 90.8088 37.3078 69.2724 20.9787 59.6543L18.2572 48.3634C18.2572 48.1543 18.2572 48.1543 18.0479 47.9452C17.8385 47.7361 17.6292 47.7361 17.2105 47.7361C17.2105 47.7361 17.2105 47.7361 17.0011 47.7361C16.7918 47.9452 16.5824 48.3634 16.7918 48.7815Z" fill="#CAA39F"/>
<path d="M64.9421 30.5904L64.5234 29.5449C64.5234 29.5449 64.5234 29.5449 64.7328 29.754C64.9421 30.1722 64.9421 30.3813 64.9421 30.5904Z" fill="black"/>
<path d="M75.4112 38.7454C73.3177 35.8181 69.7588 33.9363 65.5718 33.9363C61.3849 33.9363 57.826 35.8181 55.7325 38.9545C53.8484 34.7727 53.4297 32.4727 53.4297 31.4272C54.8951 26.6182 59.7101 23.2727 65.5718 23.2727C71.0149 23.2727 75.6205 26.2 77.2953 30.5909C77.2953 30.3818 77.2953 30.5909 77.2953 30.5909V30.8C77.5046 31.6363 77.2953 34.3545 75.4112 38.7454Z" fill="#2D2D33"/>
<path d="M92.5746 94.9909L82.1073 93.3182L81.0605 104.4L57.6136 66.7637L49.6584 54.0091C47.9836 51.5 47.565 48.3637 48.6117 45.6455L53.008 30.8C53.008 31.8455 53.4267 34.1455 55.3108 38.3273C55.9389 39.5819 56.5669 41.0455 57.4043 42.7182C59.2884 46.0637 61.5912 50.4546 65.1501 55.8909C69.9651 63.4182 83.9914 83.9091 92.5746 94.9909Z" fill="#3B3D4A"/>
<path d="M81.2719 45.6452C82.1093 48.5725 81.6906 51.4997 80.0158 54.0088L72.0606 66.7633L64.7335 78.4724L48.6137 104.4L47.567 93.3179L37.0996 94.9906C45.4735 83.6997 52.1726 74.4997 57.6157 66.7633C60.3372 62.5815 62.8493 59.027 64.9428 55.6815C68.083 50.4543 70.5952 46.2725 72.27 42.927C73.3167 41.0452 73.9448 39.5815 74.5728 38.1179C76.4569 33.727 76.6663 31.0088 76.6663 29.9634L77.2943 32.4725L81.2719 45.6452Z" fill="#3E454F"/>
</svg>
