<svg width="130" height="130" viewBox="80 40 130 130" fill="none" xmlns="http://www.w3.org/2000/svg">
<path d="M178.155 140.191C177.945 139.355 177.945 138.309 177.945 137.264C177.945 138.309 177.945 139.355 178.155 140.191Z" fill="#FAAC99"/>
<path d="M204.114 103.391C209.139 109.454 198.043 109.663 193.438 112.382C192.81 112.8 192.391 113.636 192.182 112.591C192.182 108.827 200.137 99.8361 204.114 103.391Z" fill="#F2C1BD"/>
<path d="M188.622 109.036C188.203 106.318 187.366 104.227 186.319 102.136C185.691 101.091 185.272 99.8363 186.11 98.7908C186.947 97.7454 187.994 97.7454 189.04 97.9545C190.506 98.3727 191.134 99.6272 191.343 100.882C191.762 103.809 190.506 106.318 188.622 109.036Z" fill="#94B3D6"/>
<path d="M197.205 114.891C199.299 114.264 202.648 114.473 204.114 115.936C206.417 118.027 203.486 122.418 200.764 120.745C198.461 119.282 195.949 118.236 192.6 117.609C194.065 116.354 195.53 115.309 197.205 114.891Z" fill="#94B3D6"/>
<path d="M103.208 77.6728C102.999 77.4637 102.789 77.4637 102.58 77.2546C102.999 77.4637 103.208 77.6728 103.208 77.6728Z" fill="#4CC0BE"/>
<path d="M176.063 91.0546L172.713 96.9092L171.667 98.3728V98.5819C170.41 97.9546 167.689 96.491 166.224 95.4455C164.758 94.4001 163.502 93.5637 162.037 92.9364C161.827 92.7274 161.409 92.7274 161.199 92.5183C157.012 91.0546 152.616 90.8455 148.22 91.2637C147.801 91.2637 147.173 91.2637 146.545 91.4728C136.915 92.3092 127.704 95.6546 117.655 95.4455C110.956 94.8183 105.303 92.7274 100.698 87.9183L100.488 87.7092L100.279 87.5001C100.07 87.291 100.07 87.291 99.8604 87.0819C99.4417 86.8728 99.2324 86.4546 98.8137 86.2455C98.6043 86.0365 98.395 85.8274 98.1856 85.8274C97.9763 85.8274 98.1856 86.2455 98.1856 86.4546L97.9763 85.6183L95.8828 77.2546C97.9763 80.391 103.001 85.8274 112.631 87.7092C114.305 88.1274 115.98 88.1274 117.655 88.3365C118.702 88.3365 119.748 88.3365 121.005 88.3365C129.797 87.5001 137.962 84.7819 146.545 83.7365C155.337 82.691 164.13 82.0637 171.667 87.7092C173.132 88.5455 174.597 89.8001 176.063 91.0546Z" fill="#94B3D6"/>
<path d="M195.53 58.6454L190.506 67.0091C190.087 66.5909 189.878 65.9636 189.459 65.5454C181.085 57.6 170.827 56.1363 159.941 57.6C151.776 58.8545 143.821 61.3636 135.866 63.4545C130.214 64.9181 124.352 66.1727 118.49 66.5909C118.071 66.5909 117.653 66.5909 117.234 66.5909C108.232 66.8 99.2302 63.6636 92.7404 56.9727C92.3217 56.3454 90.8563 55.0909 90.4376 55.3C90.0189 53.6272 89.6002 52.1636 89.1815 50.4909V50.2818V49.8636C88.9721 49.2363 89.8095 48.8182 90.2282 49.2363C94.4152 53.2091 105.929 62.4091 121.421 59.0636C122.049 58.8545 122.677 58.8545 123.305 58.6454C143.193 53 184.016 37.3182 195.53 58.6454Z" fill="#FF5555"/>
<path d="M190.506 67.0091L185.9 74.9545L185.691 75.1636C185.481 74.7454 182.969 71.4 177.317 68.6818C177.317 68.6818 177.317 68.6818 177.107 68.6818C176.689 68.4727 176.27 68.2636 175.851 68.0545C175.433 67.8454 175.014 67.6363 174.386 67.4272C173.967 67.2181 173.548 67.2182 172.92 67.0091C172.502 66.8 172.083 66.8 171.455 66.5909C170.827 66.3818 170.199 66.3818 169.361 66.1727H169.152C168.524 65.9636 167.687 65.9636 167.059 65.9636C167.477 65.9636 167.896 65.9636 168.315 66.1727C163.5 65.3363 157.429 65.5454 150.311 67.2181C150.311 67.2181 150.311 67.2181 150.102 67.2181C147.799 67.8454 145.287 68.2636 142.984 68.8909C133.563 71.1909 124.561 73.9091 114.722 73.7C112.838 73.7 110.954 73.4909 109.069 73.0727C108.441 72.8636 107.813 72.8636 107.395 72.6545C107.185 72.6545 106.767 72.4454 106.557 72.4454C105.72 72.2363 104.882 72.0272 104.254 71.6091C104.045 71.6091 103.836 71.4 103.417 71.1909C103.417 71.1909 103.208 71.1909 103.208 70.9818C102.998 70.9818 102.998 70.7727 102.789 70.7727C100.696 69.7272 98.602 68.4727 96.9273 66.8C96.7179 66.5909 96.5086 66.3818 96.0899 66.1727L95.8805 65.9636C95.6712 65.7545 95.4618 65.5454 95.2525 65.3363C93.7871 63.8727 92.531 62.2 91.4842 60.1091V59.9C91.4842 59.4818 91.2749 58.8545 91.2749 58.4363C91.0655 57.3909 90.6468 56.5545 90.4375 55.5091C90.8562 55.3 92.3216 56.5545 92.7403 57.1818C99.2301 63.8727 108.232 67.2182 117.234 66.8C117.653 66.8 118.071 66.8 118.49 66.8C124.352 66.3818 130.214 65.3363 135.866 63.6636C143.821 61.5727 151.776 59.0636 159.941 57.8091C170.827 56.1363 181.085 57.6 189.459 65.7545C189.878 65.9636 190.296 66.3818 190.506 67.0091Z" fill="#FFB05A"/>
<path d="M171.663 98.5818L170.617 100.255L166.011 107.782C164.336 105.691 162.871 104.227 161.196 102.973C159.521 101.927 157.847 101.091 155.544 100.673C153.66 100.255 151.566 100.045 148.845 100.045C144.239 100.045 138.168 100.673 129.794 101.718C116.814 103.391 109.069 100.882 104.882 97.9545C103.416 96.9091 102.16 95.4455 100.904 93.9818C100.276 93.3546 99.8573 92.5182 99.648 91.8909L98.3919 86.6636C98.3919 86.4546 98.1825 86.0364 98.3919 86.0364C98.6012 86.2455 98.8106 86.4546 99.0199 86.4546C99.4386 86.8727 99.648 87.0818 100.067 87.2909C100.276 87.5 100.276 87.5 100.485 87.7091L100.695 87.9182L100.904 88.1273C105.51 92.9364 111.162 95.0273 117.861 95.4455C127.701 95.8636 136.912 92.3091 146.751 91.4727C147.17 91.4727 147.798 91.4727 148.426 91.2636C153.032 90.8455 157.428 91.0546 161.405 92.5182C161.615 92.5182 162.033 92.7273 162.243 92.9364C163.708 93.5636 164.964 94.4 166.43 95.4455C167.686 96.4909 170.198 97.7455 171.663 98.5818Z" fill="#543C66"/>
<path d="M97.973 85.618C97.7637 85.618 97.973 86.0362 97.973 86.2453L97.7637 85.4089C97.7637 85.4089 97.7637 85.4089 97.973 85.618Z" fill="#543C66"/>
<path d="M160.987 92.518C156.8 91.0544 152.404 90.8453 148.008 91.2635C152.613 90.8453 156.591 90.6362 160.987 92.518Z" fill="#543C66"/>
<path d="M105.511 78.9274C105.302 78.9274 105.093 78.7183 104.883 78.7183C103.837 78.091 104.046 78.091 103.418 77.6729C103.627 77.8819 103.837 78.091 104.255 78.091C104.465 78.091 104.674 78.3001 104.674 78.3001C104.883 78.7183 105.093 78.9274 105.511 78.9274Z" fill="#4CC0BE"/>
<path d="M181.086 82.6908L180.249 84.3636L176.271 91.0545C174.806 89.7999 173.34 88.5454 171.666 87.2908C163.92 81.6454 155.127 82.2727 146.544 83.3181C137.961 84.1545 129.796 87.0818 121.004 87.9181C120.585 87.9181 119.747 88.1272 118.91 88.1272C118.491 88.1272 118.073 88.1272 117.654 88.1272C115.77 88.1272 114.095 87.9181 112.63 87.4999C103 85.6181 97.9753 80.1818 95.8818 77.0454L95.4631 75.5818L94.207 70.3545C95.8818 72.6545 99.2314 76.6272 105.093 78.7181C105.302 78.7181 105.512 78.9272 105.721 78.9272C106.559 79.3454 107.605 79.5545 108.652 79.7636H108.861H109.071H109.28H109.489H109.699C109.908 79.7636 110.117 79.7636 110.327 79.7636C110.536 79.7636 110.745 79.7636 110.955 79.9727C111.374 79.9727 112.002 80.1818 112.42 80.1818C112.63 80.1818 112.839 80.1818 113.258 80.1818C121.213 81.0181 128.959 79.1363 136.705 77.2545C145.078 75.1636 153.452 72.8636 162.036 73.4909C162.454 73.4909 162.873 73.4909 163.501 73.6999C163.92 73.6999 164.338 73.6999 164.757 73.909C164.966 73.909 165.176 73.909 165.385 74.1181C165.804 74.1181 166.223 74.3272 166.641 74.3272C172.084 75.9999 177.527 78.509 181.086 82.6908Z" fill="#44BCBC"/>
<path d="M117.233 87.918C115.559 87.918 113.884 87.709 112.209 87.2908C113.884 87.709 115.559 87.918 117.233 87.918Z" fill="#4CC0BE"/>
<path d="M140.89 153.991C141.518 154.409 142.356 154.2 142.774 153.573L156.173 131.827C155.335 131.409 154.707 130.991 154.079 130.573C153.451 130.154 152.823 129.945 152.614 129.945L150.73 133.082L139.425 151.691C139.006 152.318 139.216 153.154 139.844 153.573L140.89 153.991Z" fill="#7C95B4"/>
<path d="M170.619 108.409L166.013 107.782C164.338 105.691 162.873 104.227 161.198 102.973C158.477 101.927 155.755 102.973 155.336 106.109C155.127 106.736 154.708 107.364 154.08 107.573C152.196 107.991 151.777 109.454 151.987 111.127C151.987 111.964 151.987 112.591 151.149 113.009C149.475 113.845 149.475 115.309 149.265 116.982C149.265 117.818 149.265 118.864 148.847 119.491C146.544 124.509 147.381 126.809 151.987 129.318C152.196 129.527 152.615 129.527 152.824 129.736C153.034 129.736 153.452 130.154 154.29 130.363C154.918 130.782 155.546 131.2 156.383 131.618C156.592 131.618 156.592 131.827 156.802 131.827C159.733 133.709 163.292 136.009 164.129 136.845C164.129 138.309 164.129 139.773 163.92 141.236C161.826 156.918 163.501 148.763 160.989 164.236C160.989 164.236 158.686 171.763 168.944 169.045C179.411 166.327 180.039 165.909 180.039 164.236C179.621 156.5 178.993 147.927 178.155 139.982C177.946 139.354 177.946 138.309 177.946 137.263C177.527 131.827 177.737 124.718 177.527 120.118C177.318 115.1 174.806 111.336 170.619 108.409Z" fill="#EED3C7"/>
<path d="M105.511 78.9274C105.302 78.9274 105.093 78.7183 104.883 78.7183C103.837 78.091 104.046 78.091 103.418 77.6729C103.627 77.8819 103.837 78.091 104.255 78.091C104.465 78.091 104.674 78.3001 104.674 78.3001C104.883 78.7183 105.093 78.9274 105.511 78.9274Z" fill="#F7CB57"/>
<path d="M102.789 77.2546C102.998 77.4637 103.208 77.4637 103.417 77.6728C103.208 77.6728 102.998 77.4637 102.789 77.2546Z" fill="#F7CB57"/>
<path d="M105.511 78.9274C105.302 78.9274 105.093 78.7183 104.883 78.7183C103.837 78.091 104.046 78.091 103.418 77.6729C103.627 77.8819 103.837 78.091 104.255 78.091C104.465 78.091 104.674 78.3001 104.674 78.3001C104.883 78.7183 105.093 78.9274 105.511 78.9274Z" fill="#F7CB57"/>
<path d="M169.572 66.1728C170.2 66.3819 170.828 66.3819 171.666 66.591C171.247 66.3819 170.619 66.3819 170.2 66.1728C169.991 66.1728 169.782 66.1728 169.572 66.1728ZM167.27 65.7546C167.898 65.7546 168.735 65.9637 169.363 65.9637C169.154 65.9637 168.735 65.7546 168.526 65.7546C168.107 65.9637 167.688 65.7546 167.27 65.7546Z" fill="#EFE86F"/>
<path d="M185.691 74.9544C185.481 74.5363 182.969 71.1908 177.317 68.4726C177.317 68.4726 177.317 68.4726 177.107 68.4726C176.689 68.2635 176.27 68.0544 175.851 67.8453C175.433 67.6363 175.014 67.4272 174.386 67.2181C173.967 67.009 173.549 67.009 172.921 66.7999C172.502 66.5908 172.083 66.5908 171.455 66.3817C170.827 66.1726 170.199 66.1726 169.362 65.9635H169.152C168.524 65.7544 167.687 65.7544 167.059 65.7544C167.478 65.7544 167.896 65.7544 168.315 65.9635C163.5 65.1272 157.429 65.3363 150.311 67.009C150.311 67.009 150.311 67.009 150.102 67.009C147.799 67.6363 145.287 68.0544 142.984 68.6817C133.563 70.9817 124.561 73.6999 114.722 73.4908C112.838 73.4908 110.954 73.2817 109.07 72.8635C108.442 72.6544 107.813 72.6544 107.395 72.4453C107.185 72.4453 106.767 72.2363 106.557 72.2363C105.72 72.0272 104.883 71.8181 104.255 71.3999C104.045 71.3999 103.836 71.1908 103.417 70.9817C103.417 70.9817 103.208 70.9817 103.208 70.7726C102.998 70.7726 102.998 70.5635 102.789 70.5635C100.696 69.5181 98.6022 68.2635 96.9274 66.5908C96.7181 66.3817 96.5087 66.1726 96.09 65.9635L95.8807 65.7544C95.6713 65.5454 95.462 65.3363 95.2526 65.1272C93.7872 63.6635 92.5311 61.9908 91.4844 59.8999L93.5778 68.2635L93.7872 69.5181L93.9965 69.9363C95.6713 72.2363 99.0209 76.209 104.883 78.2999C103.836 77.6726 104.045 77.6726 103.417 77.2544C103.627 77.4635 103.836 77.6726 104.255 77.6726C104.464 77.6726 104.673 77.8817 104.673 77.8817C104.883 78.0908 105.301 78.0908 105.511 78.2999C106.348 78.7181 107.395 78.9272 108.442 79.1362H108.651H108.86H109.07H109.279H109.488C109.698 79.1362 109.907 79.1362 110.116 79.1362C110.326 79.1362 110.535 79.1362 110.744 79.3453C111.163 79.3453 111.791 79.5544 112.21 79.5544C112.419 79.5544 112.628 79.5544 113.047 79.5544C121.002 80.3908 128.748 78.509 136.494 76.6272C144.868 74.5363 153.242 72.2363 161.825 72.8635C162.244 72.8635 162.663 72.8635 163.291 73.0726C163.709 73.0726 164.128 73.0726 164.547 73.2817C164.756 73.2817 164.965 73.2817 165.175 73.4908C165.593 73.4908 166.012 73.6999 166.431 73.6999C171.874 74.7453 177.317 77.2544 180.876 81.4362L185.691 74.9544ZM103.417 77.6726H103.627C103.627 77.6726 103.627 77.6726 103.836 77.6726C103.627 77.6726 103.417 77.6726 103.417 77.6726Z" fill="#EFE86F"/>
<path d="M199.299 61.3637C194.693 68.891 170.618 108.409 170.618 108.409C170.2 109.036 169.781 109.664 169.572 110.082C168.944 110.918 168.316 112.173 166.641 111.546C165.803 111.336 165.385 110.5 165.385 109.873C165.385 109.455 165.385 109.036 165.594 108.618L166.013 107.782L170.618 100.255L171.665 98.5819L171.875 98.3728L172.712 96.9092L176.271 91.0546L180.248 84.3637L181.295 82.691L185.901 74.9546L186.11 74.7455L190.716 66.8001L195.74 58.6456C195.74 58.6456 195.74 58.6456 195.74 58.4365C196.368 57.391 198.043 57.1819 198.88 58.2274L199.508 58.8546C199.718 59.691 199.718 60.5274 199.299 61.3637Z" fill="#7C95B4"/>
<path d="M195.53 58.6453L190.506 67.0089L195.53 58.6453C195.321 58.6453 195.53 58.6453 195.53 58.6453Z" fill="#7C95B4"/>
</svg>
