<svg width="131" height="118" viewBox="0 0 131 118" fill="none" xmlns="http://www.w3.org/2000/svg">
<path fill-rule="evenodd" clip-rule="evenodd" d="M73.6694 40.2541C74.3806 39.798 75.1804 39.2851 74.7038 38.5804C74.7973 38.4679 74.9581 38.3081 75.1569 38.1106C76.0877 37.1856 77.8519 35.4324 77.4477 33.8308C75.479 34.7103 73.462 35.4775 71.4062 36.1286C71.3602 35.1005 69.7472 35.9151 69.3054 36.2547C69.2949 34.6416 68.4529 35.3273 67.5198 36.0873C67.2571 36.3013 66.9872 36.5211 66.7266 36.6972C67.0151 33.9659 65.2384 35.5022 63.4058 37.0867C63.368 37.1194 63.3302 37.152 63.2925 37.1847C63.304 35.4291 61.2701 37.2997 60.4023 39.2933C59.7366 37.5435 58.6988 39.1331 57.7082 41.1909C56.6582 39.7867 55.7352 41.3883 55.1693 43.0855C54.0838 43.2451 54.0384 43.3636 53.7758 44.049C53.687 44.2809 53.5733 44.5778 53.3859 44.9632C52.6704 44.3032 52.3118 45.1554 51.936 46.0489C51.803 46.365 51.6679 46.6862 51.514 46.9475C50.8475 46.7706 50.3334 47.4772 49.6304 48.4436C48.8062 49.5763 47.7224 51.0661 45.8289 51.9083C46.6965 49.6158 48.4029 48.2145 49.6841 47.1624C50.7788 46.2634 51.563 45.6194 51.2479 44.8924C51.5484 44.6916 51.93 44.5104 52.3045 44.3324C53.3297 43.8455 54.3029 43.3832 53.4218 42.6117C53.8398 42.3998 54.1708 42.2592 54.4349 42.147C55.3063 41.7767 55.4493 41.7159 55.5855 40.4266C57.5025 39.6633 59.3852 38.4911 57.5664 37.4113C59.5709 36.3677 61.2384 35.0377 60.3079 34.5149C60.0382 34.4782 59.7871 34.3571 59.5906 34.169C61.9432 33.1235 64.0347 30.5253 61.8754 30.8382C63.7585 28.5656 65.6476 26.2357 62.299 26.8288C62.4788 26.5235 62.7122 26.1981 62.9419 25.8781C63.7649 24.7309 64.5388 23.6523 62.6177 23.8121C63.2065 23.1791 63.7785 20.6911 62.423 21.6294C62.6318 21.4253 62.8556 20.6029 63.1426 19.5484C63.5663 17.9911 64.1278 15.9275 64.9824 14.6017C64.0024 12.9698 60.6846 16.9551 59.986 17.7941C59.9347 17.8558 59.8975 17.9005 59.8764 17.9247C59.057 17.3706 58.4966 18.3486 58.0103 19.1974C57.8542 19.4698 57.7057 19.7289 57.5587 19.9198C56.695 18.7751 55.2436 21.2265 54.7254 22.1017C54.6739 22.1886 54.6317 22.26 54.6001 22.3108C53.862 20.5148 53.0668 22.1878 52.396 24.8778C51.4084 22.8818 50.5411 26.8831 50.5007 27.2649C49.334 25.501 48.7746 29.5155 48.8681 29.9115C47.4235 28.9733 47.5555 30.7219 47.643 31.8825C47.6673 32.2043 47.6882 32.4809 47.6711 32.6425C46.0802 31.6632 46.3971 33.8508 46.5629 34.9951C46.5825 35.13 46.5999 35.2505 46.6119 35.3495C45.2241 34.8303 45.7959 37.0628 46.071 38.1368C46.1092 38.286 46.1416 38.4128 46.1624 38.5068C44.3274 37.5798 45.6433 42.1394 45.7589 42.3254C45.062 42.1015 45.0919 43.7774 45.1255 45.657C45.1523 47.1553 45.1814 48.783 44.8465 49.6811C44.2408 48.4355 44.39 46.1308 44.5246 44.0506C44.6759 41.713 44.8088 39.6588 43.8319 39.7091C43.9492 39.2183 44.1534 38.7012 44.3475 38.2095C44.8982 36.8148 45.3682 35.6245 43.5471 35.818C43.6615 35.3671 43.8044 34.9373 43.9357 34.5423C44.4122 33.109 44.7358 32.1354 42.9926 32.2846C43.8051 30.2659 44.4265 27.8603 42.0528 28.5561C42.9983 25.6441 43.4537 23.5299 41.0608 24.5905C42.1018 22.0553 41.6489 18.4747 40.1573 20.5183C40.1372 20.2404 40.1196 19.9672 40.1025 19.7016C39.9259 16.9554 39.8012 15.0161 37.4989 16.9562C37.3376 14.275 37.1552 11.2442 35.2954 13.1139C35.0846 11.0839 33.9174 7.67891 31.8915 9.83997C31.6809 9.4515 31.4852 8.99412 31.2778 8.50961C30.5453 6.79795 29.6678 4.74774 27.4809 4.20128C27.8139 6.17846 27.9903 8.1788 28.0086 10.1837C25.2098 8.86553 27.0529 13.5579 27.5305 14.7087C24.7599 13.49 26.9068 18.6006 27.4972 19.4157C25.1915 18.9996 26.5531 21.2891 28.1866 24.0358L28.2043 24.0656C25.6671 23.1998 28.276 27.0462 28.604 27.2352C26.1069 26.7211 28.9533 30.1486 29.4282 30.411C27.337 30.7986 29.1505 32.1675 30.1843 32.9479C30.398 33.1093 30.5785 33.2455 30.6841 33.3426C28.5943 33.7909 30.6272 35.1761 31.7252 35.9242C31.8637 36.0186 31.9874 36.1029 32.086 36.1738C30.4794 36.8075 32.8918 38.0916 33.986 38.6741C34.1281 38.7497 34.2481 38.8136 34.334 38.8626C32.0499 39.6257 36.9521 42.073 37.2007 42.0992C36.2497 42.5451 37.9904 44.4649 39.7365 46.3907C41.015 47.8008 42.2963 49.2141 42.5262 50.0544C41.723 49.5506 40.7965 48.3098 39.9516 47.1784C38.8896 45.7563 37.9566 44.5068 37.5592 45.11C37.5411 44.915 35.7845 40.502 34.8372 42.3327C34.7941 42.2462 34.7381 42.1214 34.6713 41.973C34.2197 40.9681 33.2791 38.8756 32.5538 40.1615C32.5118 40.0912 32.4639 40.0085 32.411 39.9172C31.8438 38.9376 30.7015 36.9649 30.0449 38.6615C29.9486 38.551 29.817 38.3528 29.6625 38.1201C29.0149 37.1447 27.9636 35.5612 27.4091 37.264C27.2372 36.8791 24.3533 33.9882 24.4885 36.1839C24.4172 35.9447 21.0523 33.2156 21.5508 35.4497C19.3316 33.7679 17.6817 32.9183 18.2014 34.7685C18.1286 34.7436 18.024 34.7038 17.8955 34.655C16.8719 34.2659 14.336 33.3021 14.3419 34.7092C14.1443 34.6608 13.872 34.5519 13.5744 34.4329C12.6231 34.0524 11.4139 33.5689 11.5669 34.6291C11.4687 34.6112 11.3145 34.5745 11.1166 34.5275C9.78647 34.211 6.48507 33.4254 4.98261 34.746C5.68291 35.2472 6.92222 35.9568 8.15553 36.6628C9.70721 37.5512 11.2494 38.4341 11.6966 38.89C11.6654 39.0026 11.6546 39.0594 11.6204 39.0847C11.5864 39.11 11.529 39.104 11.4049 39.0909C9.97508 39.2684 12.149 40.8296 12.7607 40.894C11.1544 41.9859 12.4516 42.3433 13.8298 42.7231C14.2026 42.8258 14.5814 42.9301 14.9102 43.0511C12.0151 44.6572 14.8443 45.3222 17.6754 45.9681C15.7222 47.075 19.0443 47.8306 21.5015 47.2594C20.196 49.1875 22.4196 48.9971 25.075 48.5626C24.3088 50.509 26.5133 50.3166 28.5097 49.7162C29.3222 50.6556 29.4824 50.6138 30.2976 50.4011C30.5885 50.3253 30.9627 50.2276 31.4797 50.1451C31.286 51.3101 32.3459 51.0701 33.4473 50.8207C33.8526 50.729 34.2636 50.6359 34.6197 50.6111C34.8157 51.3829 35.8487 51.4146 37.2877 51.4587C38.9557 51.5099 41.1691 51.5777 43.257 52.8342C41.1918 53.3727 39.374 52.8689 37.9948 52.4867C36.8387 52.1663 35.9909 51.9314 35.5641 52.4674C35.2699 52.3574 34.954 52.1805 34.6451 52.0074C33.8214 51.5461 33.0469 51.1123 32.8637 52.0477C32.4879 51.8636 32.219 51.7029 32.0073 51.5763C31.3702 51.1954 31.2513 51.1243 30.2951 51.6611C28.7931 50.692 27.0697 49.9892 27.1176 51.7317C25.0784 50.7253 23.2343 50.0676 23.8325 51.9068C22.0035 50.9225 19.7478 50.6847 19.987 51.7138C20.0061 51.7158 20.0746 51.8003 20.2264 52.0094L20.2229 52.0091C17.746 51.8639 15.2521 51.7176 17.2217 53.7391C16.9271 53.7554 16.6042 53.7494 16.2874 53.7435C15.0568 53.7205 13.9195 53.6993 14.9042 55.0006C14.3458 54.9803 12.5225 55.406 13.1934 56.191C13.1787 56.3306 11.1432 56.9144 9.29851 57.4435C8.3687 57.7102 7.48736 57.9629 6.9377 58.1379C7.73362 59.6029 10.5462 59.8293 11.7609 59.9271C11.9046 59.9386 12.0259 59.9484 12.1188 59.9582C12.1631 60.7311 13.014 60.6693 13.8142 60.6112C14.1199 60.589 14.4182 60.5673 14.6613 60.5929C14.4463 61.6119 16.1578 61.5577 17.1891 61.5251C17.4576 61.5166 17.68 61.5095 17.8103 61.5233C17.005 62.9249 18.5444 62.6238 20.735 61.8315C19.9146 63.5598 23.2312 62.1718 23.3852 61.995C22.7982 63.7092 25.8694 62.083 26.1079 61.8378C26.1839 63.3588 27.4454 62.3158 28.2226 61.6732C28.3974 61.5287 28.5477 61.4044 28.6546 61.3341C28.747 62.8711 30.1003 61.6622 30.8441 60.9978C30.9465 60.9063 31.0373 60.8252 31.1117 60.7629C31.4648 61.8682 32.5983 60.6004 33.248 59.8738C33.3734 59.7336 33.4808 59.6135 33.561 59.5345C34.0134 61.1073 36.3766 58.1324 36.5155 57.9153C36.7479 58.0943 37.1041 58.016 37.4935 57.8061C37.3476 57.9749 37.2569 58.1842 37.2334 58.406C37.21 58.6278 37.255 58.8515 37.3624 59.047C36.0079 59.7923 34.6374 60.6904 35.8708 61.0907C34.3664 61.9746 33.0228 63.1651 33.9846 63.5754C33.931 63.642 33.8771 63.7089 33.8232 63.7757C32.6676 65.2088 31.5035 66.6524 33.3762 66.4071C33.2313 66.626 33.0423 66.8549 32.857 67.0794C32.2478 67.8171 31.6788 68.5062 32.8514 68.6298C32.5061 69.1533 31.7552 70.773 32.8026 70.5552C32.9629 70.7018 32.2424 71.7239 31.4021 72.9158C30.1166 74.7394 28.5508 76.9605 29.4293 77.0531C31.3197 75.8654 32.9995 74.3723 34.3999 72.6348C34.6679 74.0546 35.5696 72.5948 36.0672 71.7891C36.1219 71.7006 36.1717 71.62 36.2152 71.552C36.9038 71.8861 37.5953 70.7987 38.0515 70.0812C38.1679 69.8982 38.269 69.7392 38.3508 69.6341C38.9577 70.5274 39.3449 69.4973 39.9395 67.9157C39.9677 67.8406 39.9964 67.7644 40.0255 67.687C40.8192 68.4077 41.3671 66.1488 41.3933 65.9006C42.2947 66.5169 42.5347 64.2448 42.567 63.9393C43.4111 64.4203 43.4045 63.2959 43.4004 62.5907C43.3995 62.4277 43.3987 62.2871 43.4085 62.1939C44.6235 61.834 44.5632 60.263 44.4951 58.4893C44.4447 57.1753 44.39 55.75 44.8463 54.6233C46.1122 58.1952 46.439 62.0319 45.7953 65.7661C49.3533 68.4963 49.0299 62.2266 46.2769 54.9865C47.1041 55.5431 47.7406 56.4814 48.3347 57.3574C49.2311 58.6789 50.0312 59.8586 51.2452 59.3712C51.3496 59.4595 51.4801 59.6169 51.6247 59.7916C52.0943 60.3584 52.714 61.1065 53.0842 60.26C53.1247 60.2905 53.1941 60.3536 53.2837 60.4351C53.7875 60.8933 54.9332 61.9354 55.2221 61.0645C55.2693 61.0871 55.3674 61.1566 55.4968 61.2484C56.0736 61.6572 57.2731 62.5075 57.367 61.6187C57.5085 61.7025 57.6457 61.7847 57.7781 61.8641C59.0917 62.6517 59.9317 63.1554 59.8661 62.1137C60.0079 62.1452 60.2029 62.2116 60.4261 62.2877C61.2437 62.5662 62.44 62.9737 62.788 62.2673C62.8775 62.297 62.9849 62.3355 63.1035 62.3781C63.9993 62.6993 65.5375 63.2508 64.8839 62.0055C67.0549 62.5043 69.2934 62.6423 71.5093 62.4142C72.1313 61.7731 69.4538 60.9711 67.3096 60.3288C65.939 59.9183 64.7863 59.573 64.8523 59.3767C65.8113 58.8986 64.2419 58.0188 63.6875 57.9604C64.6033 57.1934 63.6903 56.9799 62.728 56.755C62.4425 56.6882 62.1527 56.6205 61.905 56.5369C63.5217 55.5482 61.9216 55.1791 60.2001 54.782C60.0292 54.7426 59.8572 54.7029 59.6869 54.6623C60.1872 53.769 58.3823 53.656 56.6959 53.8837C57.3884 52.8177 55.7504 52.954 54.2189 53.1787C54.369 52.6732 54.1154 52.5113 53.7522 52.4731C54.0581 52.5053 54.3882 52.3085 54.2122 51.9617C54.4567 52.0261 58.1893 52.9213 57.5397 51.3857C57.6338 51.3983 57.7648 51.4221 57.919 51.4502C58.8576 51.6209 60.6542 51.9478 60.2051 50.8558C60.3062 50.8594 60.4318 50.8678 60.5727 50.8773C61.5859 50.9457 63.3875 51.0672 62.5195 49.8063C62.6465 49.7945 62.8439 49.7989 63.0741 49.804C64.0825 49.8262 65.7206 49.8624 64.8289 48.6211C65.173 48.6573 68.579 48.0702 67.0791 47.082C67.3085 47.1062 70.7357 46.1353 69.0586 45.3601C71.2794 44.6482 72.7103 43.911 71.2063 43.3277C71.2634 43.2855 71.3452 43.2292 71.4439 43.1614C72.2138 42.6316 74.0084 41.3969 73.0935 40.6501C73.2536 40.5208 73.4575 40.39 73.6694 40.2541ZM39.2446 56.6006C38.5833 56.8764 37.9869 57.287 37.4935 57.8061C37.6547 57.707 37.8145 57.6057 37.9728 57.5022C38.1993 57.3171 38.4412 57.1515 38.6959 57.0074C38.881 56.8749 39.0639 56.7392 39.2446 56.6006ZM41.9314 54.9532C40.9447 55.3382 40.0349 55.8961 39.2446 56.6006C40.1989 56.1533 41.1001 55.6007 41.9314 54.9532Z" fill="#96DAD5"/>
<path d="M86.0322 24.1005L86.3782 13.3684L86.705 5.47769V5.18966L86.3975 4.99772C86.1309 4.7548 85.9192 4.4579 85.7767 4.12683C85.6342 3.79577 85.564 3.43815 85.5708 3.07783C85.5023 2.55943 85.6254 2.03384 85.9169 1.59948C86.1104 1.34323 86.3904 1.16583 86.705 1.10029H87.0317C86.9299 1.08311 86.826 1.08311 86.7242 1.10029C86.4383 1.18372 86.1925 1.36794 86.0322 1.6187C85.7919 2.04441 85.7231 2.5456 85.8399 3.02018C85.858 3.3336 85.9428 3.63957 86.0887 3.91767C86.2345 4.19576 86.438 4.43964 86.6857 4.63294C86.8095 4.7377 86.945 4.8278 87.0894 4.90163V5.01682V5.28563L87.3777 13.33L87.6661 24.0622V26.8076C89.3658 27.0597 91.0479 27.4188 92.7024 27.8828C90.7416 28.4302 88.7437 28.8344 86.7242 29.0923L86.5128 29.2075L85.1287 29.937L79.362 33.2776L78.6507 33.6809C78.5167 33.7519 78.3989 33.8499 78.3048 33.9688C78.1026 34.3102 77.9718 34.689 77.9203 35.0823C77.7848 36.2035 77.7206 37.3321 77.7281 38.4614C77.7281 40.842 77.7281 43.3186 77.7281 45.8144C77.9588 60.1176 77.5742 73.0385 77.5166 82.2923L77.3244 97.4403C77.3244 97.4403 76.7862 91.6806 76.2864 82.3115C75.7866 72.9425 75.4982 60.0216 75.2676 45.8337C75.2676 43.3186 75.2676 40.8612 75.2676 38.4037C75.2872 37.1504 75.39 35.8997 75.5752 34.6599C75.6891 33.8816 75.9927 33.1432 76.4594 32.5096C76.7252 32.182 77.0515 31.9083 77.4205 31.7033C77.7665 31.4921 77.9588 31.4154 78.2279 31.2618L84.1291 28.1323L85.5517 27.3836H85.7438C85.7373 27.3133 85.7373 27.2426 85.7438 27.1724L86.0322 24.1005Z" fill="white"/>
<path d="M85.3566 0.274538H92.7381C92.9568 0.264243 93.1753 0.297386 93.381 0.37215C93.5868 0.446913 93.7756 0.561849 93.9366 0.710099C94.0975 0.858349 94.2274 1.03698 94.3187 1.23577C94.4099 1.43456 94.4606 1.64953 94.468 1.86808V4.44066C94.4622 4.76762 94.3558 5.08482 94.1632 5.34928C93.9707 5.61374 93.7012 5.81269 93.3916 5.91901V25.9819C97.4667 27.9018 104.233 32.4518 104.233 34.1797V97.7089C104.173 98.8125 103.679 99.8477 102.858 100.589C102.037 101.33 100.956 101.716 99.8504 101.664H78.2443C77.1409 101.716 76.0618 101.329 75.2438 100.588C74.4258 99.8461 73.9356 98.8108 73.8809 97.7089V34.103C73.8809 32.4327 80.5125 28.0553 84.7222 26.0778V5.84226C84.4105 5.73675 84.1386 5.53862 83.9427 5.2744C83.7469 5.01019 83.6367 4.69248 83.6267 4.36391V1.79121C83.6657 1.36522 83.8669 0.970496 84.1888 0.688303C84.5106 0.406111 84.9286 0.258005 85.3566 0.274538ZM86.3755 13.4449L86.0295 24.1772V27.2106C86.0229 27.2809 86.0229 27.3515 86.0295 27.4218H85.8372L84.4147 28.1706L78.5134 31.2999C78.2443 31.4535 78.0521 31.5303 77.7061 31.7415C77.3371 31.9466 77.0109 32.2202 76.745 32.5479C76.2783 33.1814 75.9746 33.9198 75.8607 34.6981C75.6755 35.9379 75.5728 37.1886 75.5532 38.4419C75.5532 40.8994 75.5532 43.3568 75.5532 45.8719C75.7839 60.1367 76.0145 73.0767 76.5719 82.3498C77.1294 91.6228 77.61 97.4785 77.61 97.4785L77.8022 82.3305C77.8022 72.9807 78.2443 60.0598 78.0136 45.8527C78.0136 43.3568 78.0136 40.8801 78.0136 38.4995C78.0061 37.3702 78.0704 36.2417 78.2059 35.1206C78.2575 34.7273 78.3882 34.3484 78.5903 34.007C78.6844 33.8881 78.8023 33.79 78.9364 33.719L79.6476 33.3159L85.4143 29.9752L86.7983 29.2457L87.0097 29.1305C89.0292 28.8726 91.0273 28.4684 92.988 27.921C91.3336 27.457 89.6515 27.098 87.9517 26.8458V24.1003L87.6633 13.3682L87.3749 5.32385V5.05504V4.93985C87.2305 4.86602 87.0951 4.77581 86.9713 4.67104C86.7237 4.47774 86.5201 4.23398 86.3743 3.95589C86.2284 3.67779 86.1436 3.37182 86.1256 3.0584C86.0087 2.58382 86.0774 2.08251 86.3177 1.6568C86.478 1.40604 86.7238 1.22194 87.0097 1.13851C87.1115 1.12133 87.2155 1.12133 87.3173 1.13851H86.9906C86.676 1.20405 86.3959 1.38145 86.2024 1.6377C85.9109 2.07206 85.7879 2.59754 85.8564 3.11594C85.8496 3.47625 85.9198 3.83387 86.0623 4.16494C86.2049 4.496 86.4164 4.79291 86.683 5.03582L86.9906 5.22788V5.5158L86.3755 13.4449Z" fill="#543C66"/>
<path d="M62.3803 103.314C62.3778 103.69 62.3261 104.064 62.2265 104.427C62.0343 105.22 61.6497 105.953 61.1066 106.563C60.5635 107.172 59.8787 107.639 59.1125 107.921L33.2967 117.329C32.686 117.555 32.0364 117.659 31.3854 117.634C30.7344 117.609 30.0948 117.455 29.5034 117.182C28.9121 116.909 28.3806 116.522 27.9396 116.043C27.4987 115.564 27.1569 115.003 26.9341 114.391L10.7488 70.234C10.525 69.6226 10.4241 68.9731 10.4517 68.3228C10.4794 67.6724 10.6352 67.0338 10.9101 66.4437C11.185 65.8535 11.5738 65.3232 12.054 64.8832C12.5343 64.4431 13.0967 64.102 13.709 63.8792L39.5248 54.4717C40.1379 54.246 40.7898 54.144 41.4426 54.1717C42.0955 54.1994 42.7363 54.3561 43.3281 54.6329C43.9199 54.9097 44.4508 55.301 44.8901 55.7841C45.3294 56.2672 45.6684 56.8326 45.8874 57.4475L50.2701 69.3892L51.5388 72.8258L62.0727 101.624C62.2703 102.166 62.3743 102.737 62.3803 103.314Z" fill="#C3D7ED"/>
<path d="M36.1403 94.6354C36.0822 94.6377 36.0243 94.6268 35.9711 94.6036C35.9178 94.5803 35.8705 94.5452 35.8327 94.501C35.7856 94.4334 35.7604 94.353 35.7604 94.2706C35.7604 94.1883 35.7856 94.1079 35.8327 94.0403C36.3562 92.9669 36.6508 91.7967 36.6978 90.6037C36.3366 90.8862 35.9429 91.1247 35.5252 91.3141C34.9075 91.5331 34.2583 91.6498 33.603 91.6596C32.3987 91.6579 31.2236 91.2894 30.2345 90.6034C29.2453 89.9173 28.4892 88.9463 28.0669 87.8198C27.4325 86.0536 27.9323 83.6154 29.5662 80.5627C30.52 78.6662 31.7294 76.9091 33.1609 75.3406H33.3338C33.7567 75.3406 43.3872 77.2604 45.0019 81.6762C45.5348 83.1428 45.4637 84.7605 44.8043 86.1749C44.1449 87.5892 42.9509 88.6848 41.4841 89.2213C41.0386 89.3425 40.5808 89.4134 40.1194 89.4326C40.9347 90.3148 41.9226 91.0205 43.022 91.506C43.0957 91.5434 43.1567 91.6014 43.1977 91.6731C43.2387 91.7448 43.2578 91.8269 43.2526 91.9092C43.2481 91.9923 43.218 92.0719 43.1664 92.1373C43.1148 92.2026 43.0442 92.2504 42.9643 92.274L36.4479 94.6546L36.1403 94.6354Z" fill="#543C66"/>
<path d="M129.738 70.176L113.571 114.333C113.117 115.565 112.192 116.566 110.999 117.117C109.806 117.668 108.443 117.723 107.209 117.271L81.3739 107.863C80.6059 107.584 79.9194 107.118 79.3759 106.508C78.8324 105.899 78.4489 105.163 78.2598 104.369C78.151 104.008 78.0991 103.633 78.1061 103.256C78.0984 102.661 78.196 102.069 78.3944 101.509L88.9668 72.7103L90.197 69.312L94.5797 57.3704C94.8009 56.7571 95.1412 56.1933 95.5809 55.7116C96.0207 55.2299 96.5514 54.8396 97.1425 54.5631C97.7336 54.2866 98.3735 54.1295 99.0256 54.1006C99.6777 54.0717 100.329 54.1716 100.942 54.3946L126.739 63.8212C127.979 64.2678 128.992 65.1878 129.554 66.3792C130.116 67.5706 130.182 68.9361 129.738 70.176Z" fill="#C3D7ED"/>
<path d="M100.923 94.0402H100.769C100.699 94.0142 100.638 93.9703 100.59 93.913C100.543 93.8557 100.512 93.787 100.5 93.7138C100.127 91.5917 99.481 89.5266 98.5775 87.5702C97.6746 85.6057 96.5108 83.7717 95.1174 82.1177C95.0687 82.061 95.036 81.9924 95.0225 81.9189C95.0091 81.8454 95.0154 81.7697 95.0408 81.6994C95.0662 81.6291 95.1098 81.5669 95.1671 81.5189C95.2245 81.471 95.2936 81.4391 95.3673 81.4265C99.6124 80.6377 103.584 78.7735 106.901 76.0124C106.961 75.975 107.031 75.9553 107.103 75.9553C107.174 75.9553 107.244 75.975 107.304 76.0124C107.377 76.0373 107.441 76.0805 107.492 76.1377C107.542 76.1949 107.577 76.2642 107.593 76.3389C107.958 78.4689 108.605 80.5412 109.515 82.5016C110.434 84.4573 111.597 86.2893 112.975 87.9542C113.025 88.0089 113.059 88.0762 113.073 88.1489C113.087 88.2216 113.081 88.2967 113.055 88.3662C113.029 88.4356 112.985 88.4966 112.927 88.5424C112.869 88.5882 112.799 88.6172 112.725 88.6261C108.481 89.4173 104.51 91.2813 101.192 94.0402C101.105 94.0744 101.009 94.0744 100.923 94.0402Z" fill="#543C66"/>
<path d="M90.2141 69.3119V99.4734C90.2141 100.787 89.6916 102.047 88.7615 102.976C87.8314 103.905 86.57 104.427 85.2547 104.427H78.277C78.1681 104.066 78.1162 103.69 78.1231 103.313H62.3992C62.3967 103.689 62.345 104.064 62.2454 104.427H55.2677C53.9506 104.427 52.6872 103.905 51.754 102.977C50.8209 102.049 50.2941 100.789 50.2891 99.4734V69.3119L51.5578 72.7486V51.3033C51.5578 49.9896 52.0802 48.7297 53.0103 47.8008C53.9404 46.8719 55.2018 46.3501 56.5171 46.3501H84.0052C85.3223 46.3501 86.5857 46.8712 87.5188 47.7996C88.452 48.728 88.9787 49.9879 88.9838 51.3033V72.7101L90.2141 69.3119Z" fill="#94B3D6"/>
<path d="M88.9652 51.3033V98.3598C88.9652 99.0119 88.8363 99.6576 88.5859 100.26C88.3354 100.862 87.9684 101.409 87.5058 101.869C87.0433 102.329 86.4943 102.694 85.8904 102.942C85.2865 103.189 84.6395 103.316 83.9866 103.313H56.4985C55.8465 103.316 55.2004 103.189 54.5976 102.941C53.9947 102.693 53.447 102.328 52.986 101.868C52.525 101.407 52.1598 100.86 51.9114 100.258C51.6631 99.6563 51.5366 99.011 51.5391 98.3598V51.3033C51.5391 49.9896 52.0616 48.7297 52.9916 47.8008C53.9217 46.8719 55.1832 46.3501 56.4985 46.3501H83.9866C85.3037 46.3501 86.5671 46.8712 87.5002 47.7996C88.4334 48.728 88.9601 49.9879 88.9652 51.3033Z" fill="#C3D7ED"/>
<path d="M70.2422 79.7949C70.1731 79.8146 70.0999 79.8146 70.0308 79.7949C69.6271 79.5645 60.1504 73.92 60.1504 68.6403C60.1501 67.4648 60.4658 66.3107 61.0646 65.2987C61.6633 64.2866 62.5231 63.4536 63.5542 62.8867C64.5853 62.3198 65.7499 62.0398 66.9263 62.0758C68.1027 62.1119 69.2479 62.4628 70.2422 63.0918C71.2923 62.4217 72.5138 62.0685 73.7599 62.0743C75.5019 62.0794 77.1711 62.7727 78.4029 64.003C79.6346 65.2333 80.3289 66.9005 80.334 68.6403C80.334 73.7856 70.742 79.7949 70.2422 79.7949Z" fill="#543C66"/>
</svg>
