<svg width="57" height="45" viewBox="0 0 57 45" fill="none" xmlns="http://www.w3.org/2000/svg">
<path d="M54.3997 27.0417L55.7519 29.5476C55.8559 29.652 55.8559 29.8608 55.8559 29.9652C55.8559 30.0696 55.7519 30.2784 55.6478 30.3828C55.5438 30.4872 55.4398 30.5916 55.2318 30.5916C55.1278 30.5916 54.9197 30.5916 54.8157 30.5916L51.5913 29.4431C51.2792 29.3387 50.8632 29.2343 50.5511 29.3387C50.2391 29.3387 49.823 29.4431 49.615 29.652C46.2865 31.7401 42.23 32.5754 38.3814 31.9489C34.4289 31.3225 30.8924 29.2343 28.396 26.2065C25.8997 23.0742 24.6515 19.2111 24.8595 15.2436C25.0676 11.2761 26.7318 7.51739 29.5402 4.69836C32.3486 1.87934 36.0931 0.208806 40.0457 -1.10324e-05C43.9982 -0.208828 47.8468 1.04407 50.9672 3.54987C54.0876 6.05567 56.1679 9.50115 56.792 13.4687C57.4161 17.3318 56.584 21.4037 54.5037 24.7448C54.2957 25.058 54.1916 25.4756 54.0876 25.8933C54.0876 26.3109 54.1916 26.7285 54.3997 27.0417Z" fill="#94B3D6"/>
<path d="M49.7191 12.1113H32.1407C31.9326 12.1113 31.7246 11.9025 31.7246 11.6937V11.1717C31.7246 10.9628 31.9326 10.754 32.1407 10.754H49.7191C49.9272 10.754 50.1352 10.9628 50.1352 11.1717V11.6937C50.1352 11.9025 49.9272 12.1113 49.7191 12.1113Z" fill="#543C66"/>
<path d="M49.7191 20.0464H32.1407C31.9326 20.0464 31.7246 19.8376 31.7246 19.6288V19.1067C31.7246 18.8979 31.9326 18.6891 32.1407 18.6891H49.7191C49.9272 18.6891 50.1352 18.8979 50.1352 19.1067V19.6288C50.1352 19.8376 49.9272 20.0464 49.7191 20.0464Z" fill="#543C66"/>
<path d="M47.3268 16.0789H32.1407C31.9326 16.0789 31.7246 15.8701 31.7246 15.6612V15.1392C31.7246 14.9304 31.9326 14.7216 32.1407 14.7216H47.3268C47.5348 14.7216 47.7429 14.9304 47.7429 15.1392V15.6612C47.8469 15.8701 47.6388 16.0789 47.3268 16.0789Z" fill="#543C66"/>
<path d="M2.6004 39.884L1.24821 42.3898C1.1442 42.4942 1.1442 42.703 1.1442 42.8074C1.1442 42.9118 1.24821 43.1206 1.35223 43.225C1.45624 43.3294 1.56026 43.4338 1.76829 43.4338C1.8723 43.4338 2.08033 43.4338 2.18434 43.4338L5.4088 42.2853C5.72084 42.1809 6.1369 42.0765 6.44894 42.1809C6.76099 42.1809 7.17704 42.2853 7.38507 42.4942C10.7135 44.5823 14.7701 45.4176 18.6187 44.7911C22.5712 44.1647 26.1077 42.0765 28.6041 39.0487C31.1004 35.9164 32.3486 32.0533 32.1406 28.0858C31.9325 24.1183 30.2683 20.3596 27.4599 17.5406C24.6515 14.7215 20.907 13.051 16.9544 12.8422C13.0019 12.6334 9.04931 13.8863 6.03288 16.2877C2.91245 18.7935 0.832154 22.2389 0.208066 26.2065C-0.416022 30.0696 0.416095 34.1415 2.49639 37.4826C2.70442 37.7958 2.80843 38.2134 2.91245 38.6311C2.91245 39.1531 2.80843 39.5707 2.6004 39.884Z" fill="#FFAFA7"/>
<path d="M7.28105 24.9536H24.8595C25.0675 24.9536 25.2756 24.7447 25.2756 24.5359V24.0139C25.2756 23.8051 25.0675 23.5963 24.8595 23.5963H7.28105C7.07302 23.5963 6.86499 23.8051 6.86499 24.0139V24.5359C6.86499 24.7447 7.07302 24.9536 7.28105 24.9536Z" fill="#543C66"/>
<path d="M7.28105 32.8886H24.8595C25.0675 32.8886 25.2756 32.6798 25.2756 32.471V31.9489C25.2756 31.7401 25.0675 31.5313 24.8595 31.5313H7.28105C7.07302 31.5313 6.86499 31.7401 6.86499 31.9489V32.471C6.86499 32.6798 7.07302 32.8886 7.28105 32.8886Z" fill="#543C66"/>
<path d="M9.67334 28.9211H24.8595C25.0675 28.9211 25.2755 28.7123 25.2755 28.5035V27.9814C25.2755 27.7726 25.0675 27.5638 24.8595 27.5638H9.67334C9.46531 27.5638 9.25728 27.7726 9.25728 27.9814V28.5035C9.15327 28.7123 9.3613 28.9211 9.67334 28.9211Z" fill="#543C66"/>
</svg>
