<?xml version="1.0" encoding="utf-8"?>
<!-- Generator: Adobe Illustrator 19.0.0, SVG Export Plug-In . SVG Version: 6.00 Build 0)  -->
<svg version="1.1" id="Layer_1" xmlns="http://www.w3.org/2000/svg" xmlns:xlink="http://www.w3.org/1999/xlink" x="0px" y="0px"
	 viewBox="-412 176 135 142" style="enable-background:new -412 176 135 142;" xml:space="preserve">
<style type="text/css">
	.st0{fill:#FFFFFF;}
	.st1{fill:#672348;}
	.st2{fill:#F2C1BD;}
	.st3{fill:#EED3C7;}
	.st4{fill:#96DAD5;}
	.st5{fill:#2A8C79;}
	.st6{fill:#E9F4FF;}
	.st7{fill:#44BCBC;}
	.st8{fill:#CAA39F;}
	.st9{fill:#473049;}
	.st10{fill:#A84367;}
	.st11{fill:#C1AB85;}
	.st12{fill:#D9A29D;}
	.st13{fill:#EDE6CD;}
	.st14{fill:#BBB395;}
	.st15{fill:#B3816B;}
</style>
<path class="st0" d="M-277.4,176.6h-134v134h134V176.6z"/>
<path class="st1" d="M-348.1,198.6c-0.4-1-1-1.9-1.9-2.5c-0.8-0.6-1.9-0.8-2.9-0.8c-0.2,0-0.4,0-0.4-0.2c-0.2,0-0.2-0.2-0.4-0.4
	c-4-6.5-10.9-6.5-16.7-5.2c-5.9,1-11.7,4.8-13.2,10.7c-0.2,1.3,0,2.7,0.4,4c-0.2,3.6-0.4,9.8,0.2,13l34.5,1.3
	C-347.1,213.2-346.7,201.9-348.1,198.6z"/>
<path class="st2" d="M-384.3,220.1c0.2,4.2,3.3,6.3,5.7,5.7l-1.7-9.4c-0.6,0-1,0-1.7,0.2c-0.4,0.2-1,0.4-1.5,0.8s-0.6,0.8-0.8,1.3
	C-384.1,219.1-384.3,219.7-384.3,220.1z"/>
<path class="st2" d="M-351.1,217.6l-2.3,9.6c2.1,0.8,5.9-0.8,6.5-5c0-0.6,0-1.3-0.2-1.7c-0.2-0.6-0.4-1-0.8-1.5s-0.8-0.8-1.5-1
	C-349.8,217.8-350.4,217.6-351.1,217.6z"/>
<path class="st3" d="M-383.1,282.5l-16.5-1.9c0,9.8,0.8,20.1,1.3,25.5c0,0.4,0.2,1,0.6,1.3c0.4,0.4,0.8,0.4,1.3,0.4h13.4V282.5z"/>
<path class="st3" d="M-349,282.5v25.5h14c0-5.2,0.2-15.9,0.2-27L-349,282.5z"/>
<path class="st4" d="M-330.3,280c-1.5-5.7-6.5-24.9-9.6-28.7c-3.1-4-13.4-5.4-17.4-7.3h-18c-4,1.9-14.2,3.3-17.4,7.3
	c-6.7,8-8.2,23-9.6,28.7c0,0.2,0,0.6,0,0.8c0,0.2,0.2,0.6,0.2,0.8c0.2,0.2,0.4,0.4,0.6,0.6c0.2,0.2,0.4,0.2,0.8,0.2l10.5,0.8h46.7
	l11.7-0.8c0.2,0,0.6-0.2,0.8-0.2c0.2-0.2,0.4-0.4,0.6-0.6c0.2-0.2,0.2-0.4,0.2-0.8C-330.3,280.6-330.3,280.2-330.3,280z"/>
<path class="st3" d="M-360.3,253.8c-0.2,0.6-0.6,1.9-0.6,1.9c-1.9,0.6-8.8,0.6-10.7,0c-0.2-0.8-0.4-1.7-0.8-2.3
	c-2.7-2.3-1.5-10.5-1-11.1c0.4-0.8,0.8-1.7,1-2.5c0.2-1.3,0.4-2.7,0.4-4l11.5,0.8c0,1.3,0,2.7,0.4,4c0.2,0.8,0.4,1.5,1,2.1
	C-358.8,243.2-357.8,251.5-360.3,253.8z"/>
<path class="st5" d="M-360.9,253.4c1.9-4.4,1.5-9,1-11.5c-0.2-1,2.3-1.7,2.9-1c5.4,4.2,6.3,12.4,5.2,13.4
	C-354.2,256.6-358.2,251.1-360.9,253.4z"/>
<path class="st6" d="M-360.7,254.7c-3.1,1-9.6,0.6-11.5,0.2l-1.9,53.4h15.9L-360.7,254.7z"/>
<path class="st4" d="M-342.5,261.8l-12.6-10.5l-5.9,2.1c-0.4,1-0.8,2.3-0.8,3.3c-0.6,7.7,1.7,41,0,51.3h18.4
	c0.4-4.4-0.4-26-0.4-33.7C-343.9,271.2-342.5,261.8-342.5,261.8z"/>
<path class="st4" d="M-371.2,257c0-1.3-0.4-2.3-0.8-3.3c-0.4-0.6-1.3-2.5-1.3-2.5l-18.6,10.9c0,0,1.7,9.4,1.7,12.6
	c0,7.7-0.8,29.5-0.4,33.7h19.7C-372.6,298-370.5,264.7-371.2,257z"/>
<path class="st7" d="M-390.4,284.8c-0.2,0-0.4,0-0.6-0.2c-0.2,0-0.4-0.2-0.4-0.4c0-0.2-0.2-0.2-0.2-0.4c0-0.2,0-0.4,0-0.6
	c0-3.8,0.2-6.9,0.2-9c0-3.1-1.7-12.1-1.7-12.4c0-0.4,0-0.8,0.2-1c0.2-0.4,0.6-0.6,0.8-0.6c0.4,0,0.8,0,1,0.2
	c0.4,0.2,0.6,0.6,0.6,0.8c0,0.4,1.7,9.4,1.7,12.8c0,2.1,0,5.4-0.2,9c0,0.4-0.2,0.8-0.4,1C-389.8,284.8-390,284.8-390.4,284.8z"/>
<path class="st7" d="M-343.7,284.8c-0.4,0-0.8-0.2-1-0.4c-0.2-0.2-0.4-0.6-0.4-1c0-3.4-0.2-6.9-0.2-9c0-3.3,1.7-12.4,1.7-12.8
	s0.2-0.6,0.6-1c0.4-0.2,0.6-0.2,1-0.2s0.6,0.2,0.8,0.6c0.2,0.4,0.2,0.6,0.2,1c0,0-1.7,9.2-1.7,12.4c0,2.3,0,5.7,0.2,9
	c0,0.2,0,0.4,0,0.6c0,0.2-0.2,0.4-0.2,0.4c-0.2,0.2-0.2,0.2-0.4,0.4C-343.3,284.8-343.5,284.8-343.7,284.8z"/>
<path class="st1" d="M-326.8,207.2c-2.3,6.3-3.3,13-2.7,19.7c1.9,18.8-5.7,35-2.5,42.9c5.7,14.4,27.8,11.7,32.2,8
	c9.8-8.2,1.5-64.1-3.1-79.1C-310.7,192.3-323.2,196.9-326.8,207.2z"/>
<path class="st2" d="M-302.3,268.7l-22-0.2c-2.5,6.5-4,12.8-10.7,22.8l-4.2-7.7c2.7-9.2,7.1-26,8.8-30.8c1-3.1,3.6-4.6,6.3-5.4
	c1.5-0.4,3.1-0.8,4.8-1c1.3-0.2,2.3-0.4,3.6-1c0.4-0.2,0.6-0.6,0.8-1c0.2-0.4,0.4-0.8,0.4-1.3c0.2-1.5,0-2.9,0-4.2l9.6-0.6l0.6,3.6
	L-302.3,268.7z"/>
<path class="st3" d="M-320.7,268.5l18.6,0.2l-2.1-27.2l-0.6-3.6l-9.6,0.6c0.2,1.5,0.2,2.9,0,4.2c0,0.4-0.2,0.8-0.4,1.3
	c-0.2,0.4-0.6,0.8-0.8,1c-1,0.6-2.3,1-3.6,1c-1.3,0.2-2.5,0.4-3.8,0.8C-323,247.3-321.3,265.6-320.7,268.5z"/>
<path class="st1" d="M-302.7,198.6l-0.8,24.5l-0.8,9.2l12.4-3.3c0-1.3,0.2-2.9,0.2-4C-290.8,208-298.1,199.4-302.7,198.6z"/>
<path class="st2" d="M-302.3,222.4c0,0.6,0,1.3,0.4,1.9c0.2,0.6,0.6,1,1,1.5c0.4,0.4,1,0.8,1.5,1c0.6,0.2,1.3,0.4,1.9,0.4
	c3.1-0.2,4.8-3.1,4.8-5.9c0-0.6-0.2-1.3-0.4-1.9c-0.2-0.6-0.8-1-1.3-1.5c-0.6-0.4-1.3-0.6-1.9-0.6c-0.6,0-1.3,0-1.9,0.4
	C-300.6,218-302.3,219.7-302.3,222.4z"/>
<path class="st3" d="M-289.1,250.9c-3.3-4.2-9-2.7-13.4-5.9c-2.1-1.5-2.3-4.6-2.3-7.1h-5.7l5,32.7c-1.9,14.2,11.1,28.9,10.9,37.5
	h0.8c1.5,0,2.7-0.6,3.8-1.5c1-1,1.7-2.3,1.7-3.8C-287,275.6-285.3,255.5-289.1,250.9z"/>
<path class="st3" d="M-354.6,203.6c-0.4-0.6-1.3-1-2.1-1.5c-0.8-0.2-1.7-0.2-2.5,0c-1.7,0.4-3.3,1.7-5,1.7c-1.9,0-4.2-1.3-5.4-2.1
	c-1-0.6-2.1-0.6-3.3-0.4c-1,0.2-2.1,0.8-2.7,1.9c-2.1,2.9-2.7,8.4-4.6,13.2c0,6.1,2.7,13,2.9,13.8c1,5,4.4,5.9,8.8,7.7
	c1.3,0.6,2.7,0.6,4.2,0.2c4.4-1.5,8-1.9,9.4-6.9c0.2-0.6,3.1-7.7,4-13.6C-352.5,213.4-352.5,206.3-354.6,203.6z"/>
<path class="st1" d="M-354.2,213.6c-0.2,0-0.6,0-0.8-0.2c-1.5-1-4.8-0.8-5.7-0.4c-0.4,0.2-0.8,0.2-1,0c-0.4-0.2-0.6-0.4-0.8-0.8
	c-0.2-0.4-0.2-0.8,0-1c0.2-0.4,0.4-0.6,0.6-0.8c1.7-0.8,6.1-1.3,8.6,0.6c0.2,0.2,0.4,0.4,0.4,0.6c0,0.2,0,0.6,0,0.8
	c0,0.2-0.2,0.6-0.6,0.6C-353.8,213.4-354,213.6-354.2,213.6z"/>
<path class="st1" d="M-355.9,219.9c-0.2,0-0.4,0-0.6-0.2c-0.2,0-0.4-0.2-0.4-0.4c-0.2-0.4-1.9-0.2-2.3,0.2c-0.2,0.2-0.2,0.2-0.4,0.2
	c-0.2,0-0.4,0-0.6,0c-0.2,0-0.4,0-0.6-0.2c-0.2-0.2-0.4-0.2-0.4-0.4c-0.2-0.2-0.4-0.6-0.4-1s0.2-0.8,0.4-1c1.3-0.8,2.7-1.3,4-1
	c0.4,0,1,0.2,1.5,0.4c0.4,0.2,0.8,0.6,1,1c0.2,0.2,0.2,0.4,0.2,0.8c0,0.2,0,0.6-0.2,0.8c-0.2,0.2-0.2,0.4-0.6,0.6
	C-355.3,219.7-355.5,219.9-355.9,219.9z"/>
<path class="st1" d="M-368.9,213c-0.2,0-0.6,0-0.8-0.2c-1-0.6-4.4-1.3-5.9-0.4c-0.4,0.2-0.6,0.2-1,0.2c-0.4,0-0.6-0.4-0.8-0.6
	c-0.2-0.4-0.2-0.6-0.2-1s0.4-0.6,0.6-0.8c2.5-1.5,7.3-0.6,8.8,0.6c0.2,0.2,0.4,0.4,0.6,0.6c0.2,0.2,0.2,0.6,0,0.8
	c0,0.2-0.2,0.6-0.4,0.8C-368.2,213.2-368.4,213-368.9,213z"/>
<path class="st1" d="M-370.5,219.3c-0.2,0-0.4,0-0.6-0.2c-0.2,0-0.4-0.2-0.4-0.4c-0.6-0.4-1.5-0.6-2.3-0.4c-0.2,0.2-0.2,0.2-0.4,0.4
	c-0.2,0-0.4,0.2-0.6,0.2c-0.2,0-0.4,0-0.6,0c-0.2,0-0.4-0.2-0.4-0.2c-0.2-0.2-0.2-0.2-0.4-0.4c0-0.2-0.2-0.4-0.2-0.6
	c0-0.2,0-0.4,0-0.6c0-0.2,0.2-0.4,0.2-0.4c0.4-0.4,0.8-0.6,1.3-0.8c0.4-0.2,1-0.2,1.5-0.2c1.3,0,3.1,0.6,3.8,1.5
	c0.2,0.2,0.2,0.4,0.2,0.8c0,0.2,0,0.6-0.2,0.8C-370.1,218.9-370.1,219.1-370.5,219.3C-370.3,219.3-370.1,219.1-370.5,219.3z"/>
<path class="st8" d="M-365.7,229.6c-1,0-1.9-0.2-2.9-0.6c-0.2,0-0.4-0.2-0.4-0.4c-0.2-0.2-0.2-0.2-0.2-0.4c0-0.2,0-0.4,0-0.6
	c0-0.2,0-0.4,0.2-0.6c0-0.2,0.2-0.4,0.4-0.4c0.2-0.2,0.4-0.2,0.4-0.2s0.4,0,0.6,0c0.2,0,0.4,0,0.6,0.2c0.4,0.2,0.8,0.4,1.5,0.4
	c0.4,0,1,0,1.5-0.2c0.4-0.2,0.8,0,1,0c0.4,0.2,0.6,0.4,0.6,0.8c0.2,0.4,0,0.8,0,1c-0.2,0.4-0.4,0.6-0.8,0.8
	C-364.3,229.3-364.9,229.6-365.7,229.6z"/>
<path class="st9" d="M-296.6,219.1c-0.4,0-0.8-0.2-1-0.4c-0.2-0.2-0.4-0.6-0.4-1c-0.2-3.8-1-7.3-2.3-10.7c-0.2-0.4-0.2-0.8,0-1
	c0.2-0.4,0.4-0.6,0.6-0.8c0.4-0.2,0.6-0.2,1,0c0.4,0.2,0.6,0.4,0.8,0.6c1.7,3.8,2.5,8,2.7,12.1c0,0.4-0.2,0.8-0.4,1
	C-295.8,219.1-296.2,219.1-296.6,219.1z"/>
<path class="st2" d="M-292.7,308.3h-38.9c4.2-13.6,11.5-19.7,10.9-25.3c-0.2-3.8-4.6-10.7-4.4-15.5c0-3.1,1.9-6.1,2.3-8
	c0.6-2.7-1-11.3-1.3-11.9c1.5-0.4,3.1-0.8,4.8-1c2.3,4.8,5,9.2,8.4,13.2c0.2,0.2,0.6,0.6,1,0.6c0.4,0.2,0.8,0.2,1.3,0.2
	c0.4,0,0.8-0.2,1.3-0.4c0.4-0.2,0.6-0.4,0.8-0.8c2.1-2.9,6.5-10,7.3-12.6c1.5,0.4,2.9,0.8,4.4,1.3c0,0-0.4,8.4,0,11.3
	c0.2,2.3,1.9,5,1.9,7.1c0.4,6.5-2.1,15.9-2.3,17.6c-0.8,4.2,4.6,10.7,6.5,20.3c0.2,0.6,0,1,0,1.7c-0.2,0.6-0.4,1-0.6,1.5
	c-0.4,0.4-0.8,0.8-1.3,1C-291.6,308.1-292.2,308.3-292.7,308.3z"/>
<path class="st3" d="M-289.1,250.9l-4.4,17.8c-0.6,4.8-2.7,9.4-2.9,14.9c0,1,0.2,2.3,0.4,3.4c1.3,10.7,1.7,13.6,1.5,21.1h4.2
	c0.4,0,1-0.2,1.3-0.6c0.4-0.4,0.6-0.8,0.6-1.3c0-1.3,0.2-2.5,0.2-3.8C-287,275.4-285.3,255.5-289.1,250.9z"/>
<path class="st1" d="M-292,228.3l-12.1,1.9l-0.6,7.7c-1.7,14.7,11.5,17,4.8,37.9c-2.7,8.8,12.6,9.4,12.1-7.5
	C-287.8,254-292.4,242.1-292,228.3z"/>
<path class="st3" d="M-296.6,217.6c-5.4-1.3-9.6-8.2-11.1-11.1c0-0.2-0.2-0.4-0.4-0.4c-0.2-0.2-0.4-0.2-0.6-0.2c-0.2,0-0.4,0-0.6,0
	c-0.2,0-0.4,0.2-0.4,0.4c-2.7,3.3-8.6,12.4-15.3,13c0.8,9.4,2.9,13.8,6.5,16.7c2.3,2.1,5,3.3,8,4c0.6,0.2,1.5,0.2,2.1-0.2
	c2.9-1,5.4-2.7,7.5-5C-298.1,231.6-296.2,226.8-296.6,217.6z"/>
<path class="st8" d="M-310.4,231.6c-0.8,0-1.5-0.2-2.1-0.6c-0.2-0.2-0.2-0.2-0.4-0.4c0-0.2-0.2-0.4-0.2-0.6c0-0.2,0-0.4,0-0.6
	c0-0.2,0.2-0.4,0.2-0.4c0.2-0.2,0.2-0.2,0.4-0.4c0.2,0,0.4-0.2,0.6-0.2c0.2,0,0.4,0,0.6,0c0.2,0,0.4,0.2,0.4,0.2
	c0.2,0,0.2,0.2,0.4,0c0.2,0,0.2,0,0.4-0.2c0.2-0.2,0.6-0.4,1-0.6c0.4,0,0.8,0,1,0.2c0.2,0.2,0.4,0.6,0.6,1c0,0.4,0,0.8-0.2,1
	c-0.4,0.4-0.8,0.8-1.3,1C-309.4,231.6-310,231.6-310.4,231.6z"/>
<path class="st1" d="M-306.9,216.6c-0.4,0-0.6-0.2-0.8-0.4c-0.2-0.2-0.4-0.4-0.4-0.8c0-0.4,0-0.6,0.2-1c0.2-0.2,0.4-0.6,0.6-0.6
	c2.3-0.8,6.1-0.4,6.5-0.4c0.4,0,0.6,0.2,1,0.6c0.2,0.2,0.4,0.6,0.2,1c0,0.4-0.2,0.6-0.6,1c-0.2,0.2-0.6,0.4-1,0.2
	c-1.7-0.2-3.4-0.2-4.8,0.2C-306.7,216.6-306.9,216.6-306.9,216.6z"/>
<path class="st1" d="M-322.2,219.1c-0.4,0-0.6-0.2-0.8-0.2c-0.2-0.2-0.4-0.4-0.4-0.8s0-0.6,0-1c0.2-0.2,0.4-0.6,0.6-0.6
	c0.6-0.4,4.2-2.1,6.7-1.5c0.4,0,0.6,0.2,0.8,0.6c0.2,0.4,0.2,0.6,0.2,1s-0.2,0.6-0.6,0.8c-0.4,0.2-0.6,0.2-1,0.2
	c-1-0.2-3.3,0.6-4.8,1.3C-321.8,218.9-322,219.1-322.2,219.1z"/>
<path class="st10" d="M-325.9,221c-0.4,0-0.8-0.2-1-0.4c-0.2-0.2-0.4-0.6-0.4-1s0.2-0.8,0.4-1c0.2-0.2,0.6-0.4,1-0.4
	c5,0,10.3-6.7,13.4-10.7c0.6-0.8,1.3-1.5,1.7-2.1c0.2-0.4,0.6-0.6,1-0.8c0.4-0.2,0.8-0.2,1.3-0.2s0.8,0.2,1.3,0.4
	c0.4,0.2,0.6,0.6,0.8,1c0.8,1.5,4.8,9,10.3,10.3c0.2,0,0.4,0.2,0.4,0.2c0.2,0.2,0.2,0.2,0.4,0.4c0,0.2,0.2,0.4,0.2,0.6
	c0,0.2,0,0.4,0,0.6c0,0.2-0.2,0.4-0.2,0.4s-0.2,0.2-0.4,0.4c-0.2,0.2-0.4,0.2-0.6,0.2c-0.2,0-0.4,0-0.6,0c-6.3-1.5-10.7-9-11.9-11.5
	c-0.4,0.4-0.8,1-1.5,1.7C-313.8,213.6-319.5,221-325.9,221z"/>
<path class="st10" d="M-296.6,219.1c-0.4,0-0.8-0.2-1-0.4c-0.2-0.2-0.4-0.6-0.4-1c-0.2-3.8-1-7.3-2.3-10.7c-0.2-0.4-0.2-0.8,0-1
	c0.2-0.4,0.4-0.6,0.6-0.8c0.4-0.2,0.6-0.2,1,0c0.4,0.2,0.6,0.4,0.8,0.6c1.7,3.8,2.5,8,2.7,12.1c0,0.4-0.2,0.8-0.4,1
	C-295.8,219.1-296.2,219.1-296.6,219.1z"/>
<path class="st5" d="M-372,253.4c-1.5-3.6-1.9-7.7-1.3-11.5c0.2-1-1.9-1.7-2.7-1c-5.4,4.2-6.3,12.4-5.2,13.4
	C-378.7,256.6-374.7,251.1-372,253.4z"/>
<path class="st11" d="M-327,264.1c1.3-0.8,4.2-1.3,5-3.3c2.1-5-0.8-10.9-5.7-15.3c0,0,0,0,0-0.2c0,0,0,0,0-0.2c0,0,0,0,0-0.2
	c0-0.2,0,0,0.2-0.2c0.4-0.2,0.6-0.4,0.8-0.8c0.2-0.4,0.2-0.8,0.2-1.3c-0.2-1-1.9-1-2.9-1c-0.2,0-0.4,0-0.6-0.2
	c-0.2-0.2-0.4-0.4-0.4-0.6c-0.6-3.6-4.6-4-4.2-1v0.2c0,0,0,0.2-0.2,0.2h-0.2h-0.2c-6.3-3.1-12.8-3.3-16.5,1c0,0-4.2,3.6-7.1,5.9
	c-4.6,3.6-6.7,13.4-0.8,16.3L-327,264.1z"/>
<path class="st12" d="M-362.8,267.7c0.4,1.3,1.3,2.5,2.5,3.1c1.3,0.6,2.5,1,4,0.6l-1.7-9C-361.9,262-363.4,264.9-362.8,267.7z"/>
<path class="st12" d="M-326.8,262.4l-1.7,9c1.3,0.2,2.7,0,4-0.6c1.3-0.6,2.1-1.9,2.5-3.1C-321.3,264.9-322.8,262-326.8,262.4z"/>
<path class="st3" d="M-324.7,306.2h-35.6c-6.9,0-10.3-6.3-5.7-11.3c1.5-1.5,2.9-2.7,4.6-3.8c4.6-2.7,10.3-2.5,13-6.1
	c0.8-1,1.5-2.1,1.7-3.6h8.4c0.2,1.3,0.8,2.5,1.7,3.6c2.9,3.3,8.6,3.3,13,6.1c1.7,1,3.3,2.3,4.6,3.8
	C-314.2,299.9-317.8,306.2-324.7,306.2z"/>
<path class="st13" d="M-311.3,308.3h-62.4c3.6-7.3,5.4-13,12.4-17c2.1-1,4.2-2.1,6.5-2.5c4.6,4.6,8.8,5.9,12.4,5.9s7.7-1.5,12.4-5.9
	c2.3,0.6,4.6,1.5,6.5,2.5C-316.7,295.3-314.8,300.9-311.3,308.3z"/>
<path class="st8" d="M-336.6,285.2c-0.4,0.2-1,0.4-1.7,0.6c-1.3,0.6-2.7,0.8-4.2,0.8c-1.5,0-2.9-0.4-4.2-0.8c-0.6-0.2-1-0.4-1.7-0.6
	c0.8-1,1.5-2.1,1.7-3.6h8.4C-338.1,282.9-337.5,284.2-336.6,285.2z"/>
<path class="st3" d="M-346,249.9c-0.4-0.6-0.8-1.7-1.7-2.1c-0.8-0.2-1.7,0.2-2.1,1.3c-0.8,2.3-3.6,12.4-8.2,13.4
	c0.4,2.5,0.8,6.1,1.3,7.5c0.6,2.7,1.9,5.2,3.6,7.3c1.9,2.1,4,3.8,6.7,4.6c1.3,0.6,2.7,0.8,4.2,0.8c1.5,0,2.9-0.4,4.2-0.8
	c2.5-1,4.8-2.5,6.7-4.6c1.9-2.1,2.9-4.6,3.6-7.3c0.4-1.7,0.8-5.2,1.3-7.5C-329.5,257.4-343.3,254-346,249.9z"/>
<path class="st14" d="M-359.6,299.9l-1,8.4h-2.9l1.3-8.8c0-0.4,0.2-0.6,0.6-0.8s0.6-0.2,1-0.2s0.6,0.2,0.8,0.6
	C-359.6,299.1-359.6,299.5-359.6,299.9z"/>
<path class="st0" d="M-342.5,295.9c-4.6,0-9-2.1-13.4-6.3c-0.2-0.2-0.2-0.2-0.4-0.4c0-0.2-0.2-0.4-0.2-0.6c0-0.2,0-0.4,0-0.6
	c0-0.2,0.2-0.4,0.2-0.4c0.2-0.2,0.2-0.2,0.4-0.4c0.2,0,0.4-0.2,0.6-0.2c0.2,0,0.4,0,0.6,0.2c0.2,0,0.4,0.2,0.4,0.4
	c7.3,7.3,15.3,7.3,22.4,0c0.2-0.2,0.2-0.2,0.4-0.4c0.2,0,0.4-0.2,0.6-0.2c0.2,0,0.4,0,0.6,0.2c0.2,0,0.4,0.2,0.4,0.4
	c0.2,0.2,0.2,0.2,0.2,0.4c0,0.2,0.2,0.4,0,0.6c0,0.2,0,0.4-0.2,0.6c0,0.2-0.2,0.4-0.4,0.4C-333.3,293.8-337.9,295.9-342.5,295.9z"/>
<path class="st14" d="M-321.1,308.3h-2.9l-1-8.4c0-0.4,0-0.8,0.2-1c0.2-0.2,0.6-0.4,0.8-0.6c0.4,0,0.8,0,1,0.2
	c0.2,0.2,0.4,0.6,0.6,0.8L-321.1,308.3z"/>
<path class="st15" d="M-351.7,264.5c-0.4,0-0.8-0.2-1-0.4c-0.2-0.2-0.4-0.6-0.4-1s0.2-0.6,0.2-1c0.2-0.2,0.4-0.4,0.8-0.6
	c1-0.4,3.3-0.8,4.6,0c0.2,0.2,0.4,0.6,0.6,1c0,0.4,0,0.8-0.2,1c-0.2,0.2-0.6,0.4-1,0.6c-0.4,0-0.8,0-1-0.2c-0.4,0-1,0-1.5,0.2
	c-0.2,0.2-0.2,0.2-0.4,0.4C-351.3,264.5-351.5,264.5-351.7,264.5z"/>
<path class="st15" d="M-353.6,259.3c-0.4,0-0.6-0.2-0.8-0.2c-0.2-0.2-0.4-0.4-0.4-0.8c0-0.4,0-0.6,0-1c0.2-0.2,0.4-0.6,0.6-0.6
	c2.3-1.3,4.8-1.7,7.3-0.8c0.2,0,0.4,0.2,0.4,0.2c0.2,0.2,0.2,0.2,0.4,0.4c0,0.2,0.2,0.4,0.2,0.6c0,0.2,0,0.4,0,0.6
	c0,0.2-0.2,0.4-0.2,0.4c-0.2,0.2-0.2,0.2-0.4,0.4c-0.2,0-0.4,0.2-0.6,0.2c-0.2,0-0.4,0-0.6,0c-1.9-0.4-3.8-0.2-5.2,0.6
	C-353.2,259.3-353.4,259.3-353.6,259.3z"/>
<path class="st15" d="M-333.3,264.5c-0.2,0-0.4,0-0.6-0.2c-0.2,0-0.4-0.2-0.4-0.4c-0.2-0.2-0.4-0.2-0.8-0.2c-0.2,0-0.6,0-0.8,0.2
	c-0.2,0.2-0.4,0.2-0.4,0.2c-0.2,0-0.4,0-0.6,0c-0.2,0-0.4,0-0.6-0.2c-0.2,0-0.2-0.2-0.4-0.4c-0.2-0.2-0.4-0.6-0.2-1
	c0-0.4,0.2-0.8,0.6-1c1.3-1,3.8-0.6,4.6,0c0.4,0.2,0.6,0.4,0.8,0.6c0.2,0.2,0.2,0.6,0.2,1c0,0.2,0,0.4-0.2,0.6
	c0,0.2-0.2,0.4-0.4,0.4c-0.2,0.2-0.2,0.2-0.4,0.4C-332.8,264.5-333.1,264.5-333.3,264.5z"/>
<path class="st15" d="M-331.4,259.3c-0.2,0-0.4,0-0.6-0.2c-1.7-0.8-3.6-1.3-5.2-0.6c-0.4,0-0.8,0-1-0.2c-0.4-0.2-0.6-0.4-0.6-0.8
	s0-0.8,0.2-1c0.2-0.4,0.4-0.6,0.8-0.6c2.5-0.6,5.2-0.4,7.3,0.8c0.2,0.2,0.4,0.4,0.6,0.6c0.2,0.2,0.2,0.6,0,1c0,0.2-0.2,0.6-0.4,0.8
	C-330.8,259.1-331,259.3-331.4,259.3z"/>
<path class="st0" d="M-339.8,269.7c0.2,0,0.2,0,0.4,0l0.2,0.2l0.2,0.2c0,0.2,0,0.2,0,0.4c-0.2,0.8-0.6,1.5-1.3,2.1
	c-0.6,0.6-1.5,0.8-2.3,0.8c-0.8,0-1.7-0.2-2.3-0.8c-0.6-0.6-1-1.3-1.3-2.1c0-0.2,0-0.2,0-0.4c0-0.2,0-0.2,0.2-0.2l0.2-0.2
	c0,0,0.2,0,0.4,0H-339.8z"/>
<path class="st2" d="M-355.7,290.9c0.2-0.2,0.6-0.4,0.6-0.6c0.2-0.2,0.2-0.6,0.2-0.8c0-0.4-0.2-0.6-0.2-0.8
	c-0.2-0.2-0.4-0.4-0.6-0.6c-0.8-0.4-1.9-0.6-2.9-0.6c-1,0-1.9,0.4-2.9,0.8c-0.8,0.4-1.7,1-2.1,1.9c-0.6,0.8-0.8,1.7-0.8,2.5
	c0,0.2,0,0.6,0.2,0.8c0.2,0.2,0.4,0.4,0.6,0.6c0.2,0.2,0.6,0.2,0.8,0.2c0.2,0,0.6,0,0.8-0.2L-355.7,290.9z"/>
<path class="st1" d="M-306.9,220.6c0.4-0.6,0.8-1,1.5-1.3c0.6-0.2,1.3-0.4,1.9-0.2c0.4,0,0.8,0.2,1,0.2c0.2,0,0.6,0,0.8,0.2
	c0.2,0,0.2,0,0.4,0.2l0.2,0.2c0,0.2,0,0.2,0.2,0.4c0,0.2,0,0.2,0,0.4c0,0,0,0,0,0.2c-0.2,0.6-0.6,1-1.3,1c-0.2,0-0.6,0.2-1,0.2
	c-0.2,0-0.6,0-0.6,0c-0.6,0.2-1,0.2-1.5,0.6c-0.2,0.2-0.6,0.2-0.8,0c-0.2,0-0.6-0.2-0.8-0.4c-0.2-0.2-0.2-0.6-0.2-0.8
	C-307.1,221-307.1,220.8-306.9,220.6z"/>
<path class="st1" d="M-316.7,223.7c-0.4,0-0.8-0.2-1-0.2c0,0-0.4,0-0.6,0.2c-0.4,0-0.6,0-1,0c-0.2,0-0.4,0-0.4-0.2
	c-0.4-0.2-0.6-0.4-0.8-0.8c-0.2-0.2-0.2-0.4-0.2-0.8c0-0.2,0.2-0.4,0.4-0.6c0.4-0.2,0.6-0.2,1-0.4c0.4-0.2,0.6-0.4,1-0.4
	c0.6-0.2,1.3-0.2,1.9,0c0.6,0.2,1.3,0.4,1.7,0.8c0.2,0.2,0.4,0.4,0.4,0.8c0,0.2,0,0.6-0.2,0.8c-0.2,0.2-0.4,0.4-0.6,0.6
	c-0.2,0.2-0.6,0.2-0.8,0.2H-316.7z"/>
</svg>
