<svg width="135" height="135" viewBox="0 0 135 135" fill="none" xmlns="http://www.w3.org/2000/svg">
<path d="M134.627 0.54541H0.644531V134.363H134.627V0.54541Z" fill="white"/>
<path d="M104.065 129.555C103.227 124.327 101.134 111.991 99.0405 105.091L63.2421 104.045C61.7767 119.309 59.8926 131.645 59.8926 131.645H102.39C102.599 131.645 103.018 131.645 103.227 131.436C103.437 131.227 103.646 131.227 103.856 131.018C104.065 130.809 104.065 130.6 104.274 130.182C104.484 129.764 104.274 129.764 104.065 129.555Z" fill="#F2C1BD"/>
<path d="M104.9 50.5179C105.319 50.9361 105.319 51.3542 105.319 51.9815C105.319 52.3997 105.109 53.027 104.691 53.2361C103.644 54.0724 102.807 55.1179 102.179 56.3724C101.76 57.2088 101.341 58.2542 101.132 59.0906C101.132 59.0906 101.132 59.0906 101.132 59.2997C100.295 62.2269 99.8758 64.9452 98.6197 67.0361C97.573 68.9179 93.8047 68.0815 91.5019 67.4542C88.1524 66.4087 78.313 62.2269 78.313 62.2269L64.4961 40.4815C65.9615 39.4361 77.8943 19.9906 81.6626 19.3633C86.6869 18.527 90.8739 20.6179 95.6889 22.0816C99.6665 23.127 103.644 23.9634 107.622 24.3816C107.203 27.0998 105.738 30.027 103.225 31.0724C105.528 37.5542 101.76 40.4815 101.969 43.4088C101.969 43.6179 101.969 43.827 101.969 44.0361C102.179 44.8724 102.388 45.4997 102.597 46.3361C103.435 47.5906 104.063 49.0543 104.9 50.5179Z" fill="#EED3C7"/>
<path d="M102.387 46.5456C102.178 46.5456 101.759 46.7547 101.341 46.7547C100.084 46.7547 98.8284 46.3365 97.7816 45.5001C97.3629 45.291 97.1536 44.8729 97.1536 44.4547C96.9442 44.0365 97.1536 43.4093 97.1536 42.9911C97.3629 42.5729 97.5723 42.1547 97.991 41.9456C98.4097 41.7365 98.8284 41.7365 99.2471 41.9456C99.8751 42.3638 100.712 42.782 101.55 42.782C101.55 42.9911 101.55 43.2002 101.55 43.6183C101.759 44.4547 101.969 45.5001 102.387 46.5456Z" fill="#765242"/>
<path d="M101.761 56.9998C101.342 57.6271 100.923 58.0453 100.504 58.6726C99.039 58.6726 97.3642 58.2544 96.3175 57.8362C95.8988 57.6271 95.8988 57.418 95.6895 57.2089C95.6895 56.9998 95.8988 56.7908 96.1081 56.5817C96.3175 56.3726 96.7362 56.3726 97.1549 56.3726C97.5736 56.3726 97.9923 56.3726 98.411 56.5817C99.4577 56.7908 100.504 56.9998 101.761 56.9998Z" fill="#CAA39F"/>
<path d="M104.063 17.4817C98.8289 18.3181 75.1727 8.28173 63.4492 16.2272L82.9185 44.4544C97.1542 43.1999 87.1055 18.9454 103.225 30.6545C108.459 28.1454 109.715 16.6454 104.063 17.4817Z" fill="#672348"/>
<path d="M109.297 110.736C121.439 98.8182 86.2686 73.3091 83.5471 47.5909C79.9882 14.3455 55.0758 12.2546 45.8645 17.691C44.6085 18.5273 43.143 19.1546 41.6776 19.5728C29.9541 23.3364 21.1616 41.3182 33.9317 48.4273C36.4439 55.3273 95.8986 135.827 109.297 110.736Z" fill="#774844"/>
<path d="M62.1951 66.1999L55.4959 67.2454C49.6342 69.1272 47.7501 70.3817 43.9818 70.5908C39.1668 71.009 38.3295 67.6635 36.4453 62.6454C36.4453 62.4363 36.4453 62.4362 36.236 62.2272C36.0266 61.3908 35.6079 60.5545 35.1892 59.9272C33.5145 56.5818 31.8397 56.5818 32.049 53.6545C32.049 52.3999 33.3051 51.1454 33.9332 49.8908C34.3519 49.0545 34.7705 48.009 34.7705 47.1727C34.7705 46.7545 34.7706 46.3363 34.5612 45.9181C33.9332 43.1999 32.049 41.3181 33.5145 36.0908C37.0734 41.109 42.7258 44.4545 52.7744 44.2454C51.309 49.8909 48.7968 55.7454 54.0305 60.9727C56.752 62.6454 59.4736 64.9454 62.1951 66.1999Z" fill="#EED3C7"/>
<path d="M38.9584 47.1727C38.3304 48.4272 37.2837 49.2636 36.0276 49.6817C35.8182 49.6817 35.6089 49.6817 35.3995 49.6817C35.1902 49.6817 34.9808 49.6817 34.7715 49.6817C35.1902 48.8454 35.3995 47.7999 35.3995 46.7545C35.8182 46.5454 36.2369 46.1272 36.6556 45.709C36.865 45.2909 37.0743 45.0818 37.493 45.0818C37.9117 45.0818 38.121 45.0818 38.5397 45.2909C38.7491 45.2909 38.7491 45.4999 38.9584 45.709C39.1678 45.9181 39.1678 46.1272 39.1678 46.1272C39.1678 46.3363 39.1678 46.5454 39.1678 46.7545C38.9584 46.7545 38.9584 46.9636 38.9584 47.1727Z" fill="#5A4972"/>
<path d="M41.2587 61.3906C40.212 62.4361 38.7465 63.0634 37.2811 63.4815C37.2811 63.2725 37.2811 63.2725 37.0718 63.0634C36.8624 62.227 36.4437 61.3907 36.2344 60.5543C37.4905 60.5543 38.5372 59.927 39.3746 59.0906C39.5839 58.8815 39.5839 58.8816 39.7933 58.8816C40.0026 58.8816 40.212 58.8816 40.4213 58.8816C40.6307 58.8816 40.84 58.8815 40.84 59.0906C41.0494 59.0906 41.0494 59.2997 41.2587 59.5088C41.4681 59.7179 41.4681 59.927 41.4681 60.1361C41.4681 60.3452 41.4681 60.5543 41.4681 60.7634C41.4681 60.9725 41.4681 61.1816 41.2587 61.3906C41.2587 61.3906 41.0494 61.5997 41.2587 61.3906Z" fill="#CAA39F"/>
<path d="M102.598 39.4363C102.389 39.4363 102.179 39.4363 101.97 39.2272C100.504 38.5999 98.8297 38.3908 97.3642 38.3908C97.1549 38.3908 96.9455 38.3908 96.7362 38.3908C96.5268 38.3908 96.3175 38.1817 96.3175 38.1817C96.1081 37.9726 96.1081 37.9727 95.8988 37.7636C95.8988 37.5545 95.6895 37.3454 95.6895 37.3454C95.6895 37.1363 95.6895 36.9272 95.6895 36.9272C95.6895 36.7181 95.8988 36.509 96.1081 36.509C96.3175 36.2999 96.3175 36.2999 96.5268 36.2999C96.7362 36.2999 96.9455 36.0908 97.1549 36.0908C99.2484 36.0908 101.342 36.2999 103.226 37.1363C103.645 37.3454 103.854 37.5545 104.063 37.7636C104.273 37.9727 104.273 38.3908 104.273 38.5999C104.273 38.809 104.063 39.2272 103.645 39.4363C103.435 39.4363 103.017 39.4363 102.598 39.4363Z" fill="#765242"/>
<path d="M63.031 131.854H24.5111C24.3017 131.854 23.883 131.854 23.6737 131.645C23.4643 131.436 23.255 131.436 23.0456 131.227C22.8363 131.018 22.8363 130.809 22.627 130.6C22.627 130.39 22.627 129.972 22.627 129.763C29.1167 88.5724 41.0495 72.2633 52.3543 67.4542C64.0777 62.436 70.9862 71.4269 74.3358 84.8087C74.9638 87.3178 76.6386 90.8724 78.9414 94.4269C78.9414 94.4269 68.8927 101.954 63.8684 103.836C63.031 113.036 62.6123 122.445 63.031 131.854Z" fill="#94B3D6"/>
<path d="M58.0068 100.909C52.7732 108.018 46.4927 114.918 41.6777 116.8C41.4684 116.8 41.259 116.8 41.0497 116.8C35.188 115.127 29.3262 115.545 26.186 113.873C25.9767 113.873 25.9767 113.664 25.7673 113.454C22.6271 108.436 16.7654 119.309 22.8365 121.4C23.0458 121.4 23.2552 121.609 23.2552 121.818C25.1393 124.536 37.2814 129.136 40.4217 129.345C48.7956 129.764 60.9377 122.027 69.1022 112.618C69.3116 112.409 69.3116 112.2 69.3116 111.991C69.3116 111.782 69.3116 111.573 69.1022 111.364L59.6816 100.909C59.2629 100.491 59.2629 100.7 59.0536 100.7C58.8442 100.7 58.6349 100.7 58.4255 100.7C58.2162 100.7 58.2162 100.7 58.0068 100.909C58.0068 100.909 58.2162 100.7 58.0068 100.909Z" fill="#F2C1BD"/>
<path d="M108.881 126.836C103.856 128.927 96.7384 129.764 86.8991 129.136C83.9682 128.927 81.0374 127.464 79.1533 125.373C76.4317 122.445 70.9887 115.127 65.3363 107.6C64.9176 107.182 64.7083 106.554 64.2896 106.136C57.1718 96.5181 50.4727 87.1091 50.4727 87.1091C50.4727 87.1091 50.8914 86.6909 51.5194 86.0636C55.497 82.3 67.6391 69.7545 67.8485 69.5454C70.7794 73.1 74.1289 78.1181 75.5944 84.3909C76.4317 86.9 77.4785 89.1999 78.7346 91.4999C78.9439 91.9181 79.3626 92.5454 79.5719 92.9636C79.7813 93.3818 79.9906 93.8 80.2 94.2182C80.4093 94.6363 80.6187 95.0545 81.0374 95.4727C84.1776 100.909 87.9459 106.345 90.2487 109.9C91.7141 111.991 105.112 115.127 105.95 114.082C106.578 113.454 107.834 108.854 111.393 111.573C113.068 112.827 114.324 114.709 114.952 117.009C115.998 122.445 111.183 125.791 108.881 126.836Z" fill="#EED3C7"/>
<path d="M79.7793 93.7998C79.7793 93.7998 71.196 100.909 62.6128 104.254C55.9137 95.4725 52.7734 91.4998 49.8426 87.1089C47.3304 83.1362 44.6089 73.3089 49.4239 69.1271C51.308 67.6634 52.5641 67.2452 55.0763 66.4089C65.3343 63.4816 72.0334 71.4271 75.1736 83.9725C76.011 86.4816 77.0577 89.1997 78.3138 91.4997C78.7325 92.3361 78.5232 92.127 79.1512 92.9634L79.7793 93.7998Z" fill="#94B3D6"/>
</svg>
