<svg width="135" height="135" viewBox="0 0 135 135" fill="none" xmlns="http://www.w3.org/2000/svg">
<rect x="0.644531" y="0.54541" width="133.982" height="133.818" fill="white"/>
<path d="M99.6824 48.6417C98.2191 48.1143 96.9549 47.1531 96.0617 45.8888C95.1685 44.6245 94.6896 43.1184 94.6899 41.5749C94.6881 40.4387 94.9496 39.3172 95.4545 38.2971C96.1557 36.9004 96.4 35.3217 96.1535 33.7808C95.907 32.2399 95.1819 30.8136 94.0791 29.7004C92.9763 28.5872 91.5508 27.8426 90.001 27.5702C88.4512 27.2978 86.8543 27.5113 85.4326 28.1808C84.4337 28.6505 83.3418 28.8937 82.2363 28.8929C80.6569 28.8936 79.1167 28.4058 77.8304 27.4974C76.5441 26.589 75.5759 25.3054 75.0607 23.8256C74.5466 22.3617 73.5887 21.091 72.3182 20.1874C71.0476 19.2837 69.5264 18.7912 67.9627 18.7772C66.399 18.7632 64.8691 19.2284 63.5823 20.1092C62.2955 20.99 61.3146 22.2433 60.774 23.6978C60.4098 24.6877 59.84 25.5908 59.1015 26.3487C58.3629 27.1066 57.4721 27.7023 56.4866 28.0973C55.5011 28.4923 54.4429 28.6779 53.3805 28.6419C52.3181 28.606 51.2752 28.3493 50.3191 27.8886C48.911 27.1941 47.3194 26.9527 45.7662 27.198C44.213 27.4432 42.7758 28.1629 41.6551 29.2567C40.5344 30.3505 39.7861 31.7637 39.5146 33.2992C39.2431 34.8348 39.462 36.416 40.1407 37.8223C40.5892 38.7768 40.8305 39.8141 40.8488 40.8669C40.8671 41.9197 40.6621 42.9645 40.247 43.9338C39.8319 44.903 39.216 45.775 38.4391 46.4932C37.6623 47.2115 36.742 47.7599 35.7377 48.1031C34.2562 48.6086 32.9693 49.5569 32.0541 50.8174C31.1388 52.0779 30.6404 53.5887 30.6272 55.1416C30.6141 56.6946 31.087 58.2134 31.9807 59.489C32.8745 60.7645 34.1452 61.7341 35.6179 62.2641C37.0769 62.7917 38.3372 63.7506 39.2284 65.0113C40.1197 66.2719 40.5989 67.7734 40.6012 69.3127C40.6009 70.4566 40.3329 71.5849 39.8183 72.6088C39.1164 74.007 38.8724 75.5876 39.1204 77.1299C39.3683 78.6722 40.0957 80.0994 41.2012 81.2122C42.3067 82.3251 43.7351 83.0681 45.2871 83.3377C46.839 83.6073 48.4372 83.3899 49.8586 82.716C50.8202 82.2712 51.8654 82.032 52.9263 82.0139C53.9873 81.9957 55.0402 82.1991 56.0167 82.6107C56.9932 83.0223 57.8714 83.633 58.5942 84.403C59.317 85.1731 59.8682 86.0852 60.2121 87.0803C60.7238 88.5496 61.6821 89.8257 62.9554 90.7332C64.2286 91.6407 65.7542 92.1349 67.3223 92.1479C68.8905 92.1609 70.4242 91.6921 71.7126 90.8059C73.001 89.9197 73.9808 88.6596 74.5172 87.199C75.0495 85.7529 76.0169 84.5036 77.2887 83.6202C78.5605 82.7368 80.0753 82.2618 81.6283 82.2595C82.7824 82.2598 83.9206 82.5254 84.9536 83.0356C86.3635 83.7339 87.9586 83.9776 89.5152 83.7324C91.0719 83.4872 92.5121 82.7655 93.6343 81.6684C94.7564 80.5712 95.5041 79.1536 95.7727 77.6141C96.0413 76.0747 95.8173 74.4905 95.1321 73.0835C94.6654 72.0978 94.4233 71.0224 94.4228 69.9336C94.4234 68.3659 94.9183 66.8376 95.8382 65.5623C96.7581 64.2871 98.0571 63.3287 99.5535 62.8211C101.031 62.3094 102.313 61.3582 103.225 60.0974C104.136 58.8365 104.633 57.3275 104.647 55.7764C104.661 54.2252 104.192 52.7075 103.303 51.4306C102.415 50.1537 101.15 49.1797 99.6824 48.6417ZM67.6364 72.1066C64.3152 72.1066 61.0686 71.1304 58.3071 69.3015C55.5457 67.4726 53.3934 64.873 52.1224 61.8317C50.8515 58.7903 50.5189 55.4436 51.1668 52.2149C51.8148 48.9862 53.4141 46.0204 55.7625 43.6926C58.1109 41.3648 61.103 39.7796 64.3604 39.1374C67.6177 38.4951 70.9941 38.8248 74.0625 40.0845C77.1308 41.3443 79.7534 43.4777 81.5986 46.2149C83.4437 48.952 84.4286 52.1701 84.4286 55.4621C84.4261 59.8757 82.6562 64.1079 79.5075 67.2289C76.3589 70.3498 72.0892 72.1042 67.6364 72.1066Z" fill="#94B3D6"/>
<path d="M41.209 89.3701H37.8699C36.3442 89.3701 35.1074 90.596 35.1074 92.1083V96.0142C35.1074 97.5265 36.3442 98.7524 37.8699 98.7524H41.209C42.7346 98.7524 43.9714 97.5265 43.9714 96.0142V92.1083C43.9714 90.596 42.7346 89.3701 41.209 89.3701Z" stroke="#473049" stroke-width="12" stroke-linecap="round" stroke-linejoin="round"/>
<path d="M59.582 89.3701H56.2429C54.7173 89.3701 53.4805 90.596 53.4805 92.1083V96.0142C53.4805 97.5265 54.7173 98.7524 56.2429 98.7524H59.582C61.1077 98.7524 62.3445 97.5265 62.3445 96.0142V92.1083C62.3445 90.596 61.1077 89.3701 59.582 89.3701Z" stroke="#473049" stroke-width="12" stroke-linecap="round" stroke-linejoin="round"/>
<path d="M77.957 89.3701H74.6179C73.0923 89.3701 71.8555 90.596 71.8555 92.1083V96.0142C71.8555 97.5265 73.0923 98.7524 74.6179 98.7524H77.957C79.4827 98.7524 80.7195 97.5265 80.7195 96.0142V92.1083C80.7195 90.596 79.4827 89.3701 77.957 89.3701Z" stroke="#473049" stroke-width="12" stroke-linecap="round" stroke-linejoin="round"/>
<path d="M97.498 89.3701H94.1589C92.6333 89.3701 91.3965 90.596 91.3965 92.1083V96.0142C91.3965 97.5265 92.6333 98.7524 94.1589 98.7524H97.498C99.0237 98.7524 100.26 97.5265 100.26 96.0142V92.1083C100.26 90.596 99.0237 89.3701 97.498 89.3701Z" stroke="#473049" stroke-width="12" stroke-linecap="round" stroke-linejoin="round"/>
<path d="M41.0234 106.331H37.6843C36.1587 106.331 34.9219 107.556 34.9219 109.069V112.975C34.9219 114.487 36.1587 115.713 37.6843 115.713H41.0234C42.5491 115.713 43.7859 114.487 43.7859 112.975V109.069C43.7859 107.556 42.5491 106.331 41.0234 106.331Z" stroke="#473049" stroke-width="12" stroke-linecap="round" stroke-linejoin="round"/>
<path d="M59.3945 106.331H56.0554C54.5298 106.331 53.293 107.556 53.293 109.069V112.975C53.293 114.487 54.5298 115.713 56.0554 115.713H59.3945C60.9202 115.713 62.157 114.487 62.157 112.975V109.069C62.157 107.556 60.9202 106.331 59.3945 106.331Z" stroke="#473049" stroke-width="12" stroke-linecap="round" stroke-linejoin="round"/>
<path d="M77.7695 106.331H74.4304C72.9048 106.331 71.668 107.556 71.668 109.069V112.975C71.668 114.487 72.9048 115.713 74.4304 115.713H77.7695C79.2952 115.713 80.532 114.487 80.532 112.975V109.069C80.532 107.556 79.2952 106.331 77.7695 106.331Z" stroke="#473049" stroke-width="12" stroke-linecap="round" stroke-linejoin="round"/>
<path d="M97.3106 106.331H93.9715C92.4458 106.331 91.209 107.556 91.209 109.069V112.975C91.209 114.487 92.4458 115.713 93.9715 115.713H97.3106C98.8362 115.713 100.073 114.487 100.073 112.975V109.069C100.073 107.556 98.8362 106.331 97.3106 106.331Z" stroke="#473049" stroke-width="12" stroke-linecap="round" stroke-linejoin="round"/>
<path d="M114.852 75.355V122.546C114.852 123.681 114.627 124.805 114.189 125.854C113.751 126.902 113.109 127.855 112.299 128.658C111.489 129.461 110.528 130.097 109.47 130.531C108.412 130.966 107.278 131.189 106.133 131.189H29.1374C27.9922 131.189 26.8582 130.966 25.8002 130.531C24.7421 130.097 23.7808 129.461 22.971 128.658C22.1613 127.855 21.519 126.902 21.081 125.854C20.6429 124.805 20.4176 123.681 20.418 122.546V68.2571C20.418 63.482 24.3199 61.4404 29.1374 61.4404H106.133C110.95 61.4404 114.852 63.482 114.852 68.2571V75.355Z" fill="#F2C1BD"/>
<path d="M114.852 68.2535V75.3568H20.418V68.2535C20.4182 67.1185 20.6441 65.9947 21.0826 64.9463C21.5212 63.8979 22.1639 62.9454 22.974 62.1433C23.7841 61.3412 24.7457 60.7052 25.8039 60.2716C26.862 59.8379 27.996 59.6153 29.1411 59.6162H106.129C107.274 59.6153 108.408 59.8379 109.466 60.2716C110.524 60.7052 111.486 61.3412 112.296 62.1433C113.106 62.9454 113.749 63.8979 114.187 64.9463C114.626 65.9947 114.852 67.1185 114.852 68.2535Z" fill="#543C66"/>
<path d="M41.2109 89.3701H37.8718C36.3462 89.3701 35.1094 90.596 35.1094 92.1083V96.0142C35.1094 97.5265 36.3462 98.7524 37.8718 98.7524H41.2109C42.7366 98.7524 43.9734 97.5265 43.9734 96.0142V92.1083C43.9734 90.596 42.7366 89.3701 41.2109 89.3701Z" fill="#96DAD5"/>
<path d="M59.582 89.3701H56.2429C54.7173 89.3701 53.4805 90.596 53.4805 92.1083V96.0142C53.4805 97.5265 54.7173 98.7524 56.2429 98.7524H59.582C61.1077 98.7524 62.3445 97.5265 62.3445 96.0142V92.1083C62.3445 90.596 61.1077 89.3701 59.582 89.3701Z" fill="#FAF3E7"/>
<path d="M77.957 89.3701H74.6179C73.0923 89.3701 71.8555 90.596 71.8555 92.1083V96.0142C71.8555 97.5265 73.0923 98.7524 74.6179 98.7524H77.957C79.4827 98.7524 80.7195 97.5265 80.7195 96.0142V92.1083C80.7195 90.596 79.4827 89.3701 77.957 89.3701Z" fill="#96DAD5"/>
<path d="M97.498 89.3701H94.159C92.6333 89.3701 91.3965 90.596 91.3965 92.1083V96.0142C91.3965 97.5265 92.6333 98.7524 94.159 98.7524H97.498C99.0237 98.7524 100.261 97.5265 100.261 96.0142V92.1083C100.261 90.596 99.0237 89.3701 97.498 89.3701Z" fill="#FAF3E7"/>
<path d="M41.0234 106.331H37.6843C36.1587 106.331 34.9219 107.556 34.9219 109.069V112.975C34.9219 114.487 36.1587 115.713 37.6843 115.713H41.0234C42.5491 115.713 43.7859 114.487 43.7859 112.975V109.069C43.7859 107.556 42.5491 106.331 41.0234 106.331Z" fill="#FAF3E7"/>
<path d="M59.3945 106.331H56.0554C54.5298 106.331 53.293 107.556 53.293 109.069V112.975C53.293 114.487 54.5298 115.713 56.0554 115.713H59.3945C60.9202 115.713 62.157 114.487 62.157 112.975V109.069C62.157 107.556 60.9202 106.331 59.3945 106.331Z" fill="#96DAD5"/>
<path d="M77.7695 106.331H74.4304C72.9048 106.331 71.668 107.556 71.668 109.069V112.975C71.668 114.487 72.9048 115.713 74.4304 115.713H77.7695C79.2952 115.713 80.532 114.487 80.532 112.975V109.069C80.532 107.556 79.2952 106.331 77.7695 106.331Z" fill="#FAF3E7"/>
<path d="M97.3125 106.331H93.9734C92.4477 106.331 91.2109 107.556 91.2109 109.069V112.975C91.2109 114.487 92.4477 115.713 93.9734 115.713H97.3125C98.8382 115.713 100.075 114.487 100.075 112.975V109.069C100.075 107.556 98.8382 106.331 97.3125 106.331Z" fill="#96DAD5"/>
<path d="M93.963 53.647H93.9621C91.4632 53.647 89.4375 55.6549 89.4375 58.1318V62.7572C89.4375 65.2341 91.4632 67.242 93.9621 67.242H93.963C96.4619 67.242 98.4876 65.2341 98.4876 62.7572V58.1318C98.4876 55.6549 96.4619 53.647 93.963 53.647Z" fill="#5D4A77"/>
<path d="M41.2343 67.2422H41.2352C43.734 67.2422 45.7598 65.2343 45.7598 62.7574V58.132C45.7598 55.6551 43.734 53.6472 41.2352 53.6472H41.2343C38.7354 53.6472 36.7097 55.6551 36.7097 58.132V62.7574C36.7097 65.2343 38.7354 67.2422 41.2343 67.2422Z" fill="#5D4A77"/>
<path d="M65.9177 56.9797C65.33 56.9813 64.7478 56.8674 64.2049 56.6446C63.6619 56.4217 63.169 56.0943 62.7545 55.6814L60.6359 53.5814C60.3842 53.3231 60.245 52.9772 60.2481 52.6181C60.2512 52.259 60.3966 51.9155 60.6527 51.6616C60.9089 51.4076 61.2555 51.2636 61.6177 51.2605C61.98 51.2574 62.329 51.3954 62.5896 51.6449L64.7082 53.7448C64.8699 53.909 65.0643 54.0381 65.279 54.124C65.4937 54.2098 65.724 54.2504 65.9554 54.2434C66.1863 54.2401 66.4142 54.1903 66.6251 54.0971C66.836 54.0039 67.0256 53.8691 67.1824 53.701L72.6529 47.8795C72.7766 47.7477 72.9253 47.6412 73.0905 47.5663C73.2557 47.4913 73.4342 47.4494 73.6157 47.4428C73.7972 47.4362 73.9783 47.4652 74.1486 47.528C74.3189 47.5908 74.475 47.6862 74.608 47.8088C74.7411 47.9314 74.8485 48.0788 74.9241 48.2425C74.9997 48.4062 75.042 48.5831 75.0486 48.7631C75.0553 48.943 75.0261 49.1225 74.9627 49.2913C74.8994 49.46 74.8031 49.6148 74.6794 49.7467L69.2024 55.5654C68.7935 56.0035 68.2991 56.3547 67.7492 56.5978C67.1993 56.8409 66.6054 56.9709 66.0033 56.9797H65.9177Z" fill="#96DAD5"/>
</svg>
