<svg width="147" height="118" viewBox="0 0 147 118" fill="none" xmlns="http://www.w3.org/2000/svg">
<g clip-path="url(#clip0)">
<path d="M74.2648 102.791C93.9201 102.791 109.854 86.8763 109.854 67.2451C109.854 47.6139 93.9201 31.6997 74.2648 31.6997C54.6095 31.6997 38.6758 47.6139 38.6758 67.2451C38.6758 86.8763 54.6095 102.791 74.2648 102.791Z" fill="#FFB05A"/>
<path d="M74.2646 24.3817C73.4272 24.3817 72.5898 23.5454 72.5898 22.709V2.21814C72.5898 1.38177 73.4272 0.54541 74.2646 0.54541C75.102 0.54541 75.9394 1.38177 75.9394 2.21814V22.709C75.9394 23.7545 75.102 24.3817 74.2646 24.3817Z" fill="#FBAF5C"/>
<path d="M98.549 31.2817C98.1303 31.2817 97.9209 31.2817 97.7116 31.0726C96.8742 30.6544 96.6649 29.6089 97.2929 28.7726L108.598 11.6271C109.016 10.7908 110.063 10.5817 110.9 11.209C111.738 11.6271 111.947 12.6726 111.319 13.509L100.014 30.6544C99.5957 31.0726 98.9677 31.2817 98.549 31.2817Z" fill="#FBAF5C"/>
<path d="M14.6006 104.672C13.9725 104.672 13.5538 104.463 13.1351 103.836C12.7164 103 12.9258 101.954 13.7632 101.536L31.139 90.4542C31.9764 90.036 33.0231 90.2451 33.4418 91.0815C33.8605 91.9178 33.6512 92.9633 32.8138 93.3815L15.438 104.463C15.2286 104.672 15.0193 104.672 14.6006 104.672Z" fill="#FBAF5C"/>
<path d="M132.881 106.973C132.462 106.973 132.044 106.764 131.834 106.554L116.343 92.9635C115.505 92.5453 115.505 91.2908 116.133 90.6635C116.761 90.0362 117.808 89.8272 118.436 90.4544L133.928 104.045C134.556 104.673 134.765 105.718 134.137 106.345C133.718 106.764 133.3 106.973 132.881 106.973Z" fill="#FBAF5C"/>
<path d="M116.134 48.427C115.506 48.427 114.878 48.0088 114.668 47.5906C114.25 46.7543 114.459 45.7088 115.296 45.2906L133.3 35.6725C134.138 35.2543 135.184 35.4634 135.603 36.2997C136.022 37.1361 135.812 38.1816 134.975 38.5997L116.971 48.2179C116.552 48.427 116.343 48.427 116.134 48.427Z" fill="#FBAF5C"/>
<path d="M144.396 72.4727H123.88C123.042 72.4727 122.205 71.6363 122.205 70.7999C122.205 69.9636 123.042 69.1272 123.88 69.1272H144.396C145.233 69.1272 146.071 69.9636 146.071 70.7999C146.071 71.6363 145.443 72.4727 144.396 72.4727Z" fill="#FBAF5C"/>
<path d="M22.5561 72.4727H2.04001C1.20262 72.4727 0.365234 71.6363 0.365234 70.7999C0.365234 69.9636 1.20262 69.1272 2.04001 69.1272H22.5561C23.3935 69.1272 24.2308 69.9636 24.2308 70.7999C24.2308 71.6363 23.6028 72.4727 22.5561 72.4727Z" fill="#FBAF5C"/>
<path d="M32.1861 48.6365C31.9768 48.6365 31.5581 48.6365 31.3487 48.4274L13.5542 38.1819C12.7168 37.7637 12.5074 36.7183 12.9261 36.091C13.3448 35.2546 14.3916 35.0455 15.229 35.4637L33.0235 45.7092C33.8609 46.1274 34.0702 47.1728 33.6515 48.0092C33.4422 48.4274 32.8142 48.6365 32.1861 48.6365Z" fill="#FBAF5C"/>
<path d="M50.3976 30.2363C49.7696 30.2363 49.1416 30.0272 48.9322 29.4L38.6742 11.6273C38.2555 10.7909 38.4648 9.74544 39.3022 9.32725C40.1396 8.90907 41.1864 9.11816 41.6051 9.95453L51.8631 27.7272C52.2818 28.5636 52.0724 29.6091 51.235 30.0272C51.0257 30.2363 50.607 30.2363 50.3976 30.2363Z" fill="#FBAF5C"/>
<path d="M72.5917 101.536V55.5363C72.5917 53.4453 68.4048 53.0272 67.5674 55.1181L58.1468 73.0999C58.1468 73.0999 54.7972 94.218 47.8887 100.073C43.2831 103.836 39.0961 108.227 35.9559 110.318C34.6998 111.154 34.9092 112.618 36.584 113.036L54.7972 117.636C55.6346 117.845 56.6813 117.845 57.3094 117.218L68.8235 108.436C71.3356 106.554 72.5917 104.045 72.5917 101.536Z" fill="#EED3C7"/>
<path d="M62.543 97.1454C62.3337 97.1454 62.3337 97.1454 62.543 97.1454C61.4963 97.1454 60.6589 96.5181 60.8682 95.6818C61.0776 85.0181 63.1711 78.9545 67.1487 77.2818C69.2421 76.4454 71.3356 77.0727 72.3823 77.7C73.2197 78.1181 73.4291 79.1636 72.801 79.7909C72.173 80.4181 71.1263 80.6272 70.2889 80.209C70.2889 80.209 69.4515 79.7909 68.8234 80.209C67.986 80.6272 64.8458 82.9272 64.6365 96.0999C64.2178 96.5181 63.3804 97.1454 62.543 97.1454Z" fill="#CAA39F"/>
<path d="M75.9395 101.536V55.5363C75.9395 53.4453 80.1264 53.0272 80.9638 55.1181L90.3844 73.0999C90.3844 73.0999 93.734 94.218 100.642 100.073C105.248 103.836 109.435 108.227 112.575 110.318C113.831 111.154 113.622 112.618 111.947 113.036L93.9433 117.636C93.1059 117.845 92.0592 117.845 91.4312 117.218L79.9171 108.436C77.4049 106.554 75.9395 104.045 75.9395 101.536Z" fill="#EED3C7"/>
<path d="M86.1974 97.1454C87.2442 97.1454 88.0815 96.5181 87.8722 95.6818C87.6628 85.0181 85.5694 78.9545 81.5918 77.2818C79.4983 76.4454 77.4048 77.0727 76.3581 77.7C75.5207 78.1181 75.3113 79.1636 75.9394 79.7909C76.5674 80.4181 77.6142 80.6272 78.4516 80.209C78.4516 80.209 79.289 79.7909 79.917 80.209C80.7544 80.6272 83.8946 82.9272 84.1039 96.0999C84.5226 96.5181 85.36 97.1454 86.1974 97.1454Z" fill="#CAA39F"/>
</g>
<defs>
<clipPath id="clip0">
<rect width="145.706" height="117.3" fill="white" transform="translate(0.365234 0.54541)"/>
</clipPath>
</defs>
</svg>
