<svg width="52" height="56" viewBox="0 0 52 56" fill="none" xmlns="http://www.w3.org/2000/svg">
<path d="M16.9057 6.57568C18.3798 6.58589 19.8334 6.92784 21.1628 7.5771C22.4922 8.22636 23.6647 9.16692 24.5964 10.3316C24.6797 10.4368 24.7851 10.5217 24.9049 10.58C25.0246 10.6384 25.1556 10.6686 25.2883 10.6686C25.4209 10.6686 25.5519 10.6384 25.6717 10.58C25.7914 10.5217 25.8968 10.4368 25.9802 10.3316C26.9119 9.16694 28.0843 8.2264 29.4137 7.57715C30.7431 6.92789 32.1968 6.58592 33.6708 6.57568C39.3772 6.57568 43.2635 11.639 43.2635 17.8837C43.2635 21.6183 41.3126 27.6627 37.4915 31.3047C32.0515 36.4901 27.4301 37.8247 25.8609 38.1452C25.4837 38.2227 25.0951 38.2227 24.7178 38.1452C23.1487 37.8242 18.525 36.4896 13.085 31.3042C9.26435 27.6627 7.31299 21.6183 7.31299 17.8837C7.31299 11.6386 11.1993 6.57568 16.9057 6.57568Z" fill="#FFAFA7"/>
<path d="M45.1502 34.7297C43.3944 35.0267 42.1853 38.0855 41.0267 39.4956C41.2057 39.2649 41.3056 38.9807 41.3111 38.6866C41.3166 38.3925 41.2274 38.1046 41.0572 37.8671C40.887 37.6296 40.6451 37.4555 40.3686 37.3715C40.0921 37.2875 39.7962 37.2982 39.5262 37.402C38.725 37.628 36.2851 38.9562 34.782 39.9083C32.393 41.4278 30.577 43.725 29.628 46.4278C29.0715 47.8799 28.0415 52.6431 28.3785 54.4618C28.4124 54.7028 28.5332 54.9222 28.7173 55.0771C29.4005 55.6689 33.1117 55.7033 33.8916 55.3267C34.0388 55.2629 34.1683 55.1633 34.2688 55.0365C34.3693 54.9098 34.4378 54.7598 34.468 54.5997C34.6099 54.0174 34.6689 52.4641 35.2019 51.4121C36.1893 49.4627 39.062 47.5653 40.2272 46.3899C41.9418 44.6602 46.3846 37.4965 46.5194 35.793C46.5731 35.114 45.8587 34.6099 45.1502 34.7297Z" fill="#EED3C7"/>
<path d="M20.9601 46.4278C20.0112 43.7248 18.195 41.4275 15.8057 39.9083C14.3013 38.9562 11.8595 37.6298 11.0614 37.402C10.7914 37.2978 10.4954 37.2868 10.2186 37.3707C9.9419 37.4545 9.6998 37.6287 9.52947 37.8663C9.35914 38.104 9.26999 38.3921 9.27568 38.6864C9.28138 38.9807 9.38161 39.265 9.561 39.4956C8.40242 38.0855 7.19374 35.0267 5.43747 34.7297C4.72804 34.6099 4.01463 35.114 4.06828 35.793C4.2013 37.4965 8.64584 44.6602 10.3609 46.3899C11.5261 47.5653 14.3988 49.464 15.3858 51.4121C15.9179 52.4641 15.9782 54.0174 16.1196 54.5997C16.1499 54.7598 16.2183 54.9098 16.3188 55.0365C16.4194 55.1633 16.5489 55.2629 16.696 55.3267C17.4755 55.7033 21.1867 55.6689 21.8704 55.0771C22.0542 54.922 22.1747 54.7026 22.2083 54.4618C22.5466 52.6431 21.5166 47.8799 20.9601 46.4278Z" fill="#EED3C7"/>
<path d="M26.7184 24.8182C26.7806 24.8186 26.842 24.833 26.8982 24.8601C26.9545 24.8873 27.0042 24.9266 27.044 24.9754C27.0838 25.0242 27.1126 25.0812 27.1285 25.1425C27.1445 25.2038 27.147 25.268 27.1361 25.3304C27.0673 25.7798 26.8433 26.1892 26.5044 26.485C26.1656 26.7807 25.7342 26.9432 25.2882 26.9432C24.8421 26.9432 24.4108 26.7807 24.0719 26.485C23.7331 26.1892 23.509 25.7798 23.4402 25.3304C23.4293 25.268 23.4319 25.2038 23.4478 25.1425C23.4637 25.0812 23.4926 25.0242 23.5324 24.9754C23.5721 24.9266 23.6219 24.8873 23.6781 24.8601C23.7343 24.833 23.7957 24.8186 23.8579 24.8182H26.7184Z" fill="white"/>
<path d="M50.7975 24.3647L49.5241 23.655L48.8276 22.3561C48.7659 22.2413 48.675 22.1455 48.5646 22.0788C48.4541 22.0121 48.3281 21.9769 48.1997 21.9768C48.0713 21.977 47.9453 22.0123 47.8349 22.0791C47.7244 22.1459 47.6336 22.2418 47.5719 22.3566L46.8753 23.655L45.6023 24.3647C45.4896 24.4275 45.3955 24.5201 45.3299 24.6328C45.2643 24.7455 45.2297 24.8741 45.2297 25.0051C45.2297 25.1361 45.2643 25.2647 45.3299 25.3774C45.3955 25.4901 45.4896 25.5827 45.6023 25.6455L46.8758 26.3557L47.5719 27.6532C47.6333 27.7683 47.7241 27.8643 47.8346 27.9312C47.9451 27.9981 48.0712 28.0334 48.1997 28.0334C48.3282 28.0335 48.4544 27.9982 48.565 27.9314C48.6755 27.8646 48.7664 27.7687 48.828 27.6537L49.5241 26.3557L50.7975 25.6455C50.9102 25.5826 51.0042 25.49 51.0697 25.3773C51.1351 25.2646 51.1697 25.1361 51.1697 25.0051C51.1697 24.8742 51.1351 24.7456 51.0697 24.633C51.0042 24.5203 50.9102 24.4276 50.7975 24.3647Z" fill="#EDE6CD"/>
<path d="M11.8832 1.9939L11.2513 1.64125L10.9054 0.996531C10.854 0.90071 10.7782 0.820766 10.686 0.765075C10.5938 0.709385 10.4887 0.68 10.3815 0.68C10.2744 0.68 10.1692 0.709385 10.077 0.765075C9.98485 0.820766 9.90907 0.90071 9.85761 0.996531L9.51174 1.64125L8.87987 1.99345C8.78579 2.04594 8.7073 2.12327 8.65262 2.21734C8.59794 2.3114 8.56909 2.41873 8.56909 2.52808C8.56909 2.63742 8.59794 2.74475 8.65262 2.83881C8.7073 2.93288 8.78579 3.01021 8.87987 3.0627L9.51219 3.4149L9.85806 4.05962C9.90951 4.15544 9.9853 4.23539 10.0775 4.29108C10.1696 4.34677 10.2748 4.37615 10.382 4.37615C10.4891 4.37615 10.5943 4.34677 10.6864 4.29108C10.7786 4.23539 10.8544 4.15544 10.9059 4.05962L11.2517 3.41535L11.8841 3.0627C11.978 3.01024 12.0564 2.93297 12.1111 2.83899C12.1657 2.745 12.1945 2.63777 12.1945 2.52853C12.1945 2.41928 12.1657 2.31205 12.1111 2.21807C12.0564 2.12409 11.978 2.04682 11.8841 1.99435L11.8832 1.9939Z" fill="#96DAD5"/>
<path d="M5.37116 8.25753L4.38943 7.71002L3.852 6.70903C3.79506 6.60271 3.7111 6.51399 3.60893 6.45218C3.50675 6.39037 3.39014 6.35775 3.27134 6.35775C3.15254 6.35775 3.03592 6.39037 2.93375 6.45218C2.83158 6.51399 2.74761 6.60271 2.69068 6.70903L2.15325 7.71047L1.17063 8.25753C1.06649 8.31575 0.979616 8.40144 0.919102 8.50564C0.858589 8.60984 0.82666 8.72871 0.82666 8.8498C0.82666 8.9709 0.858589 9.08976 0.919102 9.19396C0.979616 9.29816 1.06649 9.38385 1.17063 9.44207L2.15281 9.98959L2.69023 10.9906C2.74717 11.0969 2.83113 11.1856 2.93331 11.2474C3.03548 11.3092 3.15209 11.3419 3.2709 11.3419C3.3897 11.3419 3.50631 11.3092 3.60848 11.2474C3.71066 11.1856 3.79462 11.0969 3.85156 10.9906L4.38898 9.98913L5.37116 9.44433C5.47542 9.38621 5.56242 9.30056 5.62303 9.19635C5.68363 9.09214 5.71561 8.97321 5.71561 8.85206C5.71561 8.73091 5.68363 8.61199 5.62303 8.50778C5.56242 8.40356 5.47542 8.31791 5.37116 8.25979V8.25753Z" fill="#EDE6CD"/>
<path d="M36.9889 44.1976C36.8844 44.1977 36.7813 44.1726 36.6881 44.1244C36.5948 44.0762 36.514 44.0064 36.4522 43.9204C36.3904 43.8344 36.3493 43.7348 36.3323 43.6296C36.3153 43.5245 36.3229 43.4167 36.3544 43.3151C36.7796 41.9415 37.9702 41.0875 39.0207 40.3343C39.5674 39.9856 40.0656 39.5635 40.5017 39.0792C40.5553 39.0089 40.622 38.95 40.6979 38.9059C40.7738 38.8619 40.8575 38.8335 40.9442 38.8224C41.0309 38.8113 41.1188 38.8178 41.2031 38.8413C41.2873 38.8649 41.3662 38.9052 41.4351 38.9598C41.5041 39.0145 41.5619 39.0825 41.6051 39.1599C41.6483 39.2373 41.6761 39.3226 41.687 39.411C41.6978 39.4993 41.6915 39.589 41.6684 39.6749C41.6453 39.7608 41.6058 39.8412 41.5522 39.9115C41.0392 40.5066 40.4443 41.0228 39.786 41.4438C38.8651 42.1039 37.913 42.787 37.6235 43.7233C37.5809 43.8609 37.4965 43.9811 37.3824 44.0664C37.2682 44.1517 37.1304 44.1976 36.9889 44.1976Z" fill="#CAA39F"/>
<path d="M13.598 44.1976C13.4566 44.1975 13.3189 44.1515 13.2049 44.0662C13.0909 43.981 13.0065 43.8608 12.9639 43.7233C12.6744 42.787 11.7224 42.1039 10.8009 41.4438C10.1427 41.0229 9.54795 40.5067 9.03522 39.9115C8.98162 39.8412 8.94212 39.7608 8.919 39.6749C8.89587 39.589 8.88956 39.4993 8.90043 39.411C8.9113 39.3226 8.93914 39.2373 8.98235 39.1599C9.02556 39.0825 9.08331 39.0145 9.15228 38.9598C9.22126 38.9052 9.30011 38.8649 9.38435 38.8413C9.46859 38.8178 9.55655 38.8113 9.64323 38.8224C9.7299 38.8335 9.81359 38.8619 9.8895 38.9059C9.96542 38.95 10.0321 39.0089 10.0857 39.0792C10.522 39.5635 11.0203 39.9857 11.5672 40.3343C12.6176 41.0875 13.8082 41.9415 14.233 43.3151C14.2645 43.4167 14.2721 43.5245 14.2551 43.6296C14.2381 43.7348 14.197 43.8344 14.1352 43.9204C14.0734 44.0064 13.9926 44.0762 13.8993 44.1244C13.8061 44.1726 13.703 44.1977 13.5985 44.1976H13.598Z" fill="#CAA39F"/>
<path d="M21.6674 21.6049C21.5767 21.605 21.487 21.5861 21.4037 21.5495C21.3205 21.5128 21.2454 21.4593 21.1832 21.392C20.9253 21.1853 20.6152 21.0574 20.2889 21.023C19.9625 20.9887 19.6333 21.0494 19.3395 21.198C19.1993 21.3077 19.0222 21.3562 18.847 21.3328C18.6719 21.3093 18.513 21.2159 18.4054 21.073C18.2978 20.9301 18.2503 20.7495 18.2732 20.5709C18.2962 20.3923 18.3879 20.2303 18.528 20.1206C19.3009 19.5152 21.1615 19.3905 22.1503 20.4593C22.2401 20.5555 22.3002 20.6764 22.3232 20.8071C22.3461 20.9378 22.331 21.0725 22.2796 21.1945C22.2281 21.3165 22.1427 21.4204 22.0339 21.4934C21.9251 21.5663 21.7977 21.6051 21.6674 21.6049Z" fill="#FAF3E7"/>
<path d="M28.9091 21.6049C28.7792 21.6049 28.6522 21.5661 28.5437 21.4933C28.4352 21.4205 28.35 21.317 28.2985 21.1954C28.2471 21.0738 28.2317 20.9395 28.2542 20.8091C28.2768 20.6787 28.3362 20.5579 28.4253 20.4615C29.4137 19.3932 31.2752 19.5175 32.0476 20.1229C32.1836 20.2338 32.2714 20.3947 32.2922 20.571C32.3131 20.7472 32.2654 20.9248 32.1592 21.0656C32.0531 21.2063 31.8971 21.299 31.7247 21.3238C31.5523 21.3486 31.3772 21.3034 31.2371 21.198C30.9432 21.0493 30.6141 20.9886 30.2877 21.0228C29.9614 21.057 29.6513 21.1849 29.3933 21.3915C29.3311 21.4589 29.2561 21.5126 29.1728 21.5493C29.0896 21.586 28.9998 21.6049 28.9091 21.6049Z" fill="#FAF3E7"/>
</svg>
