<?xml version="1.0" encoding="UTF-8"?>
<svg width="64px" height="64px" viewBox="0 0 64 64" version="1.1" xmlns="http://www.w3.org/2000/svg" xmlns:xlink="http://www.w3.org/1999/xlink">
    <!-- Generator: sketchtool 63.1 (101010) - https://sketch.com -->
    <title>9A6777E2-C617-4A41-83F9-D03E6CE12048</title>
    <desc>Created with sketchtool.</desc>
    <g id="Main&amp;About" stroke="none" stroke-width="1" fill="none" fill-rule="evenodd">
        <g id="Step-8.-General-Support--" transform="translate(-988.000000, -188.000000)" fill="#FFFFFF" fill-rule="nonzero">
            <g id="accounts" transform="translate(988.000000, 188.000000)">
                <path d="M57.515375,20.064875 L57.515375,10.3125 C57.515375,4.62625 52.889125,0 47.202875,0 C41.516625,0 36.890375,4.62625 36.890375,10.3125 L36.890375,20.64675 C33.195875,23.075875 30.751375,27.2575 30.751375,32 C30.751375,32.69025 31.311125,33.25 32.001375,33.25 L62.75,33.25 C63.44025,33.25 64,32.69025 64,32 L64,31.157625 C64,26.40525 61.38325,22.25325 57.515375,20.064875 Z M47.203,2.5 C51.51075,2.5 55.015375,6.004625 55.015375,10.3125 L55.015375,18.985625 C54.0945,18.70125 53.129125,18.51925 52.132875,18.45175 C52.933375,17.40125 53.410125,16.09125 53.410125,14.6715 L53.410125,10.416625 C53.410125,9.726375 52.850375,9.166625 52.160125,9.166625 L42.160125,9.166625 C41.469875,9.166625 40.910125,9.726375 40.910125,10.416625 L40.910125,14.6715 C40.910125,16.147625 41.425625,17.504875 42.284625,18.5755 C41.27975,18.728 40.310875,18.991125 39.390375,19.35175 L39.390375,10.3125 L39.390375,10.3125 C39.390375,6.004625 42.895125,2.5 47.203,2.5 Z M47.16,18.4215 C45.09225,18.4215 43.41,16.73925 43.41,14.6715 L43.41,11.666625 L50.91,11.666625 L50.91,14.6715 C50.91,16.73925 49.22775,18.4215 47.16,18.4215 Z M49.11525,20.9215 L47.21225,23.491625 L45.49425,20.9215 L49.11525,20.9215 Z M58.73425,30.75 L58.73425,28.693125 C58.73425,28.002875 58.1745,27.443125 57.48425,27.443125 C56.794,27.443125 56.23425,28.002875 56.23425,28.693125 L56.23425,30.75 L38.085875,30.75 L38.085875,28.693125 C38.085875,28.002875 37.526125,27.443125 36.835875,27.443125 C36.145625,27.443125 35.585875,28.002875 35.585875,28.693125 L35.585875,30.75 L33.3215,30.75 C33.879125,25.8055 37.7055,21.838875 42.58125,21.062125 L45.910125,26.042 L45.910125,28.348375 C45.910125,29.038625 46.469875,29.598375 47.160125,29.598375 C47.850375,29.598375 48.410125,29.038625 48.410125,28.348375 L48.410125,26.07525 L52.193875,20.96525 C57.2705,21.42475 61.289875,25.6045 61.492125,30.75 L58.73425,30.75 Z" id="Shape"></path>
                <path d="M25.25925,49.1715 L21.990875,49.1715 C23.17975,47.8445 23.9045,46.093375 23.9045,44.175625 L23.9045,35.666625 L23.9045,32 C23.9045,31.30975 23.34475,30.75 22.6545,30.75 L14.335375,30.75 C11.345375,30.75 8.91275,33.182625 8.91275,36.172625 L8.91275,39.687125 C8.91275,39.694625 8.91375,39.70175 8.913875,39.70925 C8.91375,39.716625 8.91275,39.723875 8.91275,39.731375 L8.91275,44.17575 C8.91275,46.0935 9.6375,47.8445 10.826375,49.171625 L8.831875,49.171625 C3.962,49.1715 0,53.133375 0,58.00325 L0,62.75 C0,63.44025 0.55975,64 1.25,64 L31.998625,64 C32.688875,64 33.248625,63.44025 33.248625,62.75 L33.248625,57.160875 C33.248625,52.7555 29.664625,49.1715 25.25925,49.1715 Z M11.412875,36.172625 C11.412875,34.561 12.723875,33.25 14.3355,33.25 L21.404625,33.25 L21.404625,35.666625 C21.404625,37.194375 20.16175,38.437125 18.634,38.437125 L11.412875,38.437125 L11.412875,36.172625 Z M11.412875,40.937125 L18.634,40.937125 C19.649875,40.937125 20.599,40.6475 21.404625,40.1475 L21.404625,44.175625 C21.404625,46.930375 19.1635,49.1715 16.40875,49.1715 C13.654,49.1715 11.412875,46.930375 11.412875,44.175625 L11.412875,40.937125 Z M18.363875,51.6715 L16.460875,54.241625 L14.742875,51.6715 L18.363875,51.6715 Z M27.982875,61.5 L27.982875,58.318125 C27.982875,57.627875 27.423125,57.068125 26.732875,57.068125 C26.042625,57.068125 25.482875,57.627875 25.482875,58.318125 L25.482875,61.5 L7.3345,61.5 L7.3345,58.318125 C7.3345,57.627875 6.77475,57.068125 6.0845,57.068125 C5.39425,57.068125 4.8345,57.627875 4.8345,58.318125 L4.8345,61.5 L2.5,61.5 L2.5,58.00325 C2.5,54.511875 5.3405,51.6715 8.831875,51.6715 L11.73575,51.6715 L15.158625,56.792 L15.158625,59.098375 C15.158625,59.788625 15.718375,60.348375 16.408625,60.348375 C17.098875,60.348375 17.658625,59.788625 17.658625,59.098375 L17.658625,56.82525 L21.474625,51.6715 L25.259125,51.6715 C28.286,51.6715 30.7485,54.134 30.7485,57.160875 L30.7485,61.5 L27.982875,61.5 Z" id="Shape"></path>
                <path d="M44.038625,55.11625 C43.80625,54.883625 43.48375,54.75 43.155,54.75 C42.826125,54.75 42.50375,54.883625 42.27125,55.11625 C42.03875,55.348875 41.905,55.67125 41.905,56 C41.905,56.32875 42.038625,56.65125 42.27125,56.883625 C42.50375,57.116125 42.826125,57.25 43.155,57.25 C43.48375,57.25 43.80625,57.11625 44.038625,56.883625 C44.271125,56.65125 44.405,56.32875 44.405,56 C44.405,55.67125 44.27125,55.34875 44.038625,55.11625 Z" id="Path"></path>
                <path d="M56,38.437125 C55.30975,38.437125 54.75,38.996875 54.75,39.687125 L54.75,54.75 L47.875,54.75 C47.18475,54.75 46.625,55.30975 46.625,56 C46.625,56.69025 47.18475,57.25 47.875,57.25 L56,57.25 C56.69025,57.25 57.25,56.69025 57.25,56 L57.25,39.687125 C57.25,38.996875 56.69025,38.437125 56,38.437125 Z" id="Path"></path>
                <path d="M24.924875,7.11625 C24.6925,6.88375 24.371125,6.75 24.04125,6.75 C23.7125,6.75 23.39,6.883625 23.1575,7.11625 C22.925,7.348875 22.79125,7.67 22.79125,8 C22.79125,8.32875 22.924875,8.65125 23.1575,8.883625 C23.39,9.11625 23.7125,9.25 24.04125,9.25 C24.37,9.25 24.6925,9.11625 24.924875,8.883625 C25.158625,8.65125 25.29125,8.32875 25.29125,8 C25.29125,7.67125 25.158625,7.34875 24.924875,7.11625 Z" id="Path"></path>
                <path d="M18.375,6.75 L8,6.75 C7.30975,6.75 6.75,7.30975 6.75,8 L6.75,25.66275 C6.75,26.353 7.30975,26.91275 8,26.91275 C8.69025,26.91275 9.25,26.353 9.25,25.66275 L9.25,9.25 L18.375,9.25 C19.06525,9.25 19.625,8.69025 19.625,8 C19.625,7.30975 19.06525,6.75 18.375,6.75 Z" id="Path"></path>
            </g>
        </g>
    </g>
</svg>