<?xml version="1.0" encoding="UTF-8"?>
<svg width="41px" height="64px" viewBox="0 0 41 64" version="1.1" xmlns="http://www.w3.org/2000/svg" xmlns:xlink="http://www.w3.org/1999/xlink">
    <!-- Generator: sketchtool 63.1 (101010) - https://sketch.com -->
    <title>3B430EBC-2256-460F-A029-ADA80E2EA3A0</title>
    <desc>Created with sketchtool.</desc>
    <g id="Main&amp;About" stroke="none" stroke-width="1" fill="none" fill-rule="evenodd">
        <g id="Step-4.1-major-feautures" transform="translate(-1000.000000, -189.000000)" fill="#FFFFFF" fill-rule="nonzero">
            <g id="analytics" transform="translate(1000.000000, 189.000000)">
                <path d="M33.3855353,0 L6.72722092,0 C3.05296124,0 0.0626424419,2.98974936 0.0626424419,6.66457862 L0.0626424419,57.3154898 C0.0626424419,60.9897494 3.05296124,63.9800683 6.72722092,63.9800683 L33.3855353,63.9800683 C37.059795,63.9800683 40.0495445,60.9897494 40.0495445,57.3154898 L40.0495445,6.66457862 C40.0495445,2.98974936 37.059795,0 33.3855353,0 Z M37.383827,57.3154898 C37.383827,59.5205012 35.5905467,61.3137814 33.3855353,61.3137814 L6.72722092,61.3137814 C4.52220953,61.3137814 2.72835995,59.5205012 2.72835995,57.3154898 L2.72835995,55.9823462 L37.383827,55.9823462 L37.383827,57.3154898 Z M37.383827,53.3166287 L2.72835995,53.3166287 L2.72835995,10.6634396 L37.383827,10.6634396 L37.383827,53.3166287 Z M37.383827,7.99715266 L2.72835995,7.99715266 L2.72835995,6.66457862 C2.72835995,4.45956723 4.52220953,2.6657175 6.72722092,2.6657175 L33.3855353,2.6657175 C35.5905467,2.6657175 37.383827,4.45956723 37.383827,6.66457862 L37.383827,7.99715266 Z" id="Shape"></path>
                <polygon id="Path" points="6.72722092 29.3240319 9.39293857 29.3240319 9.39293857 47.9851937 6.72722092 47.9851937"></polygon>
                <polygon id="Path" points="14.724943 34.655467 17.3906605 34.655467 17.3906605 47.9851937 14.724943 47.9851937"></polygon>
                <polygon id="Path" points="30.7192483 34.655467 33.3855353 34.655467 33.3855353 47.9851937 30.7192483 47.9851937"></polygon>
                <polygon id="Path" points="22.7220957 29.3240319 25.3878132 29.3240319 25.3878132 47.9851937 22.7220957 47.9851937"></polygon>
                <path d="M8.06036439,25.3251709 L14.724943,25.3251709 C15.1697039,25.3251709 15.5865603,25.1025057 15.833713,24.7317767 L19.89123,18.6452164 L22.8627563,24.5882688 C23.0894077,25.0398633 23.5501138,25.3251709 24.0552391,25.3251709 L30.167426,25.3251709 L29.7773348,25.715262 C29.2562643,26.2363326 29.2562643,27.0797267 29.7773348,27.6002277 C30.0375853,27.8604784 30.3781321,27.9908884 30.7192483,27.9908884 C31.0603645,27.9908884 31.4014806,27.8604784 31.6617313,27.6002277 L34.3274488,24.9345102 C34.8485193,24.4140091 34.8485193,23.5706151 34.3274488,23.0495445 L31.6617313,20.3838268 C31.1412301,19.8633257 30.297836,19.8633257 29.7773348,20.3838268 C29.2562643,20.9048975 29.2562643,21.7482916 29.7773348,22.2687927 L30.167426,22.6594534 L24.8792711,22.6594534 L21.2482916,15.3986333 C21.0364465,14.9738042 20.6133257,14.6936218 20.1395216,14.6645786 C19.6503416,14.6281322 19.2112757,14.8604784 18.9476082,15.2551253 L14.0113895,22.6594534 L8.06036439,22.6594534 C7.32346241,22.6594534 6.72722092,23.2562643 6.72722092,23.9920273 C6.72722092,24.7283599 7.32346241,25.3251709 8.06036439,25.3251709 Z" id="Path"></path>
            </g>
        </g>
    </g>
</svg>