<?xml version="1.0" encoding="UTF-8"?>
<svg width="64px" height="64px" viewBox="0 0 64 64" version="1.1" xmlns="http://www.w3.org/2000/svg" xmlns:xlink="http://www.w3.org/1999/xlink">
    <!-- Generator: sketchtool 63.1 (101010) - https://sketch.com -->
    <title>A37822F6-6AFC-4E3F-9A64-7B37628B1CC2</title>
    <desc>Created with sketchtool.</desc>
    <g id="Main&amp;About" stroke="none" stroke-width="1" fill="none" fill-rule="evenodd">
        <g id="Step-5.-API-integrations" transform="translate(-718.000000, -188.000000)" fill="#FFFFFF" fill-rule="nonzero">
            <g id="api" transform="translate(718.000000, 188.000000)">
                <path d="M62.7475,30.75 L57.24775,30.75 L57.24775,28.3385 C57.24775,27.7645 56.856875,27.264375 56.299875,27.1255 L52.598375,26.203375 L50.663125,21.5335 L52.627375,18.26575 C52.923125,17.773875 52.84575,17.14375 52.439875,16.738 L47.260625,11.55875 C46.854625,11.152875 46.2245,11.075625 45.73275,11.37125 L42.465,13.3355 L37.795,11.40025 L36.872875,7.69875 C36.734125,7.14175 36.233875,6.750875 35.659875,6.750875 L33.24875,6.750875 L33.24875,1.251125 C33.24875,0.56075 32.689125,0.001125 31.99875,0.001125 C31.308375,0.001125 30.74875,0.56075 30.74875,1.251125 L30.74875,6.750875 L28.33725,6.750875 C27.76325,6.750875 27.263125,7.14175 27.12425,7.69875 L26.202125,11.40025 L21.53225,13.3355 L18.2645,11.37125 C17.772375,11.0755 17.1425,11.15275 16.73675,11.55875 L11.5575,16.738 C11.151625,17.143875 11.074375,17.774 11.37,18.26575 L13.33425,21.5335 L11.399,26.203375 L7.6975,27.1255 C7.1405,27.26425 6.749625,27.7645 6.749625,28.3385 L6.749625,30.75 L1.25,30.75 C0.559625,30.75 0,31.309625 0,32 C0,32.69025 0.559625,33.25 1.25,33.25 L6.74975,33.25 L6.74975,35.6615 C6.74975,36.2355 7.140625,36.73575 7.697625,36.874375 L11.399125,37.796625 L13.334375,42.4665 L11.37,45.73425 C11.07425,46.22625 11.151625,46.856375 11.5575,47.26225 L16.73675,52.4415 C17.142625,52.84725 17.77275,52.9245 18.26475,52.628875 L21.532375,50.664625 L26.202375,52.599875 L27.1245,56.30125 C27.26325,56.85825 27.7635,57.249125 28.3375,57.249125 L30.748875,57.249125 L30.748875,62.748875 C30.748875,63.439125 31.3085,63.998875 31.998875,63.998875 C32.68925,63.998875 33.248875,63.439125 33.248875,62.748875 L33.248875,57.249125 L35.660375,57.249125 C36.234375,57.249125 36.7345,56.85825 36.873375,56.30125 L37.7955,52.599875 L42.4655,50.664625 L45.733125,52.628875 C46.225125,52.9245 46.855125,52.84725 47.261125,52.4415 L52.440375,47.26225 C52.846125,46.856375 52.9235,46.226125 52.62775,45.73425 L50.6635,42.4665 L52.59875,37.796625 L56.30025,36.874375 C56.85725,36.73575 57.248125,36.2355 57.248125,35.6615 L57.248125,33.25 L62.747875,33.25 C63.43825,33.25 63.997875,32.69025 63.997875,32 C63.997875,31.309625 63.437875,30.75 62.7475,30.75 Z M54.747875,34.68475 L51.38275,35.52325 C50.99825,35.619125 50.681875,35.8915 50.530125,36.257625 L48.112375,42.091875 C47.960625,42.458 47.991625,42.8745 48.195875,43.214375 L49.981625,46.185125 L46.18375,49.983125 L43.213,48.197375 C42.873125,47.993 42.456625,47.962 42.090375,48.113875 L36.256125,50.53175 C35.89,50.6835 35.617625,50.99975 35.52175,51.384375 L34.683375,54.749375 L29.313875,54.749375 L28.4755,51.384375 C28.379625,50.99975 28.10725,50.6835 27.741125,50.53175 L21.906875,48.113875 C21.540625,47.962 21.124125,47.993 20.78425,48.197375 L17.8135,49.983125 L14.015625,46.185125 L15.801375,43.214375 C16.005625,42.8745 16.0365,42.458 15.88475,42.091875 L13.467,36.257625 C13.31525,35.8915 12.998875,35.619125 12.614375,35.52325 L9.249375,34.68475 L9.249375,29.31525 L12.6145,28.476875 C12.999,28.381 13.315375,28.108625 13.467125,27.7425 L15.884875,21.90825 C16.036625,21.542 16.005625,21.1255 15.8015,20.78575 L14.01575,17.815 L17.813625,14.017125 L20.784375,15.802875 C21.124125,16.007125 21.540625,16.038125 21.906875,15.88625 L27.741125,13.4685 C28.10725,13.31675 28.379625,13.000375 28.4755,12.615875 L29.313875,9.25075 L34.683375,9.25075 L35.52175,12.615875 C35.617625,13.000375 35.89,13.31675 36.256125,13.4685 L42.090375,15.88625 C42.45675,16.038 42.873125,16.007 43.212875,15.802875 L46.183625,14.017125 L49.9815,17.815 L48.19575,20.78575 C47.9915,21.1255 47.960625,21.542 48.112375,21.90825 L50.530125,27.7425 C50.681875,28.108625 50.99825,28.381 51.38275,28.476875 L54.747875,29.31525 L54.747875,34.68475 Z" id="Shape"></path>
                <path d="M37.511125,16.976 C36.863125,16.7385 36.144875,17.07075 35.907,17.71875 C35.669125,18.366875 36.00175,19.085 36.64975,19.322875 C41.94225,21.26525 45.498125,26.359875 45.498125,32.000125 C45.498125,39.443875 39.44225,45.499625 31.998625,45.499625 C24.555,45.499625 18.49925,39.44375 18.49925,32 C18.49925,26.663 21.65275,21.81625 26.533,19.6525 C27.164125,19.37275 27.448875,18.63425 27.169,18.00325 C26.88925,17.37225 26.150625,17.087375 25.51975,17.36725 C19.7365,19.931375 15.9995,25.675125 15.9995,32 C15.9995,40.822 23.17675,47.999375 31.998875,47.999375 C40.821,47.999375 47.998125,40.822 47.998125,32 C47.998125,25.31575 43.783625,19.278 37.511125,16.976 Z" id="Path"></path>
                <path d="M32.065,16.00075 L31.99875,16.000625 C31.308375,16.000625 30.74875,16.56025 30.74875,17.250625 C30.74875,17.941 31.308375,18.500625 31.99875,18.500625 L32.057625,18.50075 C32.058875,18.50075 32.060125,18.50075 32.061375,18.50075 C32.75,18.50075 33.30925,17.9435 33.3113804,17.254375 C33.313375,16.564 32.755375,16.00275 32.065,16.00075 Z" id="Path"></path>
                <path d="M40.70675,27.027625 C40.016375,27.027625 39.45675,27.58725 39.45675,28.277625 L39.45675,35.56325 C39.45675,36.2535 40.016375,36.81325 40.70675,36.81325 C41.397125,36.81325 41.95675,36.2535 41.95675,35.56325 L41.95675,28.2775 C41.95675,27.587125 41.397125,27.027625 40.70675,27.027625 Z" id="Path"></path>
                <path d="M34.645,27.027625 L32.06975,27.027625 C31.379375,27.027625 30.81975,27.58725 30.81975,28.277625 L30.81975,30.769875 L30.81975,32.475 L30.81975,35.563125 C30.81975,36.253375 31.379375,36.813125 32.06975,36.813125 C32.760125,36.813125 33.31975,36.253375 33.31975,35.563125 L33.31975,33.725 L34.645125,33.725 C36.388875,33.725 37.807625,32.306125 37.807625,30.5625 L37.807625,30.190125 C37.8075,28.44625 36.388875,27.027625 34.645,27.027625 Z M35.307625,30.562375 C35.307625,30.92775 35.010375,31.225 34.645,31.225 L33.319625,31.225 L33.319625,30.76975 L33.319625,29.527375 L34.645,29.527375 C35.010375,29.527375 35.307625,29.824625 35.307625,30.19 L35.307625,30.562375 Z" id="Shape"></path>
                <path d="M29.480875,35.2615 L26.272625,27.78475 C26.075625,27.32525 25.623875,27.0275 25.124,27.0275 C24.624125,27.0275 24.172375,27.32525 23.97525,27.784625 L20.767,35.261375 C20.49475,35.89575 20.788375,36.63075 21.422875,36.902875 C22.057375,37.175 22.79225,36.8815 23.0645,36.247125 L25.124,31.44725 L27.183625,36.247125 C27.386875,36.720875 27.848125,37.004625 28.332875,37.004625 C28.49725,37.004625 28.6645,36.971875 28.825125,36.903 C29.4595,36.630875 29.753125,35.895875 29.480875,35.2615 Z" id="Path"></path>
                <path d="M59.750125,0.00125 C57.40675,0.00125 55.50025,1.907625 55.50025,4.251125 C55.50025,4.968125 55.679375,5.64375 55.99425,6.236625 L51.211875,11.018875 C50.72375,11.507 50.72375,12.2985 51.211875,12.786625 C51.456,13.030625 51.776,13.152625 52.095875,13.152625 C52.41575,13.152625 52.73575,13.030625 52.97975,12.7865 L57.761125,8.005125 C58.355,8.321 59.031875,8.500875 59.75,8.500875 C62.093375,8.500875 63.999875,6.5945 63.999875,4.251 C63.999875,1.9075 62.093625,0.00125 59.750125,0.00125 Z M59.750125,6.001 C58.785125,6.001 58.00025,5.216 58.00025,4.251125 C58.00025,3.286125 58.78525,2.50125 59.750125,2.50125 C60.715125,2.50125 61.5,3.28625 61.5,4.251125 C61.500125,5.216 60.715125,6.001 59.750125,6.001 Z" id="Shape"></path>
                <path d="M12.785375,51.213125 C12.29725,50.72525 11.50575,50.72525 11.01775,51.21325 L6.237125,55.993875 C5.643625,55.6785 4.967375,55.499 4.249875,55.499 C1.906375,55.499125 0,57.4055 0,59.748875 C0,62.09225 1.906375,63.99875 4.249875,63.99875 C6.593375,63.99875 8.49975,62.092375 8.49975,59.748875 C8.49975,59.03125 8.32025,58.355 8.004875,57.761625 L12.7855,52.980875 C13.2735,52.492875 13.2735,51.701375 12.785375,51.213125 Z M4.249875,61.498875 C3.284875,61.498875 2.5,60.713875 2.5,59.749 C2.5,58.784 3.285,57.999125 4.249875,57.999125 C5.214875,57.999125 5.99975,58.784125 5.99975,59.749 C5.99975,60.713875 5.21475,61.498875 4.249875,61.498875 Z" id="Shape"></path>
                <path d="M52.980375,51.213 C52.746625,50.9805 52.424125,50.84675 52.095375,50.84675 C51.766625,50.84675 51.444125,50.980375 51.211625,51.213 C50.979125,51.445375 50.845375,51.767875 50.845375,52.09675 C50.845375,52.4255 50.979125,52.748 51.211625,52.980375 C51.444125,53.212875 51.766625,53.34675 52.095375,53.34675 C52.425375,53.34675 52.746625,53.213 52.980375,52.980375 C53.212875,52.748 53.345375,52.426625 53.345375,52.09675 C53.345375,51.767875 53.212875,51.445375 52.980375,51.213 Z" id="Path"></path>
                <path d="M59.750125,55.499125 C59.031875,55.499125 58.355,55.678875 57.76125,55.994875 L55.6495,53.883125 C55.161375,53.39525 54.369875,53.395125 53.881875,53.883125 C53.39375,54.37125 53.393625,55.16275 53.881875,55.650875 L55.994375,57.7635 C55.679625,58.356625 55.500375,59.03225 55.500375,59.749 C55.500375,62.092375 57.40675,63.998875 59.75025,63.998875 C62.09375,63.998875 64,62.0925 64,59.749 C64,57.4055 62.093625,55.499125 59.750125,55.499125 Z M59.750125,61.498875 C58.785125,61.498875 58.00025,60.713875 58.00025,59.749 C58.00025,58.784 58.78525,57.999125 59.750125,57.999125 C60.715125,57.999125 61.5,58.784125 61.5,59.749 C61.500125,60.713875 60.715125,61.498875 59.750125,61.498875 Z" id="Shape"></path>
                <path d="M12.785375,11.018875 L8.004875,6.238375 C8.32025,5.644875 8.49975,4.968625 8.49975,4.251125 C8.49975,1.90775 6.593375,0.00125 4.249875,0.00125 C1.906375,0.00125 0,1.907625 0,4.251125 C0,6.594625 1.906375,8.501 4.249875,8.501 C4.9675,8.501 5.64375,8.3215 6.237125,8.006125 L11.01775,12.786625 C11.261875,13.03075 11.58175,13.15275 11.901625,13.15275 C12.2215,13.15275 12.5415,13.03075 12.7855,12.786625 C13.2735,12.2985 13.2735,11.507 12.785375,11.018875 Z M4.249875,6.001 C3.284875,6.001 2.5,5.216 2.5,4.251125 C2.5,3.286125 3.285,2.50125 4.249875,2.50125 C5.214875,2.50125 5.99975,3.28625 5.99975,4.251125 C5.99975,5.216 5.21475,6.001 4.249875,6.001 Z" id="Shape"></path>
            </g>
        </g>
    </g>
</svg>