<?xml version="1.0" encoding="UTF-8"?>
<svg width="64px" height="64px" viewBox="0 0 64 64" version="1.1" xmlns="http://www.w3.org/2000/svg" xmlns:xlink="http://www.w3.org/1999/xlink">
    <!-- Generator: sketchtool 63.1 (101010) - https://sketch.com -->
    <title>CB7219A6-D227-4000-A2FA-419A45BCFA54</title>
    <desc>Created with sketchtool.</desc>
    <g id="Main&amp;About" stroke="none" stroke-width="1" fill="none" fill-rule="evenodd">
        <g id="Step-2.2-Related-services" transform="translate(-718.000000, -185.000000)" fill="#FFFFFF" fill-rule="nonzero">
            <g id="app-icon" transform="translate(718.000000, 185.000000)">
                <path d="M22.4461514,29.478757 L7.00723506,29.478757 C3.14339442,29.478757 0,26.3352351 0,22.4715219 L0,7.03260558 C0,3.16876494 3.14339442,0.0253705179 7.00723506,0.0253705179 L22.4461514,0.0253705179 C26.309992,0.0253705179 29.4533865,3.16876494 29.4533865,7.03260558 L29.4533865,22.4715219 C29.4533865,26.3352351 26.309992,29.478757 22.4461514,29.478757 Z M7.00723506,2.57517131 C4.54935458,2.57517131 2.5498008,4.57485259 2.5498008,7.03260558 L2.5498008,22.4715219 C2.5498008,24.9292749 4.54935458,26.9289562 7.00723506,26.9289562 L22.4461514,26.9289562 C24.9040319,26.9289562 26.9035857,24.9292749 26.9035857,22.4715219 L26.9035857,7.03260558 C26.9035857,4.57485259 24.9040319,2.57517131 22.4461514,2.57517131 L7.00723506,2.57517131 Z" id="Shape"></path>
                <path d="M5.97928287,23.0756972 C5.27515538,23.0756972 4.70438247,22.5047968 4.70438247,21.8007968 L4.70438247,18.8685259 C4.70438247,18.1645259 5.27515538,17.5936255 5.97928287,17.5936255 C6.68341036,17.5936255 7.25418327,18.1645259 7.25418327,18.8685259 L7.25418327,21.8007968 C7.25418327,22.5047968 6.68341036,23.0756972 5.97928287,23.0756972 Z" id="Path"></path>
                <path d="M5.97928287,15.4262948 C5.27515538,15.4262948 4.70438247,14.8553944 4.70438247,14.1513944 L4.70438247,8.17211155 C4.70438247,6.27403984 6.24854183,4.72988048 8.14661355,4.72988048 L10.9641434,4.72988048 C11.6682709,4.72988048 12.2390438,5.30078088 12.2390438,6.00478088 C12.2390438,6.70878088 11.6682709,7.27968127 10.9641434,7.27968127 L8.14661355,7.27968127 C7.65450199,7.27968127 7.25418327,7.68012749 7.25418327,8.17211155 L7.25418327,14.1513944 C7.25418327,14.8553944 6.68341036,15.4262948 5.97928287,15.4262948 Z" id="Path"></path>
                <path d="M56.9927649,29.478757 L41.5538486,29.478757 C37.690008,29.478757 34.5466135,26.3353625 34.5466135,22.4715219 L34.5466135,7.03260558 C34.5466135,3.16876494 37.690008,0.0253705179 41.5538486,0.0253705179 L56.9927649,0.0253705179 C60.8566056,0.0253705179 64,3.16876494 64,7.03260558 L64,22.4715219 C64,26.3352351 60.8566056,29.478757 56.9927649,29.478757 Z M41.5538486,2.57517131 C39.0959681,2.57517131 37.0964143,4.57485259 37.0964143,7.03260558 L37.0964143,22.4715219 C37.0964143,24.9292749 39.0959681,26.9289562 41.5538486,26.9289562 L56.9927649,26.9289562 C59.4506454,26.9289562 61.4501992,24.9292749 61.4501992,22.4715219 L61.4501992,7.03260558 C61.4501992,4.57485259 59.4506454,2.57517131 56.9927649,2.57517131 L41.5538486,2.57517131 Z" id="Shape"></path>
                <path d="M22.4461514,63.7196494 L7.00723506,63.7196494 C3.14339442,63.7196494 0,60.576255 0,56.7124143 L0,41.273498 C0,37.4096574 3.14339442,34.2662629 7.00723506,34.2662629 L22.4461514,34.2662629 C26.309992,34.2662629 29.4533865,37.4096574 29.4533865,41.273498 L29.4533865,56.7124143 C29.4533865,60.576255 26.309992,63.7196494 22.4461514,63.7196494 Z M7.00723506,36.8160637 C4.54935458,36.8160637 2.5498008,38.815745 2.5498008,41.273498 L2.5498008,56.7124143 C2.5498008,59.1701673 4.54935458,61.1698486 7.00723506,61.1698486 L22.4461514,61.1698486 C24.9040319,61.1698486 26.9035857,59.1701673 26.9035857,56.7124143 L26.9035857,41.273498 C26.9035857,38.815745 24.9040319,36.8160637 22.4461514,36.8160637 L7.00723506,36.8160637 L7.00723506,36.8160637 Z" id="Shape"></path>
                <path d="M56.9927649,63.7196494 L41.5538486,63.7196494 C37.690008,63.7196494 34.5466135,60.576255 34.5466135,56.7124143 L34.5466135,41.273498 C34.5466135,37.4096574 37.690008,34.2662629 41.5538486,34.2662629 L56.9927649,34.2662629 C60.8566056,34.2662629 64,37.4096574 64,41.273498 L64,56.7124143 C64,60.576255 60.8566056,63.7196494 56.9927649,63.7196494 Z M41.5538486,36.8160637 C39.0959681,36.8160637 37.0964143,38.815745 37.0964143,41.273498 L37.0964143,56.7124143 C37.0964143,59.1701673 39.0959681,61.1698486 41.5538486,61.1698486 L56.9927649,61.1698486 C59.4506454,61.1698486 61.4501992,59.1701673 61.4501992,56.7124143 L61.4501992,41.273498 C61.4501992,38.815745 59.4506454,36.8160637 56.9927649,36.8160637 L41.5538486,36.8160637 L41.5538486,36.8160637 Z" id="Shape"></path>
            </g>
        </g>
    </g>
</svg>