<?xml version="1.0" encoding="UTF-8"?>
<svg width="64px" height="61px" viewBox="0 0 64 61" version="1.1" xmlns="http://www.w3.org/2000/svg" xmlns:xlink="http://www.w3.org/1999/xlink">
    <!-- Generator: sketchtool 63.1 (101010) - https://sketch.com -->
    <title>E93E34F7-B953-44E2-BA05-B0174D1DF735</title>
    <desc>Created with sketchtool.</desc>
    <g id="Main&amp;About" stroke="none" stroke-width="1" fill="none" fill-rule="evenodd">
        <g id="4.3.-More-technical-features--" transform="translate(-988.000000, -189.000000)" fill="#FFFFFF" fill-rule="nonzero">
            <g id="audio" transform="translate(988.000000, 189.000000)">
                <path d="M12.387625,15.085375 C11.8995,14.59725 11.108125,14.597125 10.619875,15.085125 C7.6915,18.012875 6.078625,21.9025 6.078625,26.0375 C6.078625,30.172625 7.691375,34.06225 10.619875,36.99 C10.864,37.234 11.18375,37.356 11.503625,37.356 C11.823625,37.356 12.143625,37.233875 12.387625,36.98975 C12.87575,36.5015 12.875625,35.710125 12.3875,35.221875 C9.931375,32.766375 8.57875,29.50475 8.57875,26.037375 C8.57875,22.57025 9.931375,19.3085 12.3875,16.853 C12.875625,16.365 12.87575,15.573625 12.387625,15.085375 Z" id="Path"></path>
                <path d="M47.14325,21.2685 C46.453,21.2685 45.89325,21.82825 45.89325,22.5185 L45.89325,24.4405 L43.0745,24.4405 L43.0745,11.126125 C43.0745,5.025625 38.105875,0.0625 31.99875,0.0625 C25.8935,0.0625 20.9265,5.025625 20.9265,11.126125 L20.9265,24.440625 L18.107875,24.440625 L18.107875,22.518625 C18.107875,21.828375 17.54825,21.268625 16.857875,21.268625 C16.1675,21.268625 15.607875,21.828375 15.607875,22.518625 L15.607875,29.892875 C15.607875,37.23475 20.465875,43.463875 27.138125,45.538625 L27.138125,52.284625 L22.814375,52.284625 C20.42525,52.284625 18.481625,54.2255 18.481625,56.611125 L18.481625,59.234375 C18.481625,60.1735 19.247375,60.9375 20.18875,60.9375 L26.386125,60.9375 C27.0765,60.9375 27.636125,60.37775 27.636125,59.6875 C27.636125,58.99725 27.0765,58.4375 26.386125,58.4375 L20.981625,58.4375 L20.981625,56.611125 C20.981625,55.603875 21.803875,54.784625 22.814375,54.784625 L41.18675,54.784625 C42.195375,54.784625 43.016,55.604 43.016,56.611125 L43.016,58.4375 L37.611625,58.4375 C36.921375,58.4375 36.361625,58.99725 36.361625,59.6875 C36.361625,60.37775 36.921375,60.9375 37.611625,60.9375 L43.8125,60.9375 C44.751875,60.9375 45.516,60.1735 45.516,59.234375 L45.516,56.611125 C45.516,54.2255 43.573875,52.284625 41.18675,52.284625 L36.8595,52.284625 L36.8595,45.538875 C43.533625,43.4645 48.393375,37.235125 48.393375,29.892875 L48.393375,22.518625 C48.393375,21.82825 47.8335,21.2685 47.14325,21.2685 Z M23.426375,11.126125 C23.426375,6.40425 27.271875,2.5625 31.998625,2.5625 C36.727375,2.5625 40.574375,6.404125 40.574375,11.126125 L40.574375,15.25725 L23.426375,15.25725 L23.426375,11.126125 Z M23.426375,17.75725 L40.5745,17.75725 L40.5745,21.01725 L23.426375,21.01725 L23.426375,17.75725 Z M23.426375,23.51725 L40.5745,23.51725 L40.5745,29.892875 C40.5745,34.61475 36.7275,38.4565 31.99875,38.4565 C27.272,38.4565 23.426375,34.614875 23.426375,29.892875 L23.426375,23.51725 L23.426375,23.51725 Z M34.359375,52.2845 L29.638,52.2845 L29.638,46.10325 C30.409125,46.214875 31.197125,46.273875 31.99875,46.273875 C32.800375,46.273875 33.588375,46.215 34.3595,46.103375 L34.3595,52.2845 L34.359375,52.2845 Z M45.89325,29.892875 C45.89325,37.546875 39.66025,43.773875 31.99875,43.773875 C24.33925,43.773875 18.107875,37.547 18.107875,29.892875 L18.107875,26.940625 L20.9265,26.940625 L20.9265,29.892875 C20.9265,35.993375 25.8935,40.9565 31.99875,40.9565 C38.105875,40.9565 43.0745,35.993375 43.0745,29.892875 L43.0745,26.940625 L45.89325,26.940625 L45.89325,29.892875 Z" id="Shape"></path>
                <path d="M57.675125,10.7905 C57.18675,10.302375 56.395125,10.303 55.907375,10.79125 C55.4195,11.279625 55.419875,12.071125 55.90825,12.559125 C59.514125,16.16175 61.5,20.949125 61.5,26.03925 C61.5,31.129375 59.514125,35.916875 55.90825,39.5195 C55.42,40.007375 55.419625,40.798875 55.9075,41.287375 C56.151625,41.531625 56.47175,41.653875 56.79175,41.653875 C57.1115,41.653875 57.431125,41.531875 57.67525,41.288125 C61.75375,37.213125 64,31.797625 64,26.03925 C64,20.280875 61.75375,14.865375 57.675125,10.7905 Z" id="Path"></path>
                <path d="M53.37725,15.084875 C52.888625,14.596875 52.097375,14.597375 51.609375,15.085625 C51.1215,15.574 51.121875,16.3655 51.610125,16.8535 C54.06775,19.309 55.42125,22.5705 55.42125,26.037625 C55.42125,29.50475 54.06775,32.766375 51.610125,35.221875 C51.121875,35.70975 51.1215,36.50125 51.609375,36.98975 C51.8535,37.234 52.173625,37.35625 52.493625,37.35625 C52.813375,37.35625 53.133,37.23425 53.377125,36.9905 C56.307375,34.06275 57.92125,30.173 57.92125,26.03775 C57.92125,21.902375 56.3075,18.012625 53.37725,15.084875 L53.37725,15.084875 Z" id="Path"></path>
                <path d="M2.5,26.03925 C2.5,20.948875 4.485,16.1615 8.08925,12.55875 C8.5775,12.07075 8.57775,11.279375 8.089625,10.791 C7.6015,10.302625 6.810125,10.3025 6.321875,10.790625 C2.245125,14.865625 0,20.281 0,26.03925 C0,31.7975 2.245125,37.213 6.321875,41.28775 C6.565875,41.53175 6.88575,41.65375 7.2055,41.65375 C7.5255,41.65375 7.8455,41.531625 8.089625,41.287375 C8.577625,40.799125 8.5775,40.00775 8.08925,39.519625 C4.485,35.917 2.5,31.1295 2.5,26.03925 L2.5,26.03925 Z" id="Path"></path>
                <path d="M31.998625,58.4375 C31.30825,58.4375 30.748625,58.99725 30.748625,59.6875 C30.748625,60.37775 31.30825,60.9375 31.998625,60.9375 L32.00575,60.9375 C32.696,60.9375 33.25225,60.37775 33.25225,59.6875 C33.25225,58.99725 32.689,58.4375 31.998625,58.4375 L31.998625,58.4375 Z" id="Path"></path>
            </g>
        </g>
    </g>
</svg>