<?xml version="1.0" encoding="UTF-8"?>
<svg width="62px" height="64px" viewBox="0 0 62 64" version="1.1" xmlns="http://www.w3.org/2000/svg" xmlns:xlink="http://www.w3.org/1999/xlink">
    <!-- Generator: sketchtool 63.1 (101010) - https://sketch.com -->
    <title>396D04FB-15CF-43E7-8885-4EBDE70B03E4</title>
    <desc>Created with sketchtool.</desc>
    <g id="Main&amp;About" stroke="none" stroke-width="1" fill="none" fill-rule="evenodd">
        <g id="Step-6.1-Backend-and-Content-management--" transform="translate(-719.000000, -222.000000)" fill="#FFFFFF" fill-rule="nonzero">
            <g id="backend" transform="translate(719.000000, 222.000000)">
                <path d="M48.875,10.2709961 L31.375,0.1674805 C30.9882812,-0.055664 30.5117188,-0.055664 30.125,0.1674805 L12.625,10.2709961 C12.2382812,10.4946289 12,10.9072265 12,11.3535156 L12,20.368164 C12,20.8144531 12.2382812,21.227539 12.625,21.4506836 L16.9199219,23.9301758 L12.625,26.4106445 C12.2382812,26.633789 12,27.0463867 12,27.4926758 L12,36.5073242 C12,36.9536133 12.2382812,37.3666992 12.625,37.5898438 L16.9199219,40.069336 L12.625,42.5493164 C12.2382812,42.772461 12,43.1855469 12,43.631836 L12,52.6464844 C12,53.0927735 12.2382812,53.5058594 12.625,53.7290039 L30.125,63.8325195 C30.3183594,63.944336 30.5341797,64 30.75,64 C30.9658203,64 31.1816406,63.944336 31.375,63.8325195 L48.875,53.7290039 C49.2617188,53.5058594 49.5,53.0927735 49.5,52.6464844 L49.5,43.631836 C49.5,43.1855469 49.2617188,42.772461 48.875,42.5493164 L44.5795899,40.0698242 L48.875,37.5898438 C49.2617188,37.3666993 49.5,36.9536133 49.5,36.5073242 L49.5,27.4926757 C49.5,27.0463867 49.2617188,26.633789 48.875,26.4106445 L44.5800781,23.930664 L48.875,21.4506836 C49.2617188,21.227539 49.5,20.8149414 49.5,20.368164 L49.5,11.3540039 C49.5,10.9072265 49.2617188,10.4946289 48.875,10.2709961 Z M30.75,2.69335938 L45.75,11.3540039 L30.75,20.0141601 L15.75,11.3540039 L30.75,2.69335938 Z M14.5,13.5185547 L29.5,22.1791992 L29.5,28.3066406 L14.5,19.6464844 L14.5,13.5185547 Z M14.5,29.6577149 L29.5,38.3183594 L29.5,44.4458008 L14.5,35.7856445 L14.5,29.6577149 Z M14.5,45.796875 L29.5,54.4570313 L29.5,60.584961 L14.5,51.9248048 L14.5,45.796875 Z M32,60.584961 L32,54.4575195 L47,45.796875 L47,51.9248048 L32,60.584961 Z M45.75,43.631836 L30.75,52.2919923 L15.75,43.631836 L19.4199219,41.5126953 L30.125,47.6933594 C30.3183594,47.8051758 30.5341797,47.8608399 30.75,47.8608399 C30.9658203,47.8608399 31.1816406,47.8051758 31.375,47.6933594 L42.0795899,41.5131836 L45.75,43.631836 Z M32,44.4458008 L32,38.3183594 L47,29.6582031 L47,35.7856445 L32,44.4458008 Z M45.75,27.4926757 L30.75,36.1533202 L15.75,27.4926757 L19.4199219,25.3740235 L30.125,31.5541992 C30.3183594,31.6660156 30.5341797,31.7216797 30.75,31.7216797 C30.9658203,31.7216797 31.1816406,31.6660156 31.375,31.5541992 L42.0800781,25.3740235 L45.75,27.4926757 Z M32,28.3071289 L32,22.1791992 L47,13.519043 L47,19.6464844 L32,28.3071289 Z" id="Shape"></path>
                <path d="M57.25,32.4863281 C56.9213868,32.4863281 56.5986328,32.6191406 56.366211,32.852539 C56.133789,33.084961 56,33.40625 56,33.7363281 C56,34.0649414 56.133789,34.3876953 56.366211,34.6201172 C56.5986328,34.852539 56.9213867,34.9863281 57.25,34.9863281 C57.5786133,34.9863281 57.9013672,34.852539 58.133789,34.6201172 C58.366211,34.3876953 58.5,34.0649414 58.5,33.7363281 C58.5,33.40625 58.366211,33.0839844 58.133789,32.852539 C57.9013672,32.6191406 57.5786133,32.4863281 57.25,32.4863281 Z" id="Path"></path>
                <path d="M61.5,13.0620117 C61.5,10.71875 59.59375,8.81201175 57.25,8.81201175 C54.9067383,8.81201175 53,10.71875 53,13.0620117 C53,14.9707031 54.2646485,16.5893555 56,17.1245117 L56,28.1108399 C56,28.8012695 56.5595703,29.3608399 57.25,29.3608399 C57.9404297,29.3608399 58.5,28.8012695 58.5,28.1108399 L58.5,17.1245117 C60.2353515,16.5893555 61.5,14.9707031 61.5,13.0620117 Z M57.25,14.8120117 C56.2851562,14.8120117 55.5,14.0273438 55.5,13.0620117 C55.5,12.097168 56.2851562,11.3120117 57.25,11.3120117 C58.2148438,11.3120117 59,12.097168 59,13.0620117 C59,14.0273438 58.2148438,14.8120117 57.25,14.8120117 Z" id="Shape"></path>
                <path d="M4.25,56.8588868 C3.55957025,56.8588868 3,57.4189453 3,58.1088868 L3,62.75 C3,63.4404298 3.55957025,64 4.25,64 C4.94042975,64 5.5,63.4404298 5.5,62.75 L5.5,58.1088868 C5.5,57.418457 4.94042975,56.8588868 4.25,56.8588868 L4.25,56.8588868 Z" id="Path"></path>
                <path d="M4.25,33.1850586 C1.90673825,33.1850586 0,35.0917969 0,37.4350586 C0,39.34375 1.2646485,40.9624024 3,41.4970703 L3,51.8657226 C3,52.5561524 3.55957025,53.1157226 4.25,53.1157226 C4.94042975,53.1157226 5.5,52.5561524 5.5,51.8657226 L5.5,41.4970703 C7.2353515,40.961914 8.5,39.34375 8.5,37.4350586 C8.5,35.0917969 6.59375,33.1850586 4.25,33.1850586 L4.25,33.1850586 Z M4.25,39.1850586 C3.28515625,39.1850586 2.5,38.4003906 2.5,37.4350586 C2.5,36.4702149 3.28515625,35.6850586 4.25,35.6850586 C5.21484375,35.6850586 6,36.4702149 6,37.4350586 C6,38.4003906 5.21484375,39.1850586 4.25,39.1850586 Z" id="Shape"></path>
            </g>
        </g>
    </g>
</svg>