<?xml version="1.0" encoding="UTF-8"?>
<svg width="36px" height="64px" viewBox="0 0 36 64" version="1.1" xmlns="http://www.w3.org/2000/svg" xmlns:xlink="http://www.w3.org/1999/xlink">
    <!-- Generator: sketchtool 63.1 (101010) - https://sketch.com -->
    <title>E6CD73EA-EDB3-439D-8D18-4353CA3C942B</title>
    <desc>Created with sketchtool.</desc>
    <g id="Main&amp;About" stroke="none" stroke-width="1" fill="none" fill-rule="evenodd">
        <g id="Step-2.1-Design-level" transform="translate(-1002.000000, -187.000000)" fill="#FFFFFF" fill-rule="nonzero">
            <g id="basic" transform="translate(1002.000000, 187.000000)">
                <path d="M11.0673828,8.99609375 C10.9863281,8.99609375 10.9038086,8.9887695 10.8237305,8.97265625 C10.7436524,8.95605475 10.665039,8.93261725 10.5888672,8.90136725 C10.5136719,8.87011725 10.4414062,8.83105475 10.3735351,8.78613275 C10.3051758,8.74023438 10.241211,8.68896487 10.1835938,8.63134763 C10.1259765,8.57226562 10.0737305,8.508789 10.0288086,8.44140625 C9.98388675,8.37255862 9.94482425,8.29980475 9.91357425,8.22509763 C9.88232425,8.14990237 9.85742188,8.071289 9.84228513,7.991211 C9.82617188,7.91015625 9.81738275,7.82861325 9.81738275,7.74755862 C9.81738275,7.665039 9.82617188,7.58398438 9.84228513,7.50244138 C9.85742188,7.42236325 9.88232425,7.34375 9.91357425,7.26855475 C9.94482425,7.19384763 9.98388675,7.12109375 10.0288086,7.05273438 C10.0737305,6.98486325 10.1259765,6.91992188 10.1835938,6.86230475 C10.241211,6.80517575 10.3051758,6.75244138 10.3735351,6.7075195 C10.4414062,6.66259763 10.5136719,6.62353513 10.5888672,6.59228513 C10.665039,6.56103513 10.7436524,6.53759763 10.8237305,6.52148438 C11.2299805,6.43994138 11.6611328,6.57226562 11.9511719,6.86230475 C12.008789,6.91992188 12.0610351,6.98486325 12.105957,7.05273438 C12.1513672,7.12109375 12.1899414,7.19384763 12.2211914,7.26855475 C12.2524414,7.34375 12.2763672,7.42236325 12.2924805,7.50244138 C12.3085938,7.58398438 12.3173828,7.665039 12.3173828,7.74755862 C12.3173828,7.82861325 12.3085938,7.91015625 12.2924805,7.991211 C12.2763672,8.071289 12.2524414,8.14990237 12.2211914,8.22509763 C12.1899414,8.29980475 12.1513672,8.37255862 12.105957,8.44140625 C12.0610351,8.508789 12.008789,8.57226562 11.9511719,8.63134763 C11.71875,8.8637695 11.3959961,8.99609375 11.0673828,8.99609375 Z" id="Path"></path>
                <path d="M30.2543945,0 L5.66796875,0 C2.54296875,0 0,2.5424805 0,5.66796875 L0,58.3320312 C0,61.4575195 2.54296875,64 5.66796875,64 L30.2543945,64 C33.3793945,64 35.9223632,61.4575195 35.9223632,58.3320312 L35.9223632,5.66796875 C35.9223632,2.5424805 33.3793945,0 30.2543945,0 Z M5.66796875,2.5 L30.2543945,2.5 C32.0009765,2.5 33.4223633,3.92138675 33.4223633,5.66796875 L33.4223633,6.49707025 L17.0449219,6.49707025 C16.3544923,6.49707025 15.7949219,7.05664062 15.7949219,7.74707025 C15.7949219,8.43701175 16.3544923,8.99707025 17.0449219,8.99707025 L33.4223633,8.99707025 L33.4223633,53.7514649 L2.5,53.7514649 L2.5,8.99707025 L5.79492188,8.99707025 C6.4853515,8.99707025 7.04492188,8.43701175 7.04492188,7.74707025 C7.04492188,7.05664062 6.4853515,6.49707025 5.79492188,6.49707025 L2.5,6.49707025 L2.5,5.66796875 C2.5,3.92138675 3.92138675,2.5 5.66796875,2.5 Z M33.4223633,58.3320313 C33.4223633,60.0786133 32.0009765,61.5 30.2543945,61.5 L5.66796875,61.5 C3.92138675,61.5 2.5,60.0786133 2.5,58.3320313 L2.5,56.2514649 L33.4223633,56.2514649 L33.4223633,58.3320313 Z" id="Shape"></path>
                <path d="M15.352539,28.2021485 L6.53125,28.2021485 C5.84082025,28.2021485 5.28125,27.6425781 5.28125,26.9521485 L5.28125,18.1313476 C5.28125,17.440918 5.84082025,16.8813476 6.53125,16.8813476 L15.352539,16.8813476 C16.0429688,16.8813476 16.602539,17.440918 16.602539,18.1313476 L16.602539,26.9521485 C16.602539,27.6425781 16.0429688,28.2021485 15.352539,28.2021485 Z M7.78125,25.7021485 L14.102539,25.7021485 L14.102539,19.3813476 L7.78125,19.3813476 L7.78125,25.7021485 Z" id="Shape"></path>
                <path d="M29.3911133,28.2021485 L20.5698242,28.2021485 C19.8793945,28.2021485 19.3198242,27.6425781 19.3198242,26.9521485 L19.3198242,18.1313476 C19.3198242,17.440918 19.8793945,16.8813476 20.5698242,16.8813476 L29.3911133,16.8813476 C30.081543,16.8813476 30.6411133,17.440918 30.6411133,18.1313476 L30.6411133,26.9521485 C30.6411133,27.6425781 30.081543,28.2021485 29.3911133,28.2021485 Z M21.8198242,25.7021485 L28.1411133,25.7021485 L28.1411133,19.3813476 L21.8198242,19.3813476 L21.8198242,25.7021485 Z" id="Shape"></path>
                <path d="M15.352539,42.1157226 L6.53125,42.1157226 C5.84082025,42.1157226 5.28125,41.5561524 5.28125,40.8657226 L5.28125,32.0444336 C5.28125,31.3544922 5.84082025,30.7944336 6.53125,30.7944336 L15.352539,30.7944336 C16.0429688,30.7944336 16.602539,31.3544922 16.602539,32.0444336 L16.602539,40.8657226 C16.602539,41.5561524 16.0429688,42.1157226 15.352539,42.1157226 Z M7.78125,39.6157226 L14.102539,39.6157226 L14.102539,33.2944336 L7.78125,33.2944336 L7.78125,39.6157226 Z" id="Shape"></path>
                <path d="M29.3911133,42.1157226 L20.5698242,42.1157226 C19.8793945,42.1157226 19.3198242,41.5561524 19.3198242,40.8657226 L19.3198242,32.0444336 C19.3198242,31.3544922 19.8793945,30.7944336 20.5698242,30.7944336 L29.3911133,30.7944336 C30.081543,30.7944336 30.6411133,31.3544922 30.6411133,32.0444336 L30.6411133,40.8657226 C30.6411133,41.5561524 30.081543,42.1157226 29.3911133,42.1157226 Z M21.8198242,39.6157226 L28.1411133,39.6157226 L28.1411133,33.2944336 L21.8198242,33.2944336 L21.8198242,39.6157226 Z" id="Shape"></path>
                <path d="M19.5029297,60.1254882 L16.4194336,60.1254882 C15.7290039,60.1254882 15.1694336,59.565918 15.1694336,58.8754882 C15.1694336,58.1850586 15.7290039,57.6254882 16.4194336,57.6254882 L19.5029297,57.6254882 C20.1933594,57.6254882 20.7529297,58.1850586 20.7529297,58.8754882 C20.7529297,59.565918 20.1933594,60.1254882 19.5029297,60.1254882 Z" id="Path"></path>
                <path d="M22.0864258,47.625 L13.8364258,47.625 C13.1459961,47.625 12.5864258,47.0654297 12.5864258,46.375 C12.5864258,45.6845703 13.1459961,45.125 13.8364258,45.125 L22.0864258,45.125 C22.7763672,45.125 23.3364258,45.6845703 23.3364258,46.375 C23.3364258,47.0654297 22.7763672,47.625 22.0864258,47.625 Z" id="Path"></path>
            </g>
        </g>
    </g>
</svg>