<?xml version="1.0" encoding="UTF-8"?>
<svg width="64px" height="64px" viewBox="0 0 64 64" version="1.1" xmlns="http://www.w3.org/2000/svg" xmlns:xlink="http://www.w3.org/1999/xlink">
    <!-- Generator: sketchtool 63.1 (101010) - https://sketch.com -->
    <title>135F9A91-9B4E-4290-95F0-21029D32FC4C</title>
    <desc>Created with sketchtool.</desc>
    <g id="Main&amp;About" stroke="none" stroke-width="1" fill="none" fill-rule="evenodd">
        <g id="Step-4.2.-Minor-features" transform="translate(-718.000000, -377.000000)" fill="#FFFFFF" fill-rule="nonzero">
            <g id="calendar" transform="translate(718.000000, 377.000000)">
                <path d="M57.75,5.5 L51.791625,5.5 L51.791625,3.75 C51.791625,1.68225 50.109375,0 48.041625,0 C45.973875,0 44.291625,1.68225 44.291625,3.75 L44.291625,5.5 L23.291625,5.5 L23.291625,3.75 C23.291625,1.68225 21.609375,0 19.541625,0 C17.473875,0 15.791625,1.68225 15.791625,3.75 L15.791625,5.54625 C15.685375,5.516875 15.574,5.5 15.458375,5.5 L10.477875,5.5 C7.031625,5.5 4.227875,8.30375 4.227875,11.75 L4.227875,33.041625 C4.227875,33.732 4.787625,34.291625 5.477875,34.291625 C6.168125,34.291625 6.727875,33.732 6.727875,33.041625 L6.727875,18.375 L51.791625,18.375 C52.481875,18.375 53.041625,17.815375 53.041625,17.125 C53.041625,16.434625 52.481875,15.875 51.791625,15.875 L6.727875,15.875 L6.727875,11.75 C6.727875,9.68225 8.410125,8 10.477875,8 L15.458375,8 C15.574,8 15.685375,7.983 15.791625,7.95375 L15.791625,9.5625 C15.791625,11.63025 17.473875,13.3125 19.541625,13.3125 C21.609375,13.3125 23.291625,11.63025 23.291625,9.5625 L23.291625,8 L44.291625,8 L44.291625,9.5625 C44.291625,11.63025 45.973875,13.3125 48.041625,13.3125 C50.109375,13.3125 51.791625,11.63025 51.791625,9.5625 L51.791625,8 L57.75,8 C59.81775,8 61.5,9.68225 61.5,11.75 L61.5,59.24925 C61.5,60.49025 60.490375,61.5 59.24925,61.5 C58.008125,61.5 56.9985,60.49025 56.9985,59.24925 L56.9985,56.015625 C56.9985,55.32525 56.43875,54.765625 55.7485,54.765625 L41.208375,54.765625 C40.518125,54.765625 39.958375,55.32525 39.958375,56.015625 C39.958375,56.706 40.518125,57.265625 41.208375,57.265625 L54.4985,57.265625 L54.4985,59.24925 C54.4985,60.063125 54.7045,60.829625 55.066625,61.5 L4.75,61.5 C3.509375,61.5 2.5,60.490625 2.5,59.25 L2.5,57.265625 L30.478125,57.265625 C31.168375,57.265625 31.728125,56.706 31.728125,56.015625 C31.728125,55.32525 31.168375,54.765625 30.478125,54.765625 L17.988625,54.765625 C20.172875,52.8845 21.559875,50.102 21.559875,47 C21.559875,41.348125 16.96175,36.75 11.309875,36.75 C5.658,36.75 1.059875,41.348125 1.059875,47 C1.059875,50.102 2.446875,52.8845 4.631125,54.765625 L1.25,54.765625 C0.55975,54.765625 0,55.32525 0,56.015625 L0,59.25 C0,61.869125 2.130875,64 4.75,64 L59.24925,64 C61.86875,64 64,61.868875 64,59.24925 L64,11.75 C64,8.30375 61.19625,5.5 57.75,5.5 Z M20.791625,9.5625 C20.791625,10.25175 20.230875,10.8125 19.541625,10.8125 C18.852375,10.8125 18.291625,10.25175 18.291625,9.5625 L18.291625,3.75 C18.291625,3.06075 18.852375,2.5 19.541625,2.5 C20.230875,2.5 20.791625,3.06075 20.791625,3.75 L20.791625,9.5625 Z M49.291625,9.5625 C49.291625,10.25175 48.730875,10.8125 48.041625,10.8125 C47.352375,10.8125 46.791625,10.25175 46.791625,9.5625 L46.791625,3.75 C46.791625,3.06075 47.352375,2.5 48.041625,2.5 C48.730875,2.5 49.291625,3.06075 49.291625,3.75 L49.291625,9.5625 Z M3.559875,47 C3.559875,42.726625 7.0365,39.25 11.309875,39.25 C15.58325,39.25 19.059875,42.726625 19.059875,47 C19.059875,51.273375 15.58325,54.75 11.309875,54.75 C7.0365,54.75 3.559875,51.273375 3.559875,47 Z" id="Shape"></path>
                <path d="M58.538625,16.24125 C58.30625,16.00875 57.98375,15.875 57.655,15.875 C57.326125,15.875 57.00375,16.00875 56.77125,16.24125 C56.53875,16.47375 56.405,16.79625 56.405,17.125 C56.405,17.45375 56.538625,17.77625 56.77125,18.00875 C57.003875,18.24125 57.326125,18.375 57.655,18.375 C57.98375,18.375 58.30625,18.24125 58.538625,18.00875 C58.771125,17.77625 58.905,17.45375 58.905,17.125 C58.905,16.79625 58.77125,16.47375 58.538625,16.24125 Z" id="Path"></path>
                <path d="M37.331125,55.13125 C37.09875,54.89875 36.77625,54.76625 36.4475,54.76625 C36.11875,54.76625 35.79625,54.89875 35.56375,55.13125 C35.33125,55.365 35.1975,55.68625 35.1975,56.015 C35.1975,56.345 35.331125,56.66625 35.56375,56.9 C35.79625,57.1325 36.11875,57.265 36.4475,57.265 C36.77625,57.265 37.09875,57.1325 37.331125,56.9 C37.563625,56.66625 37.6975,56.34375 37.6975,56.015 C37.6975,55.68625 37.56375,55.365 37.331125,55.13125 Z" id="Path"></path>
                <path d="M28.280625,38 C25.6615,38 23.530625,40.130875 23.530625,42.75 C23.530625,45.369125 25.6615,47.5 28.280625,47.5 C30.89975,47.5 33.030625,45.369125 33.030625,42.75 C33.030625,40.130875 30.89975,38 28.280625,38 Z M28.280625,45 C27.04,45 26.030625,43.990625 26.030625,42.75 C26.030625,41.509375 27.04,40.5 28.280625,40.5 C29.52125,40.5 30.530625,41.509375 30.530625,42.75 C30.530625,43.990625 29.52125,45 28.280625,45 Z" id="Shape"></path>
                <path d="M39.94725,38 C37.328125,38 35.19725,40.130875 35.19725,42.75 C35.19725,45.369125 37.328125,47.5 39.94725,47.5 C42.566375,47.5 44.69725,45.369125 44.69725,42.75 C44.69725,40.130875 42.566375,38 39.94725,38 Z M39.94725,45 C38.706625,45 37.69725,43.990625 37.69725,42.75 C37.69725,41.509375 38.706625,40.5 39.94725,40.5 C41.187875,40.5 42.19725,41.509375 42.19725,42.75 C42.19725,43.990625 41.187875,45 39.94725,45 Z" id="Shape"></path>
                <path d="M51.614,38 C48.994875,38 46.864,40.130875 46.864,42.75 C46.864,45.369125 48.994875,47.5 51.614,47.5 C54.233125,47.5 56.364,45.369125 56.364,42.75 C56.364,40.130875 54.233125,38 51.614,38 Z M51.614,45 C50.373375,45 49.364,43.990625 49.364,42.75 C49.364,41.509375 50.373375,40.5 51.614,40.5 C52.854625,40.5 53.864,41.509375 53.864,42.75 C53.864,43.990625 52.854625,45 51.614,45 Z" id="Shape"></path>
                <path d="M16.614,25 C13.994875,25 11.864,27.130875 11.864,29.75 C11.864,32.369125 13.994875,34.5 16.614,34.5 C19.233125,34.5 21.364,32.369125 21.364,29.75 C21.364,27.130875 19.233125,25 16.614,25 Z M16.614,32 C15.373375,32 14.364,30.990625 14.364,29.75 C14.364,28.509375 15.373375,27.5 16.614,27.5 C17.854625,27.5 18.864,28.509375 18.864,29.75 C18.864,30.990625 17.854625,32 16.614,32 Z" id="Shape"></path>
                <path d="M39.94725,25 C37.328125,25 35.19725,27.130875 35.19725,29.75 C35.19725,32.369125 37.328125,34.5 39.94725,34.5 C42.566375,34.5 44.69725,32.369125 44.69725,29.75 C44.69725,27.130875 42.566375,25 39.94725,25 Z M39.94725,32 C38.706625,32 37.69725,30.990625 37.69725,29.75 C37.69725,28.509375 38.706625,27.5 39.94725,27.5 C41.187875,27.5 42.19725,28.509375 42.19725,29.75 C42.19725,30.990625 41.187875,32 39.94725,32 Z" id="Shape"></path>
                <path d="M51.614,25 C48.994875,25 46.864,27.130875 46.864,29.75 C46.864,32.369125 48.994875,34.5 51.614,34.5 C54.233125,34.5 56.364,32.369125 56.364,29.75 C56.364,27.130875 54.233125,25 51.614,25 Z M51.614,32 C50.373375,32 49.364,30.990625 49.364,29.75 C49.364,28.509375 50.373375,27.5 51.614,27.5 C52.854625,27.5 53.864,28.509375 53.864,29.75 C53.864,30.990625 52.854625,32 51.614,32 Z" id="Shape"></path>
                <path d="M28.280625,25 C25.6615,25 23.530625,27.130875 23.530625,29.75 C23.530625,32.369125 25.6615,34.5 28.280625,34.5 C30.89975,34.5 33.030625,32.369125 33.030625,29.75 C33.030625,27.130875 30.89975,25 28.280625,25 Z M28.280625,32 C27.04,32 26.030625,30.990625 26.030625,29.75 C26.030625,28.509375 27.04,27.5 28.280625,27.5 C29.52125,27.5 30.530625,28.509375 30.530625,29.75 C30.530625,30.990625 29.52125,32 28.280625,32 Z" id="Shape"></path>
                <path d="M15.763,43.953625 C15.27475,43.4655 14.4835,43.4655 13.995125,43.953625 L9.924375,48.0245 L8.53325,46.633375 C8.045,46.14525 7.25375,46.14525 6.765375,46.633375 C6.27725,47.1215 6.27725,47.913 6.765375,48.40125 L9.0405,50.676125 C9.275,50.9105 9.592875,51.04225 9.924375,51.04225 C10.255875,51.04225 10.57375,50.9105 10.80825,50.676125 L15.763,45.721375 C16.251125,45.23325 16.251125,44.44175 15.763,43.953625 Z" id="Path"></path>
            </g>
        </g>
    </g>
</svg>