<?xml version="1.0" encoding="UTF-8"?>
<svg width="64px" height="56px" viewBox="0 0 64 56" version="1.1" xmlns="http://www.w3.org/2000/svg" xmlns:xlink="http://www.w3.org/1999/xlink">
    <!-- Generator: sketchtool 63.1 (101010) - https://sketch.com -->
    <title>97DE2CCC-FB88-4526-8366-E7C56847EF77</title>
    <desc>Created with sketchtool.</desc>
    <g id="Main&amp;About" stroke="none" stroke-width="1" fill="none" fill-rule="evenodd">
        <g id="Step-4.1-major-feautures" transform="translate(-988.000000, -382.000000)" fill="#FFFFFF" fill-rule="nonzero">
            <g id="chat" transform="translate(988.000000, 382.000000)">
                <path d="M56.059893,7.63208556 C54.8962567,3.2513369 50.857754,0.0342245989 46.2716578,0.0342245989 L10.1304813,0.0342245989 C4.58609626,0.0342245989 0,4.55187166 0,10.1647059 L0,26.9347594 C0,31.657754 3.3540107,35.7647059 7.87165775,36.7914439 C8.96684492,41.1721925 12.9368984,44.3893048 17.659893,44.3893048 L19.1657754,44.3893048 L19.1657754,54.5197861 C19.1657754,55.0673797 19.5080214,55.6149733 19.9871658,55.8887701 C20.1925134,55.9572193 20.397861,56.0256684 20.6716578,56.0256684 C21.0139037,56.0256684 21.2877005,55.8887701 21.5614973,55.6834225 L36.2096257,44.3893048 L53.8010695,44.3893048 C59.3454545,44.3893048 63.9315508,39.8716578 63.9315508,34.2588235 L63.9315508,17.4887701 C63.9315508,12.6973262 60.5775401,8.65882353 56.059893,7.63208556 Z M7.52941176,17.4887701 L7.52941176,33.5743316 C4.85989305,32.5475936 3.01176471,29.9465241 3.01176471,26.9347594 L3.01176471,10.1647059 C3.01176471,6.2631016 6.22887701,3.0459893 10.1304813,3.0459893 L46.340107,3.0459893 C49.2149733,3.0459893 51.7475936,4.82566845 52.8427807,7.35828877 L17.659893,7.35828877 C12.115508,7.35828877 7.52941176,11.8759358 7.52941176,17.4887701 Z M60.9882353,34.2588235 L60.9197861,34.2588235 C60.9197861,38.1604278 57.7026738,41.3775401 53.8010695,41.3775401 L35.7304813,41.3775401 C35.3882353,41.3775401 35.0459893,41.5144385 34.8406417,41.7197861 L22.1775401,51.5080214 L22.1775401,42.8834225 C22.1775401,42.0620321 21.4930481,41.3775401 20.6716578,41.3775401 L17.659893,41.3775401 C13.7582888,41.3775401 10.5411765,38.1604278 10.5411765,34.2588235 L10.5411765,17.4887701 C10.5411765,13.5871658 13.7582888,10.3700535 17.659893,10.3700535 L53.8695187,10.3700535 C57.771123,10.3700535 60.9882353,13.5871658 60.9882353,17.4887701 L60.9882353,34.2588235 L60.9882353,34.2588235 Z" id="Shape"></path>
                <path d="M51.1315508,17.0096257 L20.3294118,17.0096257 C19.5080214,17.0096257 18.8235294,17.6941176 18.8235294,18.515508 C18.8235294,19.3368984 19.5080214,20.0213904 20.3294118,20.0213904 L51.1315508,20.0213904 C51.9529412,20.0213904 52.6374332,19.3368984 52.6374332,18.515508 C52.6374332,17.6941176 51.9529412,17.0096257 51.1315508,17.0096257 Z" id="Path"></path>
                <path d="M51.1315508,23.5807487 L20.3294118,23.5807487 C19.5080214,23.5807487 18.8235294,24.2652406 18.8235294,25.086631 C18.8235294,25.9080214 19.5080214,26.5925134 20.3294118,26.5925134 L51.1315508,26.5925134 C51.9529412,26.5925134 52.6374332,25.9080214 52.6374332,25.086631 C52.6374332,24.2652406 51.9529412,23.5807487 51.1315508,23.5807487 Z" id="Path"></path>
                <path d="M51.1315508,30.2203209 L20.3294118,30.2203209 C19.5080214,30.2203209 18.8235294,30.9048128 18.8235294,31.7262032 C18.8235294,32.5475936 19.5080214,33.2320856 20.3294118,33.2320856 L51.1315508,33.2320856 C51.9529412,33.2320856 52.6374332,32.5475936 52.6374332,31.7262032 C52.6374332,30.8363636 51.9529412,30.2203209 51.1315508,30.2203209 Z" id="Path"></path>
            </g>
        </g>
    </g>
</svg>