<?xml version="1.0" encoding="UTF-8"?>
<svg width="64px" height="53px" viewBox="0 0 64 53" version="1.1" xmlns="http://www.w3.org/2000/svg" xmlns:xlink="http://www.w3.org/1999/xlink">
    <!-- Generator: sketchtool 63.1 (101010) - https://sketch.com -->
    <title>7F749B64-E5B4-464D-8287-9FB4E808642E</title>
    <desc>Created with sketchtool.</desc>
    <g id="Main&amp;About" stroke="none" stroke-width="1" fill="none" fill-rule="evenodd">
        <g id="Step-4.1-major-feautures" transform="translate(-718.000000, -194.000000)" fill="#FFFFFF" fill-rule="nonzero">
            <g id="cms" transform="translate(718.000000, 194.000000)">
                <path d="M62.75,25.3735351 L58.6235351,25.3735351 L58.6235351,21.6660156 C58.6235351,20.975586 58.0639649,20.4160156 57.3735351,20.4160156 L54.5302735,20.4160156 C54.0180664,18.5527344 53.2773438,16.7666015 52.319336,15.0839844 L54.331543,13.0717774 C54.565918,12.8374024 54.6977539,12.519043 54.6977539,12.1879883 C54.6977539,11.8564453 54.565918,11.5385742 54.331543,11.303711 L47.3198243,4.29199225 C46.8320312,3.80419925 46.0405274,3.80419925 45.5522461,4.29199225 L43.5395508,6.3046875 C41.8569336,5.34619138 40.0703125,4.60546875 38.2080078,4.09326175 L38.2080078,1.25 C38.2080078,0.55957025 37.6484375,0 36.9580078,0 L27.0419923,0 C26.3515625,0 25.7919923,0.55957025 25.7919923,1.25 L25.7919923,4.09326175 C23.9291993,4.60546875 22.1425781,5.34619138 20.459961,6.3046875 L18.4477539,4.29199225 C17.9594726,3.80419925 17.1679688,3.80419925 16.6796875,4.29199225 L9.66796875,11.303711 C9.43359375,11.538086 9.30175775,11.855957 9.30175775,12.1875 C9.30175775,12.519043 9.43359375,12.836914 9.66796875,13.071289 L11.680664,15.0839844 C10.7216798,16.7675781 9.980957,18.5541992 9.46923825,20.4155274 L6.62646488,20.4155274 C5.93603513,20.4155274 5.37646488,20.975586 5.37646488,21.6655274 L5.37646488,25.3735351 L1.25,25.3735351 C0.55957025,25.3735351 7.10542736e-15,25.9335938 7.10542736e-15,26.6235351 C7.10542736e-15,27.3139649 0.55957025,27.8735351 1.25,27.8735351 L27,27.8735351 C27.6904298,27.8735351 28.25,27.3139649 28.25,26.6235351 C28.25,25.9335938 27.6904298,25.3735351 27,25.3735351 L21.6098633,25.3735351 C22.2299805,20.1894531 26.6513673,16.15625 32,16.15625 C37.3486328,16.15625 41.7700195,20.1894531 42.3901368,25.3735351 L37,25.3735351 C36.3095703,25.3735351 35.75,25.9335938 35.75,26.6235351 C35.75,27.3139649 36.3095703,27.8735351 37,27.8735351 L62.75,27.8735351 C63.4404298,27.8735351 64,27.3139649 64,26.6235351 C64,25.9335938 63.4404298,25.3735351 62.75,25.3735351 L62.75,25.3735351 Z M32,13.65625 C25.2714844,13.65625 19.7236328,18.8081055 19.0927735,25.3735351 L7.87646487,25.3735351 L7.87646487,22.9160156 L10.4433594,22.9160156 C11.0263672,22.9160156 11.5317383,22.5131836 11.6621094,21.9448242 C12.1801758,19.6811524 13.0722656,17.5307618 14.3125,15.5532226 C14.6220703,15.0595703 14.5498048,14.4169922 14.1376953,14.0048828 L12.3198242,12.1875 L17.5639649,6.94384763 L19.3813476,8.7612305 C19.7939453,9.17333987 20.4360351,9.2456055 20.9296875,8.93603513 C22.9052735,7.696289 25.055664,6.8046875 27.321289,6.28515625 C27.8891601,6.1552735 28.2919923,5.64990237 28.2919923,5.0668945 L28.2919923,2.5 L35.7080078,2.5 L35.7080078,5.0668945 C35.7080078,5.64990237 36.1108399,6.1552735 36.678711,6.2856445 C38.9438476,6.8046875 41.0947265,7.69677737 43.0708008,8.93603513 C43.5644531,9.24609375 44.206543,9.17333987 44.6186524,8.7612305 L46.4360351,6.94384763 L51.6801758,12.1879883 L49.862793,14.0048828 C49.4506836,14.4174805 49.3779298,15.0595703 49.6879883,15.5532226 C50.9272461,17.5288086 51.8188476,19.6791992 52.3383789,21.9453125 C52.4682618,22.5131836 52.9736328,22.9160156 53.5566406,22.9160156 L56.1240235,22.9160156 L56.1240235,25.3740235 L44.9072265,25.3740235 C44.2763672,18.8081055 38.7285156,13.65625 32,13.65625 Z" id="Shape"></path>
                <path d="M12.5864258,34.9838868 L15.2231445,34.9838868 C16.7026367,34.9838868 17.9057617,36.1875 17.9057617,37.6669923 C17.9057617,38.3569336 18.4658203,38.9169923 19.1557617,38.9169923 C19.8461914,38.9169923 20.4057617,38.3569336 20.4057617,37.6669923 C20.4057617,34.809082 18.0810547,32.4838868 15.2231445,32.4838868 L12.5864258,32.4838868 C9.72851562,32.4838868 7.40332025,34.809082 7.40332025,37.6669923 L7.40332025,47.230957 C7.40332025,50.0888673 9.72851562,52.4140625 12.5864258,52.4140625 L15.2231445,52.4140625 C18.0810547,52.4140625 20.4057617,50.0888672 20.4057617,47.230957 C20.4057617,46.5410156 19.8461914,45.980957 19.1557617,45.980957 C18.4658203,45.980957 17.9057617,46.5410156 17.9057617,47.230957 C17.9057617,48.7104493 16.7026367,49.9140625 15.2231445,49.9140625 L12.5864258,49.9140625 C11.1069336,49.9140625 9.90332025,48.7104492 9.90332025,47.230957 L9.90332025,37.6669923 C9.90332025,36.1875 11.1069336,34.9838868 12.5864258,34.9838868 L12.5864258,34.9838868 Z" id="Path"></path>
                <path d="M40.6108399,32.734375 C40.0610351,32.5908203 39.4829101,32.8359375 39.2050781,33.3320312 L32.7001953,44.9272461 L26.1953125,33.3320312 C25.9169922,32.8359375 25.3388672,32.590332 24.7890625,32.734375 C24.2387695,32.8779297 23.8549805,33.375 23.8549805,33.9438476 L23.8549805,50.9541015 C23.8549805,51.6445313 24.4145508,52.2041015 25.1049805,52.2041015 C25.7954101,52.2041015 26.3549805,51.6445313 26.3549805,50.9541015 L26.3549805,38.7265625 L31.6098633,48.09375 C31.8310547,48.487793 32.2475586,48.7319336 32.699707,48.7319336 C33.1518555,48.7319336 33.5688476,48.487793 33.790039,48.09375 L39.0449219,38.7265625 L39.0449219,50.9541015 C39.0449219,51.6445313 39.6044923,52.2041015 40.2949219,52.2041015 C40.9853515,52.2041015 41.5449219,51.6445313 41.5449219,50.9541015 L41.5449219,33.9438476 C41.5449219,33.375 41.1611328,32.8779298 40.6108399,32.734375 L40.6108399,32.734375 Z" id="Path"></path>
                <path d="M50.7138672,41.1992188 C48.8486327,41.1992188 47.3310547,39.6816406 47.3310547,37.815918 C47.3310547,35.9506836 48.8486327,34.4331055 50.7138672,34.4331055 C51.8046875,34.4331055 52.8344726,34.9638672 53.4697265,35.8530274 C53.8706055,36.415039 54.6513672,36.5449219 55.2128906,36.144043 C55.7749024,35.7426757 55.9052735,34.9624024 55.5039062,34.4003906 C54.4008789,32.8554688 52.6103515,31.9331055 50.7138672,31.9331055 C47.4702149,31.9331055 44.8310547,34.5722656 44.8310547,37.815918 C44.8310547,41.0600586 47.4702149,43.6992188 50.7138672,43.6992188 C52.5791015,43.6992188 54.0966797,45.2163086 54.0966797,47.081543 C54.0966797,48.9472656 52.5791015,50.4648438 50.7138672,50.4648438 C49.4521485,50.4648438 48.303711,49.7700195 47.7163086,48.6523438 C47.3955077,48.0410156 46.6396485,47.8061524 46.0288086,48.1269531 C45.4174805,48.4482422 45.1821289,49.2036133 45.503418,49.8149414 C46.5239257,51.7578125 48.5205077,52.9648438 50.7138672,52.9648438 C53.9575195,52.9648438 56.5966797,50.3256836 56.5966797,47.081543 C56.5966797,43.8378906 53.9575195,41.1992188 50.7138672,41.1992188 L50.7138672,41.1992188 Z" id="Path"></path>
                <path d="M33.25,26.6235351 C33.25,25.9355469 32.6884765,25.3735351 32,25.3735351 C31.3115235,25.3735351 30.75,25.9355469 30.75,26.6235351 C30.75,27.3120117 31.3115235,27.8735351 32,27.8735351 C32.6884765,27.8735351 33.25,27.3120117 33.25,26.6235351 Z" id="Path"></path>
            </g>
        </g>
    </g>
</svg>