<?xml version="1.0" encoding="UTF-8"?>
<svg width="64px" height="64px" viewBox="0 0 64 64" version="1.1" xmlns="http://www.w3.org/2000/svg" xmlns:xlink="http://www.w3.org/1999/xlink">
    <!-- Generator: sketchtool 63.1 (101010) - https://sketch.com -->
    <title>9CD41783-6C10-4F44-BE18-4291037F380D</title>
    <desc>Created with sketchtool.</desc>
    <g id="Main&amp;About" stroke="none" stroke-width="1" fill="none" fill-rule="evenodd">
        <g id="Step-4.1-major-feautures" transform="translate(-718.000000, -378.000000)" fill="#FFFFFF" fill-rule="nonzero">
            <g id="comments" transform="translate(718.000000, 378.000000)">
                <path d="M26.872375,25.25625 C26.64,25.02375 26.3175,24.89 25.98875,24.89 C25.66,24.89 25.3375,25.02375 25.105,25.25625 C24.8725,25.48875 24.73875,25.81125 24.73875,26.14 C24.73875,26.46875 24.872375,26.79125 25.105,27.02375 C25.3375,27.25625 25.66,27.39 25.98875,27.39 C26.3175,27.39 26.64,27.25625 26.872375,27.02375 C27.104875,26.79125 27.23875,26.46875 27.23875,26.14 C27.23875,25.81125 27.105,25.48875 26.872375,25.25625 Z" id="Path"></path>
                <path d="M47.02825,26.67275 C46.290625,26.67275 45.59625,26.861625 44.990875,27.19325 C44.3775,25.5955 42.828,24.457875 41.016875,24.457875 C40.23575,24.457875 39.503875,24.670375 38.873875,25.039125 C38.20075,23.57425 36.7205,22.554125 35.005625,22.554125 C34.37975,22.554125 33.785625,22.691 33.25,22.934625 L33.25,14.875 C33.25,12.5285 31.341,10.619375 28.994375,10.619375 C26.64775,10.619375 24.73875,12.5285 24.73875,14.875 L24.73875,21.25 C24.73875,21.940375 25.2985,22.5 25.98875,22.5 C26.679,22.5 27.23875,21.940375 27.23875,21.25 L27.23875,14.875 C27.23875,13.906875 28.026375,13.119375 28.994375,13.119375 C29.962375,13.119375 30.75,13.906875 30.75,14.875 L30.75,34.597 C30.75,35.287375 31.30975,35.847 32,35.847 C32.69025,35.847 33.25,35.287375 33.25,34.597 L33.25,26.80975 C33.25,25.841625 34.037625,25.054125 35.005625,25.054125 C35.973625,25.054125 36.76125,25.841625 36.76125,26.80975 L36.76125,28.7135 L36.76125,29.787875 L36.76125,34.596875 C36.76125,35.28725 37.321,35.846875 38.01125,35.846875 C38.7015,35.846875 39.26125,35.28725 39.26125,34.596875 L39.26125,29.787875 L39.26125,28.7135 C39.26125,27.745375 40.048875,26.957875 41.016875,26.957875 C41.985,26.957875 42.772625,27.745375 42.772625,28.7135 L42.772625,30.137625 C42.772625,30.23325 42.784375,30.325875 42.804625,30.415375 C42.78425,30.58375 42.772625,30.75475 42.772625,30.9285 L42.772625,34.597125 C42.772625,35.2875 43.332375,35.847125 44.022625,35.847125 C44.712875,35.847125 45.272625,35.2875 45.272625,34.597125 L45.272625,30.9285 C45.272625,29.960375 46.06025,29.172875 47.02825,29.172875 C47.99625,29.172875 48.783875,29.960375 48.783875,30.9285 L48.783875,41.476 C48.783875,44.286625 48.3575,47.071625 47.516375,49.753375 L46.027875,54.5 L41.6875,54.5 C40.99725,54.5 40.4375,55.059625 40.4375,55.75 C40.4375,56.440375 40.99725,57 41.6875,57 L47.158875,57 L47.158875,61.5 L24.658875,61.5 L24.658875,57 L31.375,57 C32.06525,57 32.625,56.440375 32.625,55.75 C32.625,55.059625 32.06525,54.5 31.375,54.5 L26.623625,54.5 L22.515125,48.87775 C21.365,47.303875 20.549875,45.545 20.092625,43.64975 L17.80425,34.1645 C17.59425,33.293875 18.006,32.404 18.80575,32.000625 C19.7405,31.529125 20.86175,31.881375 21.359125,32.80225 L24.889,39.338625 C25.160875,39.842125 25.7405,40.0965 26.295125,39.9565 C26.85,39.816125 27.238875,39.317 27.238875,38.744625 L27.238875,31.125 C27.238875,30.434625 26.679125,29.875 25.988875,29.875 C25.298625,29.875 24.738875,30.434625 24.738875,31.125 L24.738875,33.799375 L23.558875,31.614375 C22.41375,29.493875 19.831375,28.68325 17.67975,29.768625 C15.838625,30.697375 14.890625,32.746125 15.37425,34.750875 L17.662625,44.236125 C18.1975,46.4535 19.151125,48.5115 20.49675,50.352875 L23.527125,54.5 L23.408875,54.5 C22.718625,54.5 22.158875,55.059625 22.158875,55.75 L22.158875,62.75 C22.158875,63.440375 22.718625,64 23.408875,64 L48.408875,64 C49.099125,64 49.658875,63.440375 49.658875,62.75 L49.658875,55.75 C49.658875,55.139 49.22025,54.63125 48.641,54.522375 L49.901875,50.50125 C50.818875,47.577125 51.283875,44.5405 51.283875,41.475875 L51.283875,30.928375 C51.283875,28.581875 49.37475,26.67275 47.02825,26.67275 Z" id="Path"></path>
                <path d="M37.133625,54.86625 C36.90125,54.63375 36.57875,54.5 36.25,54.5 C35.92125,54.5 35.59875,54.63375 35.36625,54.86625 C35.13375,55.09875 35,55.42125 35,55.75 C35,56.07875 35.133625,56.40125 35.36625,56.63375 C35.598875,56.86625 35.92125,57 36.25,57 C36.57875,57 36.90125,56.86625 37.133625,56.63375 C37.366125,56.40125 37.5,56.07875 37.5,55.75 C37.5,55.42125 37.36625,55.09875 37.133625,54.86625 Z" id="Path"></path>
                <path d="M11.25,0 C5.04675,0 0,5.04675 0,11.25 C0,17.45325 5.04675,22.5 11.25,22.5 C17.45325,22.5 22.5,17.45325 22.5,11.25 C22.5,5.04675 17.45325,0 11.25,0 Z M11.25,20 C6.42525,20 2.5,16.07475 2.5,11.25 C2.5,6.42525 6.42525,2.5 11.25,2.5 C16.07475,2.5 20,6.42525 20,11.25 C20,16.07475 16.07475,20 11.25,20 Z" id="Shape"></path>
                <path d="M13.01575,11.248375 L15.394125,8.87 C15.882625,8.381875 15.882625,7.590375 15.394375,7.102125 C14.906125,6.614 14.114875,6.614 13.6265,7.102125 L11.24825,9.4805 L8.87,7.10225 C8.381875,6.614125 7.590625,6.614125 7.102125,7.10225 C6.614,7.590375 6.614,8.381875 7.102125,8.87 L9.4805,11.248375 L7.102125,13.62675 C6.614,14.114875 6.614,14.906375 7.102125,15.3945 C7.34625,15.638625 7.666125,15.760625 7.986,15.760625 C8.305875,15.760625 8.62575,15.6385 8.869875,15.3945 L11.248125,13.016125 L13.626375,15.3945 C13.8705,15.638625 14.190375,15.760625 14.51025,15.760625 C14.830125,15.760625 15.15,15.6385 15.394125,15.3945 C15.88225,14.906375 15.88225,14.114875 15.394125,13.62675 L13.01575,11.248375 Z" id="Path"></path>
                <path d="M58.568125,7.063 C58.079875,6.575 57.288625,6.575 56.80025,7.063 L51.078,12.785375 L48.69975,10.407 C48.2115,9.918875 47.42025,9.918875 46.931875,10.407 C46.44375,10.895125 46.44375,11.686625 46.931875,12.174875 L50.194125,15.437125 C50.43825,15.681125 50.758125,15.80325 51.078,15.80325 C51.397875,15.80325 51.71775,15.681125 51.961875,15.437125 L58.568125,8.830875 C59.05625,8.34275 59.05625,7.55125 58.568125,7.063 Z" id="Path"></path>
                <path d="M52.75,0 C46.54675,0 41.5,5.04675 41.5,11.25 C41.5,17.45325 46.54675,22.5 52.75,22.5 C58.95325,22.5 64,17.45325 64,11.25 C64,5.04675 58.95325,0 52.75,0 Z M52.75,20 C47.92525,20 44,16.07475 44,11.25 C44,6.42525 47.92525,2.5 52.75,2.5 C57.57475,2.5 61.5,6.42525 61.5,11.25 C61.5,16.07475 57.57475,20 52.75,20 Z" id="Shape"></path>
            </g>
        </g>
    </g>
</svg>