<?xml version="1.0" encoding="UTF-8"?>
<svg width="64px" height="64px" viewBox="0 0 64 64" version="1.1" xmlns="http://www.w3.org/2000/svg" xmlns:xlink="http://www.w3.org/1999/xlink">
    <!-- Generator: sketchtool 63.1 (101010) - https://sketch.com -->
    <title>37C5FCB2-1DA3-41D2-A347-F2FBFE01B81D</title>
    <desc>Created with sketchtool.</desc>
    <g id="Main&amp;About" stroke="none" stroke-width="1" fill="none" fill-rule="evenodd">
        <g id="Step-6.1-Backend-and-Content-management--" transform="translate(-988.000000, -222.000000)" fill="#FFFFFF" fill-rule="nonzero">
            <g id="content" transform="translate(988.000000, 222.000000)">
                <path d="M59.769043,0 L4.230957,0 C1.89794925,0 0,1.71044925 0,3.8125 L0,60.0625 C0,62.1645508 1.89794925,63.875 4.230957,63.875 L59.769043,63.875 C62.1020508,63.875 64,62.1645508 64,60.0625 L64,3.8125 C64,1.71044925 62.1020508,0 59.769043,0 Z M4.230957,2.5 L59.769043,2.5 C60.7070312,2.5 61.5,3.10107425 61.5,3.8125 L61.5,12.5 L2.5,12.5 L2.5,3.8125 C2.5,3.10107425 3.29296875,2.5 4.230957,2.5 Z M59.769043,61.375 L4.230957,61.375 C3.29296875,61.375 2.5,60.7739257 2.5,60.0625 L2.5,15 L61.5,15 L61.5,60.0625 C61.5,60.7739257 60.7070312,61.375 59.769043,61.375 Z" id="Shape"></path>
                <path d="M23.875,8.79150388 L56.3125,8.79150388 C57.0029297,8.79150388 57.5625,8.23193362 57.5625,7.54150388 C57.5625,6.85107425 57.0029297,6.29150388 56.3125,6.29150388 L23.875,6.29150388 C23.1845703,6.29150388 22.625,6.85107425 22.625,7.54150388 C22.625,8.23193362 23.1845703,8.79150388 23.875,8.79150388 Z" id="Path"></path>
                <path d="M6.84765625,8.58105475 C6.91552737,8.62646487 6.987793,8.665039 7.06396487,8.696289 C7.13916013,8.727539 7.2177735,8.75146487 7.2978515,8.76757812 C7.37792975,8.78369138 7.46044925,8.79101562 7.54150388,8.79101562 C7.62304688,8.79101562 7.70556638,8.78369138 7.78515625,8.76757812 C7.86523438,8.75146487 7.944336,8.727539 8.02050775,8.696289 C8.09521487,8.665039 8.16796875,8.62646487 8.2353515,8.58105475 C8.30419925,8.53515625 8.36767575,8.48388675 8.425293,8.42480475 C8.65771487,8.19238275 8.79150388,7.87109375 8.79150388,7.54101562 C8.79150388,7.21240237 8.65771487,6.89013675 8.425293,6.65771487 C8.36767575,6.60009762 8.30419925,6.54736325 8.2353515,6.50244137 C8.16796875,6.4575195 8.09521487,6.41894525 8.02050775,6.38769525 C7.944336,6.35644525 7.86523438,6.3325195 7.78515625,6.31640625 C7.6240235,6.28369137 7.45898438,6.28369137 7.2978515,6.31640625 C7.2177735,6.3325195 7.13916013,6.35644525 7.06396487,6.38769525 C6.987793,6.41894525 6.91552737,6.4575195 6.84765625,6.50244137 C6.77929688,6.54736325 6.715332,6.60009762 6.65771487,6.65771487 C6.425293,6.89013675 6.29150388,7.21240237 6.29150388,7.54101562 C6.29150388,7.87109375 6.425293,8.19238275 6.65771487,8.42480475 C6.715332,8.48388675 6.77929688,8.53515625 6.84765625,8.58105475 Z" id="Path"></path>
                <path d="M11.3881836,8.0200195 C11.4194336,8.09521487 11.4580078,8.1674805 11.5029297,8.23486325 C11.5478515,8.303711 11.600586,8.36767575 11.6582031,8.4262695 C11.715332,8.48388675 11.7792969,8.53515625 11.8481445,8.58105475 C11.9155274,8.62646487 11.987793,8.665039 12.0644531,8.696289 C12.1391601,8.727539 12.2177735,8.75146487 12.2978515,8.76757812 C12.3779297,8.78369138 12.4604492,8.79101562 12.5419922,8.79101562 C12.6230469,8.79101562 12.7055664,8.78369138 12.7856445,8.76757812 C12.8657226,8.75146487 12.944336,8.727539 13.0205078,8.696289 C13.0957031,8.665039 13.1679688,8.62646487 13.2353515,8.58105475 C13.3041992,8.53515625 13.368164,8.48388675 13.425293,8.4262695 C13.4829101,8.36767575 13.5356445,8.303711 13.5805664,8.23486325 C13.6254883,8.1674805 13.6640625,8.09521487 13.6953125,8.0200195 C13.7265625,7.94384763 13.7519531,7.866211 13.7680664,7.78613275 C13.7841797,7.70507812 13.7919922,7.62353513 13.7919922,7.54101562 C13.7919922,7.459961 13.7841797,7.37744138 13.7680664,7.29736325 C13.7519531,7.21728512 13.7265625,7.13867187 13.6953125,7.06396487 C13.6640625,6.9887695 13.6254883,6.915039 13.5805664,6.84765625 C13.5356445,6.77880862 13.4829101,6.71484375 13.425293,6.65771487 C13.368164,6.60009762 13.3041992,6.54736325 13.2353515,6.50244137 C13.1679688,6.4575195 13.0957031,6.41894525 13.0205078,6.38769525 C12.944336,6.35644525 12.8657226,6.3325195 12.7856445,6.31640625 C12.6240235,6.28369137 12.4594726,6.28369137 12.2978515,6.31640625 C12.2177735,6.3325195 12.1391601,6.35644525 12.0644531,6.38769525 C11.987793,6.41894525 11.9155274,6.4575195 11.8481445,6.50244137 C11.7792969,6.54736325 11.715332,6.60009762 11.6582031,6.65771487 C11.600586,6.71484375 11.5478515,6.77880862 11.5029297,6.84765625 C11.4580078,6.915039 11.4194336,6.9887695 11.3881836,7.06396487 C11.3569336,7.13867187 11.3330078,7.21728512 11.3168945,7.29736325 C11.300293,7.37744138 11.2919922,7.459961 11.2919922,7.54101562 C11.2919922,7.62353513 11.300293,7.70507812 11.3168945,7.78613275 C11.3330078,7.866211 11.3569336,7.94384763 11.3881836,8.0200195 Z" id="Path"></path>
                <path d="M16.3881836,8.0200195 C16.4194336,8.09521487 16.4580078,8.1674805 16.5029297,8.23486325 C16.5478515,8.303711 16.600586,8.36767575 16.6582031,8.42480475 C16.715332,8.48242188 16.7792969,8.53515625 16.8481445,8.58105475 C16.9155274,8.62646487 16.987793,8.665039 17.0644531,8.696289 C17.1391601,8.727539 17.2177735,8.75146487 17.2978515,8.76757812 C17.3779297,8.78369138 17.4604492,8.79101562 17.5419922,8.79101562 C17.6230469,8.79101562 17.7055664,8.78369138 17.7856445,8.76757812 C17.8657226,8.75146487 17.944336,8.727539 18.019043,8.696289 C18.0957031,8.665039 18.1679688,8.62646487 18.2353515,8.58105475 C18.3041992,8.53515625 18.368164,8.48242188 18.425293,8.42480475 C18.6582031,8.19238275 18.7919922,7.87109375 18.7919922,7.54101562 C18.7919922,7.459961 18.7841797,7.37890625 18.7680664,7.29736325 C18.7519531,7.21728512 18.7265625,7.13867187 18.6953125,7.06396487 C18.6640625,6.9887695 18.6254883,6.91601562 18.5805664,6.84765625 C18.5356445,6.77978512 18.4829101,6.71484375 18.425293,6.65771487 C18.368164,6.60009762 18.3041992,6.54736325 18.2353515,6.50244137 C18.1679688,6.4575195 18.0957031,6.41894525 18.019043,6.38769525 C17.944336,6.35644525 17.8657226,6.3325195 17.7856445,6.31640625 C17.6254883,6.28369137 17.4594726,6.28369137 17.2978515,6.31640625 C17.2177735,6.3325195 17.1391601,6.35644525 17.0644531,6.38769525 C16.987793,6.41894525 16.9155274,6.4575195 16.8481445,6.50244137 C16.7792969,6.54736325 16.715332,6.60009762 16.6582031,6.65771487 C16.600586,6.71484375 16.5478515,6.77978512 16.5029297,6.84765625 C16.4580078,6.91601562 16.4194336,6.9887695 16.3881836,7.06396487 C16.3569336,7.13867187 16.331543,7.21728512 16.3168945,7.29736325 C16.300293,7.37890625 16.2919922,7.459961 16.2919922,7.54101562 C16.2919922,7.62353513 16.300293,7.70507812 16.3168945,7.78613275 C16.331543,7.866211 16.3569336,7.94384763 16.3881836,8.0200195 Z" id="Path"></path>
                <path d="M56.9790039,50 L54.4375,50 C53.7470703,50 53.1875,50.5595703 53.1875,51.25 C53.1875,51.9404297 53.7470703,52.5 54.4375,52.5 L56.9790039,52.5 C57.6694336,52.5 58.2290039,51.9404297 58.2290039,51.25 C58.2290039,50.5595703 57.6694336,50 56.9790039,50 L56.9790039,50 Z" id="Path"></path>
                <path d="M36.2290039,52.5 L44.4375,52.5 C45.1279297,52.5 45.6875,51.9404297 45.6875,51.25 C45.6875,50.5595703 45.1279297,50 44.4375,50 L36.2290039,50 C35.5385742,50 34.9790039,50.5595703 34.9790039,51.25 C34.9790039,51.9404297 35.5390625,52.5 36.2290039,52.5 L36.2290039,52.5 Z" id="Path"></path>
                <path d="M56.9790039,45 L36.2290039,45 C35.5385742,45 34.9790039,45.5595703 34.9790039,46.25 C34.9790039,46.9404297 35.5385742,47.5 36.2290039,47.5 L56.9790039,47.5 C57.6694336,47.5 58.2290039,46.9404297 58.2290039,46.25 C58.2290039,45.5595703 57.6694336,45 56.9790039,45 Z" id="Path"></path>
                <path d="M48.4404297,51.9848632 C48.4853515,52.053711 48.538086,52.1176757 48.5952149,52.1748047 C48.652832,52.2324219 48.7167969,52.2851562 48.7851562,52.3310547 C48.8530274,52.3764649 48.925293,52.415039 49.0004882,52.446289 C49.0766601,52.477539 49.1552735,52.5014649 49.2353515,52.5175781 C49.3154297,52.5336914 49.3979492,52.5410156 49.4790039,52.5410156 C49.5605469,52.5410156 49.6430664,52.5336914 49.7226562,52.5175781 C49.8027344,52.5014649 49.881836,52.477539 49.956543,52.446289 C50.0327149,52.415039 50.1054687,52.3764649 50.1728515,52.3310547 C50.2416992,52.2851562 50.3051757,52.2324219 50.362793,52.1748047 C50.4204101,52.1176757 50.4726562,52.053711 50.5180664,51.9848632 C50.5629882,51.9174805 50.6015625,51.8452149 50.6328125,51.7700195 C50.6640625,51.6938476 50.6889649,51.616211 50.7041015,51.5361327 C50.7202149,51.4550781 50.7290039,51.3735351 50.7290039,51.2910156 C50.7290039,51.209961 50.7202149,51.1274414 50.7041015,51.0473632 C50.6889649,50.9672851 50.6640625,50.8886719 50.6328125,50.8139649 C50.6015625,50.7387695 50.5629882,50.665039 50.5180664,50.5976562 C50.4726562,50.5288086 50.4204101,50.4648437 50.362793,50.4077149 C50.0727539,50.1176757 49.6401367,49.9848632 49.2353515,50.0664062 C49.1552735,50.0825195 49.0766601,50.1064452 49.0004882,50.1376952 C48.925293,50.1689452 48.8530274,50.2075195 48.7851562,50.2524414 C48.7167969,50.2973632 48.652832,50.3500976 48.5952149,50.4077149 C48.538086,50.4648437 48.4853515,50.5288086 48.4404297,50.5976562 C48.3955078,50.665039 48.3564453,50.7387695 48.3251953,50.8139649 C48.2939453,50.8886719 48.2705078,50.9672851 48.2539062,51.0473632 C48.237793,51.1274414 48.2290039,51.209961 48.2290039,51.2910156 C48.2290039,51.3735351 48.237793,51.4550781 48.2539062,51.5361327 C48.2705078,51.616211 48.2939453,51.6938476 48.3251953,51.7700195 C48.3569336,51.8452149 48.3955078,51.9174805 48.4404297,51.9848632 L48.4404297,51.9848632 Z" id="Path"></path>
                <path d="M56.9790039,55 L36.2290039,55 C35.5385742,55 34.9790039,55.5595703 34.9790039,56.25 C34.9790039,56.9404297 35.5385742,57.5 36.2290039,57.5 L56.9790039,57.5 C57.6694336,57.5 58.2290039,56.9404297 58.2290039,56.25 C58.2290039,55.5595703 57.6694336,55 56.9790039,55 Z" id="Path"></path>
                <path d="M58.2292209,20.0209961 L58.2292209,20 C58.2292209,19.9897461 58.2280274,19.9799805 58.227539,19.9702149 C58.2270508,19.9414062 58.2260743,19.9125976 58.2231445,19.883789 C58.2216798,19.8666992 58.21875,19.8496094 58.2167969,19.8325195 C58.2133789,19.8095703 58.2104493,19.7866211 58.2060548,19.7636719 C58.2016601,19.7407226 58.1958008,19.7177735 58.1899414,19.6948242 C58.1860351,19.678711 58.1826173,19.6625976 58.1777344,19.6459961 C58.1689453,19.6176758 58.1591798,19.590332 58.1489258,19.5629883 C58.1455078,19.553711 58.1430664,19.5449219 58.1396485,19.5356445 C58.1386719,19.5332031 58.1376953,19.53125 58.1367188,19.5288086 C58.125,19.5009765 58.1118164,19.4736328 58.0986328,19.446289 C58.0932618,19.4355469 58.0883789,19.4243164 58.0830078,19.4140625 C58.071289,19.3916015 58.0576173,19.3701172 58.0444336,19.3486328 C58.0356445,19.3344726 58.027832,19.319336 58.0185548,19.305664 C58.008789,19.2910156 57.9980469,19.277832 57.987793,19.2636719 C57.9736328,19.2441406 57.959961,19.2246094 57.944336,19.2060547 C57.9394531,19.199707 57.9335938,19.194336 57.9282226,19.1879883 C57.9072265,19.1635742 57.8857423,19.1391601 57.862793,19.116211 C57.8618164,19.1147461 57.8603515,19.1137695 57.859375,19.112793 C57.8320313,19.0859375 57.803711,19.0600586 57.774414,19.0356445 C57.7670899,19.0297851 57.7592774,19.024414 57.7519531,19.0185547 C57.7280274,19 57.7045899,18.9814453 57.6796875,18.9648438 C57.6499024,18.9448242 57.6191406,18.9262695 57.5878906,18.9086914 C57.584961,18.9072265 57.5820313,18.9047851 57.5791015,18.9033203 C57.5151368,18.868164 57.4477539,18.8393555 57.3779298,18.815918 C57.3710938,18.8134765 57.3642578,18.8105469 57.3574219,18.8085938 C57.334961,18.8012695 57.3115235,18.7958985 57.288086,18.790039 C57.2714844,18.7856445 57.2543945,18.7807617 57.2373048,18.7768555 C57.2216798,18.7739258 57.2055664,18.7719726 57.1894531,18.769043 C57.1640625,18.7646485 57.1386719,18.7597656 57.112793,18.7573242 C57.1015625,18.7558594 57.090332,18.7558594 57.0791015,18.7548828 C57.0483399,18.7524414 57.0170899,18.7504883 56.9858399,18.7504883 C56.9833985,18.7504883 56.980957,18.75 56.9790039,18.75 L6.97900388,18.75 C6.9765625,18.75 6.97460938,18.7504883 6.972168,18.7504883 C6.94042975,18.7504883 6.90917975,18.7524414 6.87792975,18.7548828 C6.8671875,18.7558594 6.855957,18.7563476 6.84521488,18.7573242 C6.81835938,18.7602539 6.7924805,18.7646485 6.76611325,18.7695312 C6.7509765,18.7719726 6.7353515,18.7739258 6.72070313,18.7768555 C6.70166013,18.7807617 6.68359375,18.7861328 6.66455075,18.7910156 C6.64355475,18.796875 6.621582,18.8017578 6.600586,18.8085938 C6.590332,18.8115235 6.58007813,18.815918 6.56982425,18.8198242 C6.54199225,18.8295899 6.51367188,18.8388672 6.48681638,18.850586 C6.48144525,18.8530274 6.4765625,18.855957 6.47119138,18.8583985 C6.43994138,18.8720703 6.40917975,18.8867188 6.3793945,18.902832 C6.36523438,18.9106445 6.35205075,18.9199219 6.33789063,18.9282226 C6.31835938,18.9399414 6.2978515,18.9511719 6.27832025,18.9643555 C6.18359375,19.0283203 6.09765625,19.105957 6.02294925,19.1953125 C6.0200195,19.1987305 6.0166015,19.2016601 6.01367188,19.2055664 C5.99707025,19.225586 5.98242188,19.2470703 5.96679688,19.2680664 C5.95800775,19.2802735 5.94824225,19.2924805 5.93945313,19.3051758 C5.9296875,19.3198242 5.9208985,19.3354492 5.91210938,19.350586 C5.899414,19.371582 5.8862305,19.3920899 5.875,19.4135742 C5.86914063,19.4243164 5.86425775,19.4360351 5.85888675,19.4472656 C5.84570313,19.4741211 5.8325195,19.5009765 5.821289,19.5288086 C5.8203125,19.53125 5.81884763,19.5332031 5.81835938,19.5356445 C5.81445313,19.5449219 5.81201175,19.5541992 5.80859375,19.5629883 C5.79833988,19.590332 5.78857425,19.618164 5.7802735,19.6459961 C5.77539063,19.6625976 5.77197263,19.678711 5.76757813,19.6953125 C5.76171875,19.7177735 5.75585938,19.7407226 5.75146488,19.7636719 C5.74707025,19.7866211 5.74414063,19.8095703 5.741211,19.8325195 C5.7387695,19.8496094 5.73632813,19.8666992 5.734375,19.883789 C5.73193363,19.9125976 5.730957,19.9414062 5.7299805,19.9702149 C5.7299805,19.9804688 5.72851563,19.9902344 5.72851563,20 L5.72851563,20.0209961 L5.72851563,20.0253906 L5.72851563,39.9746094 L5.72851563,39.9790039 L5.72851563,40 C5.72851563,40.0102539 5.7299805,40.0200195 5.7299805,40.0297851 C5.730957,40.0585938 5.73193363,40.0874024 5.734375,40.116211 C5.73632813,40.1333007 5.7387695,40.1503906 5.741211,40.1674805 C5.74414063,40.1904297 5.74707025,40.2133789 5.75146488,40.2363281 C5.75634763,40.2592774 5.76171875,40.2822265 5.76757813,40.3051757 C5.77197263,40.321289 5.77539063,40.3374024 5.7802735,40.3540039 C5.78857425,40.3823242 5.79833988,40.409668 5.80859375,40.4370117 C5.81201175,40.446289 5.81445313,40.4550781 5.81835938,40.4643555 C5.81884763,40.4663086 5.81982425,40.4677735 5.82080075,40.4697265 C5.84228513,40.5234375 5.868164,40.574707 5.89697263,40.6245117 C5.902832,40.6352539 5.909668,40.6455077 5.91601563,40.6557617 C5.94335938,40.699707 5.972168,40.7421875 6.0043945,40.7827149 C6.008789,40.7875976 6.01269525,40.793457 6.01708988,40.7983399 C6.050293,40.8383789 6.08642575,40.8754882 6.1240235,40.9106445 C6.13525388,40.9208985 6.14648438,40.9311524 6.15771488,40.9414062 C6.19775388,40.9765625 6.23925775,41.0092774 6.28369138,41.0390625 C6.28710938,41.0415039 6.29052738,41.0429687 6.29394525,41.0454101 C6.33740238,41.0737305 6.38330075,41.0991211 6.43017575,41.1220702 C6.43945313,41.1264649 6.4487305,41.1313476 6.45849613,41.1357422 C6.50927738,41.1591797 6.56103513,41.1796875 6.61523438,41.1958007 C6.61669925,41.196289 6.618164,41.1967774 6.62011725,41.1972656 C6.66992188,41.211914 6.72119138,41.2231445 6.77294925,41.2319336 C6.78710938,41.2338867 6.8012695,41.2363281 6.81542975,41.2382812 C6.86523438,41.2446289 6.91552738,41.2490235 6.96728513,41.2495117 C6.97119138,41.2495117 6.97509763,41.2504882 6.97949225,41.2504882 L6.98583988,41.2504882 L56.972168,41.2504882 L56.9785156,41.2504882 C56.9824219,41.2504882 56.9863281,41.2495117 56.9907226,41.2495117 C57.0419923,41.2490235 57.0927735,41.2451172 57.1425781,41.2382812 C57.1567383,41.2363281 57.1704101,41.2338867 57.1845703,41.2319336 C57.2368164,41.2231445 57.288086,41.211914 57.3378906,41.1972656 C57.3398438,41.1967774 57.3413086,41.196289 57.3427735,41.1958007 C57.3969726,41.1796875 57.4487305,41.1586914 57.4995118,41.1357422 C57.508789,41.1313476 57.5180664,41.1264649 57.5273438,41.1220702 C57.574707,41.0986327 57.6206055,41.0737305 57.6645508,41.0449219 C57.6674805,41.0429687 57.6704101,41.0410156 57.6738281,41.0390625 C57.7182618,41.0092774 57.7597656,40.9760742 57.800293,40.940918 C57.8115235,40.9311524 57.8222656,40.9208985 57.8330078,40.9106445 C57.8710938,40.875 57.9082031,40.8378906 57.9414063,40.7973632 C57.9453125,40.7924805 57.9487305,40.7875976 57.9526368,40.7827149 C57.9848633,40.7426757 58.0141601,40.699707 58.0419923,40.6552735 C58.0483399,40.6450195 58.0546875,40.6352539 58.0605469,40.6245117 C58.0893555,40.574707 58.1152344,40.5229492 58.137207,40.4692382 C58.1376953,40.4672851 58.1386719,40.4658202 58.1396485,40.4643555 C58.1430664,40.4550781 58.1455078,40.4458007 58.1489258,40.4365235 C58.1591798,40.4091797 58.1689453,40.381836 58.1772461,40.3535156 C58.1821289,40.3374024 58.1860351,40.321289 58.1899414,40.3046875 C58.1958008,40.2822265 58.2016601,40.2592774 58.2060548,40.2358399 C58.2104493,40.2128906 58.2133789,40.1904297 58.2163086,40.1674805 C58.21875,40.1503906 58.2216798,40.1333007 58.2231445,40.116211 C58.2260743,40.086914 58.2265625,40.0585938 58.227539,40.0297851 C58.227539,40.0195312 58.2292209,40.0097656 58.2292209,39.9995117 L58.2292209,39.9790039 C58.2292209,39.977539 58.2292209,39.9760742 58.2292209,39.9746094 L58.2292209,20.0253906 C58.2292209,20.0239258 58.2292209,20.022461 58.2292209,20.0209961 Z M8.22900387,21.8461914 L28.6132812,30 L8.22900387,38.1538086 L8.22900387,21.8461914 Z M13.4697265,21.25 L50.4882813,21.25 L31.9794922,28.6538086 L13.4697265,21.25 Z M31.9790039,31.3461914 L50.4882813,38.75 L13.4697265,38.75 L31.9790039,31.3461914 Z M35.3447265,30 L55.7290039,21.8461914 L55.7290039,38.1538086 L35.3447265,30 Z" id="Shape"></path>
                <path d="M29.9746094,44.90625 C29.9731445,44.8916015 29.9726562,44.8769531 29.9711914,44.862793 C29.96875,44.8378906 29.9643555,44.8134765 29.959961,44.7885743 C29.9570312,44.7719726 29.9550781,44.7548828 29.9511719,44.7382812 C29.9472656,44.71875 29.9414062,44.6992188 29.9360351,44.6791993 C29.930664,44.6582031 29.925293,44.637207 29.9189453,44.6166993 C29.9140625,44.6020508 29.9082031,44.586914 29.9023438,44.5722656 C29.8935547,44.5478515 29.8847656,44.5234375 29.8740235,44.4995118 C29.8686524,44.4868164 29.8623047,44.4750976 29.8564453,44.4624024 C29.8442383,44.4370118 29.8320312,44.4121094 29.8183594,44.387207 C29.8164062,44.383789 29.8149414,44.3803711 29.8129883,44.3769531 C29.8071289,44.3671875 29.800293,44.3583985 29.7944336,44.3486328 C29.78125,44.3266601 29.7675781,44.3051758 29.7529297,44.2841798 C29.7421875,44.2685548 29.7304688,44.253418 29.71875,44.237793 C29.7060547,44.2216798 29.6938476,44.2055664 29.6801758,44.1899414 C29.6655274,44.1728515 29.6503906,44.15625 29.6347656,44.1401368 C29.6230469,44.1274414 29.6113281,44.1152344 29.5986328,44.1030274 C29.581543,44.0864258 29.5639649,44.0708008 29.5458985,44.0551758 C29.5336914,44.0444336 29.5209961,44.0332031 29.5078125,44.0229493 C29.4897461,44.008789 29.4711914,43.9951173 29.4526367,43.9819336 C29.4379883,43.9711914 29.4228515,43.9609375 29.4077149,43.9511719 C29.3901367,43.9399414 29.3725586,43.9291993 29.3544922,43.9189453 C29.336914,43.9082031 29.3188476,43.8984375 29.300293,43.8886719 C29.2841797,43.8803711 29.2675781,43.8725586 29.2509765,43.8652344 C29.2304688,43.8554688 29.2094726,43.8466797 29.1884765,43.8378906 C29.1723633,43.831543 29.1567383,43.8261719 29.140625,43.8208007 C29.1186524,43.8129882 29.0961914,43.805664 29.0737305,43.7988281 C29.0566406,43.7939453 29.0395508,43.790039 29.022461,43.7856445 C29.0009765,43.7807617 28.9794922,43.7758789 28.9575195,43.7714844 C28.9370117,43.7675781 28.9165039,43.7651368 28.8955078,43.762207 C28.8769531,43.7597656 28.8583985,43.756836 28.8393555,43.7553711 C28.8139649,43.7529297 28.788086,43.7519531 28.7617188,43.7514649 C28.7509765,43.7514649 28.7402344,43.75 28.7290039,43.75 L6.97900388,43.75 C6.96826175,43.75 6.95800775,43.7509765 6.94775388,43.7514649 C6.9208985,43.7519531 6.89453125,43.7529297 6.86767575,43.7553711 C6.84960938,43.7573242 6.83203125,43.7597656 6.81445312,43.762207 C6.7924805,43.7646485 6.77099612,43.7680664 6.74951175,43.7719726 C6.72851562,43.7758789 6.70800775,43.7802735 6.6875,43.7856445 C6.66943362,43.790039 6.65136725,43.7944336 6.63330075,43.7993164 C6.61132812,43.805664 6.590332,43.8129882 6.569336,43.8203125 C6.55224612,43.8261719 6.53515625,43.8320312 6.51855475,43.8388672 C6.49804688,43.8466797 6.47851562,43.8554688 6.45898438,43.8642578 C6.440918,43.8725586 6.42382812,43.8808594 6.40673825,43.8896485 C6.38916013,43.8984375 6.37207025,43.9082031 6.3549805,43.9179688 C6.3359375,43.928711 6.31738275,43.9399414 6.29931638,43.9516601 C6.284668,43.9609375 6.27050775,43.9707031 6.256836,43.980957 C6.23730475,43.9946289 6.21826175,44.008789 6.19921875,44.0234375 C6.18701175,44.0336914 6.17480475,44.0439453 6.163086,44.0541993 C6.14453125,44.0703125 6.12646487,44.0864258 6.10888675,44.1035156 C6.09667975,44.1152344 6.08544925,44.1269531 6.0737305,44.1391601 C6.0581055,44.1557617 6.0424805,44.1728515 6.02734375,44.1904297 C6.0146485,44.2055664 6.00195312,44.2216797 5.98974612,44.2373047 C5.97802737,44.2529297 5.96582025,44.2680664 5.95507812,44.2841797 C5.94042975,44.3051757 5.92675775,44.3266601 5.91357425,44.3486328 C5.90771487,44.3579101 5.90087888,44.3671875 5.89550775,44.3769531 C5.89355475,44.3803711 5.89208987,44.383789 5.89013675,44.387207 C5.87646487,44.4121094 5.8637695,44.4370117 5.8515625,44.4624024 C5.84570312,44.4750976 5.8393555,44.4868164 5.83398438,44.4995117 C5.8237305,44.5229492 5.81445312,44.5478515 5.805664,44.5722656 C5.800293,44.586914 5.79443362,44.6020507 5.78955075,44.6166992 C5.78271487,44.637207 5.777832,44.6582031 5.77197263,44.6791992 C5.76708987,44.6987305 5.7612305,44.7182617 5.756836,44.7382812 C5.753418,44.7548827 5.7509765,44.7719726 5.74804688,44.7885742 C5.74414062,44.8134765 5.73974612,44.8378906 5.73681638,44.8623047 C5.7353515,44.8769531 5.73486325,44.8916015 5.73388675,44.90625 C5.73193362,44.9335938 5.7299805,44.9604493 5.72949225,44.9873047 C5.72949225,44.9916992 5.72900388,44.9956055 5.72900388,45 L5.72900388,57.5 C5.72900388,57.5043945 5.72949225,57.5083007 5.72949225,57.5126953 C5.7299805,57.5395508 5.73193362,57.5664062 5.73388675,57.59375 C5.73486325,57.6083985 5.7353515,57.6230469 5.73681638,57.6376953 C5.73974612,57.6621094 5.74414062,57.6865235 5.74804688,57.7114258 C5.7509765,57.7280274 5.753418,57.7451173 5.756836,57.7617188 C5.7612305,57.78125 5.76708987,57.8007813 5.77197263,57.8208008 C5.777832,57.8417969 5.78271487,57.862793 5.78955075,57.8833008 C5.79443362,57.8979493 5.800293,57.913086 5.805664,57.9277344 C5.81494138,57.9521485 5.8237305,57.9765625 5.83398438,58.0004883 C5.8393555,58.0131836 5.84570312,58.0249024 5.8515625,58.0375976 C5.8637695,58.0629883 5.87646487,58.0878906 5.89013675,58.112793 C5.89208987,58.116211 5.89355475,58.1196289 5.89550775,58.1230469 C5.89892575,58.1289062 5.90332025,58.1342774 5.90673825,58.1401368 C5.92822263,58.1762695 5.95166013,58.2109375 5.9765625,58.2446289 C5.98486325,58.2558594 5.99267575,58.2670899 6.00146487,58.277832 C6.03125,58.3154298 6.06298825,58.3520508 6.097168,58.3862305 C6.10546875,58.394043 6.11425775,58.4013673 6.12255862,58.4091798 C6.14990237,58.4350586 6.178711,58.4594726 6.20800775,58.4829101 C6.22167975,58.493164 6.23486325,58.503418 6.24853513,58.5131836 C6.27832025,58.534668 6.309082,58.5546875 6.340332,58.5732423 C6.350586,58.5791015 6.3603515,58.5859375 6.3706055,58.5917969 C6.41357425,58.6157226 6.45800775,58.637207 6.50390625,58.65625 C6.50976562,58.6586914 6.515625,58.6601563 6.52148438,58.6625976 C6.5615235,58.6782226 6.602539,58.6918945 6.64453125,58.7036133 C6.65673825,58.7070313 6.66894525,58.709961 6.68115237,58.7128906 C6.7177735,58.722168 6.75488275,58.7294923 6.79296875,58.7348633 C6.80615237,58.7368164 6.81884763,58.7392578 6.83203125,58.7407226 C6.87792975,58.7460938 6.92431638,58.7495118 6.97167975,58.75 C6.97460938,58.75 6.977539,58.7504883 6.98046875,58.7504883 L6.9833985,58.7504883 L28.725586,58.7504883 L28.7285156,58.7504883 C28.7314453,58.7504883 28.7338867,58.75 28.7373047,58.75 C28.784668,58.7495118 28.8310547,58.7460938 28.8769531,58.7407226 C28.8901367,58.7392578 28.902832,58.7368164 28.9160156,58.7348633 C28.9541015,58.7290039 28.991211,58.7216798 29.027832,58.7128906 C29.040039,58.709961 29.0522461,58.7070313 29.0644531,58.7036133 C29.1064453,58.6918945 29.147461,58.6782226 29.1879883,58.6621094 C29.1933594,58.6601563 29.1992188,58.6582031 29.2045899,58.65625 C29.2504883,58.637207 29.2949219,58.6157226 29.3378906,58.5913086 C29.3481445,58.5859375 29.3579101,58.5791015 29.368164,58.5732423 C29.3999024,58.5541993 29.4301758,58.5341798 29.459961,58.5126953 C29.4736328,58.5029298 29.4873047,58.493164 29.5004883,58.4824219 C29.5302735,58.4594726 29.5585938,58.4345703 29.5859375,58.4086914 C29.5947265,58.4008789 29.6035156,58.394043 29.6113281,58.3857423 C29.6455078,58.3515625 29.6772461,58.3154298 29.7075195,58.2773438 C29.7158203,58.2666015 29.7236328,58.2553711 29.7319336,58.2446289 C29.7573242,58.2109375 29.7802735,58.1757813 29.8022461,58.1396485 C29.805664,58.133789 29.8100586,58.1289063 29.8134765,58.1230469 C29.8154297,58.1196289 29.8168945,58.1157226 29.8188476,58.1123048 C29.8325195,58.0878906 29.8447265,58.0625 29.8569336,58.0371094 C29.862793,58.0249024 29.8691406,58.0126953 29.8745117,58.0004883 C29.8852539,57.9765625 29.894043,57.9521485 29.902832,57.9277344 C29.9086914,57.9125976 29.9145508,57.8979493 29.9194336,57.8828125 C29.9257812,57.8623048 29.9311524,57.8413086 29.9365235,57.8208008 C29.9418945,57.8007813 29.9477539,57.78125 29.9516601,57.7612305 C29.9555664,57.7446289 29.9575195,57.7280274 29.9604492,57.7114258 C29.9648438,57.6865235 29.9692383,57.6621094 29.9716797,57.637207 C29.9736328,57.6225586 29.9741211,57.6079101 29.9750976,57.5932618 C29.9770508,57.5664063 29.9790039,57.5395508 29.9790039,57.512207 C29.9790039,57.5078125 29.9799805,57.5039063 29.9799805,57.4995118 L29.9799805,44.9995118 C29.9799805,44.9956055 29.9790039,44.9916993 29.9790039,44.9873048 C29.9785156,44.9604493 29.9765625,44.9335938 29.9746094,44.90625 L29.9746094,44.90625 Z M8.22900388,47.1601562 L15.3457031,51.25 L8.22900388,55.3398438 L8.22900388,47.1601562 Z M11.6625976,46.25 L24.0454101,46.25 L17.8544922,49.8081055 L11.6625976,46.25 Z M17.8540039,52.6918945 L24.0454101,56.25 L11.6625976,56.25 L17.8540039,52.6918945 Z M20.362793,51.25 L27.4790039,47.1601562 L27.4790039,55.3398438 L20.362793,51.25 Z" id="Shape"></path>
            </g>
        </g>
    </g>
</svg>