<?xml version="1.0" encoding="UTF-8"?>
<svg width="64px" height="64px" viewBox="0 0 64 64" version="1.1" xmlns="http://www.w3.org/2000/svg" xmlns:xlink="http://www.w3.org/1999/xlink">
    <!-- Generator: sketchtool 63.1 (101010) - https://sketch.com -->
    <title>EE6C0228-1325-41DB-B300-F15CDD9C7036</title>
    <desc>Created with sketchtool.</desc>
    <g id="Main&amp;About" stroke="none" stroke-width="1" fill="none" fill-rule="evenodd">
        <g id="Step-1.1-CCS-Calculator-" transform="translate(-988.000000, -176.000000)" fill="#FFFFFF" fill-rule="nonzero">
            <g id="crossplatform" transform="translate(988.000000, 176.000000)">
                <path d="M34.5,43.25 L29.5,43.25 C28.809625,43.25 28.25,43.809625 28.25,44.5 C28.25,45.190375 28.809625,45.75 29.5,45.75 L34.5,45.75 C35.190375,45.75 35.75,45.190375 35.75,44.5 C35.75,43.809625 35.190375,43.25 34.5,43.25 Z" id="Path"></path>
                <path d="M60.25,5 L25,5 L25,3.75 C25,1.68225 23.31775,0 21.25,0 L3.75,0 C1.68225,0 0,1.68225 0,3.75 C0,6.405375 0,45.77 0,47 C0,49.06775 1.68225,50.75 3.75,50.75 L25.75,50.75 L25.75,56.62575 C23.304625,57.124125 21.374125,59.054625 20.87575,61.5 L17,61.5 C16.309625,61.5 15.75,62.059625 15.75,62.75 C15.75,63.440375 16.309625,64 17,64 L47,64 C47.690375,64 48.25,63.440375 48.25,62.75 C48.25,62.059625 47.690375,61.5 47,61.5 L43.12425,61.5 C42.625875,59.054625 40.695375,57.124125 38.25,56.62575 L38.25,50.75 L60.25,50.75 C62.31775,50.75 64,49.06775 64,47 L64,8.75 C64,6.68225 62.31775,5 60.25,5 Z M2.5,3.75 C2.5,3.06075 3.06075,2.5 3.75,2.5 L21.25,2.5 C21.93925,2.5 22.5,3.06075 22.5,3.75 L22.5,7.5 L2.5,7.5 L2.5,3.75 Z M2.5,10 L22.5,10 L22.5,33.25 L2.5,33.25 L2.5,10 Z M2.5,35.75 L22.5,35.75 L22.5,42 C22.5,42.68925 21.93925,43.25 21.25,43.25 L3.75,43.25 C3.06075,43.25 2.5,42.68925 2.5,42 L2.5,35.75 Z M40.535,61.5 L23.465,61.5 C23.981,60.045125 25.370375,59 27,59 L37,59 C38.6295,59 40.019,60.045125 40.535,61.5 Z M28.25,56.5 L28.25,50.75 L35.75,50.75 L35.75,56.5 L28.25,56.5 Z M61.5,47 C61.5,47.68925 60.93925,48.25 60.25,48.25 L3.75,48.25 C3.06075,48.25 2.5,47.68925 2.5,47 L2.5,45.535 C2.89125,45.67375 3.31175,45.75 3.75,45.75 L21.25,45.75 C23.31775,45.75 25,44.06775 25,42 L25,40.625 L61.5,40.625 L61.5,47 Z M61.5,38.125 L25,38.125 L25,7.5 L60.25,7.5 C60.93925,7.5 61.5,8.06075 61.5,8.75 L61.5,38.125 Z" id="Shape"></path>
                <path d="M13.75,38.25 L11.25,38.25 C10.559625,38.25 10,38.809625 10,39.5 C10,40.190375 10.559625,40.75 11.25,40.75 L13.75,40.75 C14.440375,40.75 15,40.190375 15,39.5 C15,38.809625 14.440375,38.25 13.75,38.25 Z" id="Path"></path>
            </g>
        </g>
    </g>
</svg>