<?xml version="1.0" encoding="UTF-8"?>
<svg width="64px" height="64px" viewBox="0 0 64 64" version="1.1" xmlns="http://www.w3.org/2000/svg" xmlns:xlink="http://www.w3.org/1999/xlink">
    <!-- Generator: sketchtool 63.1 (101010) - https://sketch.com -->
    <title>0C2D6ADA-7180-4956-98F6-3597E36BBFC5</title>
    <desc>Created with sketchtool.</desc>
    <g id="Main&amp;About" stroke="none" stroke-width="1" fill="none" fill-rule="evenodd">
        <g id="Step--3.1--Sign-in-" transform="translate(-988.000000, -189.000000)" fill="#FFFFFF" fill-rule="nonzero">
            <g id="custom" transform="translate(988.000000, 189.000000)">
                <path d="M50.052125,28.08975 C50.540875,27.601 50.540875,26.80975 50.052125,26.321 C49.564625,25.8335 48.772125,25.8335 48.284625,26.321 C47.795875,26.80975 47.795875,27.601 48.284625,28.08975 C48.772125,28.57725 49.56475,28.57725 50.052125,28.08975 Z" id="Path"></path>
                <path d="M6.7145,52.607375 C7.082125,52.974875 7.638875,53.076625 8.1125,52.862875 C8.586375,52.649125 8.878375,52.1645 8.846,51.64575 C8.75975,50.260875 9.4225,48.977625 10.618875,48.213125 C11.80125,47.45775 13.446875,47.4745 14.620625,48.253625 C16.717375,49.645875 16.861375,52.440125 15.239,54.062625 C14.479625,54.822875 13.428125,55.2205 12.35375,55.1535 C11.835875,55.120625 11.35025,55.413125 11.1365,55.887 C10.92275,56.36075 11.024375,56.9175 11.391875,57.285 L17.008125,62.90125 C17.716375,63.6095 18.658,63.9995 19.6595,63.9995 C20.661,63.9995 21.602625,63.6095 22.310875,62.90125 L27.568625,57.643375 C28.04525,58.858625 28.906375,59.91275 30.077875,60.66075 C32.0985,61.95125 34.802375,61.9255 36.807125,60.596125 C40.14275,58.381 40.613125,53.737125 37.8115,50.935375 C37.19625,50.320875 36.467125,49.84875 35.67475,49.538125 C35.74075,49.472125 49.519375,35.6935 49.53775,35.675 C49.848375,36.467375 50.32075,37.197 50.935375,37.812375 C53.708375,40.585 58.359,40.1755 60.59625,36.80675 C61.924875,34.80275 61.950625,32.09875 60.660375,30.078125 C59.91225,28.9065 58.858375,28.045375 57.643,27.56875 L62.90075,22.311 C63.609,21.60275 63.999125,20.661125 63.999125,19.659625 C63.999125,18.658125 63.609,17.7165 62.90075,17.00825 L58.996,13.103375 C59.788625,12.7925 60.51825,12.31975 61.133375,11.70475 C63.922,8.916 63.47775,4.268375 60.12825,2.04575 C58.1245,0.715625 55.420125,0.689125 53.39925,1.979875 C52.227625,2.728 51.366375,3.782 50.889875,4.99725 L46.991125,1.09825 C46.28275,0.39 45.34125,0 44.339625,0 C43.338,0 42.3965,0.390125 41.68825,1.098375 L34.71325,8.073375 C34.34575,8.440875 34.244,8.997625 34.45775,9.471375 C34.6715,9.945125 35.155625,10.237625 35.674875,10.204875 C37.06,10.119375 38.344125,10.78125 39.108375,11.97725 C39.863125,13.160125 39.84625,14.805375 39.06675,15.978875 C37.68525,18.061625 34.89325,18.23325 33.256375,16.59625 C32.89725,16.239 32.07225,15.2425 32.16725,13.711 C32.1995,13.19225 31.907375,12.70775 31.433625,12.494125 C30.9595,12.280375 30.40325,12.38225 30.03575,12.74975 C30.018,12.7675 14.506,28.27975 14.46675,28.319 C13.990375,27.104375 13.129875,26.051 11.95925,25.303 C9.937625,24.01025 7.232875,24.03625 5.22975,25.367125 C1.8725,27.595125 1.443,32.244625 4.22425,35.026 C4.915,35.71725 5.6585,36.15375 6.36075,36.426125 L1.09825,41.688625 C0.39,42.396625 0,43.33825 0,44.33975 C0,45.34125 0.39,46.282875 1.09825,46.991125 L6.7145,52.607375 Z M30.091375,16.229875 C30.51175,17.289875 31.1375,18.014625 31.49075,18.366125 C34.2715,21.147125 38.920875,20.721 41.149625,17.361375 C42.479875,15.358875 42.506375,12.65475 41.215375,10.631625 C40.46725,9.46075 39.413375,8.600125 38.198375,8.12375 L43.456,2.866125 C43.692125,2.630125 44.00575,2.500125 44.3395,2.500125 C44.67325,2.500125 44.987125,2.630125 45.223125,2.866125 L50.839375,8.482375 C51.20675,8.849875 51.763625,8.95175 52.237375,8.737875 C52.71125,8.524125 53.00325,8.0395 52.970875,7.52075 C52.8845,6.135125 53.547625,4.8515 54.744875,4.087 C55.926375,3.332375 57.57175,3.3495 58.745875,4.12875 C60.84325,5.52075 60.986375,8.316375 59.365625,9.937 C58.605125,10.6975 57.553625,11.09525 56.478625,11.028375 C55.958625,10.996375 55.475125,11.288 55.261375,11.761875 C55.047625,12.23575 55.149375,12.792375 55.516875,13.159875 L61.133125,18.77625 C61.36925,19.012375 61.499375,19.326125 61.499375,19.659875 C61.499375,19.9935 61.36925,20.307375 61.133125,20.5435 L54.158125,27.5185 C53.790625,27.886 53.688875,28.442625 53.902625,28.916375 C54.116375,29.390125 54.6005,29.682625 55.11975,29.649875 C56.50475,29.564125 57.789,30.22675 58.5535,31.42375 C59.308125,32.6055 59.291375,34.251 58.513375,35.4245 C57.126,37.513625 54.33125,37.67225 52.703875,36.04525 C51.943875,35.284125 51.54625,34.231625 51.61325,33.157625 C51.645625,32.638875 51.353625,32.15425 50.879875,31.9405 C50.405875,31.7265 49.8495,31.8285 49.481875,32.195875 L41.722,39.954625 L35.222125,33.454625 C34.85375,33.0865 34.297,32.985625 33.824125,33.199125 C33.35025,33.412875 33.05825,33.8975 33.090625,34.41625 C33.177,35.802 32.514125,37.085125 31.316125,37.849125 C30.134625,38.604375 28.489875,38.5875 27.315625,37.808125 C25.223375,36.419625 25.0705,33.625125 26.695875,31.999875 C27.4565,31.23925 28.508625,30.841125 29.582875,30.9085 C30.101625,30.94075 30.586375,30.648875 30.800125,30.175 C31.013875,29.70125 30.912125,29.1445 30.544625,28.777 L24.044625,22.277125 L30.091375,16.229875 Z M2.866,43.456125 L9.841125,36.481 C10.208625,36.1135 10.305375,35.557125 10.0915,35.08325 C9.87775,34.6095 9.39,34.3175 8.869125,34.350125 C8.3635,34.38175 7.071875,34.3385 5.99225,33.25825 C4.36775,31.63375 4.51825,28.83925 6.6125,27.4495 C7.785875,26.67 9.43075,26.653375 10.612625,27.409125 C11.809125,28.173625 12.472,29.456875 12.385625,30.84175 C12.35325,31.3605 12.645375,31.845125 13.119125,32.058875 C13.59275,32.2725 14.1495,32.170875 14.517,31.8035 L22.276875,24.04475 L27.06525,28.833125 C26.27275,29.144 25.543125,29.61675 24.928,30.23175 C22.139375,33.020375 22.582875,37.667625 25.933125,39.89075 C27.937625,41.221375 30.64225,41.247125 32.6615,39.95575 C33.8335,39.20825 34.695,38.154625 35.171625,36.93925 L39.954125,41.721875 L32.195375,49.48175 C31.827875,49.84925 31.726125,50.406 31.939875,50.87975 C32.153875,51.353625 32.64075,51.64675 33.157125,51.613125 C34.231875,51.545875 35.283625,51.9435 36.044125,52.70325 C37.665125,54.324 37.52125,57.120375 35.42475,58.5125 C34.250375,59.291125 32.60475,59.307875 31.42325,58.55325 C30.22625,57.788875 29.563125,56.50525 29.649375,55.1195 C29.68175,54.60075 29.389625,54.116125 28.915875,53.902375 C28.442,53.688625 27.8855,53.790375 27.518,54.157875 L20.542875,61.133 C20.306875,61.369 19.993,61.499 19.659375,61.499 C19.325625,61.499 19.01175,61.369 18.77575,61.133 L14.871,57.22825 C15.663375,56.917375 16.392625,56.4445 17.007,55.8295 C19.80125,53.035125 19.347,48.391 16.003125,46.1705 C13.999,44.84025 11.29425,44.81425 9.2725,46.106125 C8.101875,46.85425 7.24125,47.907625 6.764875,49.122125 L2.86575,45.223 C2.63,44.98725 2.5,44.673375 2.5,44.33975 C2.5,44.006 2.63,43.692125 2.866,43.456125 Z" id="Shape"></path>
                <path d="M53.58725,24.55375 L57.5985,20.54375 C57.833,20.309375 57.96475,19.991375 57.96475,19.65975 C57.96475,19.32825 57.833,19.01025 57.598625,18.77575 L54.062375,15.2395 C53.574125,14.751375 52.782875,14.751375 52.2945,15.2395 C51.806375,15.727625 51.806375,16.519125 52.2945,17.00725 L54.94675,19.659375 L51.819625,22.7855 C51.3315,23.273625 51.331375,24.065 51.819375,24.55325 C52.307375,25.041625 53.098625,25.041875 53.58725,24.55375 Z" id="Path"></path>
            </g>
        </g>
    </g>
</svg>