<?xml version="1.0" encoding="UTF-8"?>
<svg width="55px" height="64px" viewBox="0 0 55 64" version="1.1" xmlns="http://www.w3.org/2000/svg" xmlns:xlink="http://www.w3.org/1999/xlink">
    <!-- Generator: sketchtool 63.1 (101010) - https://sketch.com -->
    <title>8A34C728-8F3B-4BF2-82AC-C6580FC33747</title>
    <desc>Created with sketchtool.</desc>
    <g id="Main&amp;About" stroke="none" stroke-width="1" fill="none" fill-rule="evenodd">
        <g id="Step--3.1--Sign-in-" transform="translate(-453.000000, -189.000000)" fill="#FFFFFF" fill-rule="nonzero">
            <g id="login" transform="translate(453.000000, 189.000000)">
                <path d="M47.758875,37.217875 L42.732875,37.217875 L7.241125,37.217875 C3.260375,37.217875 0.021875,40.4565 0.021875,44.43725 C0.021875,48.418 3.2605,51.6565 7.241125,51.6565 L11.472625,51.6565 L10.9265,52.100125 C10.297625,52.611125 10.014625,53.42025 10.187875,54.211625 C10.361125,55.003125 10.95625,55.620125 11.741125,55.8215 L12.02475,55.894375 L10.625,61.348 C10.453375,62.01675 10.856375,62.697875 11.525,62.8695 L15.776125,63.960625 C15.8785,63.987 15.982875,63.999875 16.086875,63.999875 C16.308875,63.999875 16.529,63.940625 16.72325,63.82575 C17.008625,63.656875 17.21525,63.381625 17.297625,63.060625 L18.6975,57.60675 L18.981125,57.679625 C19.766,57.881 20.584625,57.627 21.117625,57.016625 C21.650625,56.406375 21.792125,55.561 21.487125,54.8105 L20.205,51.656375 L42.732875,51.656375 L47.758875,51.656375 L47.758875,51.6565 C51.739625,51.6565 54.978125,48.418 54.978125,44.43725 C54.978125,40.4565 51.739375,37.217875 47.758875,37.217875 Z M18.2645,54.91475 C17.899375,54.82075 17.519625,54.87475 17.195,55.06675 C16.8705,55.258625 16.64025,55.565375 16.54675,55.930125 L15.186875,61.2285 L13.357125,60.75875 L14.716875,55.461 C14.81075,55.09575 14.75675,54.715875 14.564625,54.39125 C14.3725,54.06675 14.065625,53.8365 13.701375,53.7435 L13.068375,53.580875 L15.4375,51.656375 L16.992625,50.393125 L17.506125,51.656375 L18.8965,55.076875 L18.2645,54.91475 Z M41.482875,49.1565 L19.18875,49.1565 L18.673,47.88775 C18.52375,47.52075 18.2095,47.246125 17.82575,47.14775 C17.44175,47.049 17.03425,47.138375 16.72675,47.38825 L14.55,49.1565 L7.241125,49.1565 C4.638875,49.1565 2.521875,47.039375 2.521875,44.43725 C2.521875,41.835 4.639,39.717875 7.241125,39.717875 L41.482875,39.717875 L41.482875,49.1565 L41.482875,49.1565 Z M47.758875,49.1565 L43.982875,49.1565 L43.982875,39.717875 L47.758875,39.717875 C50.361125,39.717875 52.478125,41.835 52.478125,44.43725 C52.478,47.039375 50.360875,49.1565 47.758875,49.1565 Z" id="Shape"></path>
                <path d="M48.4835,41.573625 C48.055375,41.032125 47.26925,40.94 46.72775,41.368375 C46.186125,41.7965 46.094375,42.582625 46.5225,43.124125 L47.364375,44.189 L46.5225,45.253875 C46.094375,45.795375 46.18625,46.5815 46.72775,47.009625 C46.95725,47.191125 47.230625,47.279125 47.502125,47.279125 C47.87125,47.279 48.23675,47.116375 48.4835,46.804375 L49.9385,44.96425 C50.297875,44.509875 50.297875,43.868 49.9385,43.41375 L48.4835,41.573625 Z" id="Path"></path>
                <path d="M7.622375,44.914875 C7.653625,44.991125 7.692375,45.063625 7.737375,45.131125 C7.783625,45.199875 7.836125,45.263625 7.893625,45.321125 C7.951125,45.37875 8.014875,45.43125 8.083625,45.476125 C8.151125,45.521125 8.223625,45.559875 8.298625,45.591125 C8.374875,45.622375 8.452375,45.646125 8.532375,45.662375 C8.613625,45.678625 8.694875,45.687375 8.777375,45.687375 C8.858625,45.687375 8.939875,45.678625 9.021125,45.662375 C9.101125,45.646125 9.179875,45.622375 9.254875,45.591125 C9.329875,45.559875 9.403625,45.521125 9.471125,45.476125 C9.538625,45.43125 9.603625,45.37875 9.661125,45.321125 C9.718625,45.263625 9.771125,45.199875 9.816125,45.131125 C9.861125,45.063625 9.899875,44.991125 9.931125,44.914875 C9.962375,44.839875 9.986125,44.76125 10.002375,44.68125 C10.018625,44.601125 10.027375,44.518625 10.027375,44.4375 C10.027375,44.35625 10.018625,44.273625 10.002375,44.1925 C9.986125,44.11375 9.962375,44.035 9.931125,43.95875 C9.899875,43.883625 9.861125,43.81125 9.816125,43.74375 C9.771125,43.674875 9.718625,43.611125 9.661125,43.553625 C9.603625,43.496125 9.538625,43.443625 9.471125,43.397375 C9.403625,43.352375 9.329875,43.313625 9.254875,43.282375 C9.179875,43.251125 9.101125,43.227375 9.021125,43.211125 C8.614875,43.13 8.183625,43.262375 7.893625,43.553625 C7.836125,43.611125 7.783625,43.674875 7.737375,43.74375 C7.692375,43.81125 7.653625,43.883625 7.622375,43.95875 C7.591125,44.035 7.567375,44.11375 7.551125,44.1925 C7.534875,44.273625 7.527375,44.35625 7.527375,44.4375 C7.527375,44.518625 7.534875,44.60125 7.551125,44.68125 C7.567375,44.76125 7.591125,44.84 7.622375,44.914875 Z" id="Path"></path>
                <path d="M14.27,44.914875 C14.30125,44.991125 14.34,45.063625 14.385,45.131125 C14.43125,45.199875 14.48375,45.263625 14.54125,45.321125 C14.59875,45.37875 14.6625,45.43125 14.73125,45.476125 C14.79875,45.521125 14.87125,45.559875 14.94625,45.591125 C15.0225,45.622375 15.10125,45.646125 15.18,45.662375 C15.26125,45.678625 15.34375,45.687375 15.425,45.687375 C15.50625,45.687375 15.58875,45.678625 15.66875,45.662375 C15.74875,45.646125 15.8275,45.622375 15.9025,45.591125 C15.97875,45.559875 16.05125,45.521125 16.11875,45.476125 C16.1875,45.43125 16.25125,45.37875 16.30875,45.321125 C16.36625,45.263625 16.41875,45.199875 16.46375,45.131125 C16.50875,45.063625 16.5475,44.991125 16.57875,44.914875 C16.61,44.839875 16.63375,44.76125 16.65,44.68125 C16.66625,44.601125 16.675,44.518625 16.675,44.4375 C16.675,44.35625 16.66625,44.273625 16.65,44.1925 C16.63375,44.11375 16.61,44.035 16.57875,43.95875 C16.5475,43.883625 16.50875,43.81125 16.46375,43.74375 C16.41875,43.674875 16.36625,43.611125 16.30875,43.553625 C16.01875,43.262375 15.5875,43.129875 15.18,43.211125 C15.10125,43.227375 15.0225,43.251125 14.94625,43.282375 C14.87125,43.313625 14.79875,43.352375 14.73125,43.397375 C14.6625,43.443625 14.59875,43.496125 14.54125,43.553625 C14.48375,43.611125 14.43125,43.674875 14.385,43.74375 C14.34,43.81125 14.30125,43.883625 14.27,43.95875 C14.23875,44.035 14.215,44.11375 14.19875,44.1925 C14.1825,44.273625 14.175,44.35625 14.175,44.4375 C14.175,44.518625 14.1825,44.60125 14.19875,44.68125 C14.215,44.76125 14.23875,44.84 14.27,44.914875 Z" id="Path"></path>
                <path d="M20.918625,44.914875 C20.949875,44.991125 20.988625,45.063625 21.033625,45.131125 C21.078625,45.199875 21.131125,45.263625 21.188625,45.321125 C21.246125,45.37875 21.309875,45.43125 21.378625,45.476125 C21.446125,45.521125 21.518625,45.559875 21.594875,45.591125 C21.669875,45.622375 21.748625,45.646125 21.828625,45.662375 C21.908625,45.678625 21.991125,45.687375 22.072375,45.687375 C22.153625,45.687375 22.236125,45.678625 22.316125,45.662375 C22.396125,45.646125 22.474875,45.622375 22.549875,45.591125 C22.626125,45.559875 22.698625,45.521125 22.766125,45.476125 C22.834875,45.43125 22.898625,45.37875 22.956125,45.321125 C23.013625,45.263625 23.066125,45.199875 23.111125,45.131125 C23.156125,45.063625 23.194875,44.991125 23.226125,44.914875 C23.257375,44.839875 23.281125,44.76125 23.297375,44.68125 C23.313625,44.601125 23.322375,44.518625 23.322375,44.4375 C23.322375,44.35625 23.313625,44.273625 23.297375,44.1925 C23.282375,44.11375 23.257375,44.035 23.226125,43.95875 C23.194875,43.883625 23.156125,43.81125 23.111125,43.74375 C23.066125,43.674875 23.013625,43.611125 22.956125,43.553625 C22.666125,43.262375 22.233625,43.129875 21.828625,43.211125 C21.748625,43.227375 21.669875,43.251125 21.593625,43.282375 C21.518625,43.313625 21.446125,43.352375 21.378625,43.397375 C21.309875,43.443625 21.246125,43.496125 21.188625,43.553625 C21.131125,43.611125 21.078625,43.674875 21.033625,43.74375 C20.988625,43.81125 20.949875,43.883625 20.918625,43.95875 C20.887375,44.035 20.862375,44.11375 20.847375,44.1925 C20.831125,44.273625 20.822375,44.35625 20.822375,44.4375 C20.822375,44.518625 20.831125,44.60125 20.847375,44.68125 C20.862375,44.76125 20.887375,44.84 20.918625,44.914875 Z" id="Path"></path>
                <path d="M27.56625,44.914875 C27.5975,44.991125 27.63625,45.063625 27.68125,45.131125 C27.72625,45.199875 27.77875,45.263625 27.83625,45.321125 C27.89375,45.37875 27.9575,45.43125 28.02625,45.476125 C28.09375,45.521125 28.16625,45.559875 28.2425,45.591125 C28.3175,45.622375 28.39625,45.646125 28.47625,45.662375 C28.55625,45.678625 28.63875,45.687375 28.72,45.687375 C28.80125,45.687375 28.88375,45.678625 28.96375,45.662375 C29.04375,45.646125 29.1225,45.622375 29.1975,45.591125 C29.27375,45.559875 29.34625,45.521125 29.41375,45.476125 C29.4825,45.43125 29.54625,45.37875 29.60375,45.321125 C29.66125,45.263625 29.71375,45.199875 29.75875,45.131125 C29.80375,45.063625 29.8425,44.991125 29.87375,44.914875 C29.905,44.839875 29.93,44.76125 29.945,44.68125 C29.96125,44.601125 29.97,44.518625 29.97,44.4375 C29.97,44.35625 29.96125,44.273625 29.945,44.1925 C29.93,44.11375 29.905,44.035 29.87375,43.95875 C29.8425,43.883625 29.80375,43.81125 29.75875,43.74375 C29.71375,43.674875 29.66125,43.611125 29.60375,43.553625 C29.31375,43.262375 28.88125,43.129875 28.47625,43.211125 C28.39625,43.227375 28.3175,43.251125 28.2425,43.282375 C28.16625,43.313625 28.09375,43.352375 28.02625,43.397375 C27.9575,43.443625 27.89375,43.496125 27.83625,43.553625 C27.77875,43.611125 27.72625,43.674875 27.68125,43.74375 C27.63625,43.81125 27.5975,43.883625 27.56625,43.95875 C27.535,44.035 27.51125,44.11375 27.495,44.1925 C27.47875,44.273625 27.47,44.35625 27.47,44.4375 C27.47,44.518625 27.47875,44.60125 27.495,44.68125 C27.51125,44.76125 27.535,44.84 27.56625,44.914875 Z" id="Path"></path>
                <path d="M34.21375,44.914875 C34.245,44.991125 34.28375,45.063625 34.32875,45.131125 C34.37375,45.199875 34.42625,45.263625 34.48375,45.321125 C34.54125,45.37875 34.605,45.43125 34.67375,45.476125 C34.74125,45.521125 34.81375,45.559875 34.89,45.591125 C34.965,45.622375 35.04375,45.646125 35.12375,45.662375 C35.20375,45.678625 35.28625,45.687375 35.3675,45.687375 C35.44875,45.687375 35.53125,45.678625 35.6125,45.662375 C35.69125,45.646125 35.77,45.622375 35.84625,45.591125 C35.92125,45.559875 35.99375,45.521125 36.06125,45.476125 C36.13,45.43125 36.19375,45.37875 36.25125,45.321125 C36.30875,45.263625 36.36125,45.199875 36.4075,45.131125 C36.4525,45.063625 36.49125,44.991125 36.5225,44.914875 C36.55375,44.839875 36.5775,44.76125 36.59375,44.68125 C36.61,44.601125 36.6175,44.518625 36.6175,44.4375 C36.6175,44.35625 36.61,44.273625 36.59375,44.1925 C36.5775,44.11375 36.55375,44.035 36.5225,43.95875 C36.49125,43.883625 36.4525,43.81125 36.4075,43.74375 C36.36125,43.674875 36.30875,43.611125 36.25125,43.553625 C36.19375,43.496125 36.13,43.443625 36.06125,43.397375 C35.99375,43.352375 35.92125,43.313625 35.84625,43.282375 C35.77,43.251125 35.69125,43.227375 35.6125,43.211125 C35.45125,43.178625 35.285,43.178625 35.12375,43.211125 C35.04375,43.227375 34.965,43.251125 34.89,43.282375 C34.81375,43.313625 34.74125,43.352375 34.67375,43.397375 C34.605,43.443625 34.54125,43.496125 34.48375,43.553625 C34.42625,43.611125 34.37375,43.674875 34.32875,43.74375 C34.28375,43.81125 34.245,43.883625 34.21375,43.95875 C34.1825,44.035 34.15875,44.11375 34.1425,44.1925 C34.12625,44.273625 34.1175,44.35625 34.1175,44.4375 C34.1175,44.518625 34.12625,44.60125 34.1425,44.68125 C34.15875,44.76125 34.1825,44.84 34.21375,44.914875 Z" id="Path"></path>
                <path d="M16.532375,31.595375 C16.563,31.6245 16.594625,31.65275 16.628375,31.678875 C19.49875,33.899625 22.89225,35.1565 26.494,35.344 C26.519625,35.345375 26.545375,35.346625 26.571,35.347875 C26.68525,35.353375 26.799875,35.357625 26.9145,35.361 C26.94825,35.362 26.982,35.36325 27.01575,35.364125 C27.157125,35.367375 27.298625,35.3695 27.440625,35.3695 C27.583375,35.3695 27.72575,35.367375 27.868,35.364125 C27.9005,35.363375 27.93275,35.362125 27.965125,35.361125 C28.082625,35.35775 28.19975,35.353375 28.31675,35.34775 C28.33925,35.346625 28.361625,35.3455 28.384,35.34425 C32.04475,35.154875 35.483625,33.863875 38.3805,31.58025 C38.42025,31.548875 38.457625,31.515 38.492875,31.4795 C42.533375,28.235625 45.125,23.257625 45.125,17.684875 C45.125,7.933375 37.191875,0 27.440625,0 C17.689375,0 9.75575,7.933375 9.75575,17.68475 C9.75575,23.323875 12.40875,28.354875 16.532375,31.595375 Z M29.064375,32.782375 C28.986875,32.7905 28.90925,32.798 28.8315,32.805 C28.7455,32.812875 28.659625,32.82075 28.57325,32.827125 C28.423375,32.838 28.273125,32.84675 28.122375,32.85325 C28.07075,32.855625 28.019125,32.857375 27.967375,32.859125 C27.79225,32.865 27.61675,32.86925 27.4405,32.86925 C27.2665,32.86925 27.09325,32.865125 26.92025,32.859375 C26.86925,32.857625 26.818375,32.85575 26.767625,32.853625 C26.62375,32.847375 26.480375,32.839125 26.33725,32.829 C26.254,32.823 26.171,32.81575 26.088125,32.808375 C25.998375,32.8005 25.90875,32.792 25.81925,32.782625 C25.719375,32.772 25.619625,32.761 25.52025,32.748375 C25.502625,32.746125 25.485125,32.7435 25.4675,32.74125 C22.947625,32.412875 20.62,31.464625 18.643,30.054625 L18.643,27.7915 C18.643,24.813125 20.12225,22.1755 22.383,20.569125 C23.796,21.673375 25.571625,22.334 27.49975,22.334 C29.427875,22.334 31.203625,21.6735 32.6165,20.569125 C34.87725,22.1755 36.356625,24.813125 36.356625,27.7915 L36.356625,29.968 L36.356625,29.968 C34.264125,31.491125 31.769625,32.4935 29.064375,32.782375 Z M27.440625,2.5 C35.8135,2.5 42.625375,9.31175 42.625375,17.68475 C42.625375,21.5125 41.201125,25.0135 38.8555,27.687 C38.822375,24.037125 37.059125,20.79325 34.3475,18.737375 C35.279125,17.392875 35.826875,15.76325 35.826875,14.00725 C35.826875,13.594125 35.79625,13.178625 35.73575,12.77225 C35.634125,12.0895 34.998625,11.618375 34.315375,11.719875 C33.6325,11.8215 33.161375,12.45725 33.263,13.140125 C33.305375,13.425 33.326875,13.71675 33.326875,14.00725 C33.326875,15.295125 32.906125,16.48625 32.195875,17.451875 C31.619625,18.235375 30.8525,18.8695 29.9635,19.286 C29.21475,19.636875 28.380125,19.834125 27.500125,19.834125 C26.620125,19.834125 25.7855,19.636875 25.03675,19.286 C24.14775,18.8695 23.380625,18.235375 22.804375,17.451875 C22.094125,16.48625 21.673375,15.29525 21.673375,14.00725 C21.673375,10.794375 24.28725,8.1805 27.500125,8.1805 C27.942375,8.1805 28.38275,8.23 28.80925,8.327875 C29.482875,8.48275 30.152875,8.06175 30.307,7.38875 C30.46125,6.715875 30.040875,6.045375 29.368,5.891125 C28.758625,5.751375 28.130125,5.6805 27.50025,5.6805 C22.908875,5.6805 19.1735,9.415875 19.1735,14.00725 C19.1735,15.76325 19.72125,17.392875 20.652875,18.737375 C17.91525,20.812875 16.1435,24.099 16.1435,27.7915 L16.1435,27.81925 C13.72775,25.1295 12.255875,21.576 12.255875,17.68475 C12.255875,9.31175 19.067625,2.5 27.440625,2.5 Z" id="Shape"></path>
                <path d="M31.532375,9.67125 C31.563625,9.74625 31.602375,9.81875 31.647375,9.88625 C31.692375,9.955 31.744875,10.01875 31.802375,10.07625 C31.859875,10.135125 31.923625,10.186375 31.992375,10.2325 C32.059875,10.2775 32.132375,10.316375 32.208625,10.347625 C32.283625,10.378875 32.362375,10.4025 32.442375,10.41875 C32.522375,10.435 32.604875,10.4425 32.686125,10.4425 C32.767375,10.4425 32.849875,10.434875 32.929875,10.41875 C33.009875,10.4025 33.088625,10.378875 33.164875,10.347625 C33.239875,10.316375 33.312375,10.2775 33.379875,10.2325 C33.448625,10.186375 33.512375,10.135125 33.569875,10.07625 C33.627375,10.01875 33.679875,9.955 33.724875,9.88625 C33.769875,9.81875 33.808625,9.74625 33.839875,9.67125 C33.871125,9.595 33.896125,9.5175 33.911125,9.4375 C33.927375,9.35625 33.936125,9.275 33.936125,9.1925 C33.936125,9.11125 33.927375,9.028625 33.911125,8.94875 C33.896125,8.86875 33.871125,8.789875 33.839875,8.715 C33.808625,8.640125 33.769875,8.566375 33.724875,8.498875 C33.679875,8.43 33.627375,8.36625 33.569875,8.30875 C33.512375,8.25125 33.448625,8.19875 33.379875,8.15375 C33.312375,8.108875 33.239875,8.07 33.164875,8.03875 C33.088625,8.0075 33.009875,7.983875 32.929875,7.967625 C32.768625,7.935 32.603625,7.935 32.442375,7.967625 C32.362375,7.983875 32.283625,8.0075 32.208625,8.03875 C32.132375,8.07 32.059875,8.108875 31.992375,8.15375 C31.923625,8.19875 31.859875,8.25125 31.802375,8.30875 C31.744875,8.36625 31.692375,8.43 31.647375,8.498875 C31.602375,8.566375 31.563625,8.640125 31.532375,8.715 C31.501125,8.789875 31.477375,8.86875 31.461125,8.94875 C31.444875,9.02875 31.436125,9.11125 31.436125,9.1925 C31.436125,9.275 31.444875,9.35625 31.461125,9.4375 C31.477375,9.5175 31.501125,9.595 31.532375,9.67125 Z" id="Path"></path>
            </g>
        </g>
    </g>
</svg>