<?xml version="1.0" encoding="UTF-8"?>
<svg width="37px" height="37px" viewBox="0 0 37 37" version="1.1" xmlns="http://www.w3.org/2000/svg" xmlns:xlink="http://www.w3.org/1999/xlink">
    <!-- Generator: sketchtool 63.1 (101010) - https://sketch.com -->
    <title>C33D0F39-7414-46F3-A563-AA759E576D9F</title>
    <desc>Created with sketchtool.</desc>
    <g id="Main&amp;About" stroke="none" stroke-width="1" fill="none" fill-rule="evenodd">
        <g id="Mobile-1.1-CCS-Calculator-" transform="translate(-268.000000, -115.000000)" fill="#6FD3D3">
            <g id="estimate" transform="translate(268.000000, 115.000000)">
                <circle id="Oval" fill-opacity="0.2" cx="18.5" cy="18.5" r="18.5"></circle>
                <circle id="Oval" fill-opacity="0.2" cx="18.5" cy="18.5" r="15.5"></circle>
                <path d="M26.1588511,18.7605957 C26.2129787,18.3653617 26.2482128,17.9861702 26.2482128,17.6241277 C26.2482128,12.8688085 22.3794468,9 17.6241277,9 C12.8688085,9 9,12.8688085 9,17.6241277 C9,22.3794468 12.8688085,26.2482553 17.6241277,26.2482553 C17.9882553,26.2482553 18.3671915,26.213234 18.7605957,26.1588085 C19.6905532,27.8342128 21.4765106,28.9716596 23.5248511,28.9716596 C26.528383,28.9716596 28.9716596,26.528383 28.9716596,23.5248511 C28.9716596,21.4765532 27.8342128,19.6905532 26.1588511,18.7605957 Z M18.3790638,25.2948936 C18.1199574,25.3225532 17.8677021,25.3404255 17.6241277,25.3404255 C13.3697021,25.3404255 9.90782979,21.8789787 9.90782979,17.6241277 C9.90782979,13.3692766 13.3696596,9.90778723 17.6241277,9.90778723 C21.8785957,9.90778723 25.3404255,13.369234 25.3404255,17.6241277 C25.3404255,17.8664681 25.3222553,18.1189787 25.2944255,18.3789362 C24.7386809,18.187234 24.1448936,18.078 23.5248085,18.078 C20.5212766,18.078 18.078,20.5212766 18.078,23.5248085 C18.078,24.1450638 18.187234,24.7390213 18.3790638,25.2948936 Z M23.5248085,28.0638298 C21.0221277,28.0638298 18.9857872,26.0274894 18.9857872,23.5248085 C18.9857872,21.0221277 21.0221277,18.9857872 23.5248085,18.9857872 C26.0274894,18.9857872 28.0638298,21.0221702 28.0638298,23.5248085 C28.0638298,26.0274468 26.0274894,28.0638298 23.5248085,28.0638298 Z" id="Shape" fill-rule="nonzero"></path>
                <path d="M23.2978723,21.709234 L24.8865106,21.709234 C25.1374043,21.709234 25.3404255,21.5062128 25.3404255,21.2553191 C25.3404255,21.0044255 25.1374043,20.8014043 24.8865106,20.8014043 L23.9787234,20.8014043 L23.9787234,20.3474894 C23.9787234,20.0965957 23.7757021,19.8935745 23.5248085,19.8935745 C23.2739149,19.8935745 23.0708936,20.0965957 23.0708936,20.3474894 L23.0708936,20.8243404 C22.3029787,20.935617 21.7091915,21.5918298 21.7091915,22.3900426 C21.709234,23.2659574 22.422,23.9787234 23.2978723,23.9787234 L23.7517872,23.9787234 C24.1268085,23.9787234 24.4326383,24.2841277 24.4326383,24.6595745 C24.4326383,25.0350213 24.126766,25.3404255 23.7517872,25.3404255 L22.1631489,25.3404255 C21.9122553,25.3404255 21.709234,25.5434468 21.709234,25.7943404 C21.709234,26.045234 21.9122553,26.2482553 22.1631489,26.2482553 L23.0709362,26.2482553 L23.0709362,26.7021277 C23.0709362,26.9530213 23.2739574,27.1560426 23.5248511,27.1560426 C23.7757447,27.1560426 23.9787234,26.9530213 23.9787234,26.7021277 L23.9787234,26.2252766 C24.7466383,26.114 25.3404255,25.4577872 25.3404255,24.6595745 C25.3404255,23.7837021 24.6276596,23.0709362 23.7517872,23.0709362 L23.2978723,23.0709362 C22.9228511,23.0709362 22.6170213,22.7655319 22.6170213,22.3900851 C22.6170213,22.0146383 22.9228936,21.709234 23.2978723,21.709234 Z" id="Path" fill-rule="nonzero"></path>
                <path d="M17.6241277,11.7234043 C17.373234,11.7234043 17.1702128,11.9264255 17.1702128,12.1773191 L17.1702128,17.4361702 L14.5797872,20.0265957 C14.4024681,20.2039149 14.4024681,20.4911489 14.5797872,20.6684255 C14.6684255,20.7570638 14.7845957,20.8014043 14.9007234,20.8014043 C15.0168511,20.8014043 15.1329787,20.7570638 15.2216596,20.6684255 L17.9450638,17.9450213 C18.0301702,17.8599149 18.0780426,17.7446809 18.0780426,17.6240851 L18.0780426,12.1772766 C18.078,11.9264255 17.8749787,11.7234043 17.6241277,11.7234043 Z" id="Path" fill-rule="nonzero"></path>
            </g>
        </g>
    </g>
</svg>