<?xml version="1.0" encoding="UTF-8"?>
<svg width="64px" height="51px" viewBox="0 0 64 51" version="1.1" xmlns="http://www.w3.org/2000/svg" xmlns:xlink="http://www.w3.org/1999/xlink">
    <!-- Generator: sketchtool 63.1 (101010) - https://sketch.com -->
    <title>DB69F461-8A83-4701-875E-6790106AEED9</title>
    <desc>Created with sketchtool.</desc>
    <g id="Main&amp;About" stroke="none" stroke-width="1" fill="none" fill-rule="evenodd">
        <g id="4.3.-More-technical-features--" transform="translate(-718.000000, -384.000000)" fill="#FFFFFF" fill-rule="nonzero">
            <g id="External-Devices" transform="translate(718.000000, 384.000000)">
                <path d="M60.693375,24.591625 L53.333375,24.591625 L53.333375,5.391625 C53.32975,2.447625 50.944,0.061875 48,0.058375 L16,0.058375 C13.056,0.061875 10.67025,2.447625 10.666625,5.39175 L10.666625,11.79175 L4.814875,11.79175 C2.156875,11.794625 0.002875,13.948625 0,16.606625 L0,45.37675 C0.002875,48.03475 2.156875,50.18875 4.814875,50.191625 L21.851625,50.191625 C23.881625,50.1855 25.689125,48.904875 26.367875,46.991625 L44.8,46.991625 C45.389125,46.991625 45.866625,46.514125 45.866625,45.925 L45.866625,43.791625 C45.866625,42.024375 44.433875,40.591625 42.666625,40.591625 L39.466625,40.591625 L39.466625,36.325 L48,36.325 L48,46.885 C48,48.71125 49.4805,50.191625 51.306625,50.191625 L60.69325,50.191625 C62.5195,50.191625 63.999875,48.711125 63.999875,46.885 L63.999875,27.898375 C63.999875,26.072125 62.5195,24.591625 60.693375,24.591625 Z M24.533375,45.37675 C24.53225,46.85725 23.33225,48.057125 21.85175,48.058375 L4.814875,48.058375 C3.334375,48.05725 2.1345,46.85725 2.13325,45.37675 L2.13325,44.858375 L24.533375,44.858375 L24.533375,45.37675 L24.533375,45.37675 Z M24.533375,42.725 L2.133375,42.725 L2.133375,19.258375 L24.533375,19.258375 L24.533375,42.725 Z M24.533375,17.125 L2.133375,17.125 L2.133375,16.606625 C2.1345,15.126125 3.3345,13.92625 4.815,13.925 L21.85175,13.925 C23.33225,13.926125 24.532125,15.126125 24.533375,16.606625 L24.533375,17.125 Z M42.666625,42.725 C43.25575,42.725 43.73325,43.202625 43.73325,43.791625 L43.73325,44.85825 L26.666625,44.85825 L26.666625,42.725 L42.666625,42.725 Z M26.666625,40.591625 L26.666625,36.325 L37.33325,36.325 L37.33325,40.591625 L26.666625,40.591625 Z M48,34.191625 L38.4,34.191625 L26.666625,34.191625 L26.666625,30.991625 L48,30.991625 L48,34.191625 Z M48,27.898375 L48,28.858375 L26.666625,28.858375 L26.666625,16.606625 C26.663625,13.948625 24.509625,11.794625 21.85175,11.79175 L12.8,11.79175 L12.8,5.39175 C12.8,3.6245 14.232625,2.19175 16,2.19175 L48,2.19175 C49.76725,2.19175 51.2,3.624375 51.2,5.39175 L51.2,24.602375 C49.41975,24.65975 48.004875,26.117125 48,27.898375 Z M61.866625,46.885 C61.866625,47.533 61.34125,48.058375 60.69325,48.058375 L51.306625,48.058375 C50.658625,48.058375 50.13325,47.533 50.13325,46.885 L50.13325,45.925 L61.866625,45.925 L61.866625,46.885 Z M61.866625,43.791625 L50.13325,43.791625 L50.13325,30.991625 L61.866625,30.991625 L61.866625,43.791625 Z M61.866625,28.858375 L50.13325,28.858375 L50.13325,27.898375 C50.13325,27.250375 50.658625,26.725 51.306625,26.725 L60.69325,26.725 C61.34125,26.725 61.866625,27.250375 61.866625,27.898375 L61.866625,28.858375 Z" id="Shape"></path>
            </g>
        </g>
    </g>
</svg>