<?xml version="1.0" encoding="UTF-8"?>
<svg width="40px" height="64px" viewBox="0 0 40 64" version="1.1" xmlns="http://www.w3.org/2000/svg" xmlns:xlink="http://www.w3.org/1999/xlink">
    <!-- Generator: sketchtool 63.1 (101010) - https://sketch.com -->
    <title>3A0CE165-E4C4-4363-BD2A-79C8619838FF</title>
    <desc>Created with sketchtool.</desc>
    <g id="Main&amp;About" stroke="none" stroke-width="1" fill="none" fill-rule="evenodd">
        <g id="Step-8.-General-Support--" transform="translate(-730.000000, -189.000000)" fill="#FFFFFF" fill-rule="nonzero">
            <g id="for-app-store" transform="translate(730.000000, 189.000000)">
                <path d="M33.75,0 L6.25,0 C2.803711,0 0,2.803711 0,6.25 L0,57.75 C0,61.196289 2.803711,64 6.25,64 L33.75,64 C37.196289,64 40,61.196289 40,57.75 L40,6.25 C40,2.803711 37.196289,0 33.75,0 Z M28.9819336,2.5 L27.4033203,5 L12.5966797,5 L11.0180664,2.5 L28.9819336,2.5 Z M37.5,57.75 C37.5,59.8178711 35.8178711,61.5 33.75,61.5 L6.25,61.5 C4.18212888,61.5 2.5,59.8178711 2.5,57.75 L2.5,6.25 C2.5,4.18212888 4.18212888,2.5 6.25,2.5 L8.06103513,2.5 L10.8510742,6.9174805 C11.0800781,7.2802735 11.4790039,7.5 11.9077149,7.5 L28.0922851,7.5 C28.5209961,7.5 28.9199219,7.2802735 29.1489258,6.9174805 L31.9389649,2.5 L33.75,2.5 C35.8178711,2.5 37.5,4.18212888 37.5,6.25 L37.5,57.75 Z" id="Shape"></path>
                <path d="M17.5,10.5 L6.25,10.5 C5.55957025,10.5 5,11.0595703 5,11.75 L5,18 C5,18.6904297 5.55957025,19.25 6.25,19.25 L17.5,19.25 C18.1904297,19.25 18.75,18.6904297 18.75,18 L18.75,11.75 C18.75,11.0595703 18.1904297,10.5 17.5,10.5 Z M16.25,16.75 L7.5,16.75 L7.5,13 L16.25,13 L16.25,16.75 Z" id="Shape"></path>
                <path d="M33.75,10.5 L22.5,10.5 C21.8095703,10.5 21.25,11.0595703 21.25,11.75 L21.25,18 C21.25,18.6904297 21.8095703,19.25 22.5,19.25 L33.75,19.25 C34.4404297,19.25 35,18.6904297 35,18 L35,11.75 C35,11.0595703 34.4404297,10.5 33.75,10.5 Z M32.5,16.75 L23.75,16.75 L23.75,13 L32.5,13 L32.5,16.75 Z" id="Shape"></path>
                <path d="M17.5,21.75 L6.25,21.75 C5.55957025,21.75 5,22.3095703 5,23 C5,23.6904297 5.55957025,24.25 6.25,24.25 L17.5,24.25 C18.1904297,24.25 18.75,23.6904297 18.75,23 C18.75,22.3095703 18.1904297,21.75 17.5,21.75 Z" id="Path"></path>
                <path d="M33.75,21.75 L22.5,21.75 C21.8095703,21.75 21.25,22.3095703 21.25,23 C21.25,23.6904297 21.8095703,24.25 22.5,24.25 L33.75,24.25 C34.4404297,24.25 35,23.6904297 35,23 C35,22.3095703 34.4404297,21.75 33.75,21.75 Z" id="Path"></path>
                <path d="M17.5,28 L6.25,28 C5.55957025,28 5,28.5595703 5,29.25 L5,35.5 C5,36.1904297 5.55957025,36.75 6.25,36.75 L17.5,36.75 C18.1904297,36.75 18.75,36.1904297 18.75,35.5 L18.75,29.25 C18.75,28.5595703 18.1904297,28 17.5,28 Z M16.25,34.25 L7.5,34.25 L7.5,30.5 L16.25,30.5 L16.25,34.25 Z" id="Shape"></path>
                <path d="M33.75,28 L22.5,28 C21.8095703,28 21.25,28.5595703 21.25,29.25 L21.25,35.5 C21.25,36.1904297 21.8095703,36.75 22.5,36.75 L33.75,36.75 C34.4404297,36.75 35,36.1904297 35,35.5 L35,29.25 C35,28.5595703 34.4404297,28 33.75,28 Z M32.5,34.25 L23.75,34.25 L23.75,30.5 L32.5,30.5 L32.5,34.25 Z" id="Shape"></path>
                <path d="M17.5,39.25 L6.25,39.25 C5.55957025,39.25 5,39.8095703 5,40.5 C5,41.1904297 5.55957025,41.75 6.25,41.75 L17.5,41.75 C18.1904297,41.75 18.75,41.1904297 18.75,40.5 C18.75,39.8095703 18.1904297,39.25 17.5,39.25 Z" id="Path"></path>
                <path d="M33.75,39.25 L22.5,39.25 C21.8095703,39.25 21.25,39.8095703 21.25,40.5 C21.25,41.1904297 21.8095703,41.75 22.5,41.75 L33.75,41.75 C34.4404297,41.75 35,41.1904297 35,40.5 C35,39.8095703 34.4404297,39.25 33.75,39.25 Z" id="Path"></path>
                <path d="M17.5,45.5 L6.25,45.5 C5.55957025,45.5 5,46.0595703 5,46.75 L5,56.5 C5,57.1904297 5.55957025,57.75 6.25,57.75 L17.5,57.75 C18.1904297,57.75 18.75,57.1904297 18.75,56.5 L18.75,46.75 C18.75,46.0595703 18.1904297,45.5 17.5,45.5 Z M16.25,55.25 L7.5,55.25 L7.5,48 L16.25,48 L16.25,55.25 Z" id="Shape"></path>
                <path d="M33.75,45.25 L22.5,45.25 C21.8095703,45.25 21.25,45.8095703 21.25,46.5 C21.25,47.1904297 21.8095703,47.75 22.5,47.75 L33.75,47.75 C34.4404297,47.75 35,47.1904297 35,46.5 C35,45.8095703 34.4404297,45.25 33.75,45.25 Z" id="Path"></path>
                <path d="M33.75,50.25 C33.0610351,50.25 32.5,50.8110351 32.5,51.5 C32.5,52.1889649 33.0610351,52.75 33.75,52.75 C34.4389649,52.75 35,52.1889649 35,51.5 C35,50.8110351 34.4389649,50.25 33.75,50.25 Z" id="Path"></path>
                <path d="M22.5,52.75 L28.75,52.75 C29.4389649,52.75 30,52.1889649 30,51.5 C30,50.8110351 29.4389649,50.25 28.75,50.25 L22.5,50.25 C21.8110351,50.25 21.25,50.8110351 21.25,51.5 C21.25,52.1889649 21.8110351,52.75 22.5,52.75 Z" id="Path"></path>
                <path d="M22.5,55.25 C21.8110351,55.25 21.25,55.8110351 21.25,56.5 C21.25,57.1889649 21.8110351,57.75 22.5,57.75 C23.1889649,57.75 23.75,57.1889649 23.75,56.5 C23.75,55.8110351 23.1889649,55.25 22.5,55.25 Z" id="Path"></path>
                <path d="M33.75,55.25 L27.5,55.25 C26.8110351,55.25 26.25,55.8110351 26.25,56.5 C26.25,57.1889649 26.8110351,57.75 27.5,57.75 L33.75,57.75 C34.4389649,57.75 35,57.1889649 35,56.5 C35,55.8110351 34.4389649,55.25 33.75,55.25 Z" id="Path"></path>
            </g>
        </g>
    </g>
</svg>