<?xml version="1.0" encoding="UTF-8"?>
<svg width="64px" height="64px" viewBox="0 0 64 64" version="1.1" xmlns="http://www.w3.org/2000/svg" xmlns:xlink="http://www.w3.org/1999/xlink">
    <!-- Generator: sketchtool 63.1 (101010) - https://sketch.com -->
    <title>154B7EB1-7545-47DF-872A-86C9334901A1</title>
    <desc>Created with sketchtool.</desc>
    <g id="Main&amp;About" stroke="none" stroke-width="1" fill="none" fill-rule="evenodd">
        <g id="4.3.-More-technical-features--" transform="translate(-450.000000, -377.000000)" fill="#FFFFFF" fill-rule="nonzero">
            <g id="health" transform="translate(450.000000, 377.000000)">
                <path d="M29.819875,19.004625 L26.498375,19.004625 L26.498375,15.683125 C26.498375,14.99275 25.938625,14.43325 25.2485,14.43325 C24.558375,14.43325 23.998625,14.992875 23.998625,15.683125 L23.998625,19.004625 L20.677125,19.004625 C19.986875,19.004625 19.42725,19.56425 19.42725,20.2545 C19.42725,20.94475 19.986875,21.504375 20.677125,21.504375 L23.998625,21.504375 L23.998625,24.825875 C23.998625,25.51625 24.558375,26.07575 25.2485,26.07575 C25.938625,26.07575 26.498375,25.516125 26.498375,24.825875 L26.498375,21.504375 L29.819875,21.504375 C30.510125,21.504375 31.06975,20.94475 31.06975,20.2545 C31.06975,19.56425 30.510125,19.004625 29.819875,19.004625 Z" id="Path"></path>
                <path d="M25.248375,9.25525 C19.183375,9.25525 14.249,14.189625 14.249,20.254625 C14.249,26.319625 19.183375,31.254 25.248375,31.254 C31.313375,31.254 36.24775,26.319625 36.24775,20.254625 C36.24775,14.189625 31.313375,9.25525 25.248375,9.25525 Z M25.248375,28.754 C20.56175,28.754 16.748875,24.941125 16.748875,20.2545 C16.748875,15.567875 20.56175,11.755 25.248375,11.755 C29.935,11.755 33.747875,15.567875 33.747875,20.2545 C33.747875,24.941125 29.935,28.754 25.248375,28.754 Z" id="Shape"></path>
                <path d="M50.13075,11.492375 L39.0065,0.368 C38.772,0.133625 38.454125,0.001875 38.122625,0.001875 L3.74975,0.001875 C1.682125,0.001875 0,1.684125 0,3.75175 L0,60.2485 C0,62.316125 1.682125,63.99825 3.74975,63.99825 L27.625875,63.99825 C28.316125,63.99825 28.87575,63.4385 28.87575,62.748375 C28.87575,62.05825 28.316,61.4985 27.625875,61.4985 L3.74975,61.4985 C3.0605,61.4985 2.499875,60.93775 2.499875,60.248625 L2.499875,3.75175 C2.499875,3.0625 3.060625,2.501875 3.74975,2.501875 L36.872625,2.501875 L36.872625,9.876375 C36.872625,11.944 38.55475,13.626125 40.622375,13.626125 L47.996875,13.626125 L47.996875,35.87475 C47.996875,36.565 48.556625,37.124625 49.24675,37.124625 C49.936875,37.124625 50.4966254,36.564875 50.4966254,35.87475 L50.4966254,12.376125 C50.4966254,12.044625 50.365125,11.72675 50.13075,11.492375 Z M40.6225,11.12625 C39.93325,11.12625 39.372625,10.5655 39.372625,9.876375 L39.372625,4.2695 L46.2295,11.12625 L40.6225,11.12625 L40.6225,11.12625 Z" id="Shape"></path>
                <path d="M41.247375,34.99975 L19.540375,34.99975 C18.850125,34.99975 18.2905,35.5595 18.2905,36.249625 C18.2905,36.93975 18.85025,37.4995 19.540375,37.4995 L41.247375,37.4995 C41.937625,37.4995 42.49725,36.939875 42.49725,36.249625 C42.49725,35.5595 41.937625,34.99975 41.247375,34.99975 Z" id="Path"></path>
                <path d="M13.322125,34.99975 L9.249375,34.99975 C8.559125,34.99975 7.9995,35.5595 7.9995,36.249625 C7.9995,36.93975 8.55925,37.4995 9.249375,37.4995 L13.322125,37.4995 C14.012375,37.4995 14.572,36.93975 14.572,36.249625 C14.572,35.5595 14.012375,34.99975 13.322125,34.99975 Z" id="Path"></path>
                <path d="M31.998,41.99925 L19.540375,41.99925 C18.850125,41.99925 18.2905,42.559 18.2905,43.249125 C18.2905,43.93925 18.85025,44.499 19.540375,44.499 L31.998,44.499 C32.68825,44.499 33.247875,43.939375 33.247875,43.249125 C33.247875,42.559 32.68825,41.99925 31.998,41.99925 Z" id="Path"></path>
                <path d="M13.322125,41.99925 L9.249375,41.99925 C8.559125,41.99925 7.9995,42.559 7.9995,43.249125 C7.9995,43.93925 8.55925,44.499 9.249375,44.499 L13.322125,44.499 C14.012375,44.499 14.572,43.93925 14.572,43.249125 C14.572,42.559 14.012375,41.99925 13.322125,41.99925 Z" id="Path"></path>
                <path d="M20.423625,49.365125 C20.19125,49.132625 19.869875,48.998875 19.54,48.998875 C19.21125,48.998875 18.89,49.1325 18.65625,49.365125 C18.42375,49.597625 18.29,49.920125 18.29,50.248875 C18.29,50.577625 18.423625,50.900125 18.65625,51.1325 C18.88875,51.365 19.21125,51.498875 19.54,51.498875 C19.87,51.498875 20.19125,51.365125 20.423625,51.1325 C20.657375,50.900125 20.79,50.577625 20.79,50.248875 C20.79,49.920125 20.657375,49.597625 20.423625,49.365125 Z" id="Path"></path>
                <path d="M13.322125,48.998875 L9.249375,48.998875 C8.559125,48.998875 7.9995,49.558625 7.9995,50.24875 C7.9995,50.939 8.55925,51.498625 9.249375,51.498625 L13.322125,51.498625 C14.012375,51.498625 14.572,50.938875 14.572,50.24875 C14.572125,49.558625 14.012375,48.998875 13.322125,48.998875 Z" id="Path"></path>
                <path d="M56.250375,48.498625 C55.8835,48.498625 55.523,48.526 55.16975,48.575625 C55.957375,45.933875 55.310375,42.952125 53.228375,40.869875 C51.764625,39.40625 49.818625,38.600125 47.748625,38.600125 C45.6785,38.600125 43.7325,39.40625 42.268875,40.869875 L32.37,50.768625 C30.906375,52.232375 30.10025,54.178375 30.10025,56.248375 C30.10025,58.3185 30.906375,60.2645 32.37,61.728125 C33.881,63.239 35.865,63.99425 37.84975,63.99425 C39.834,63.99425 41.818875,63.238625 43.3295,61.728125 L48.5085,56.549125 C48.667375,60.68325 52.07825,63.997875 56.2505,63.997875 C60.52375,63.997875 64.000125,60.5215 64.000125,56.24825 C64.000125,51.975 60.523625,48.498625 56.250375,48.498625 Z M41.561625,59.9605 C39.514875,62.0075 36.184375,62.0075 34.137625,59.9605 C33.146,58.969 32.6,57.65075 32.6,56.2485 C32.6,54.84625 33.146,53.527875 34.137625,52.5365 L38.20325,48.470875 L45.62725,55.895 L41.561625,59.9605 Z M47.39475,54.12725 L39.97075,46.703125 L44.036375,42.637625 C45.028,41.646 46.346125,41.1 47.748375,41.1 C49.150625,41.1 50.469,41.646 51.460375,42.637625 C53.50725,44.684375 53.50725,48.014875 51.460375,50.061625 L47.39475,54.12725 Z M55.0005,61.346625 C52.7075,60.784125 51.000625,58.71225 51.000625,56.248375 C51.000625,53.784375 52.707375,51.7125 55.0005,51.15025 L55.0005,61.346625 Z M57.50025,61.346625 L57.50025,51.150125 C59.793375,51.7125 61.500125,53.784375 61.500125,56.24825 C61.500125,58.712125 59.793375,60.784125 57.50025,61.346625 Z" id="Shape"></path>
            </g>
        </g>
    </g>
</svg>