<?xml version="1.0" encoding="UTF-8"?>
<svg width="50px" height="64px" viewBox="0 0 50 64" version="1.1" xmlns="http://www.w3.org/2000/svg" xmlns:xlink="http://www.w3.org/1999/xlink">
    <!-- Generator: sketchtool 63.1 (101010) - https://sketch.com -->
    <title>F30945C5-6ADC-4702-B1F4-E6D7463ADC87</title>
    <desc>Created with sketchtool.</desc>
    <g id="Main&amp;About" stroke="none" stroke-width="1" fill="none" fill-rule="evenodd">
        <g id="Step-7.-Testing-and-project-management--" transform="translate(-725.000000, -379.000000)" fill="#FFFFFF" fill-rule="nonzero">
            <g id="hourglass" transform="translate(725.000000, 379.000000)">
                <path d="M26.850586,25.875 C27.6674805,25.875 28.5,25.647461 29.2583007,25.2172851 C29.2597656,25.2167969 29.2607422,25.2158203 29.262207,25.215332 C32.0820312,23.6264649 33.9511719,21.121582 34.8168945,17.7709961 C34.9140625,17.3969726 34.8320312,16.9985351 34.5952149,16.6928711 C34.3583985,16.387207 33.9936524,16.2084961 33.6069336,16.2084961 L16.1152344,16.2084961 C15.7280274,16.2084961 15.3632812,16.387207 15.1269531,16.6928711 C14.8896485,16.9985351 14.8081055,17.3969726 14.9047851,17.7709961 C15.7709961,21.121582 17.6401367,23.6264649 20.4594726,25.215332 C20.4609375,25.2158203 20.4624024,25.2167969 20.4638672,25.2172851 C21.2216797,25.647461 22.0541992,25.875 22.871582,25.875 L26.850586,25.875 Z M21.6870117,23.0371094 C19.9370117,22.0512695 18.6518555,20.5991211 17.8510742,18.7080078 L31.8710937,18.7080078 C31.0703125,20.5991211 29.784668,22.0512695 28.0351562,23.0371094 C28.0317382,23.0390625 28.027832,23.0410156 28.024414,23.0429688 C27.6416015,23.2602539 27.2358399,23.375 26.850586,23.375 L22.871582,23.375 C22.4863281,23.375 22.0800781,23.2602539 21.6977539,23.0429688 C21.6938476,23.0410156 21.6904297,23.0390625 21.6870117,23.0371094 Z" id="Shape"></path>
                <path d="M24.8608399,26.5 C24.1708985,26.5 23.6108399,27.0595703 23.6108399,27.75 L23.6108399,28.8125 C23.6108399,29.5029297 24.1708985,30.0625 24.8608399,30.0625 C25.5512695,30.0625 26.1108399,29.5029297 26.1108399,28.8125 L26.1108399,27.75 C26.1108399,27.0595703 25.5512695,26.5 24.8608399,26.5 Z" id="Path"></path>
                <path d="M24.8608399,31.6875 C24.1708985,31.6875 23.6108399,32.2470703 23.6108399,32.9375 L23.6108399,34 C23.6108399,34.6904297 24.1708985,35.25 24.8608399,35.25 C25.5512695,35.25 26.1108399,34.6904297 26.1108399,34 L26.1108399,32.9375 C26.1108399,32.2470703 25.5512695,31.6875 24.8608399,31.6875 Z" id="Path"></path>
                <path d="M24.8608399,36.8125 C24.1708985,36.8125 23.6108399,37.3720703 23.6108399,38.0625 L23.6108399,39.125 C23.6108399,39.8154297 24.1708985,40.375 24.8608399,40.375 C25.5512695,40.375 26.1108399,39.8154297 26.1108399,39.125 L26.1108399,38.0625 C26.1108399,37.3720703 25.5512695,36.8125 24.8608399,36.8125 Z" id="Path"></path>
                <path d="M48.472168,61.5 L43.9941406,61.5 L43.9941406,58.684082 C43.9941406,56.4638673 42.309082,54.6293945 40.1499024,54.3935548 C40.2885742,52.9165039 40.3833007,50.4594726 39.9375,47.684082 C38.9829101,41.743164 35.9921875,37.2016601 31.288086,34.5512695 C30.3671875,34.0327149 29.7954101,33.0546875 29.7954101,32 C29.7954101,30.9448242 30.3671875,29.9672851 31.288086,29.4482422 C35.9921875,26.7978515 38.9833985,22.256836 39.9375,16.3154297 C40.3833007,13.5405274 40.2885742,11.0830078 40.1499024,9.60644525 C42.3085938,9.3706055 43.9941406,7.53613275 43.9941406,5.31542975 L43.9941406,1.89257812 C43.9941406,0.84863275 43.1450195,0 42.1015625,0 L7.62011725,0 C6.57666013,0 5.727539,0.849121125 5.727539,1.89257812 L5.727539,5.315918 C5.727539,7.53613275 7.413086,9.3706055 9.57177737,9.60644525 C9.43359375,11.0834961 9.33886725,13.5405274 9.784668,16.315918 C10.7387695,22.256836 13.7299805,26.7983399 18.434082,29.4487305 C19.3549805,29.9672851 19.9267578,30.9453125 19.9267578,32 C19.9267578,33.0551758 19.3549805,34.0327149 18.434082,34.5517578 C13.7299805,37.2021485 10.7387695,41.743164 9.784668,47.6845703 C9.33886725,50.4594726 9.43359375,52.9169922 9.57177737,54.3935547 C7.413086,54.6293945 5.727539,56.4638672 5.727539,58.6845703 L5.727539,61.5 L1.25,61.5 C0.55957025,61.5 0,62.0595703 0,62.75 C0,63.4404297 0.55957025,64 1.25,64 L48.4716797,64 C49.1621094,64 49.7216797,63.4404297 49.7216797,62.75 C49.7216797,62.0595703 49.1621094,61.5 48.472168,61.5 Z M8.22802737,5.315918 L8.22802737,2.5 L41.4941406,2.5 L41.4941406,5.315918 C41.4941406,6.31738275 40.6791992,7.13232425 39.6777344,7.13232425 L10.0444336,7.13232425 C9.04296875,7.13232425 8.22802737,6.31738275 8.22802737,5.315918 Z M12.2529298,48.0805664 C13.0942383,42.8442382 15.5864258,39.0253906 19.6616211,36.7294923 C21.3671875,35.7685548 22.4267578,33.9560548 22.4267578,32 C22.4267578,30.0439453 21.3671875,28.2314453 19.6611328,27.2705078 C15.6064453,24.9858399 13.118164,21.1914063 12.2651368,15.9926758 C11.8261719,13.3183594 11.9516601,10.9277344 12.0839844,9.63232425 L37.6396485,9.63232425 C37.7714844,10.9116211 37.8959961,13.2617188 37.4692382,15.9194336 C36.6279297,21.1557618 34.1357422,24.9746094 30.0605469,27.2705078 C28.3549805,28.2314453 27.2949219,30.0439453 27.2949219,32 C27.2949219,33.9560548 28.3549805,35.7685548 30.0605469,36.7299805 C34.1157226,39.0141601 36.6040039,42.8085938 37.4570312,48.0078125 C37.8959961,50.6821289 37.7705077,53.0722656 37.6381836,54.3676758 L35.0058594,54.3676758 C34.9638672,53.3984375 34.831543,52.430664 34.6123047,51.4853515 C34.4560547,50.8129883 33.784668,50.3945313 33.1123047,50.550293 C32.4394531,50.7060548 32.0209961,51.3779298 32.1767577,52.050293 C32.3535156,52.8110351 32.4628906,53.5883789 32.5029297,54.3676758 L17.2197265,54.3676758 C17.4101562,50.7548828 19.069336,47.3457031 21.824707,44.9448243 C23.5444336,43.446289 26.0644531,43.4179688 27.8164062,44.8759765 C28.347168,45.3178711 29.1352539,45.2456055 29.5766601,44.7148438 C30.0180664,44.184082 29.946289,43.3959961 29.4155274,42.9545899 C26.715332,40.7070313 22.8320312,40.7514649 20.1826172,43.0600586 C16.8828125,45.9350586 14.9091797,50.0322265 14.7167969,54.3676758 L12.0825195,54.3676758 C11.9506836,53.0883789 11.8261719,50.7382813 12.2529297,48.0805664 L12.2529298,48.0805664 Z M8.22802738,61.5 L8.22802738,58.684082 C8.22802738,57.6826172 9.04296875,56.8676757 10.0444336,56.8676757 L39.6777344,56.8676757 C40.6791992,56.8676757 41.4941406,57.6826172 41.4941406,58.684082 L41.4941406,61.5 L8.22802738,61.5 Z" id="Shape"></path>
                <path d="M31.5639649,48.5976562 L31.5668945,48.5976562 C32.2573243,48.5976562 32.8154297,48.038086 32.8154297,47.3476562 C32.8154297,46.6572265 32.2543945,46.0976562 31.5639649,46.0976562 C30.8735351,46.0976562 30.3139649,46.6572265 30.3139649,47.3476562 C30.3139649,48.038086 30.8735351,48.5976562 31.5639649,48.5976562 Z" id="Path"></path>
            </g>
        </g>
    </g>
</svg>