<?xml version="1.0" encoding="UTF-8"?>
<svg width="64px" height="64px" viewBox="0 0 64 64" version="1.1" xmlns="http://www.w3.org/2000/svg" xmlns:xlink="http://www.w3.org/1999/xlink">
    <!-- Generator: sketchtool 63.1 (101010) - https://sketch.com -->
    <title>FFC37403-9AB6-4218-9E3E-BFF75C0A7435</title>
    <desc>Created with sketchtool.</desc>
    <g id="Main&amp;About" stroke="none" stroke-width="1" fill="none" fill-rule="evenodd">
        <g id="Step--3.1--Sign-in-" transform="translate(-718.000000, -188.000000)" fill="#FFFFFF" fill-rule="nonzero">
            <g id="integration" transform="translate(718.000000, 188.000000)">
                <path d="M62.75,13.5 L50.5,13.5 L50.5,1.25 C50.5,0.55957025 49.9404297,0 49.25,0 L1.25,0 C0.55957025,0 0,0.55957025 0,1.25 L0,49.25 C0,49.9404297 0.55957025,50.5 1.25,50.5 L13.5,50.5 L13.5,62.75 C13.5,63.4404297 14.0595703,64 14.75,64 L33.6875,64 C34.3779297,64 34.9375,63.4404297 34.9375,62.75 C34.9375,62.0595703 34.3779297,61.5 33.6875,61.5 L16,61.5 L16,50.3950195 C16.4414062,50.2021485 16.75,49.762207 16.75,49.25 C16.75,48.5595703 16.1904297,48 15.5,48 L2.5,48 L2.5,2.5 L48,2.5 L48,13.6049805 C47.5585938,13.7978515 47.25,14.237793 47.25,14.75 C47.25,15.4404297 47.8095703,16 48.5,16 L61.5,16 L61.5,61.5 L43.75,61.5 C43.0595703,61.5 42.5,62.0595703 42.5,62.75 C42.5,63.4404297 43.0595703,64 43.75,64 L62.75,64 C63.4404297,64 64,63.4404297 64,62.75 L64,14.75 C64,14.0595703 63.4404297,13.5 62.75,13.5 Z" id="Path"></path>
                <path d="M48,43.5 C48,44.1904297 48.5595703,44.75 49.25,44.75 C49.9404297,44.75 50.5,44.1904297 50.5,43.5 L50.5,42.75 C50.5,42.0595703 49.9404297,41.5 49.25,41.5 C48.5595703,41.5 48,42.0595703 48,42.75 L48,43.5 Z" id="Path"></path>
                <path d="M48,32 C48,32.6904297 48.5595703,33.25 49.25,33.25 C49.9404297,33.25 50.5,32.6904297 50.5,32 L50.5,31.25 C50.5,30.5595703 49.9404297,30 49.25,30 C48.5595703,30 48,30.5595703 48,31.25 L48,32 Z" id="Path"></path>
                <path d="M49.25,21.75 C49.9404297,21.75 50.5,21.1904297 50.5,20.5 L50.5,19.75 C50.5,19.0595703 49.9404297,18.5 49.25,18.5 C48.5595703,18.5 48,19.0595703 48,19.75 L48,20.5 C48,21.1904297 48.5595703,21.75 49.25,21.75 Z" id="Path"></path>
                <path d="M48,37.75 C48,38.4404297 48.5595703,39 49.25,39 C49.9404297,39 50.5,38.4404297 50.5,37.75 L50.5,37 C50.5,36.3095703 49.9404297,35.75 49.25,35.75 C48.5595703,35.75 48,36.3095703 48,37 L48,37.75 Z" id="Path"></path>
                <path d="M37.75,16 C38.4404297,16 39,15.4404297 39,14.75 C39,14.0595703 38.4404297,13.5 37.75,13.5 L37,13.5 C36.3095703,13.5 35.75,14.0595703 35.75,14.75 C35.75,15.4404297 36.3095703,16 37,16 L37.75,16 Z" id="Path"></path>
                <path d="M38.5,50.5 C39.1904297,50.5 39.75,49.9404297 39.75,49.25 C39.75,48.5595703 39.1904297,48 38.5,48 L37.75,48 C37.0595703,48 36.5,48.5595703 36.5,49.25 C36.5,49.9404297 37.0595703,50.5 37.75,50.5 L38.5,50.5 Z" id="Path"></path>
                <path d="M48,49.25 C48,49.9404297 48.5595703,50.5 49.25,50.5 C49.9404297,50.5 50.5,49.9404297 50.5,49.25 L50.5,48.5 C50.5,47.8095703 49.9404297,47.25 49.25,47.25 C48.5595703,47.25 48,47.8095703 48,48.5 L48,49.25 Z" id="Path"></path>
                <path d="M43.5,16 C44.1904297,16 44.75,15.4404297 44.75,14.75 C44.75,14.0595703 44.1904297,13.5 43.5,13.5 L42.75,13.5 C42.0595703,13.5 41.5,14.0595703 41.5,14.75 C41.5,15.4404297 42.0595703,16 42.75,16 L43.5,16 Z" id="Path"></path>
                <path d="M43.5,50.5 L44.25,50.5 C44.9404297,50.5 45.5,49.9404297 45.5,49.25 C45.5,48.5595703 44.9404297,48 44.25,48 L43.5,48 C42.8095703,48 42.25,48.5595703 42.25,49.25 C42.25,49.9404297 42.8095703,50.5 43.5,50.5 Z" id="Path"></path>
                <path d="M48,26.25 C48,26.9404297 48.5595703,27.5 49.25,27.5 C49.9404297,27.5 50.5,26.9404297 50.5,26.25 L50.5,25.5 C50.5,24.8095703 49.9404297,24.25 49.25,24.25 C48.5595703,24.25 48,24.8095703 48,25.5 L48,26.25 Z" id="Path"></path>
                <path d="M26.25,16 C26.9404297,16 27.5,15.4404297 27.5,14.75 C27.5,14.0595703 26.9404297,13.5 26.25,13.5 L25.5,13.5 C24.8095703,13.5 24.25,14.0595703 24.25,14.75 C24.25,15.4404297 24.8095703,16 25.5,16 L26.25,16 Z" id="Path"></path>
                <path d="M16,26.25 C16,25.5595703 15.4404297,25 14.75,25 C14.0595703,25 13.5,25.5595703 13.5,26.25 L13.5,27 C13.5,27.6904297 14.0595703,28.25 14.75,28.25 C15.4404297,28.25 16,27.6904297 16,27 L16,26.25 Z" id="Path"></path>
                <path d="M16,32 C16,31.3095703 15.4404297,30.75 14.75,30.75 C14.0595703,30.75 13.5,31.3095703 13.5,32 L13.5,32.75 C13.5,33.4404297 14.0595703,34 14.75,34 C15.4404297,34 16,33.4404297 16,32.75 L16,32 Z" id="Path"></path>
                <path d="M16,14.75 C16,14.0595703 15.4404297,13.5 14.75,13.5 C14.0595703,13.5 13.5,14.0595703 13.5,14.75 L13.5,15.5 C13.5,16.1904297 14.0595703,16.75 14.75,16.75 C15.4404297,16.75 16,16.1904297 16,15.5 L16,14.75 Z" id="Path"></path>
                <path d="M16,20.5 C16,19.8095703 15.4404297,19.25 14.75,19.25 C14.0595703,19.25 13.5,19.8095703 13.5,20.5 L13.5,21.25 C13.5,21.9404297 14.0595703,22.5 14.75,22.5 C15.4404297,22.5 16,21.9404297 16,21.25 L16,20.5 Z" id="Path"></path>
                <path d="M14.75,42.25 C14.0595703,42.25 13.5,42.8095703 13.5,43.5 L13.5,44.25 C13.5,44.9404297 14.0595703,45.5 14.75,45.5 C15.4404297,45.5 16,44.9404297 16,44.25 L16,43.5 C16,42.8095703 15.4404297,42.25 14.75,42.25 Z" id="Path"></path>
                <path d="M16,37.75 C16,37.0595703 15.4404297,36.5 14.75,36.5 C14.0595703,36.5 13.5,37.0595703 13.5,37.75 L13.5,38.5 C13.5,39.1904297 14.0595703,39.75 14.75,39.75 C15.4404297,39.75 16,39.1904297 16,38.5 L16,37.75 Z" id="Path"></path>
                <path d="M26.25,50.5 L27,50.5 C27.6904297,50.5 28.25,49.9404297 28.25,49.25 C28.25,48.5595703 27.6904297,48 27,48 L26.25,48 C25.5595703,48 25,48.5595703 25,49.25 C25,49.9404297 25.5595703,50.5 26.25,50.5 Z" id="Path"></path>
                <path d="M32,50.5 L32.75,50.5 C33.4404297,50.5 34,49.9404297 34,49.25 C34,48.5595703 33.4404297,48 32.75,48 L32,48 C31.3095703,48 30.75,48.5595703 30.75,49.25 C30.75,49.9404297 31.3095703,50.5 32,50.5 Z" id="Path"></path>
                <path d="M32,16 C32.6904297,16 33.25,15.4404297 33.25,14.75 C33.25,14.0595703 32.6904297,13.5 32,13.5 L31.25,13.5 C30.5595703,13.5 30,14.0595703 30,14.75 C30,15.4404297 30.5595703,16 31.25,16 L32,16 Z" id="Path"></path>
                <path d="M20.5,16 C21.1904297,16 21.75,15.4404297 21.75,14.75 C21.75,14.0595703 21.1904297,13.5 20.5,13.5 L19.75,13.5 C19.0595703,13.5 18.5,14.0595703 18.5,14.75 C18.5,15.4404297 19.0595703,16 19.75,16 L20.5,16 Z" id="Path"></path>
                <path d="M20.5,50.5 L21.25,50.5 C21.9404297,50.5 22.5,49.9404297 22.5,49.25 C22.5,48.5595703 21.9404297,48 21.25,48 L20.5,48 C19.8095703,48 19.25,48.5595703 19.25,49.25 C19.25,49.9404297 19.8095703,50.5 20.5,50.5 Z" id="Path"></path>
                <path d="M38.75,61.5 C38.4213868,61.5 38.0986328,61.633789 37.866211,61.866211 C37.633789,62.0986328 37.5,62.4213867 37.5,62.75 C37.5,63.0786133 37.633789,63.4013672 37.866211,63.633789 C38.0986328,63.866211 38.4213867,64 38.75,64 C39.0786133,64 39.4013672,63.866211 39.633789,63.633789 C39.866211,63.4013672 40,63.0786133 40,62.75 C40,62.4213867 39.866211,62.0986328 39.633789,61.866211 C39.4013672,61.633789 39.0786133,61.5 38.75,61.5 Z" id="Path"></path>
            </g>
        </g>
    </g>
</svg>