<?xml version="1.0" encoding="UTF-8"?>
<svg width="46px" height="64px" viewBox="0 0 46 64" version="1.1" xmlns="http://www.w3.org/2000/svg" xmlns:xlink="http://www.w3.org/1999/xlink">
    <!-- Generator: sketchtool 63.1 (101010) - https://sketch.com -->
    <title>03C4313B-27DC-4103-A778-3C852D4108E9</title>
    <desc>Created with sketchtool.</desc>
    <g id="Main&amp;About" stroke="none" stroke-width="1" fill="none" fill-rule="evenodd">
        <g id="-Step-1.2-Devices" transform="translate(-727.000000, -186.000000)" fill="#FFFFFF" fill-rule="nonzero">
            <g id="ipad" transform="translate(727.000000, 186.000000)">
                <path d="M40.0570282,0 L5.45472705,0 C2.48367896,0 0.0664731596,2.41720581 0.0664731596,5.38825389 L0.0664731596,58.5549977 C0.0664731596,61.5260458 2.48367896,63.9432516 5.45472705,63.9432516 L40.0573303,63.9432516 C43.0283784,63.9432516 45.4455842,61.5260458 45.4455842,58.5546956 L45.4455842,5.38825389 C45.4455842,2.41720581 43.0282273,0 40.0570282,0 Z M43.3826502,58.5548467 C43.3826502,60.3882973 41.890932,61.8804686 40.0568771,61.8804686 L5.45472705,61.8804686 C3.62067215,61.8804686 2.12910509,60.3884483 2.12910509,58.5546956 L2.12910509,5.38825389 C2.12910509,3.55480329 3.62067215,2.06263193 5.45472705,2.06263193 L40.0573303,2.06263193 C41.8913852,2.06263193 43.3826502,3.55465221 43.3826502,5.38825389 L43.3826502,58.5548467 L43.3826502,58.5548467 Z" id="Shape"></path>
                <path d="M44.4141927,7.21943836 L1.09786466,7.21943836 C0.527857318,7.21943836 0.0664731596,7.68127575 0.0664731596,8.25082987 L0.0664731596,52.5983983 C0.0664731596,53.1679524 0.527706242,53.6297898 1.09786466,53.6297898 L44.4141927,53.6297898 C44.9842,53.6297898 45.4455842,53.1679524 45.4455842,52.5983983 L45.4455842,8.25067879 C45.4455842,7.68112467 44.9842,7.21943836 44.4141927,7.21943836 Z M43.3828012,51.5670068 L2.12910509,51.5670068 L2.12910509,9.28207029 L43.3828012,9.28207029 L43.3828012,51.5670068 Z" id="Shape"></path>
                <path d="M11.1090247,11.647004 C10.7062577,11.2442371 10.0534611,11.2442371 9.65069418,11.647004 L5.00965903,16.2880392 C4.60689211,16.6908061 4.60689211,17.3436027 5.00965903,17.7463696 C5.21104249,17.9477531 5.47512222,18.0485204 5.73874873,18.0485204 C6.00252632,18.0485204 6.26660605,17.9477531 6.46783843,17.7463696 L11.1088736,13.1053345 C11.5117916,12.7025676 11.5117916,12.0496199 11.1090247,11.647004 Z" id="Path"></path>
                <path d="M15.2344396,11.647004 C14.8316727,11.2442371 14.178876,11.2442371 13.7761091,11.647004 L4.49403882,20.9290743 C4.0912719,21.3318412 4.0912719,21.9846379 4.49403882,22.3874048 C4.69542228,22.5887882 4.95950201,22.6895555 5.22312852,22.6895555 C5.48675503,22.6895555 5.75098584,22.5887882 5.95221822,22.3874048 L15.2342885,13.1053345 C15.6372065,12.7025676 15.6372065,12.0496199 15.2344396,11.647004 Z" id="Path"></path>
                <path d="M22.7560287,54.6610303 C21.0499346,54.6610303 19.6620052,56.0489596 19.6620052,57.7550537 C19.6620052,59.4611478 21.0499346,60.8490771 22.7560287,60.8490771 C24.4621227,60.8490771 25.8500521,59.4611478 25.8500521,57.7550537 C25.8500521,56.0489596 24.4621227,54.6610303 22.7560287,54.6610303 Z M22.7560287,58.7864452 C22.1869278,58.7864452 21.7246372,58.3237013 21.7246372,57.7550537 C21.7246372,57.186406 22.1869278,56.7236622 22.7560287,56.7236622 C23.3251296,56.7236622 23.7874202,57.186406 23.7874202,57.7550537 C23.7874202,58.3237013 23.3249785,58.7864452 22.7560287,58.7864452 Z" id="Shape"></path>
            </g>
        </g>
    </g>
</svg>