<?xml version="1.0" encoding="UTF-8"?>
<svg width="64px" height="64px" viewBox="0 0 64 64" version="1.1" xmlns="http://www.w3.org/2000/svg" xmlns:xlink="http://www.w3.org/1999/xlink">
    <!-- Generator: sketchtool 63.1 (101010) - https://sketch.com -->
    <title>BD678794-B508-40D9-AC78-21EB0A41F18B</title>
    <desc>Created with sketchtool.</desc>
    <g id="Main&amp;About" stroke="none" stroke-width="1" fill="none" fill-rule="evenodd">
        <g id="Step-4.2.-Minor-features" transform="translate(-718.000000, -188.000000)" fill="#FFFFFF" fill-rule="nonzero">
            <g id="Language" transform="translate(718.000000, 188.000000)">
                <path d="M58.75,22.5 L41.1694336,22.5 C41.2250976,21.8833008 41.2553711,21.258789 41.2553711,20.6274414 C41.2553711,9.253418 32.0014649,0 20.6274414,0 C17.0043945,0 13.4404297,0.953125 10.3208007,2.75585938 C9.7231445,3.10107425 9.51855475,3.86572263 9.8637695,4.46337888 C10.2094726,5.0615235 10.9741211,5.265625 11.5717774,4.92041013 C14.3115235,3.336914 17.4428711,2.5 20.6274414,2.5 C30.6230469,2.5 38.7553711,10.631836 38.7553711,20.6274414 C38.7553711,30.6230469 30.6230469,38.7553711 20.6274414,38.7553711 C16.4433594,38.7553711 12.5126952,37.3691406 9.26025387,34.7470702 C8.934082,34.484375 8.50195312,34.4057617 8.1083985,34.5263672 L4.79052737,35.394043 L6.090332,32.5375976 C6.27734375,32.1274414 6.22851562,31.6489257 5.96337887,31.2841797 C3.69775387,28.1723632 2.5,24.4873047 2.5,20.6274414 C2.5,17.4345702 3.34130862,14.2954101 4.9331055,11.5498047 C5.27929687,10.9521485 5.07568362,10.1875 4.47851562,9.84130862 C3.88134762,9.49511725 3.11669925,9.69824225 2.7700195,10.2958985 C0.95800775,13.421875 -3.55271368e-15,16.9946289 -3.55271368e-15,20.6274414 C-3.55271368e-15,24.772461 1.2143555,28.7416992 3.519043,32.1523437 L1.4262695,36.7504882 C1.22607425,37.1894531 1.296875,37.7041015 1.60742187,38.0732422 C1.91796875,38.4423827 2.413086,38.5996094 2.87988275,38.477539 L8.19580075,37.0878906 C11.7592774,39.7797851 16.1484375,41.2553711 20.6274414,41.2553711 C21.602539,41.2553711 22.5610351,41.1855469 23.5,41.0541992 L23.5,52 C23.5,54.8945312 25.8549805,57.25 28.7495117,57.25 L46.428711,57.25 L54.3334961,63.7172851 C54.5610351,63.9038086 54.8417969,63.9995118 55.125,63.9995118 C55.3071289,63.9995118 55.4897461,63.959961 55.6601562,63.8793945 C56.0966797,63.6723633 56.375,63.2329101 56.375,62.7495118 L56.375,57.25 L58.75,57.25 C61.6450195,57.25 64,54.8945312 64,52 L64,27.75 C64,24.8549805 61.6450195,22.5 58.75,22.5 Z M61.5,52 C61.5,53.5161132 60.2666015,54.75 58.75,54.75 L55.125,54.75 C54.4345703,54.75 53.875,55.3095702 53.875,56 L53.875,60.1118164 L47.7011719,55.0605469 C47.3608399,54.75 47.0629883,54.75 46.3935548,54.75 L28.7495117,54.75 C27.2333985,54.75 26,53.5161132 26,52 L26,40.5439452 C33.394043,38.5473632 39.1547851,32.534668 40.7871094,25 L58.75,25 C60.2666015,25 61.5,26.2333985 61.5,27.75 L61.5,52 Z" id="Shape"></path>
                <path d="M49.9702149,43.5756836 C50.394043,43.3759765 50.6879883,42.9458008 50.6879883,42.4458008 C50.6879883,41.7558594 50.128418,41.1958008 49.4379883,41.1958008 L48.9262695,41.1958008 L44.8950195,32.0083008 C44.6953125,31.553711 44.2460938,31.2602539 43.75,31.2602539 C43.2539062,31.2602539 42.8046875,31.553711 42.6054688,32.0083008 L38.5742188,41.1958008 L38.0625,41.1958008 C37.3720703,41.1958008 36.8125,41.7558594 36.8125,42.4458008 C36.8125,42.9458008 37.1064453,43.3759765 37.5302735,43.5756836 L36.0288086,46.9975586 C35.7514649,47.6298828 36.0390625,48.3671875 36.6708985,48.6445312 C37.3032226,48.921875 38.0405274,48.6342774 38.3178711,48.0019531 L40.2075195,43.6958008 L47.2929688,43.6958008 L49.1826172,48.0019531 C49.3881836,48.4707031 49.8466797,48.7501633 50.328125,48.7501633 C50.4956055,48.7501633 50.6660156,48.7163086 50.8295899,48.6445312 C51.4614258,48.3671875 51.7495118,47.6298828 51.4716798,46.9975586 L49.9702149,43.5756836 Z M41.3041993,41.1958008 L43.75,35.621582 L46.1958008,41.1958008 L41.3041993,41.1958008 Z" id="Shape"></path>
                <path d="M6.925293,8.17480475 C7.25390625,8.17480475 7.57617188,8.04101562 7.809082,7.80859375 C8.04150388,7.57617188 8.175293,7.25390625 8.175293,6.92480475 C8.175293,6.59619138 8.04150388,6.27392575 7.809082,6.04101562 C7.57617188,5.80859375 7.25390625,5.67480475 6.925293,5.67480475 C6.59521487,5.67480475 6.27392575,5.80859375 6.04150388,6.04101562 C5.809082,6.27392575 5.675293,6.59619138 5.675293,6.92480475 C5.675293,7.25390625 5.809082,7.57617188 6.04150388,7.80859375 C6.27392575,8.04150388 6.59619138,8.17480475 6.925293,8.17480475 Z" id="Path"></path>
                <path d="M13.1660156,28.2348633 C12.5605469,28.5668945 12.3388672,29.3266601 12.6708985,29.9321289 C12.8984375,30.3466797 13.3266601,30.581543 13.7680664,30.581543 C13.9711914,30.581543 14.1772461,30.5317383 14.368164,30.4272461 C17.1557617,28.8984375 19.300293,26.5205078 20.5546875,23.7163086 C21.8095703,26.5205078 23.9536133,28.8984375 26.741211,30.4272461 C26.9321289,30.5317383 27.1381836,30.581543 27.3413086,30.581543 C27.7827149,30.581543 28.2109375,30.3466797 28.4384765,29.9321289 C28.7705078,29.3266601 28.5488281,28.5668945 27.9433594,28.2348633 C24.6801758,26.4453125 22.4838867,23.2470703 21.9384765,19.6333008 L27.4882812,19.6333008 C28.178711,19.6333008 28.7382812,19.0737305 28.7382812,18.3833008 C28.7382812,17.6928711 28.178711,17.1333008 27.4882812,17.1333008 L21.8046875,17.1333008 L21.8046875,11.9243164 C21.8046875,11.2338867 21.2451172,10.6743164 20.5546875,10.6743164 C19.8642578,10.6743164 19.3046875,11.2338867 19.3046875,11.9243164 L19.3046875,17.1333008 L14.7890625,17.1333008 C14.0986328,17.1333008 13.5390625,17.6928711 13.5390625,18.3833008 C13.5390625,19.0737305 14.0986328,19.6333008 14.7890625,19.6333008 L19.1708985,19.6333008 C18.6254883,23.2470703 16.4291992,26.4458008 13.1660156,28.2348633 Z" id="Path"></path>
            </g>
        </g>
    </g>
</svg>