<?xml version="1.0" encoding="UTF-8"?>
<svg width="64px" height="53px" viewBox="0 0 64 53" version="1.1" xmlns="http://www.w3.org/2000/svg" xmlns:xlink="http://www.w3.org/1999/xlink">
    <!-- Generator: sketchtool 63.1 (101010) - https://sketch.com -->
    <title>8DB3E142-19C5-43D8-AAC2-9227E987739D</title>
    <desc>Created with sketchtool.</desc>
    <g id="Main&amp;About" stroke="none" stroke-width="1" fill="none" fill-rule="evenodd">
        <g id="Step-4.2.-Minor-features" transform="translate(-988.000000, -383.000000)" fill="#FFFFFF" fill-rule="nonzero">
            <g id="list" transform="translate(988.000000, 383.000000)">
                <path d="M62.75,46.376375 L52.53175,46.376375 C51.8415,46.376375 51.28175,45.816625 51.28175,45.126375 C51.28175,44.436125 51.8415,43.876375 52.53175,43.876375 L62.75,43.876375 C63.44025,43.876375 64,44.436125 64,45.126375 C64,45.816625 63.44025,46.376375 62.75,46.376375 Z" id="Path"></path>
                <path d="M41.230125,46.376375 L31.01175,46.376375 C30.321375,46.376375 29.76175,45.816625 29.76175,45.126375 C29.76175,44.436125 30.321375,43.876375 31.01175,43.876375 L41.230125,43.876375 C41.9205,43.876375 42.480125,44.436125 42.480125,45.126375 C42.480125,45.816625 41.920375,46.376375 41.230125,46.376375 Z" id="Path"></path>
                <path d="M46.903625,46.37625 C46.379,46.37625 45.906125,46.037875 45.727875,45.54675 C45.55275,45.064 45.703375,44.504875 46.095125,44.1735 C46.5055,43.82625 47.106625,43.78325 47.563375,44.0655 C48.00175,44.3365 48.228625,44.865375 48.12875,45.37 C48.0145,45.947375 47.492375,46.37625 46.903625,46.37625 Z" id="Path"></path>
                <path d="M62.75,39.845625 L31.01175,39.845625 C30.321375,39.845625 29.76175,39.286 29.76175,38.595625 C29.76175,37.905375 30.321375,37.345625 31.01175,37.345625 L62.75,37.345625 C63.44025,37.345625 64,37.905375 64,38.595625 C64,39.285875 63.44025,39.845625 62.75,39.845625 Z" id="Path"></path>
                <path d="M62.75,52.907125 L31.01175,52.907125 C30.321375,52.907125 29.76175,52.347375 29.76175,51.657125 C29.76175,50.966875 30.321375,50.407125 31.01175,50.407125 L62.75,50.407125 C63.44025,50.407125 64,50.966875 64,51.657125 C64,52.347375 63.44025,52.907125 62.75,52.907125 Z" id="Path"></path>
                <path d="M24.999625,0.092875 L1.25,0.092875 C0.559625,0.092875 0,0.652625 0,1.342875 L0,51.657125 C0,52.347375 0.559625,52.907125 1.25,52.907125 L24.999625,52.907125 C25.69,52.907125 26.249625,52.347375 26.249625,51.657125 L26.249625,1.342875 C26.249625,0.652625 25.69,0.092875 24.999625,0.092875 Z M2.5,2.592875 L23.749625,2.592875 L23.749625,37.35775 L2.5,37.35775 L2.5,2.592875 Z M23.749625,50.407125 L2.5,50.407125 L2.5,39.85775 L23.749625,39.85775 L23.749625,50.407125 Z" id="Shape"></path>
                <path d="M43.693375,33.337 L31.01175,33.337 C30.321375,33.337 29.76175,32.777375 29.76175,32.087 L29.76175,19.712625 C29.76175,19.02225 30.321375,18.462625 31.01175,18.462625 L43.693375,18.462625 C44.383625,18.462625 44.943375,19.02225 44.943375,19.712625 L44.943375,32.087 C44.943375,32.777375 44.383625,33.337 43.693375,33.337 Z M32.26175,30.837 L42.443375,30.837 L42.443375,20.962625 L32.26175,20.962625 L32.26175,30.837 Z" id="Shape"></path>
                <path d="M62.75,33.337 L50.068375,33.337 C49.378125,33.337 48.818375,32.777375 48.818375,32.087 L48.818375,19.712625 C48.818375,19.02225 49.378125,18.462625 50.068375,18.462625 L62.75,18.462625 C63.44025,18.462625 64,19.02225 64,19.712625 L64,32.087 C64,32.777375 63.44025,33.337 62.75,33.337 Z M51.318375,30.837 L61.5,30.837 L61.5,20.962625 L51.318375,20.962625 L51.318375,30.837 Z" id="Shape"></path>
                <path d="M62.75,14.96725 L31.01175,14.96725 C30.321375,14.96725 29.76175,14.4075 29.76175,13.71725 L29.76175,1.342875 C29.76175,0.652625 30.321375,0.092875 31.01175,0.092875 L62.75,0.092875 C63.44025,0.092875 64,0.652625 64,1.342875 L64,13.71725 C64,14.407625 63.44025,14.96725 62.75,14.96725 Z M32.261875,12.46725 L61.5,12.46725 L61.5,2.592875 L32.261875,2.592875 L32.261875,12.46725 Z" id="Shape"></path>
            </g>
        </g>
    </g>
</svg>