<?xml version="1.0" encoding="UTF-8"?>
<svg width="64px" height="64px" viewBox="0 0 64 64" version="1.1" xmlns="http://www.w3.org/2000/svg" xmlns:xlink="http://www.w3.org/1999/xlink">
    <!-- Generator: sketchtool 63.1 (101010) - https://sketch.com -->
    <title>1BF4F5DB-8CCD-4BEE-B608-DD6D9BE478C8</title>
    <desc>Created with sketchtool.</desc>
    <g id="Main&amp;About" stroke="none" stroke-width="1" fill="none" fill-rule="evenodd">
        <g id="Step-2.2-Related-services" transform="translate(-448.000000, -186.000000)" fill="#FFFFFF" fill-rule="nonzero">
            <g id="logo" transform="translate(448.000000, 186.000000)">
                <path d="M46.8865414,42.7891236 L33.1420188,14.7511737 C32.9319249,14.3227699 32.4972614,14.0516432 32.0195618,14.0516432 C31.5422536,14.0516432 31.10759,14.3227699 30.8974961,14.7511737 L17.1529734,42.7891236 C16.942097,43.2187011 16.9956964,43.7308294 17.2922535,44.1083724 L25.0489045,53.9968701 L22.7734742,53.9968701 C20.9816119,53.9968701 19.5246479,55.4526604 19.5246479,57.2417841 L19.5246479,62.235133 C19.5246479,63.1995305 20.3094679,63.9827856 21.2738654,63.9827856 L42.7656494,63.9827856 C43.730047,63.9827856 44.514867,63.1995305 44.514867,62.235133 L44.514867,57.2417841 C44.514867,55.4526604 43.057903,53.9968701 41.2660407,53.9968701 L38.9643975,53.9968701 L46.7464789,44.109155 C47.0438185,43.7320032 47.0974178,43.2198749 46.8865414,42.7891236 L46.8865414,42.7891236 Z M41.2660407,56.4929577 C41.6795774,56.4929577 42.0156495,56.829421 42.0156495,57.2417841 L42.0156495,61.4863068 L22.0234742,61.4863068 L22.0234742,57.2417841 C22.0234742,56.829421 22.3599374,56.4929577 22.7734742,56.4929577 L41.2660407,56.4929577 Z M35.7859937,53.9968701 L28.2222222,53.9968701 L19.7421752,43.1834898 L32.0195618,18.137324 L44.2973396,43.1823162 L35.7859937,53.9968701 Z" id="Shape"></path>
                <path d="M37.0027387,43.7245696 C36.9190141,42.3900626 36.3215963,41.172144 35.3235525,40.2922535 C34.7312206,39.7726917 34.0285602,39.4010172 33.2691706,39.2077465 L33.2691706,30.3098592 C33.2691706,29.6212833 32.7093114,29.0618153 32.0195618,29.0618153 C31.3302034,29.0618153 30.7703443,29.6212833 30.7703443,30.3098592 L30.7703443,39.2065728 C29.8153365,39.4499217 28.9432708,39.9761346 28.2687794,40.7394366 C27.4342723,41.687011 27.0242566,42.8638498 27.0242566,44.0356025 C27.0242566,45.4213615 27.5966353,46.801252 28.7159625,47.786385 C29.6330204,48.5938968 30.7926447,49.0285602 32.0097809,49.0285602 C32.1181534,49.0285602 32.2273083,49.0250391 32.336072,49.0191706 C33.6705791,48.9338811 34.8912364,48.337637 35.7707356,47.3395931 C36.6502348,46.3423318 37.0876369,45.0575118 37.0027387,43.7245696 L37.0027387,43.7245696 Z M33.8955399,45.6901408 C33.2159624,46.4604851 32.0938967,46.7331768 31.1330203,46.372457 C30.1658842,46.0093897 29.5234742,45.0594679 29.5254259,44.0301252 C29.5269953,42.9773082 30.2104851,42.0187793 31.2085289,41.6795774 C32.2108764,41.3392019 33.3540688,41.6772301 34.0003912,42.5176057 C34.7159625,43.4483569 34.672144,44.8090767 33.8955399,45.6901408 L33.8955399,45.6901408 Z" id="Shape"></path>
                <path d="M62.1964007,26.7840376 L60.2531299,26.7840376 C60.0762911,24.7159625 59.4424883,20.3611111 57.1948357,15.9643975 C55.4456182,12.5434272 52.4902191,8.71752734 47.5473396,6.28208135 L54.1521909,6.28208135 C54.4773083,7.51173709 55.2417841,8.55477303 56.321205,9.22965574 C57.1236307,9.73317689 58.0328638,9.99334901 58.9612676,9.99334901 C59.337637,9.99334901 59.7163537,9.95070418 60.091158,9.86424098 C61.3955399,9.56729269 62.5039124,8.7820814 63.2112676,7.65688578 C63.9194053,6.53051643 64.1443662,5.19248826 63.8470266,3.8892801 C63.5485134,2.58724567 62.7636933,1.48043818 61.6365415,0.773082942 C60.5093897,0.0661189108 59.1701878,-0.160406836 57.8654147,0.138106391 C56.5614241,0.435445984 55.4530516,1.22026607 54.7456964,2.34624411 C54.4632238,2.79733964 54.2570422,3.28090762 54.130673,3.78325514 L37.0176056,3.78325514 L37.0176056,1.78755866 C37.0176056,0.823161189 36.2327856,0.0395148419 35.2683881,0.0395148419 L28.7711268,0.0395148419 C27.806338,0.0395148419 27.021518,0.823161189 27.021518,1.78755866 L27.021518,3.84663537 L9.89123626,3.84663537 C9.36893586,1.64866985 7.38810642,0.00821595743 5.02934275,0.00821595743 C2.27386541,0.00821595743 0.0312989045,2.24882629 0.0312989045,5.00156495 C0.0312989045,7.75547733 2.27386541,9.99413143 5.02934275,9.99413143 C7.32081377,9.99413143 9.25625981,8.44757433 9.84389669,6.34311422 L16.4687011,6.34311422 C11.5089984,8.77816899 8.54538336,12.6044601 6.7922535,16.0254303 C4.53834116,20.4229264 3.90336461,24.7769953 3.72456964,26.8466354 L1.74921755,26.8466354 C0.784820081,26.8466354 1.13864751e-14,27.6298905 1.13864751e-14,28.594288 L1.13864751e-14,35.0852896 C1.13864751e-14,36.0489045 0.784820081,36.8321596 1.74921755,36.8321596 L8.24687013,36.8321596 C9.21126761,36.8321596 9.99608769,36.0489045 9.99608769,35.0852896 L9.99608769,28.594288 C9.99608769,27.6298905 9.21126761,26.8466354 8.24687013,26.8466354 L6.23748046,26.8466354 C6.42488268,24.9131456 7.03599374,21.0285602 9.01643197,17.163928 C10.6283256,14.0191706 12.82277,11.5183881 15.5387324,9.73043821 C18.6674491,7.6713615 22.5258216,6.54186226 27.021518,6.36815334 L27.021518,8.27856025 C27.021518,9.2421753 27.806338,10.0254303 28.7711268,10.0254303 L35.2683881,10.0254303 C36.2327856,10.0254303 37.0176056,9.2421753 37.0176056,8.27856025 L37.0176056,6.30712048 C41.478482,6.4808294 45.3094679,7.60015644 48.4205791,9.64084502 C51.1271518,11.4166666 53.3161189,13.9002347 54.9284037,17.0250391 C56.9260564,20.8986698 57.5457747,24.8321596 57.7370892,26.7840376 L55.6991393,26.7840376 C54.7343505,26.7840376 53.9495305,27.5672927 53.9495305,28.5316902 L53.9495305,35.023083 C53.9495305,35.9863067 54.7343505,36.7699531 55.6991393,36.7699531 L62.1964007,36.7699531 C63.1607981,36.7699531 63.9456181,35.9863067 63.9456181,35.023083 L63.9456181,28.5316902 C63.9456181,27.5672927 63.1607981,26.7840376 62.1964007,26.7840376 Z M56.862676,3.67449139 C57.4119718,2.79694833 58.4921752,2.34546168 59.5054773,2.56142413 C60.5015649,2.77386536 61.2723005,3.59428797 61.4397496,4.59546161 C61.6107198,5.61815336 61.1134586,6.66823161 60.2057903,7.17370892 C59.2605634,7.70070425 58.0492958,7.56025039 57.2609546,6.81494525 C56.4104069,6.01095462 56.2378717,4.66510172 56.862676,3.67449139 C57.2143975,3.11228485 56.5086072,4.235133 56.862676,3.67449139 Z M5.02934275,7.49765258 C3.65219095,7.49765258 2.53012522,6.37832553 2.53012522,5.00156495 C2.53012522,3.62480436 3.65219095,2.5050861 5.02934275,2.5050861 C6.40766818,2.5050861 7.52816896,3.62480436 7.52816896,5.00156495 C7.52816896,6.37832553 6.40766818,7.49765258 5.02934275,7.49765258 Z M7.49726137,29.3431142 L7.49726137,34.3356807 L2.49921753,34.3356807 L2.49921753,29.3431142 L7.49726137,29.3431142 Z M34.5187794,7.52895149 L29.5207355,7.52895149 L29.5207355,2.53599369 L34.5187794,2.53599369 L34.5187794,7.52895149 Z M61.4467918,34.2734742 L56.4487481,34.2734742 L56.4487481,29.2805164 L61.4467918,29.2805164 L61.4467918,34.2734742 Z" id="Shape"></path>
                <path d="M32.0223004,26.5653364 C31.3321596,26.5653364 30.7723005,26.006651 30.7723005,25.3172927 C30.7723005,24.6279342 31.3309859,24.0688576 32.0211268,24.0688576 L32.0223004,24.0688576 C32.7124413,24.0688576 33.2715179,24.6279342 33.2715179,25.3172927 C33.2715179,26.006651 32.7124413,26.5653364 32.0223004,26.5653364 L32.0223004,26.5653364 Z" id="Path"></path>
            </g>
        </g>
    </g>
</svg>