<?xml version="1.0" encoding="UTF-8"?>
<svg width="64px" height="58px" viewBox="0 0 64 58" version="1.1" xmlns="http://www.w3.org/2000/svg" xmlns:xlink="http://www.w3.org/1999/xlink">
    <!-- Generator: sketchtool 63.1 (101010) - https://sketch.com -->
    <title>BE03D7FC-343C-43F6-9361-F1C9D6F250FD</title>
    <desc>Created with sketchtool.</desc>
    <g id="Main&amp;About" stroke="none" stroke-width="1" fill="none" fill-rule="evenodd">
        <g id="-Step-1.2-Devices" transform="translate(-988.000000, -191.000000)" fill="#FFFFFF" fill-rule="nonzero">
            <g id="monitor" transform="translate(988.000000, 191.000000)">
                <path d="M57.1740359,0.0618737029 L6.64819659,0.0618737029 C2.98240033,0.0618737029 -4.14138746e-15,3.01493329 -4.14138746e-15,6.64466544 L-4.14138746e-15,41.1504645 C-4.14138746e-15,44.628325 2.98240033,47.4570748 6.64819659,47.4570748 L23.3689534,47.4570748 L20.3547408,55.3566502 L17.2848566,55.3566502 C16.550334,55.3566502 15.9555581,55.9461371 15.9555581,56.6728709 C15.9555581,57.4001674 16.550334,57.9896544 17.2848566,57.9896544 L46.5368078,57.9896544 C47.2718986,57.9896544 47.8666743,57.4001674 47.8666743,56.6728709 C47.8666743,55.9461371 47.2718986,55.3566502 46.5368078,55.3566502 L43.4674917,55.3566502 L40.4532791,47.4570748 L57.1740359,47.4570748 C60.8392639,47.4570748 63.8216644,44.628325 63.8216644,41.1504645 L63.8216644,6.64466544 C63.8216644,3.01493329 60.8392639,0.0618737029 57.1740359,0.0618737029 Z M40.623702,55.3566502 L23.1985305,55.3566502 L26.2121752,47.4570748 L37.6100574,47.4570748 L40.623702,55.3566502 Z M61.1624993,41.1504645 C61.1624993,43.1759822 59.3736272,44.8240706 57.1740359,44.8240706 L6.64819659,44.8240706 C4.44860528,44.8240706 2.65916497,43.1759822 2.65916497,41.1504645 L2.65916497,36.925058 L61.1624993,36.925058 L61.1624993,41.1504645 Z M61.1624993,34.2920537 L2.65916497,34.2920537 L2.65916497,6.64466544 C2.65916497,4.46671363 4.44860528,2.69487791 6.64819659,2.69487791 L57.1740359,2.69487791 C59.3736272,2.69487791 61.1624993,4.46671363 61.1624993,6.64466544 L61.1624993,34.2920537 Z" id="Shape"></path>
                <path d="M29.2519512,42.1910664 L34.5702813,42.1910664 C35.3053719,42.1910664 35.8995797,41.6015795 35.8995797,40.8742831 C35.8995797,40.1475492 35.3053719,39.5580622 34.5702813,39.5580622 L29.2519512,39.5580622 C28.5168606,39.5580622 27.9220847,40.1475492 27.9220847,40.8742831 C27.9220847,41.6015795 28.5168606,42.1910664 29.2519512,42.1910664 Z" id="Path"></path>
            </g>
        </g>
    </g>
</svg>