<?xml version="1.0" encoding="UTF-8"?>
<svg width="38px" height="64px" viewBox="0 0 38 64" version="1.1" xmlns="http://www.w3.org/2000/svg" xmlns:xlink="http://www.w3.org/1999/xlink">
    <!-- Generator: sketchtool 63.1 (101010) - https://sketch.com -->
    <title>8469F466-5073-4CC9-8731-CAC7C91F5D83</title>
    <desc>Created with sketchtool.</desc>
    <g id="Main&amp;About" stroke="none" stroke-width="1" fill="none" fill-rule="evenodd">
        <g id="Step-2.1-Design-level" transform="translate(-731.000000, -188.000000)" fill="#FFFFFF" fill-rule="nonzero">
            <g id="MVP" transform="translate(731.000000, 188.000000)">
                <path d="M20.3334961,59.5 L17.25,59.5 C16.5595703,59.5 16,58.9404297 16,58.25 C16,57.5595704 16.5595703,57 17.25,57 L20.3334961,57 C21.0239257,57 21.5834961,57.5595704 21.5834961,58.25 C21.5834961,58.9404297 21.0239257,59.5 20.3334961,59.5 Z" id="Path"></path>
                <path d="M31.25,0 L6.25,0 C2.80375,0 0,2.80375 0,6.25 L0,57.75 C0,61.19625 2.80375,64 6.25,64 L31.25,64 C34.69625,64 37.5,61.19625 37.5,57.75 L37.5,6.25 C37.5,2.80375 34.69625,0 31.25,0 Z M35,57.75 C35,59.81775 33.31775,61.5 31.25,61.5 L6.25,61.5 C4.18225,61.5 2.5,59.81775 2.5,57.75 L2.5,53.875 L35,53.875 L35,57.75 Z M35,51.375 L2.5,51.375 L2.5,10 L35,10 L35,51.375 Z M35,7.5 L2.5,7.5 L2.5,6.25 C2.5,4.18225 4.18225,2.5 6.25,2.5 L31.25,2.5 C33.31775,2.5 35,4.18225 35,6.25 L35,7.5 Z" id="Shape"></path>
                <path d="M28.75,15.75 L16.25,15.75 C15.559625,15.75 15,16.30975 15,17 L15,23.25 L8.75,23.25 C8.059625,23.25 7.5,23.80975 7.5,24.5 L7.5,44.5 C7.5,45.19025 8.059625,45.75 8.75,45.75 L21.25,45.75 C21.94025,45.75 22.5,45.19025 22.5,44.5 L22.5,38.25 L28.75,38.25 C29.44025,38.25 30,37.69025 30,37 L30,17 C30,16.30975 29.44025,15.75 28.75,15.75 Z M20,43.25 L10,43.25 L10,25.75 L20,25.75 L20,43.25 Z M27.5,35.75 L22.5,35.75 L22.5,24.5 C22.5,23.80975 21.94025,23.25 21.25,23.25 L17.5,23.25 L17.5,18.25 L27.5,18.25 L27.5,35.75 Z" id="Shape"></path>
            </g>
        </g>
    </g>
</svg>