<?xml version="1.0" encoding="UTF-8"?>
<svg width="114px" height="54px" viewBox="0 0 114 54" version="1.1" xmlns="http://www.w3.org/2000/svg" xmlns:xlink="http://www.w3.org/1999/xlink">
    <!-- Generator: sketchtool 63.1 (101010) - https://sketch.com -->
    <title>59B590A9-D197-4C4B-AC2C-0B3FE754AE6D</title>
    <desc>Created with sketchtool.</desc>
    <g id="Main&amp;About" stroke="none" stroke-width="1" fill="none" fill-rule="evenodd">
        <g id="Step-1.1-CCS-Calculator-" transform="translate(-423.000000, -180.000000)" fill="#FFFFFF" fill-rule="nonzero">
            <g id="Native-app" transform="translate(423.000000, 180.000000)">
                <g id="apple">
                    <path d="M34.012589,1.44185845 C33.8848813,0.571429224 33.1186347,-0.0738310502 32.2314018,0.00682648402 C29.122726,0.225273973 25.6006804,2.14089041 23.4733379,4.76898174 C21.1577945,7.61888128 20.0991644,11.1106804 20.6436027,14.1118128 C20.7847534,14.8915023 21.4535388,15.4661872 22.2433105,15.4930731 C22.3340502,15.4964338 22.4214292,15.4964338 22.5121689,15.4964338 C25.7082237,15.4964338 29.1193653,13.7085251 31.2702329,10.8855114 C33.4681507,8.02216895 34.4662877,4.58078082 34.012589,1.44185845 Z M28.6018128,8.84554795 L28.5984521,8.84890868 C27.402032,10.4183699 25.6342877,11.5610183 23.883347,11.9710274 C24.0446621,10.0453288 25.0394384,8.16668037 26.0812648,6.88624201 C27.2205525,5.48145662 28.9950183,4.30184018 30.7291553,3.72379452 C30.4972648,6.10655251 29.2336301,8.02552968 28.6018128,8.84554795 Z" id="Shape"></path>
                    <path d="M45.8457215,38.0267717 C45.6676027,37.5999589 45.3281689,37.2706073 44.8979954,37.1025708 C41.4834932,35.7851644 39.1914749,32.6260776 38.9259772,28.8553379 C38.6672009,25.1518128 40.4383059,21.8650183 43.667968,20.0636667 C44.0981416,19.8250548 44.403968,19.4116849 44.4980685,18.9277397 C44.5921689,18.4437945 44.4745434,17.9430457 44.1687169,17.5565616 C41.3288995,13.9572192 37.2758584,11.8063516 33.327,11.8063516 C30.5779224,11.8063516 28.648863,12.5490731 27.0962055,13.1472831 C25.8997854,13.6077032 24.9587808,13.9706621 23.8598219,13.9706621 C22.6297945,13.9706621 21.4770639,13.5505708 20.1428539,13.0666256 C18.5229817,12.4784977 16.6846621,11.8130731 14.365758,11.8130731 C9.88590411,11.8130731 5.35563927,14.5487078 2.54270776,18.9512648 C-1.67836986,25.5752648 -0.478589041,36.9916667 5.39932877,46.0958858 C7.69134703,49.6515388 10.8874018,53.7381872 15.3269269,53.778516 C15.3538128,53.778516 15.3840594,53.778516 15.4143059,53.778516 C17.2526256,53.778516 18.5229817,53.2004703 19.6454658,52.693 C20.8183607,52.1620046 21.9240411,51.657895 23.9135936,51.6444521 C25.8023242,51.5873196 26.9819406,52.1384795 28.1279498,52.6728356 C29.2470731,53.1971096 30.5510365,53.7617123 32.3994384,53.7684338 C36.7179772,53.7348265 39.9207534,49.6717032 42.4849909,45.6993196 C44.0376484,43.2930365 44.6358584,42.0462055 45.8289178,39.3508995 C46.0171187,38.9308082 46.0238402,38.4502237 45.8457215,38.0267717 Z M39.6653379,43.8778037 C37.7093927,46.9091826 35.1115479,50.3875388 32.3725525,50.4110639 C31.2971187,50.3875388 30.5375936,50.0917945 29.5528995,49.6313744 C28.2556575,49.0264429 26.6257032,48.3240502 23.89679,48.2904429 C21.1880411,48.3038858 19.5648082,49.0398858 18.257484,49.6347352 C17.2391826,50.0917945 16.5031826,50.3539315 15.3571735,50.4177854 C12.5240776,50.3908995 10.0573014,47.1242694 8.22234247,44.2743699 C2.39147489,35.240726 2.40155708,25.4173105 5.37244292,20.7593379 C7.57372146,17.314589 11.0184703,15.1738037 14.3623973,15.1738037 C16.0898128,15.1738037 17.5013196,15.6879954 19.0002055,16.2290731 C20.4957306,16.7701507 22.0416667,17.3313927 23.8631826,17.3313927 C25.5838767,17.3313927 26.9684977,16.7970365 28.3060685,16.2828447 C29.7310183,15.7350457 31.2030183,15.1670822 33.3303607,15.1670822 C35.746726,15.1670822 38.2571918,16.3063699 40.300516,18.2791187 C37.0103607,20.8500776 35.2695023,24.761968 35.5753288,29.0939498 C35.8912374,33.5704429 38.3378493,37.4151187 42.0884247,39.4920502 C41.3490639,41.0984795 40.7811005,42.1470274 39.6653379,43.8778037 Z" id="Shape"></path>
                </g>
                <g id="android-(1)" transform="translate(70.000000, 0.000000)">
                    <path d="M32.6109474,7.79705263 C29.7141053,4.944 25.9077895,3.37094737 21.896,3.37094737 C13.5389474,3.37094737 6.73810526,10.1717895 6.73810526,18.5288421 L6.73810526,42.1077895 C6.73810526,43.0374737 7.49263158,43.792 8.42231579,43.792 L11.7907368,43.792 C12.7204211,43.792 13.4749474,43.0374737 13.4749474,42.1077895 C13.4749474,41.1781053 12.7204211,40.4235789 11.7907368,40.4235789 L10.1065263,40.4235789 L10.1065263,18.5288421 C10.1065263,12.0277895 15.3949474,6.73936842 21.896,6.73936842 C25.0185263,6.73936842 27.9861053,7.96547368 30.2294737,10.1785263 C32.4593684,12.4387368 33.6854737,15.4029474 33.6854737,18.5288421 L33.6854737,40.4235789 L32.0012632,40.4235789 C31.0715789,40.4235789 30.3170526,41.1781053 30.3170526,42.1077895 C30.3170526,43.0374737 31.0715789,43.792 32.0012632,43.792 L35.3696842,43.792 C36.2993684,43.792 37.0538947,43.0374737 37.0538947,42.1077895 L37.0538947,18.5288421 C37.0538947,14.5136842 35.4808421,10.7073684 32.6109474,7.79705263 Z" id="Path"></path>
                    <path d="M25.2644211,40.4235789 L18.5275789,40.4235789 C17.5978947,40.4235789 16.8433684,41.1781053 16.8433684,42.1077895 C16.8433684,43.0374737 17.5978947,43.792 18.5275789,43.792 L25.2644211,43.792 C26.1941053,43.792 26.9486316,43.0374737 26.9486316,42.1077895 C26.9486316,41.1781053 26.1941053,40.4235789 25.2644211,40.4235789 Z" id="Path"></path>
                    <path d="M18.5275789,40.4235789 C17.5978947,40.4235789 16.8433684,41.1781053 16.8433684,42.1077895 L16.8433684,48.8446316 C16.8433684,49.7709474 16.0888421,50.5288421 15.1591579,50.5288421 C14.2294737,50.5288421 13.4749474,49.7709474 13.4749474,48.8446316 L13.4749474,42.1077895 C13.4749474,41.1781053 12.7204211,40.4235789 11.7907368,40.4235789 C10.8610526,40.4235789 10.1065263,41.1781053 10.1065263,42.1077895 L10.1065263,48.8446316 C10.1065263,51.6303158 12.3734737,53.8972632 15.1591579,53.8972632 C17.9448421,53.8972632 20.2117895,51.6303158 20.2117895,48.8446316 L20.2117895,42.1077895 C20.2117895,41.1781053 19.4572632,40.4235789 18.5275789,40.4235789 Z" id="Path"></path>
                    <path d="M32.0012632,40.4235789 C31.0715789,40.4235789 30.3170526,41.1781053 30.3170526,42.1077895 L30.3170526,48.8446316 C30.3170526,49.7709474 29.5591579,50.5288421 28.6328421,50.5288421 C27.7065263,50.5288421 26.9486316,49.7709474 26.9486316,48.8446316 L26.9486316,42.1077895 C26.9486316,41.1781053 26.1941053,40.4235789 25.2644211,40.4235789 C24.3347368,40.4235789 23.5802105,41.1781053 23.5802105,42.1077895 L23.5802105,48.8446316 C23.5802105,51.6303158 25.8471579,53.8972632 28.6328421,53.8972632 C31.4185263,53.8972632 33.6854737,51.6303158 33.6854737,48.8446316 L33.6854737,42.1077895 C33.6854737,41.1781053 32.9309474,40.4235789 32.0012632,40.4235789 Z" id="Path"></path>
                    <path d="M1.68547368,16.8446316 C0.755789474,16.8446316 0.00126315789,17.5991579 0.00126315789,18.5288421 L0.00126315789,35.3709474 C0.00126315789,36.3006316 0.755789474,37.0551579 1.68547368,37.0551579 C2.61515789,37.0551579 3.36968421,36.3006316 3.36968421,35.3709474 L3.36968421,18.5288421 C3.36968421,17.5991579 2.61515789,16.8446316 1.68547368,16.8446316 Z" id="Path"></path>
                    <path d="M42.1065263,16.8446316 C41.1768421,16.8446316 40.4223158,17.5991579 40.4223158,18.5288421 L40.4223158,35.3709474 C40.4223158,36.3006316 41.1768421,37.0551579 42.1065263,37.0551579 C43.0362105,37.0551579 43.7907368,36.3006316 43.7907368,35.3709474 L43.7907368,18.5288421 C43.7907368,17.5991579 43.0362105,16.8446316 42.1065263,16.8446316 Z" id="Path"></path>
                    <path d="M35.3696842,16.8446316 L8.42231579,16.8446316 C7.49263158,16.8446316 6.73810526,17.5991579 6.73810526,18.5288421 C6.73810526,19.4585263 7.49263158,20.2130526 8.42231579,20.2130526 L35.3696842,20.2130526 C36.2993684,20.2130526 37.0538947,19.4585263 37.0538947,18.5288421 C37.0538947,17.5991579 36.2993684,16.8446316 35.3696842,16.8446316 Z" id="Path"></path>
                    <path d="M14.2833684,7.64547368 L9.83705263,0.773894737 C9.33178947,-0.0109473684 8.28757895,-0.233263158 7.50947368,0.272 C6.728,0.777263158 6.50231579,1.82147368 7.00757895,2.59957895 L11.4538947,9.47115789 C11.7738947,9.96968421 12.3162105,10.2425263 12.8686316,10.2425263 C13.1852632,10.2425263 13.4985263,10.1549474 13.7814737,9.97305263 C14.5629474,9.46778947 14.7886316,8.42357895 14.2833684,7.64547368 Z" id="Path"></path>
                    <path d="M36.2218947,0.231578947 C35.4303158,-0.236631579 34.3894737,0.0261052632 33.9178947,0.831157895 L29.7410526,7.93852632 C29.2694737,8.74357895 29.5389474,9.77431579 30.3406316,10.2458947 C30.6067368,10.4042105 30.8997895,10.4783158 31.1928421,10.4783158 C31.7688421,10.4783158 32.3313684,10.1785263 32.6446316,9.64631579 L36.8214737,2.53894737 C37.2930526,1.73389474 37.0235789,0.703157895 36.2218947,0.231578947 Z" id="Path"></path>
                    <path d="M25.3317895,10.1077895 L25.2981053,10.1077895 C24.3650526,10.1077895 23.6307368,10.8623158 23.6307368,11.792 C23.6307368,12.7216842 24.4021053,13.4762105 25.3317895,13.4762105 C26.2614737,13.4762105 27.016,12.7216842 27.016,11.792 C27.016,10.8623158 26.2614737,10.1077895 25.3317895,10.1077895 Z" id="Path"></path>
                    <path d="M18.5949474,10.1077895 L18.5612632,10.1077895 C17.6315789,10.1077895 16.8938947,10.8623158 16.8938947,11.792 C16.8938947,12.7216842 17.6652632,13.4762105 18.5949474,13.4762105 C19.5246316,13.4762105 20.2791579,12.7216842 20.2791579,11.792 C20.2791579,10.8623158 19.5246316,10.1077895 18.5949474,10.1077895 Z" id="Path"></path>
                </g>
            </g>
        </g>
    </g>
</svg>