<?xml version="1.0" encoding="UTF-8"?>
<svg width="64px" height="64px" viewBox="0 0 64 64" version="1.1" xmlns="http://www.w3.org/2000/svg" xmlns:xlink="http://www.w3.org/1999/xlink">
    <!-- Generator: sketchtool 63.1 (101010) - https://sketch.com -->
    <title>3B7BAE17-E410-487F-A068-0CF6E8936522</title>
    <desc>Created with sketchtool.</desc>
    <g id="Main&amp;About" stroke="none" stroke-width="1" fill="none" fill-rule="evenodd">
        <g id="Step--3.1--Sign-in-" transform="translate(-988.000000, -378.000000)" fill="#FFFFFF" fill-rule="nonzero">
            <g id="no-sign-up" transform="translate(988.000000, 378.000000)">
                <path d="M54.6275,9.3725 C48.583375,3.328625 40.547625,0 32,0 C23.452375,0 15.416625,3.328625 9.3725,9.3725 C3.3285,15.4165 0,23.452375 0,32 C0,40.547625 3.328625,48.583375 9.3725,54.6275 C15.4165,60.6715 23.452375,64 32,64 C40.547625,64 48.583375,60.671375 54.6275,54.6275 C60.6715,48.5835 64,40.547625 64,32 C64,23.452375 60.671375,15.416625 54.6275,9.3725 Z M32,61.5385 C15.7125,61.5385 2.4615,48.2875 2.4615,32 C2.4615,15.7125 15.7125,2.4615 32,2.4615 C48.2875,2.4615 61.5385,15.7125 61.5385,32 C61.5385,48.2875 48.2875,61.5385 32,61.5385 Z" id="Shape"></path>
                <path d="M55.692,21.654375 L55.68225,21.632375 C55.411375,21.009 54.68625,20.723375 54.062875,20.994125 C53.4395,21.265 53.15375,21.989875 53.424625,22.6135 L53.441375,22.65175 C53.645,23.111125 54.09525,23.384125 54.56725,23.384125 C54.733875,23.384125 54.903125,23.350125 55.06525,23.27825 C55.686875,23.002875 55.967375,22.275875 55.692,21.654375 Z" id="Path"></path>
                <path d="M54.092125,18.578125 C51.304375,13.998875 47.24025,10.4465 42.33925,8.305125 C41.716125,8.033125 40.99075,8.31725 40.71875,8.94025 C40.446625,9.563125 40.731,10.288625 41.353875,10.56075 C45.788875,12.4985 49.466625,15.713375 51.989875,19.858125 C52.221625,20.23875 52.626875,20.449 53.04225,20.449 C53.260375,20.449 53.481125,20.391 53.681125,20.26925 C54.2615,19.916 54.445625,19.15875 54.092125,18.578125 Z" id="Path"></path>
                <path d="M33.740625,32 L41.573125,24.1675 C42.05375,23.686875 42.05375,22.907625 41.573125,22.426875 C41.0925,21.946375 40.313125,21.946375 39.8325,22.426875 L32,30.259375 L24.1675,22.426875 C23.686875,21.946375 22.907625,21.946375 22.426875,22.426875 C21.94625,22.9075 21.94625,23.686875 22.426875,24.1675 L30.259375,32 L22.426875,39.8325 C21.94625,40.313125 21.94625,41.092375 22.426875,41.573125 C22.66725,41.813375 22.98225,41.933625 23.297125,41.933625 C23.612125,41.933625 23.927125,41.813375 24.167375,41.573125 L32,33.740625 L39.8325,41.573125 C40.072875,41.813375 40.387875,41.933625 40.70275,41.933625 C41.017625,41.933625 41.33275,41.813375 41.573,41.573125 C42.053625,41.0925 42.053625,40.313125 41.573,39.8325 L33.740625,32 Z" id="Path"></path>
            </g>
        </g>
    </g>
</svg>