<?xml version="1.0" encoding="UTF-8"?>
<svg width="34px" height="64px" viewBox="0 0 34 64" version="1.1" xmlns="http://www.w3.org/2000/svg" xmlns:xlink="http://www.w3.org/1999/xlink">
    <!-- Generator: sketchtool 63.1 (101010) - https://sketch.com -->
    <title>5AF94E11-E93C-4155-AFBD-8B07DED4A066</title>
    <desc>Created with sketchtool.</desc>
    <g id="Main&amp;About" stroke="none" stroke-width="1" fill="none" fill-rule="evenodd">
        <g id="Step-2.1-Design-level" transform="translate(-463.000000, -187.000000)" fill="#FFFFFF" fill-rule="nonzero">
            <g id="not-required" transform="translate(463.000000, 187.000000)">
                <path d="M32.485,16.905625 C33.2695,16.905625 33.905625,16.269625 33.905625,15.485 L33.905625,6.836125 C33.905625,3.06675 30.838875,0 27.0695,0 L6.9305,0 C3.161125,0 0.094375,3.06675 0.094375,6.836125 L0.094375,57.163875 C0.094375,60.93325 3.161125,64 6.9305,64 L27.0695,64 C30.838875,64 33.905625,60.93325 33.905625,57.163875 L33.905625,24.3995 C33.905625,23.614875 33.2695,22.978875 32.485,22.978875 C31.7005,22.978875 31.064375,23.614875 31.064375,24.3995 L31.064375,47.485 L2.935625,47.485 L2.935625,12.395125 L31.064375,12.395125 L31.064375,15.485 C31.064375,16.269625 31.7005,16.905625 32.485,16.905625 Z M31.064375,50.32625 L31.064375,57.16375 C31.064375,59.366625 29.272375,61.158625 27.0695,61.158625 L6.9305,61.158625 C4.727625,61.158625 2.935625,59.366625 2.935625,57.16375 L2.935625,50.32625 L31.064375,50.32625 Z M2.935625,9.553875 L2.935625,6.836125 C2.935625,4.63325 4.727625,2.84125 6.9305,2.84125 L27.0695,2.84125 C29.272375,2.84125 31.064375,4.63325 31.064375,6.836125 L31.064375,9.553875 L2.935625,9.553875 Z" id="Shape"></path>
                <path d="M32.485,18.354 C31.7005,18.354 31.064375,18.99 31.064375,19.774625 L31.064375,20.45725 C31.064375,21.241875 31.7005,21.877875 32.485,21.877875 C33.2695,21.877875 33.905625,21.241875 33.905625,20.45725 L33.905625,19.774625 C33.905625,18.99 33.2695,18.354 32.485,18.354 Z" id="Path"></path>
                <path d="M20.551625,4.723625 L13.448375,4.723625 C12.663875,4.723625 12.02775,5.359625 12.02775,6.14425 C12.02775,6.928875 12.663875,7.564875 13.448375,7.564875 L20.551625,7.564875 C21.336125,7.564875 21.97225,6.928875 21.97225,6.14425 C21.97225,5.359625 21.336125,4.723625 20.551625,4.723625 Z" id="Path"></path>
                <path d="M18.3334961,57.5 L15.25,57.5 C14.5595703,57.5 14,56.9404297 14,56.25 C14,55.5595704 14.5595703,55 15.25,55 L18.3334961,55 C19.0239258,55 19.5834961,55.5595704 19.5834961,56.25 C19.5834961,56.9404297 19.0239258,57.5 18.3334961,57.5 Z" id="Path"></path>
            </g>
        </g>
    </g>
</svg>