<?xml version="1.0" encoding="UTF-8"?>
<svg width="60px" height="60px" viewBox="0 0 60 60" version="1.1" xmlns="http://www.w3.org/2000/svg" xmlns:xlink="http://www.w3.org/1999/xlink">
    <!-- Generator: sketchtool 63.1 (101010) - https://sketch.com -->
    <title>37377C06-4B1B-494E-BC2E-27BABF189C40</title>
    <desc>Created with sketchtool.</desc>
    <g id="Main&amp;About" stroke="none" stroke-width="1" fill="none" fill-rule="evenodd">
        <g id="Step-2.2-Related-services" transform="translate(-990.000000, -189.000000)" fill="#FFFFFF" fill-rule="nonzero">
            <g id="palette" transform="translate(990.000000, 189.000000)">
                <path d="M30.4071094,55.2633984 L34.1663672,55.2633984 C36.3550781,55.2633984 38.135625,53.4827344 38.135625,51.2940234 L38.135625,47.495625 C38.135625,45.3070313 36.3550781,43.5263672 34.1663672,43.5263672 L30.4071094,43.5263672 C28.2183984,43.5263672 26.4378516,45.3070313 26.4378516,47.495625 L26.4378516,51.2940234 C26.4378516,53.4827344 28.2183984,55.2633984 30.4071094,55.2633984 Z M28.1956641,47.4957422 C28.1956641,46.2764063 29.1876562,45.2842969 30.4071094,45.2842969 L34.1663672,45.2842969 C35.3858203,45.2842969 36.3778125,46.2764063 36.3778125,47.4957422 L36.3778125,51.2941406 C36.3778125,52.5135938 35.3858203,53.5057031 34.1663672,53.5057031 L30.4071094,53.5057031 C29.1876562,53.5057031 28.1956641,52.5135938 28.1956641,51.2941406 L28.1956641,47.4957422 Z" id="Shape"></path>
                <path d="M12.5042578,4.73660156 L8.70597656,4.73660156 C6.51726562,4.73660156 4.73660156,6.51726562 4.73660156,8.70597656 L4.73660156,12.4652344 C4.73660156,14.6539453 6.51726562,16.4346094 8.70597656,16.4346094 L12.5042578,16.4346094 C14.6929688,16.4346094 16.4736328,14.6539453 16.4736328,12.4652344 L16.4736328,8.70597656 C16.4736328,6.51726563 14.6929688,4.73660156 12.5042578,4.73660156 L12.5042578,4.73660156 Z M14.7158203,12.4652344 C14.7158203,13.6846875 13.7237109,14.6767969 12.5042578,14.6767969 L8.70597656,14.6767969 C7.48652344,14.6767969 6.49441406,13.6846875 6.49441406,12.4652344 L6.49441406,8.70597656 C6.49441406,7.48652344 7.48652344,6.49441406 8.70597656,6.49441406 L12.5042578,6.49441406 C13.7237109,6.49441406 14.7158203,7.48652344 14.7158203,8.70597656 L14.7158203,12.4652344 Z" id="Shape"></path>
                <path d="M4.73660156,29.5930078 C4.73660156,31.7816016 6.51726562,33.5622656 8.70597656,33.5622656 L12.5042578,33.5622656 C14.6929688,33.5622656 16.4736328,31.7816016 16.4736328,29.5930078 L16.4736328,25.83375 C16.4736328,23.6450391 14.6929688,21.864375 12.5042578,21.864375 L8.70597656,21.864375 C6.51726562,21.864375 4.73660156,23.6450391 4.73660156,25.83375 L4.73660156,29.5930078 Z M6.49441406,25.83375 C6.49441406,24.6142969 7.48652344,23.6221875 8.70597656,23.6221875 L12.5042578,23.6221875 C13.7237109,23.6221875 14.7158203,24.6142969 14.7158203,25.83375 L14.7158203,29.5930078 C14.7158203,30.8124609 13.7237109,31.8044531 12.5042578,31.8044531 L8.70597656,31.8044531 C7.48652344,31.8044531 6.49441406,30.8124609 6.49441406,29.5930078 L6.49441406,25.83375 Z" id="Shape"></path>
                <path d="M45.6046875,22.6946484 L48.2628516,20.0363672 C49.8140625,18.4851562 49.8142969,15.9744141 48.2628516,14.4229687 L45.5770313,11.7371484 C44.0258203,10.1859375 41.5149609,10.1857031 39.9636328,11.7371484 L37.3053516,14.3953125 C35.7577734,15.9430078 35.7577734,18.4611328 37.3053516,20.0087109 L39.9911719,22.6945313 C41.5423828,24.2458594 44.0532422,24.2460938 45.6046875,22.6946484 L45.6046875,22.6946484 Z M38.5483594,15.6383203 L41.2066406,12.9801562 C42.0708984,12.1158984 43.4697656,12.1157812 44.3341406,12.9801562 L47.0199609,15.6659766 C47.8842188,16.5302344 47.8843359,17.9291016 47.0199609,18.7934766 L44.3617969,21.4517578 C43.4973047,22.3161328 42.0986719,22.3160156 41.2342969,21.4517578 L38.5484766,18.7659375 C37.6860938,17.9035547 37.6860938,16.5005859 38.5483594,15.6383203 L38.5483594,15.6383203 Z" id="Shape"></path>
                <path d="M33.4658203,23.8483594 C31.9149609,22.2972656 29.40375,22.2967969 27.8524219,23.8483594 L25.1941406,26.5066406 C23.6464453,28.0543359 23.6465625,30.5724609 25.1941406,32.1200391 L27.8799609,34.8058594 C29.4309375,36.3569531 31.9419141,36.3573047 33.4933594,34.8058594 L36.1515234,32.1475781 C37.7027344,30.5963672 37.7029687,28.0855078 36.1515234,26.5341797 L33.4658203,23.8483594 Z M34.90875,30.9046875 L32.2505859,33.5628516 C31.3863281,34.4271094 29.9874609,34.4272266 29.1230859,33.5628516 L26.4372656,30.8770313 C25.575,30.0147656 25.575,28.6117969 26.4372656,27.7495313 L29.0955469,25.0913672 C29.9598047,24.2271094 31.3586719,24.2269922 32.2230469,25.0913672 L34.9088672,27.7771875 C35.7728906,28.6413281 35.773125,30.0403125 34.90875,30.9046875 L34.90875,30.9046875 Z" id="Shape"></path>
                <path d="M47.5348828,55.2633984 L51.2941406,55.2633984 C53.4828516,55.2633984 55.2635156,53.4827344 55.2635156,51.2940234 L55.2635156,47.495625 C55.2635156,45.3070313 53.4828516,43.5263672 51.2941406,43.5263672 L47.5348828,43.5263672 C45.3461719,43.5263672 43.5655078,45.3070313 43.5655078,47.495625 L43.5655078,51.2940234 C43.5655078,53.4827344 45.3461719,55.2633984 47.5348828,55.2633984 Z M45.3233203,47.4957422 C45.3233203,46.2764063 46.3154297,45.2842969 47.5348828,45.2842969 L51.2941406,45.2842969 C52.5135937,45.2842969 53.5057031,46.2764063 53.5057031,47.4957422 L53.5057031,51.2941406 C53.5057031,52.5135938 52.5135937,53.5057031 51.2941406,53.5057031 L47.5348828,53.5057031 C46.3154297,53.5057031 45.3233203,52.5135938 45.3233203,51.2941406 L45.3233203,47.4957422 Z" id="Shape"></path>
                <path d="M7.03488281,51.8221875 C7.03488281,53.7908203 8.63648437,55.3924219 10.6051172,55.3924219 C12.57375,55.3924219 14.1753516,53.7908203 14.1753516,51.8221875 C14.1753516,49.8535547 12.57375,48.2519531 10.6051172,48.2519531 C8.63648437,48.2519531 7.03488281,49.8535547 7.03488281,51.8221875 L7.03488281,51.8221875 Z M10.6051172,50.0097656 C11.6044922,50.0097656 12.4175391,50.8228125 12.4175391,51.8221875 C12.4175391,52.8215625 11.6044922,53.6346094 10.6051172,53.6346094 C9.60574219,53.6346094 8.79269531,52.8215625 8.79269531,51.8221875 C8.79269531,50.8228125 9.60574219,50.0097656 10.6051172,50.0097656 Z" id="Shape"></path>
                <path d="M10.6051172,60 L54.4866797,60 C57.5267578,60 60,57.5267578 60,54.4866797 L60,44.3033203 C60,41.2632422 57.5267578,38.7898828 54.4866797,38.7898828 L36.208125,38.7898828 L42.4040625,32.5939453 C42.7473047,32.2507031 42.7473047,31.6941797 42.4040625,31.3510547 C42.0608203,31.0078125 41.5042969,31.0078125 41.1611719,31.3510547 L33.7223438,38.7898828 L21.2102344,38.7898828 L21.2102344,26.2778906 L40.1146875,7.37332031 C41.5789453,5.9090625 43.9616016,5.9090625 45.4258594,7.37332031 L52.6265625,14.5741406 C54.0942188,16.0417969 54.0943359,18.4174219 52.6265625,19.8853125 L43.6263281,28.8855469 C43.2830859,29.2287891 43.2830859,29.7853125 43.6263281,30.1284375 C43.9695703,30.4716797 44.5260938,30.4716797 44.8692188,30.1284375 L53.8694531,21.1282031 C56.0239453,18.9738281 56.0244141,15.4859766 53.8694531,13.3311328 L46.66875,6.1303125 C44.5141406,3.97570312 41.0265234,3.97546875 38.8716797,6.1303125 L21.2102344,23.7919922 L21.2102344,5.5134375 C21.2102344,2.47324219 18.736875,-9.99200722e-15 15.6967969,-9.99200722e-15 L5.5134375,-9.99200722e-15 C2.47324219,-9.99200722e-15 0,2.47324219 0,5.5134375 L0,17.6146875 C0,18.1000781 0.393515625,18.4935937 0.87890625,18.4935937 C1.36429687,18.4935937 1.7578125,18.1000781 1.7578125,17.6146875 L1.7578125,5.5134375 C1.7578125,3.4425 3.4425,1.7578125 5.5134375,1.7578125 L15.6967969,1.7578125 C17.7676172,1.7578125 19.4523047,3.4425 19.4523047,5.5134375 L19.4523047,39.6686719 L19.4523047,49.3948828 C19.4523047,54.2732812 15.4833984,58.2421875 10.605,58.2421875 C5.72671875,58.2421875 1.7578125,54.2732812 1.7578125,49.3948828 L1.7578125,21.1303125 C1.7578125,20.6449219 1.36429687,20.2514062 0.87890625,20.2514062 C0.393515625,20.2514062 0,20.6449219 0,21.1303125 L0,49.3948828 C0,55.2425391 4.75746094,60 10.6051172,60 L10.6051172,60 Z M54.4866797,40.5475781 C56.5575,40.5475781 58.2421875,42.2322656 58.2421875,44.3032031 L58.2421875,54.4865625 C58.2421875,56.5575 56.5575,58.2421875 54.4866797,58.2421875 L16.4470312,58.2421875 C19.3379297,56.3292187 21.2102344,53.0557031 21.2102344,49.3948828 L21.2102344,40.5475781 L54.4866797,40.5475781 Z" id="Shape"></path>
            </g>
        </g>
    </g>
</svg>