<?xml version="1.0" encoding="UTF-8"?>
<svg width="64px" height="53px" viewBox="0 0 64 53" version="1.1" xmlns="http://www.w3.org/2000/svg" xmlns:xlink="http://www.w3.org/1999/xlink">
    <!-- Generator: sketchtool 63.1 (101010) - https://sketch.com -->
    <title>F9247691-BBD6-4673-A679-43D98FF0C101</title>
    <desc>Created with sketchtool.</desc>
    <g id="Main&amp;About" stroke="none" stroke-width="1" fill="none" fill-rule="evenodd">
        <g id="Step-4.1-major-feautures" transform="translate(-448.000000, -195.000000)" fill="#FFFFFF" fill-rule="nonzero">
            <g id="payment" transform="translate(448.000000, 195.000000)">
                <path d="M34.0668382,36.1976764 L51.1001949,36.1976764 C51.7389474,36.1976764 52.1647407,35.771883 52.1647407,35.1331306 L52.1647407,25.5518441 C52.1647407,24.9130916 51.7389474,24.4872982 51.1001949,24.4872982 L34.0668382,24.4872982 C33.4280858,24.4872982 33.0022924,24.9130916 33.0022924,25.5518441 L33.0022924,35.1331306 C33.0022924,35.7717583 33.4280858,36.1976764 34.0668382,36.1976764 Z M35.131384,26.6163899 L50.0356491,26.6163899 L50.0356491,34.06846 L35.131384,34.06846 L35.131384,26.6163899 Z" id="Shape"></path>
                <path d="M5.32297856,22.3579571 L13.8397193,22.3579571 C14.4784717,22.3579571 14.9042651,21.9321637 14.9042651,21.2934113 C14.9042651,20.6546589 14.4784717,20.2288655 13.8397193,20.2288655 L5.32297856,20.2288655 C4.68422612,20.2288655 4.25843275,20.6546589 4.25843275,21.2934113 C4.25843275,21.9321637 4.68422612,22.3579571 5.32297856,22.3579571 Z" id="Path"></path>
                <path d="M18.0980273,22.3579571 L26.614768,22.3579571 C27.2535205,22.3579571 27.6793138,21.9321637 27.6793138,21.2934113 C27.6793138,20.6546589 27.2535205,20.2288655 26.614768,20.2288655 L18.0980273,20.2288655 C17.4592749,20.2288655 17.0334815,20.6546589 17.0334815,21.2934113 C17.0334815,21.9321637 17.4592749,22.3579571 18.0980273,22.3579571 Z" id="Path"></path>
                <path d="M5.32297856,26.6163899 L19.1625731,26.6163899 C19.8013255,26.6163899 20.2271189,26.1905965 20.2271189,25.5518441 C20.2271189,24.9130916 19.8013255,24.4872982 19.1625731,24.4872982 L5.32297856,24.4872982 C4.68422612,24.4872982 4.25843275,24.9130916 4.25843275,25.5518441 C4.25843275,26.1905965 4.68422612,26.6163899 5.32297856,26.6163899 Z" id="Path"></path>
                <path d="M26.6146433,24.4871735 L23.4208811,24.4871735 C22.7821287,24.4871735 22.3563353,24.9129669 22.3563353,25.5517193 C22.3563353,26.1904717 22.7821287,26.6162651 23.4208811,26.6162651 L26.6146433,26.6162651 C27.2533957,26.6162651 27.6791891,26.1904717 27.6791891,25.5517193 C27.6791891,24.9129669 27.2533957,24.4871735 26.6146433,24.4871735 Z" id="Path"></path>
                <path d="M62.917115,11.2863314 C62.1719454,10.3282027 61.2138168,9.79586745 60.042729,9.68945029 L57.4877193,9.37980507 L57.4877193,6.3891462 L57.4877193,4.26005458 C57.4877193,1.9180039 55.571462,0.00174658869 53.2294113,0.00174658869 L4.25830799,0.00174658869 C1.91625731,0.00174658869 0,1.91787914 0,4.26005458 L0,6.38927096 L0,14.9060117 L0,38.3268928 C0,40.2497622 1.29210136,41.884694 3.05066667,42.4086706 C2.99702144,44.5622144 4.62646394,46.4318129 6.8134425,46.6306745 L55.9973801,52.1664873 C56.1037973,52.1664873 56.3167563,52.1664873 56.4231735,52.1664873 C58.5523899,52.1664873 60.4686472,50.5696062 60.6814815,48.5469318 L63.8752437,14.3736764 C63.9816608,13.3090058 63.6622846,12.1379181 62.917115,11.2863314 Z M2.12921637,7.45381676 L55.3586277,7.45381676 L55.3586277,10.2217856 L55.3586277,13.8413411 L2.12921637,13.8413411 L2.12921637,7.45381676 Z M4.25830799,2.13083821 L53.2292865,2.13083821 C54.4003743,2.13083821 55.3585029,3.08896686 55.3585029,4.26005458 L55.3585029,5.32460039 L2.12921637,5.32460039 L2.12921637,4.26005458 C2.12921637,3.08896686 3.08734503,2.13083821 4.25830799,2.13083821 Z M2.12921637,38.326768 L2.12921637,15.9704327 L55.3586277,15.9704327 L55.3586277,38.326768 C55.3586277,39.4978558 54.400499,40.4559844 53.2294113,40.4559844 L4.3648499,40.4559844 L4.25843275,40.4559844 C3.08734503,40.4559844 2.12921637,39.4978558 2.12921637,38.326768 Z M61.7460273,13.9477583 L58.5522651,48.1210136 C58.445848,49.2921014 57.3811774,50.1436881 56.2102144,50.037271 L7.13269396,44.5014581 C6.06814815,44.3950409 5.3228538,43.5433294 5.21643665,42.5852008 L53.2292865,42.5852008 C55.5713372,42.5852008 57.4875945,40.6689435 57.4875945,38.3268928 L57.4875945,14.9058869 L57.4875945,11.3927485 L59.9361871,11.6057076 C60.4685224,11.6057076 61.0007329,11.9250838 61.3201092,12.3508772 C61.6396101,12.7766706 61.8525692,13.415423 61.7460273,13.9477583 Z" id="Shape"></path>
            </g>
        </g>
    </g>
</svg>