<?xml version="1.0" encoding="UTF-8"?>
<svg width="64px" height="57px" viewBox="0 0 64 57" version="1.1" xmlns="http://www.w3.org/2000/svg" xmlns:xlink="http://www.w3.org/1999/xlink">
    <!-- Generator: sketchtool 63.1 (101010) - https://sketch.com -->
    <title>4360A3BE-A432-4CF2-9682-C92670863EFE</title>
    <desc>Created with sketchtool.</desc>
    <g id="Main&amp;About" stroke="none" stroke-width="1" fill="none" fill-rule="evenodd">
        <g id="Step-7.-Testing-and-project-management--" transform="translate(-448.000000, -192.000000)" fill="#FFFFFF" fill-rule="nonzero">
            <g id="PM" transform="translate(448.000000, 192.000000)">
                <g id="Group" transform="translate(9.000000, 0.000000)">
                    <path d="M3.554625,4.920875 C3.23425,4.920875 2.914125,4.7985 2.67,4.553875 L0.371875,2.251625 C-0.115875,1.763 -0.115125,0.971625 0.3735,0.483875 C0.862125,-0.003625 1.6535,-0.003125 2.14125,0.4855 L4.439375,2.78775 C4.927125,3.276375 4.926375,4.06775 4.43775,4.5555 C4.193625,4.799125 3.874,4.920875 3.554625,4.920875 Z" id="Path"></path>
                    <path d="M44.7435,46.1855 C44.423125,46.1855 44.103,46.063125 43.858875,45.8185 L41.56075,43.51625 C41.073,43.027625 41.07375,42.23625 41.562375,41.7485 C42.051,41.261 42.842375,41.2615 43.330125,41.750125 L45.62825,44.052375 C46.116,44.541 46.11525,45.332375 45.626625,45.820125 C45.382625,46.06375 45.063,46.1855 44.7435,46.1855 Z" id="Path"></path>
                </g>
                <g id="Group" transform="translate(9.000000, 0.000000)">
                    <path d="M42.445375,4.920875 C42.12575,4.920875 41.806375,4.799125 41.562375,4.555625 C41.07375,4.067875 41.073,3.2765 41.56075,2.787875 L43.858875,0.485625 C44.346375,-0.003 45.138,-0.00375 45.626625,0.484 C46.11525,0.97175 46.116,1.763125 45.62825,2.25175 L43.330125,4.554 C43.086,4.7985 42.765625,4.920875 42.445375,4.920875 L42.445375,4.920875 Z" id="Path"></path>
                    <path d="M1.2565,46.1855 C0.936875,46.1855 0.6175,46.06375 0.3735,45.82025 C-0.115125,45.3325 -0.115875,44.541125 0.371875,44.0525 L2.67,41.75025 C3.157625,41.261625 3.94925,41.260875 4.43775,41.748625 C4.926375,42.236375 4.927125,43.02775 4.439375,43.516375 L2.14125,45.818625 C1.897125,46.063125 1.576625,46.1855 1.2565,46.1855 L1.2565,46.1855 Z" id="Path"></path>
                </g>
                <g id="Group" transform="translate(0.000000, 21.875000)">
                    <path d="M62.75,2.527 L59.5,2.527 C58.80975,2.527 58.25,1.967375 58.25,1.277 C58.25,0.586625 58.80975,0.027 59.5,0.027 L62.75,0.027 C63.44025,0.027 64,0.586625 64,1.277 C64,1.967375 63.44025,2.527 62.75,2.527 Z" id="Path"></path>
                    <path d="M4.5,2.527 L1.25,2.527 C0.55975,2.527 0,1.967375 0,1.277 C0,0.586625 0.55975,0.027 1.25,0.027 L4.5,0.027 C5.19025,0.027 5.75,0.586625 5.75,1.277 C5.75,1.967375 5.19025,2.527 4.5,2.527 Z" id="Path"></path>
                </g>
                <path d="M37.53375,24.51525 C39.39,22.942 40.57,20.594375 40.57,17.97625 C40.57,13.25075 36.7255,9.406125 31.999875,9.406125 C27.27425,9.406125 23.42975,13.250625 23.42975,17.97625 C23.42975,20.594375 24.609875,22.942 26.466,24.51525 C23.371375,25.626875 21.152125,28.590875 21.152125,32.0635 L21.152125,35.647875 C21.152125,36.33825 21.711875,36.897875 22.402125,36.897875 L41.5975,36.897875 C42.28775,36.897875 42.8475,36.33825 42.8475,35.647875 L42.8475,32.0635 C42.8475,28.590875 40.6285,25.626875 37.53375,24.51525 Z M25.929875,17.97625 C25.929875,14.62925 28.652875,11.906125 32,11.906125 C35.347125,11.906125 38.070125,14.629125 38.070125,17.97625 C38.070125,21.323375 35.347,24.04625 32,24.04625 C28.653,24.04625 25.929875,21.32325 25.929875,17.97625 Z M40.34775,34.39775 L23.652375,34.39775 L23.652375,32.063375 C23.652375,29.02125 26.127375,26.54625 29.1695,26.54625 L34.830625,26.54625 C37.87275,26.54625 40.34775,29.02125 40.34775,32.063375 L40.34775,34.39775 L40.34775,34.39775 Z" id="Shape"></path>
                <path d="M54.3175,24.4025 C53.795625,24.4025 53.31675,24.06575 53.141875,23.573625 C52.96975,23.0895 53.115375,22.53275 53.508875,22.199875 C53.91925,21.852625 54.5205,21.809375 54.977125,22.091875 C55.415,22.36275 55.644625,22.8925 55.54375,23.397625 C55.428375,23.97475 54.9055,24.4025 54.3175,24.4025 L54.3175,24.4025 Z" id="Path"></path>
                <path d="M54.089,27.5445 C53.4145,27.392625 52.746375,27.815375 52.594625,28.488875 C50.925875,35.888375 45.05375,41.47325 36.48375,43.8115 C35.939875,43.959875 35.56275,44.45375 35.56275,45.017375 L35.56275,48.203 L28.43725,48.203 L28.43725,45.017375 C28.43725,44.45375 28.06,43.959875 27.51625,43.8115 C17.12175,40.9755 10.916,33.5745 10.916,24.013625 C10.916,12.39425 20.37425,2.94125 32,2.94125 C41.334875,2.94125 49.438875,8.929625 52.165875,17.842625 C52.367875,18.502875 53.067625,18.874125 53.726875,18.67225 C54.387,18.47025 54.7585,17.771375 54.5565,17.11125 C53.110875,12.386125 50.127,8.140875 46.154875,5.1575 C42.047,2.072 37.15225,0.441125 32,0.441125 C18.99575,0.441125 8.416,11.015625 8.416,24.0135 C8.416,29.151125 10.067125,33.906125 13.191,37.764375 C16.232625,41.521125 20.625625,44.3415 25.93725,45.957625 L25.93725,48.203 L25.921125,48.203 C25.230875,48.203 24.671125,48.762625 24.671125,49.453 C24.671125,50.143375 25.230875,50.703 25.921125,50.703 L25.93725,50.703 L25.93725,55.131375 C25.93725,55.82175 26.497,56.381375 27.18725,56.381375 L36.81275,56.381375 C37.503,56.381375 38.06275,55.82175 38.06275,55.131375 L38.06275,50.703 L38.078875,50.703 C38.769125,50.703 39.328875,50.143375 39.328875,49.453 C39.328875,48.762625 38.769125,48.203 38.078875,48.203 L38.06275,48.203 L38.06275,45.957625 C47.055,43.222125 53.216,37.098125 55.033375,29.03875 C55.185125,28.365375 54.7625,27.696375 54.089,27.5445 Z M35.56275,53.8815 L28.43725,53.8815 L28.43725,50.703125 L35.56275,50.703125 L35.56275,53.8815 Z" id="Shape"></path>
            </g>
        </g>
    </g>
</svg>