<?xml version="1.0" encoding="UTF-8"?>
<svg width="38px" height="64px" viewBox="0 0 38 64" version="1.1" xmlns="http://www.w3.org/2000/svg" xmlns:xlink="http://www.w3.org/1999/xlink">
    <!-- Generator: sketchtool 63.1 (101010) - https://sketch.com -->
    <title>C76C9BC0-AC46-4458-AF96-8B055E6B7094</title>
    <desc>Created with sketchtool.</desc>
    <g id="Main&amp;About" stroke="none" stroke-width="1" fill="none" fill-rule="evenodd">
        <g id="Step-2.1-Design-level" transform="translate(-731.000000, -377.000000)" fill="#FFFFFF" fill-rule="nonzero">
            <g id="polished" transform="translate(731.000000, 377.000000)">
                <path d="M20.3334961,58.5 L17.25,58.5 C16.5595703,58.5 16,57.9404297 16,57.25 C16,56.5595704 16.5595703,56 17.25,56 L20.3334961,56 C21.0239257,56 21.5834961,56.5595704 21.5834961,57.25 C21.5834961,57.9404297 21.0239257,58.5 20.3334961,58.5 Z" id="Path"></path>
                <path d="M37.5,7.9295 L37.5,5.36225 C37.5,2.4055 35.094375,0 32.13775,0 L5.362125,0 C2.405375,0 -0.000125,2.4055 -0.000125,5.36225 L-0.000125,58.637375 L-0.000125,58.63775 C-0.000125,61.5945 2.405375,63.999875 5.362125,63.999875 L32.137625,63.999875 C35.094375,63.999875 37.5,61.5945 37.5,58.63775 L37.5,58.636125 L37.5,7.93925 C37.5,7.937625 37.5,7.936125 37.5,7.934375 C37.5,7.932625 37.5,7.93125 37.5,7.9295 Z M34.999625,58.63775 C34.999625,60.216 33.715875,61.499875 32.13775,61.499875 L5.362125,61.499875 C3.783875,61.499875 2.499875,60.216 2.499875,58.63775 L2.499875,53.304625 L34.999625,53.304625 L34.999625,58.63775 L34.999625,58.63775 Z M34.999625,50.804625 L2.499875,50.804625 L2.499875,9.1845 L34.999625,9.1845 L34.999625,50.804625 L34.999625,50.804625 Z M34.999625,6.6845 L2.499875,6.6845 L2.499875,5.36225 C2.499875,3.784 3.783875,2.5 5.362125,2.5 L32.137625,2.5 C33.71575,2.5 34.999625,3.784 34.999625,5.36225 L34.999625,6.6845 Z" id="Shape"></path>
                <path d="M23.15425,11.05975 L23.12475,11.05975 C22.4345,11.05975 21.87475,11.619375 21.87475,12.30975 C21.87475,13.000125 22.4345,13.55975 23.12475,13.55975 L23.15425,13.55975 C23.8445,13.55975 24.40425,13.000125 24.40425,12.30975 C24.40425,11.619375 23.8445,11.05975 23.15425,11.05975 Z" id="Path"></path>
                <path d="M31.875,11.0595 L26.745625,11.0595 C26.055375,11.0595 25.495625,11.619125 25.495625,12.3095 C25.495625,12.999875 26.055375,13.5595 26.745625,13.5595 L31.875,13.5595 C32.56525,13.5595 33.125,12.999875 33.125,12.3095 C33.125,11.619125 32.56525,11.0595 31.875,11.0595 Z" id="Path"></path>
                <path d="M28.08275,35.478625 C28.02275,35.2845 27.91625,35.107875 27.7725,34.96425 L24.052875,31.244625 L29.35625,25.94125 C29.591,25.70675 29.722625,25.38875 29.722625,25.05725 C29.722625,24.72575 29.590875,24.40775 29.356375,24.173375 L25.820875,20.637875 C25.332625,20.149875 24.541375,20.14975 24.053,20.638 L18.74975,25.94125 L13.4465,20.638 C12.958375,20.149875 12.167,20.149875 11.67875,20.638 L8.143125,24.173375 C7.90875,24.407875 7.777,24.72575 7.777,25.05725 C7.777,25.38875 7.90875,25.70675 8.143125,25.941125 L13.4465,31.2445 L9.727,34.964 C9.4925,35.198375 9.360875,35.51625 9.360875,35.847875 L9.36075,38.86575 L8.143125,40.083375 C7.655,40.5715 7.655,41.363 8.143125,41.851125 C8.38725,42.09525 8.707125,42.21725 9.027,42.21725 C9.346875,42.21725 9.66675,42.095125 9.910875,41.851125 L11.1285,40.6335 L14.146375,40.6335 C14.477875,40.6335 14.795875,40.50175 15.03025,40.267375 L18.74975,36.547875 L22.46925,40.267375 C22.613,40.411125 22.789625,40.517625 22.98375,40.577625 L28.103125,42.161375 C28.224625,42.199 28.349,42.21725 28.472375,42.21725 C28.799,42.21725 29.118375,42.089125 29.356375,41.851125 C29.68425,41.52325 29.803625,41.040875 29.6665,40.597875 L28.08275,35.478625 Z M24.937,23.289625 L26.704875,25.057375 L22.285375,29.47675 L20.5175,27.709 L24.937,23.289625 Z M13.62875,38.1335 L11.860875,38.1335 L11.861,36.36575 L15.214375,33.01225 L16.98225,34.780125 L13.62875,38.1335 Z M24.01825,38.280875 L10.794875,25.057375 L12.56275,23.289625 L21.400125,32.127 C21.400625,32.1275 21.401,32.128 21.4015,32.1285 C21.402,32.129 21.4025,32.129375 21.403,32.129875 L25.78625,36.513125 L26.578125,39.07275 L24.01825,38.280875 Z" id="Shape"></path>
            </g>
        </g>
    </g>
</svg>