<?xml version="1.0" encoding="UTF-8"?>
<svg width="64px" height="64px" viewBox="0 0 64 64" version="1.1" xmlns="http://www.w3.org/2000/svg" xmlns:xlink="http://www.w3.org/1999/xlink">
    <!-- Generator: sketchtool 63.1 (101010) - https://sketch.com -->
    <title>C19E73DE-578A-48EC-952B-206480472550</title>
    <desc>Created with sketchtool.</desc>
    <g id="Main&amp;About" stroke="none" stroke-width="1" fill="none" fill-rule="evenodd">
        <g id="4.3.-More-technical-features--" transform="translate(-718.000000, -188.000000)" fill="#FFFFFF" fill-rule="nonzero">
            <g id="qr-code" transform="translate(718.000000, 188.000000)">
                <path d="M37,35.75 C37.6899414,35.75 38.25,35.1899414 38.25,34.5 C38.25,33.8100586 37.6899414,33.25 37,33.25 C36.3100586,33.25 35.75,33.8100586 35.75,34.5 C35.75,35.1899414 36.3100586,35.75 37,35.75 Z" id="Path"></path>
                <path d="M9.5,35.75 C10.1899414,35.75 10.75,35.1899414 10.75,34.5 C10.75,33.8100586 10.1899414,33.25 9.5,33.25 C8.81005862,33.25 8.25,33.8100586 8.25,34.5 C8.25,35.1899414 8.81005862,35.75 9.5,35.75 Z" id="Path"></path>
                <path d="M1.25,15.75 C1.94042975,15.75 2.5,15.1904297 2.5,14.5 L2.5,2.5 L14.5,2.5 C15.1904297,2.5 15.75,1.94042975 15.75,1.25 C15.75,0.55957025 15.1904297,0 14.5,0 L1.25,0 C0.55957025,0 0,0.55957025 0,1.25 L0,14.5 C0,15.1904297 0.55957025,15.75 1.25,15.75 Z" id="Path"></path>
                <path d="M15.75,62.75 C15.75,62.0595703 15.1904297,61.5 14.5,61.5 L2.5,61.5 L2.5,49.5 C2.5,48.8095703 1.94042975,48.25 1.25,48.25 C0.55957025,48.25 0,48.8095703 0,49.5 L0,62.75 C0,63.4404297 0.55957025,64 1.25,64 L14.5,64 C15.1904297,64 15.75,63.4404297 15.75,62.75 Z" id="Path"></path>
                <path d="M62.75,48.25 C62.0595703,48.25 61.5,48.8095703 61.5,49.5 L61.5,61.5 L49.5,61.5 C48.8095703,61.5 48.25,62.0595703 48.25,62.75 C48.25,63.4404297 48.8095703,64 49.5,64 L62.75,64 C63.4404297,64 64,63.4404297 64,62.75 L64,49.5 C64,48.8095703 63.4404297,48.25 62.75,48.25 Z" id="Path"></path>
                <path d="M62.75,0 L49.5,0 C48.8095703,0 48.25,0.55957025 48.25,1.25 C48.25,1.94042975 48.8095703,2.5 49.5,2.5 L61.5,2.5 L61.5,14.5 C61.5,15.1904297 62.0595703,15.75 62.75,15.75 C63.4404297,15.75 64,15.1904297 64,14.5 L64,1.25 C64,0.55957025 63.4404297,0 62.75,0 Z" id="Path"></path>
                <path d="M8.25,54.5 C8.25,55.1904297 8.80957025,55.75 9.5,55.75 L22,55.75 C22.6904297,55.75 23.25,55.1904297 23.25,54.5 L23.25,42 C23.25,41.3095703 22.6904297,40.75 22,40.75 L9.5,40.75 C8.80957025,40.75 8.25,41.3095703 8.25,42 L8.25,54.5 Z M10.75,43.25 L20.75,43.25 L20.75,53.25 L10.75,53.25 L10.75,43.25 Z" id="Shape"></path>
                <path d="M22,8.25 L9.5,8.25 C8.80957025,8.25 8.25,8.80957025 8.25,9.5 L8.25,22 C8.25,22.6904297 8.80957025,23.25 9.5,23.25 L22,23.25 C22.6904297,23.25 23.25,22.6904297 23.25,22 L23.25,9.5 C23.25,8.80957025 22.6904297,8.25 22,8.25 Z M20.75,20.75 L10.75,20.75 L10.75,10.75 L20.75,10.75 L20.75,20.75 Z" id="Shape"></path>
                <path d="M55.75,9.5 C55.75,8.80957025 55.1904297,8.25 54.5,8.25 L42,8.25 C41.3095703,8.25 40.75,8.80957025 40.75,9.5 L40.75,22 C40.75,22.6904297 41.3095703,23.25 42,23.25 L54.5,23.25 C55.1904297,23.25 55.75,22.6904297 55.75,22 L55.75,9.5 Z M53.25,20.75 L43.25,20.75 L43.25,10.75 L53.25,10.75 L53.25,20.75 Z" id="Shape"></path>
                <path d="M55.75,54.5 L55.75,42 C55.75,41.3095703 55.1904297,40.75 54.5,40.75 L42,40.75 C41.3095703,40.75 40.75,41.3095703 40.75,42 L40.75,54.5 C40.75,55.1904297 41.3095703,55.75 42,55.75 L54.5,55.75 C55.1904297,55.75 55.75,55.1904297 55.75,54.5 Z M53.25,53.25 L43.25,53.25 L43.25,43.25 L53.25,43.25 L53.25,53.25 Z" id="Shape"></path>
                <path d="M17,45.75 L14.5,45.75 C13.8095703,45.75 13.25,46.3095703 13.25,47 L13.25,49.5 C13.25,50.1904297 13.8095703,50.75 14.5,50.75 L17,50.75 C17.6904297,50.75 18.25,50.1904297 18.25,49.5 L18.25,47 C18.25,46.3095703 17.6904297,45.75 17,45.75 Z" id="Path"></path>
                <path d="M14.5,18.25 L17,18.25 C17.6904297,18.25 18.25,17.6904297 18.25,17 L18.25,14.5 C18.25,13.8095703 17.6904297,13.25 17,13.25 L14.5,13.25 C13.8095703,13.25 13.25,13.8095703 13.25,14.5 L13.25,17 C13.25,17.6904297 13.8095703,18.25 14.5,18.25 Z" id="Path"></path>
                <path d="M47,18.25 L49.5,18.25 C50.1904297,18.25 50.75,17.6904297 50.75,17 L50.75,14.5 C50.75,13.8095703 50.1904297,13.25 49.5,13.25 L47,13.25 C46.3095703,13.25 45.75,13.8095703 45.75,14.5 L45.75,17 C45.75,17.6904297 46.3095703,18.25 47,18.25 Z" id="Path"></path>
                <path d="M47,50.75 L49.5,50.75 C50.1904297,50.75 50.75,50.1904297 50.75,49.5 L50.75,47 C50.75,46.3095703 50.1904297,45.75 49.5,45.75 L47,45.75 C46.3095703,45.75 45.75,46.3095703 45.75,47 L45.75,49.5 C45.75,50.1904297 46.3095703,50.75 47,50.75 Z" id="Path"></path>
                <path d="M13.25,34.5 C13.25,35.1904297 13.8095703,35.75 14.5,35.75 L30.75,35.75 L30.75,42 C30.75,42.6904297 31.3095703,43.25 32,43.25 C32.6904297,43.25 33.25,42.6904297 33.25,42 L33.25,34.5 C33.25,33.8095703 32.6904297,33.25 32,33.25 L14.5,33.25 C13.8095703,33.25 13.25,33.8095703 13.25,34.5 Z" id="Path"></path>
                <path d="M22,30.75 C22.6904297,30.75 23.25,30.1904297 23.25,29.5 C23.25,28.8095703 22.6904297,28.25 22,28.25 L9.5,28.25 C8.80957025,28.25 8.25,28.8095703 8.25,29.5 C8.25,30.1904297 8.80957025,30.75 9.5,30.75 L22,30.75 Z" id="Path"></path>
                <path d="M27,30.75 L32,30.75 C32.6904297,30.75 33.25,30.1904297 33.25,29.5 C33.25,28.8095703 32.6904297,28.25 32,28.25 L27,28.25 C26.3095703,28.25 25.75,28.8095703 25.75,29.5 C25.75,30.1904297 26.3095703,30.75 27,30.75 Z" id="Path"></path>
                <path d="M27,8.25 C26.3095703,8.25 25.75,8.80957025 25.75,9.5 L25.75,22 C25.75,22.6904297 26.3095703,23.25 27,23.25 L35.75,23.25 L35.75,29.5 C35.75,30.1904297 36.3095703,30.75 37,30.75 L42,30.75 C42.6904297,30.75 43.25,30.1904297 43.25,29.5 C43.25,28.8095703 42.6904297,28.25 42,28.25 L38.25,28.25 L38.25,22 C38.25,21.3095703 37.6904297,20.75 37,20.75 L28.25,20.75 L28.25,9.5 C28.25,8.80957025 27.6904297,8.25 27,8.25 Z" id="Path"></path>
                <path d="M54.5,28.25 L47,28.25 C46.3095703,28.25 45.75,28.8095703 45.75,29.5 C45.75,30.1904297 46.3095703,30.75 47,30.75 L54.5,30.75 C55.1904297,30.75 55.75,30.1904297 55.75,29.5 C55.75,28.8095703 55.1904297,28.25 54.5,28.25 Z" id="Path"></path>
                <path d="M54.5,33.25 L42,33.25 C41.3095703,33.25 40.75,33.8095703 40.75,34.5 C40.75,35.1904297 41.3095703,35.75 42,35.75 L54.5,35.75 C55.1904297,35.75 55.75,35.1904297 55.75,34.5 C55.75,33.8095703 55.1904297,33.25 54.5,33.25 Z" id="Path"></path>
                <path d="M32,45.75 L27,45.75 C26.3095703,45.75 25.75,46.3095703 25.75,47 L25.75,54.5 C25.75,55.1904297 26.3095703,55.75 27,55.75 C27.6904297,55.75 28.25,55.1904297 28.25,54.5 L28.25,48.25 L32,48.25 C32.6904297,48.25 33.25,47.6904297 33.25,47 C33.25,46.3095703 32.6904297,45.75 32,45.75 Z" id="Path"></path>
                <path d="M35.75,53.25 L32,53.25 C31.3095703,53.25 30.75,53.8095703 30.75,54.5 C30.75,55.1904297 31.3095703,55.75 32,55.75 L37,55.75 C37.6904297,55.75 38.25,55.1904297 38.25,54.5 L38.25,39.5 C38.25,38.8095703 37.6904297,38.25 37,38.25 C36.3095703,38.25 35.75,38.8095703 35.75,39.5 L35.75,53.25 Z" id="Path"></path>
                <path d="M37,18.25 C37.6904297,18.25 38.25,17.6904297 38.25,17 L38.25,9.5 C38.25,8.80957025 37.6904297,8.25 37,8.25 C36.3095703,8.25 35.75,8.80957025 35.75,9.5 L35.75,15.75 L32,15.75 C31.3095703,15.75 30.75,16.3095703 30.75,17 C30.75,17.6904297 31.3095703,18.25 32,18.25 L37,18.25 Z" id="Path"></path>
            </g>
        </g>
    </g>
</svg>