<?xml version="1.0" encoding="UTF-8"?>
<svg width="64px" height="57px" viewBox="0 0 64 57" version="1.1" xmlns="http://www.w3.org/2000/svg" xmlns:xlink="http://www.w3.org/1999/xlink">
    <!-- Generator: sketchtool 63.1 (101010) - https://sketch.com -->
    <title>C9757D47-A8FD-48BA-A100-8056901989B0</title>
    <desc>Created with sketchtool.</desc>
    <g id="Main&amp;About" stroke="none" stroke-width="1" fill="none" fill-rule="evenodd">
        <g id="Step-1.1-CCS-Calculator-" transform="translate(-718.000000, -180.000000)" fill="#FFFFFF" fill-rule="nonzero">
            <g id="React-icon" transform="translate(718.000000, 180.000000)">
                <path d="M63.6502024,28.3076923 C63.6502024,24.097166 58.3773279,20.1068826 50.2931174,17.6323887 C52.1587045,9.39271255 51.3295547,2.83724696 47.6761134,0.738461538 C46.8340081,0.246153846 45.8493927,0.0129554656 44.7740891,0.0129554656 L44.7740891,2.90202429 C45.3700405,2.90202429 45.8493927,3.01862348 46.2510121,3.2388664 C48.0129555,4.24939271 48.7773279,8.09716599 48.1813765,13.0461538 C48.0388664,14.2639676 47.805668,15.5465587 47.5206478,16.8550607 C44.9813765,16.2331984 42.2089069,15.7538462 39.2939271,15.442915 C37.5449393,13.0461538 35.7311741,10.8696356 33.9044534,8.96518219 C38.1279352,5.03967611 42.0923077,2.88906883 44.7870445,2.88906883 L44.7870445,0 C44.7870445,0 44.7870445,0 44.7870445,0 C41.2242915,0 36.5603239,2.53927126 31.8445344,6.94412955 C27.1287449,2.56518219 22.4647773,0.0518218623 18.9020243,0.0518218623 L18.9020243,2.94089069 C21.5838057,2.94089069 25.5611336,5.07854251 29.7846154,8.97813765 C27.9708502,10.8825911 26.157085,13.0461538 24.4340081,15.442915 C21.5060729,15.7538462 18.7336032,16.2331984 16.194332,16.8680162 C15.8963563,15.5724696 15.6761134,14.3157895 15.5206478,13.1109312 C14.9117409,8.16194332 15.6631579,4.31417004 17.4121457,3.29068826 C17.8008097,3.05748988 18.3060729,2.95384615 18.9020243,2.95384615 L18.9020243,0.0647773279 C18.9020243,0.0647773279 18.9020243,0.0647773279 18.9020243,0.0647773279 C17.8137652,0.0647773279 16.8291498,0.297975709 15.9740891,0.790283401 C12.3336032,2.88906883 11.5174089,9.43157895 13.3959514,17.6453441 C5.33765182,20.1327935 0.0906882591,24.1101215 0.0906882591,28.3076923 C0.0906882591,32.5182186 5.36356275,36.508502 13.4477733,38.982996 C11.5821862,47.2226721 12.411336,53.7781377 16.0647773,55.8769231 C16.9068826,56.3692308 17.891498,56.6024291 18.9797571,56.6024291 C22.5425101,56.6024291 27.2064777,54.0631579 31.9222672,49.6582996 C36.6380567,54.037247 41.3020243,56.5506073 44.8647773,56.5506073 C45.9530364,56.5506073 46.9376518,56.3174089 47.7927126,55.8251012 C51.4331984,53.7263158 52.2493927,47.1838057 50.3708502,38.9700405 C58.4032389,36.4955466 63.6502024,32.5052632 63.6502024,28.3076923 Z M46.7821862,19.6663968 C46.302834,21.3376518 45.7068826,23.0607287 45.0331984,24.7838057 C44.5020243,23.7473684 43.9449393,22.7109312 43.3360324,21.6744939 C42.740081,20.6380567 42.1052632,19.6275304 41.4704453,18.642915 C43.3101215,18.9149798 45.0850202,19.2518219 46.7821862,19.6663968 Z M40.848583,33.4639676 C39.8380567,35.2129555 38.8016194,36.8712551 37.7263158,38.4129555 C35.7959514,38.5813765 33.8396761,38.6720648 31.8704453,38.6720648 C29.91417,38.6720648 27.9578947,38.5813765 26.0404858,38.4259109 C24.9651822,36.8842105 23.9157895,35.2388664 22.9052632,33.502834 C21.9206478,31.805668 21.0267206,30.0825911 20.2105263,28.3465587 C21.0137652,26.6105263 21.9206478,24.8744939 22.8923077,23.1773279 C23.902834,21.4283401 24.9392713,19.7700405 26.0145749,18.2283401 C27.9449393,18.059919 29.9012146,17.9692308 31.8704453,17.9692308 C33.8267206,17.9692308 35.782996,18.059919 37.7004049,18.2153846 C38.7757085,19.757085 39.8251012,21.4024291 40.8356275,23.1384615 C41.8202429,24.8356275 42.71417,26.5587045 43.5303644,28.2947368 C42.71417,30.0307692 41.8202429,31.7668016 40.848583,33.4639676 Z M45.0331984,31.7797571 C45.7327935,33.5157895 46.3287449,35.2518219 46.8210526,36.9360324 C45.1238866,37.3506073 43.3360324,37.7004049 41.4834008,37.9724696 C42.1182186,36.9748988 42.7530364,35.951417 43.3489879,34.9020243 C43.9449393,33.865587 44.5020243,32.8161943 45.0331984,31.7797571 Z M31.8963563,45.6032389 C30.691498,44.3595142 29.4866397,42.9732794 28.2947368,41.4574899 C29.4607287,41.5093117 30.6526316,41.5481781 31.8574899,41.5481781 C33.0753036,41.5481781 34.2801619,41.5222672 35.4591093,41.4574899 C34.2931174,42.9732794 33.0882591,44.3595142 31.8963563,45.6032389 Z M22.2574899,37.9724696 C20.4178138,37.7004049 18.642915,37.3635628 16.945749,36.9489879 C17.4251012,35.2777328 18.0210526,33.5546559 18.6947368,31.8315789 C19.2259109,32.8680162 19.782996,33.9044534 20.3919028,34.9408907 C21.0008097,35.9773279 21.6226721,36.9878543 22.2574899,37.9724696 Z M31.8315789,11.0121457 C33.0364372,12.2558704 34.2412955,13.6421053 35.4331984,15.1578947 C34.2672065,15.1060729 33.0753036,15.0672065 31.8704453,15.0672065 C30.6526316,15.0672065 29.4477733,15.0931174 28.2688259,15.1578947 C29.4348178,13.6421053 30.6396761,12.2558704 31.8315789,11.0121457 Z M22.2445344,18.642915 C21.6097166,19.6404858 20.9748988,20.6639676 20.3789474,21.7133603 C19.782996,22.7497976 19.2259109,23.7862348 18.6947368,24.8226721 C17.9951417,23.0866397 17.3991903,21.3506073 16.9068826,19.6663968 C18.6040486,19.2647773 20.3919028,18.9149798 22.2445344,18.642915 Z M10.5198381,34.8631579 C5.93360324,32.9068826 2.96680162,30.3417004 2.96680162,28.3076923 C2.96680162,26.2736842 5.93360324,23.6955466 10.5198381,21.7522267 C11.6340081,21.2728745 12.8518219,20.8453441 14.108502,20.4437247 C14.8469636,22.982996 15.8186235,25.6259109 17.0234818,28.3336032 C15.8315789,31.0283401 14.8728745,33.6582996 14.1473684,36.1846154 C12.8647773,35.782996 11.6469636,35.3425101 10.5198381,34.8631579 Z M17.4898785,53.3765182 C15.7279352,52.3659919 14.9635628,48.5182186 15.5595142,43.5692308 C15.7020243,42.351417 15.9352227,41.0688259 16.2202429,39.7603239 C18.7595142,40.3821862 21.5319838,40.8615385 24.4469636,41.1724696 C26.1959514,43.5692308 28.0097166,45.745749 29.8364372,47.6502024 C25.6129555,51.5757085 21.648583,53.7263158 18.9538462,53.7263158 C18.3708502,53.7133603 17.8785425,53.5967611 17.4898785,53.3765182 Z M48.2202429,43.5044534 C48.8291498,48.4534413 48.0777328,52.3012146 46.3287449,53.3246964 C45.940081,53.5578947 45.4348178,53.6615385 44.8388664,53.6615385 C42.157085,53.6615385 38.1797571,51.5238866 33.9562753,47.6242915 C35.7700405,45.7198381 37.5838057,43.5562753 39.3068826,41.1595142 C42.2348178,40.848583 45.0072874,40.3692308 47.5465587,39.734413 C47.8445344,41.042915 48.0777328,42.2995951 48.2202429,43.5044534 Z M53.2080972,34.8631579 C52.0939271,35.3425101 50.8761134,35.7700405 49.6194332,36.1716599 C48.8809717,33.6323887 47.9093117,30.9894737 46.7044534,28.2817814 C47.8963563,25.5870445 48.8550607,22.957085 49.5805668,20.4307692 C50.8631579,20.8323887 52.0809717,21.2728745 53.2210526,21.7522267 C57.8072874,23.708502 60.7740891,26.2736842 60.7740891,28.3076923 C60.7611336,30.3417004 57.794332,32.9198381 53.2080972,34.8631579 Z" id="Shape"></path>
                <circle id="Oval" cx="31.8574899" cy="28.3076923" r="5.92064777"></circle>
            </g>
        </g>
    </g>
</svg>