<?xml version="1.0" encoding="UTF-8"?>
<svg width="64px" height="64px" viewBox="0 0 64 64" version="1.1" xmlns="http://www.w3.org/2000/svg" xmlns:xlink="http://www.w3.org/1999/xlink">
    <!-- Generator: sketchtool 63.1 (101010) - https://sketch.com -->
    <title>8E884939-451C-45EF-BEBD-41C2AA3FC1B4</title>
    <desc>Created with sketchtool.</desc>
    <g id="Main&amp;About" stroke="none" stroke-width="1" fill="none" fill-rule="evenodd">
        <g id="Step-8.-General-Support--" transform="translate(-448.000000, -188.000000)" fill="#FFFFFF" fill-rule="nonzero">
            <g id="rocket" transform="translate(448.000000, 188.000000)">
                <path d="M33.58275,30.418875 C33.094,29.930125 32.30275,29.930125 31.814,30.418875 C31.3265,30.906375 31.3265,31.697625 31.814,32.186375 C32.30275,32.673875 33.094,32.673875 33.58275,32.186375 C34.07025,31.697625 34.07025,30.906375 33.58275,30.418875 Z" id="Path"></path>
                <path d="M49.491625,14.50875 C47.049125,12.066375 43.095125,12.06625 40.6525,14.50875 C38.216375,16.944875 38.21625,20.909875 40.652875,23.348 C43.089875,25.7835 47.054875,25.7845 49.491625,23.34775 C51.933875,20.9055 51.934375,16.951375 49.491625,14.50875 Z M47.723875,21.579875 C46.26225,23.041625 43.883,23.041625 42.420625,21.580125 C40.95875,20.117375 40.958625,17.738125 42.420375,16.2765 C43.88575,14.811125 46.25825,14.810875 47.723875,16.2765 C49.18925,17.74175 49.1895,20.114375 47.723875,21.579875 Z" id="Shape"></path>
                <path d="M63.63375,0.366125 C63.38825,0.12075 63.05325,-0.01225 62.705,0.000875 C62.422375,0.011 55.693,0.2815 47.693625,3.108875 C41.283625,5.372125 35.94075,8.6125 31.813375,12.74 C30.8885,13.664875 29.9885,14.645625 29.127375,15.6645 C25.046375,13.26225 21.776125,14.0155 19.70875,15.121875 C14.948625,17.669375 12.00225,24.586375 12.00225,29.533875 C12.00225,30.039375 12.30725,30.49525 12.77425,30.688625 C12.928875,30.75275 13.091375,30.783875 13.252375,30.783875 C13.57775,30.783875 13.897375,30.65675 14.1365,30.41775 C16.646875,27.907375 19.74325,28.064375 20.75475,28.197375 L21.1925,28.635125 C20.331,30.685125 19.637,32.723625 19.128,34.70625 C18.94425,35.42375 19.00625,36.183 19.279375,36.8775 C18.075875,37.432125 16.91475,38.2465 15.90375,39.2575 C12.686125,42.47525 12.03275,50.317 12.0065,50.64925 C11.97775,51.013875 12.11,51.372875 12.368625,51.6315 C12.604,51.86675 12.922375,51.997625 13.252375,51.997625 C13.285125,51.997625 13.318,51.996375 13.350875,51.99375 C13.683125,51.967625 21.525125,51.31425 24.74275,48.096625 C25.753375,47.086 26.567625,45.925 27.12225,44.72175 C27.8575,45.010875 28.61425,45.0465 29.29475,44.872125 C31.2765,44.36325 33.31475,43.6695 35.365,42.807875 L35.80275,43.245625 C35.935625,44.25725 36.092625,47.353625 33.582375,49.86375 C33.225,50.22125 33.118,50.758875 33.3115,51.225875 C33.504875,51.693 33.960625,51.997625 34.46625,51.997625 C39.41375,51.997625 46.330625,49.051125 48.878125,44.291 C49.9845,42.223875 50.73775,38.953625 48.3355,34.8725 C49.353875,34.01175 50.33475,33.11175 51.26,32.1865 C55.3875,28.059 58.62775,22.716125 60.891,16.306625 C63.7185,8.306875 63.988875,1.577375 63.999,1.294875 C64.0115,0.948 63.879125,0.611625 63.63375,0.366125 Z M14.797,26.84525 C15.5735,23.087375 17.828875,18.96375 20.888875,17.326 C22.93375,16.23175 25.168875,16.339 27.545375,17.639875 C25.52075,20.302625 23.760625,23.171375 22.2935,26.20075 C22.274875,26.18925 22.049875,25.906375 21.631875,25.812125 C21.46,25.77325 18.152625,25.061875 14.797,26.84525 Z M22.975,46.32875 C21.25625,48.0475 17.224375,48.954 14.676,49.324125 C15.04625,46.775625 15.952875,42.743875 17.6715,41.02525 C18.634,40.06275 19.75,39.333 20.87175,38.922 L25.07825,43.1285 C24.66725,44.25025 23.937625,45.36625 22.975,46.32875 Z M28.67375,42.450375 C28.312,42.543 27.893,42.407 27.5815,42.096 C25.964375,40.478875 25.33175,39.84625 25.13325,39.647875 C24.76925,39.283875 23.876625,38.39125 21.905,36.4195 C21.59325,36.107125 21.45725,35.68825 21.549625,35.327125 C21.95,33.767875 22.473625,32.168125 23.110375,30.553 L33.44725,40.889875 C31.831875,41.52675 30.232375,42.05025 28.67375,42.450375 Z M46.67425,43.111375 C45.0365,46.17125 40.913,48.42675 37.15525,49.203125 C38.353375,46.9485 38.6175,44.078375 38.17975,42.338 C38.078125,41.93375 37.814375,41.7305 37.799625,41.706625 C40.82875,40.2395 43.697375,38.479375 46.360375,36.45475 C47.66125,38.8315 47.768375,41.066875 46.67425,43.111375 Z M49.4925,30.41875 C48.366125,31.545 47.15325,32.633125 45.8875,33.65275 C42.84475,36.10275 39.49575,38.178 35.92275,39.83 L24.17025,28.07775 C25.82225,24.5045 27.8975,21.1555 30.34725,18.113125 C31.36775,16.8465 32.45575,15.6335 33.581625,14.50775 C37.28475,10.8045 42.064,7.85725 47.7905,5.73575 L58.2645,16.20975 C56.14325,21.936125 53.196,26.715375 49.4925,30.41875 Z M59.163875,13.573375 L50.426875,4.836375 C55.187,3.357875 59.328125,2.80425 61.395125,2.60525 C61.196,4.672625 60.64225,8.81375 59.163875,13.573375 Z" id="Shape"></path>
                <path d="M30.046375,51.631125 C29.558,51.143 28.7665,51.14325 28.2785,51.631375 L24.7435,55.167625 C24.2555,55.655875 24.255625,56.447375 24.74375,56.935375 C25.232125,57.423375 26.023625,57.423375 26.511625,56.935125 L30.046625,53.398875 C30.534625,52.910625 30.5345,52.119125 30.046375,51.631125 Z" id="Path"></path>
                <path d="M12.36925,33.953875 C11.88125,33.465625 11.089875,33.465625 10.6015,33.953625 L7.06525,37.488625 C6.577,37.976625 6.576875,38.768125 7.064875,39.256375 C7.55275,39.744375 8.344125,39.744875 8.832625,39.256625 L12.368875,35.721625 C12.857125,35.233625 12.85725,34.442125 12.36925,33.953875 Z" id="Path"></path>
                <path d="M21.207875,53.4 C20.72,52.911875 19.928375,52.911875 19.440125,53.399875 L10.972625,61.866125 C10.484375,62.35425 10.484375,63.14575 10.9725,63.633875 C11.460375,64.122 12.252,64.12225 12.74025,63.634 L21.20775,55.16775 C21.696,54.679625 21.696,53.888125 21.207875,53.4 Z" id="Path"></path>
                <path d="M11.207875,53.4 C10.719875,52.911875 9.92825,52.911875 9.440125,53.399875 L0.972625,61.866125 C0.484375,62.35425 0.484375,63.14575 0.9725,63.633875 C1.460375,64.122 2.252,64.12225 2.74025,63.634 L11.20775,55.16775 C11.696,54.679625 11.696,53.888125 11.207875,53.4 Z" id="Path"></path>
                <path d="M10.60025,42.79225 C10.11225,42.30425 9.320625,42.30425 8.8325,42.792375 L0.36625,51.259875 C-0.121875,51.748125 -0.121875,52.5395 0.366375,53.02775 C0.8545,53.515875 1.646,53.515875 2.134125,53.027625 L10.600375,44.560125 C11.0885,44.071875 11.0885,43.2805 10.60025,42.79225 Z" id="Path"></path>
                <path d="M38.885375,25.114875 C38.397125,24.62675 37.605875,24.62675 37.1175,25.114875 L35.35,26.882375 C34.861875,27.3705 34.861875,28.162 35.35,28.65025 C35.83825,29.138375 36.629625,29.138375 37.117875,28.65025 L38.885375,26.88275 C39.3735,26.394625 39.3735,25.603125 38.885375,25.114875 Z" id="Path"></path>
            </g>
        </g>
    </g>
</svg>