<?xml version="1.0" encoding="UTF-8"?>
<svg width="64px" height="64px" viewBox="0 0 64 64" version="1.1" xmlns="http://www.w3.org/2000/svg" xmlns:xlink="http://www.w3.org/1999/xlink">
    <!-- Generator: sketchtool 63.1 (101010) - https://sketch.com -->
    <title>A66CF72D-A6C4-41AB-B2C9-758E9B86BE32</title>
    <desc>Created with sketchtool.</desc>
    <g id="Main&amp;About" stroke="none" stroke-width="1" fill="none" fill-rule="evenodd">
        <g id="Step-4.2.-Minor-features" transform="translate(-448.000000, -377.000000)" fill="#FFFFFF" fill-rule="nonzero">
            <g id="search" transform="translate(448.000000, 377.000000)">
                <path d="M38.6748792,27.7582329 C32.6212843,27.7582329 27.6963422,32.683175 27.6963422,38.73677 C27.6963422,44.790365 32.6212843,49.7153071 38.6748792,49.7153071 C44.7284743,49.7153071 49.6534163,44.790365 49.6534163,38.73677 C49.6534163,32.683175 44.7284743,27.7582329 38.6748792,27.7582329 Z M38.6748792,47.220185 C33.9970127,47.220185 30.1914642,43.4146366 30.1914642,38.73677 C30.1914642,34.0589034 33.9970127,30.253355 38.6748792,30.253355 C43.3527458,30.253355 47.1582942,34.0589034 47.1582942,38.73677 C47.1582942,43.4146366 43.3527458,47.220185 38.6748792,47.220185 Z" id="Shape"></path>
                <path d="M62.6358483,56.7157813 L59.21334,53.2932732 C58.7264989,52.8064319 57.9365394,52.8059446 57.4492109,53.2932732 C56.9618823,53.7801143 56.9618823,54.5700738 57.4492109,55.0574023 L60.871719,58.4803979 C61.1996912,58.8078827 61.3800027,59.2435544 61.3800027,59.7070039 C61.3800027,60.1704534 61.1996912,60.6066123 60.871719,60.9340971 C60.195307,61.6105091 59.094432,61.6109964 58.4180198,60.9340971 L48.844451,51.3605282 C52.5306039,48.3849002 54.8931726,43.8317898 54.8931726,38.73677 C54.8931726,33.2216731 52.1251466,28.3410778 47.9063436,25.4097967 L47.9063436,19.9541538 C47.9063436,19.2650713 47.3478651,18.7065928 46.6587825,18.7065928 L43.5077163,18.7065928 C43.0554755,17.0384673 42.3941706,15.443441 41.5325737,13.9439311 L43.7625891,11.7139158 C44.2494303,11.2265873 44.2494303,10.4366277 43.7625891,9.94929922 L38.0189351,4.20613255 C37.5320939,3.71880402 36.7421344,3.71880402 36.2548058,4.20613255 L34.0247905,6.43614789 C32.5252806,5.57455106 30.9302543,4.91324615 29.2616414,4.46100528 L29.2616414,1.30993908 C29.2616414,0.620856482 28.703163,0.0623780515 28.0140804,0.0623780515 L19.8917758,0.0623780515 C19.2031806,0.0623780515 18.6442147,0.620856482 18.6442147,1.30993908 L18.6442147,4.45467004 C16.9731653,4.9054489 15.3747277,5.5662665 13.8727812,6.42737592 L11.6515377,4.20613255 C11.1646966,3.71929132 10.374737,3.71929132 9.88740846,4.20613255 L4.1442418,9.94978651 C3.65691327,10.4366277 3.65691327,11.2265873 4.1442418,11.7139158 L6.35914992,13.9293113 C5.49316716,15.4327198 4.82893835,17.0331067 4.37523546,18.7065928 L1.24756103,18.7065928 C0.55847843,18.7065928 -1.77635684e-14,19.2650713 -1.77635684e-14,19.9541538 L-1.77635684e-14,28.0764584 C-1.77635684e-14,28.765541 0.55847843,29.3240195 1.24756103,29.3240195 L4.36890022,29.3240195 C4.82114109,31.000917 5.48439531,32.6042278 6.35037807,34.1105603 L4.1437545,36.3166965 C3.65691327,36.804025 3.65691327,37.5939846 4.1437545,38.0813132 L9.88740846,43.8244798 C10.3742497,44.3118083 11.1642092,44.3118083 11.6515377,43.8244798 L13.857674,41.6183435 C15.3644938,42.483839 16.9673173,43.1475805 18.6442147,43.599334 L18.6442147,46.7211606 C18.6442147,47.4102432 19.2026933,47.9687216 19.8917758,47.9687216 L25.3483934,47.9687216 C28.2796745,52.1875246 33.1597823,54.9550634 38.6748792,54.9550634 C41.6134703,54.9550634 44.3722371,54.1690025 46.7518623,52.7971727 L56.6534033,62.6987136 C57.4779631,63.5232736 58.5612945,63.9355535 59.6446258,63.9355535 C60.7279572,63.9355535 61.8112884,63.5232736 62.6358483,62.6987136 C63.4350671,61.8994948 63.8751248,60.8371188 63.8751248,59.7070039 C63.8751248,58.5773763 63.4350671,57.5145128 62.6358483,56.7157813 L62.6358483,56.7157813 Z M21.1393368,45.4735996 L21.1393368,42.6193164 C21.1393368,42.0320854 20.7299808,41.5242892 20.1563952,41.4000204 C18.0842743,40.9507035 16.1281376,40.1412507 14.3430532,38.9940795 C13.8493895,38.6763413 13.2017297,38.7465166 12.786526,39.1612332 L10.7694732,41.1782859 L6.79043576,37.1992485 L8.80748845,35.1821957 C9.22269235,34.7669919 9.29189306,34.1188449 8.97464216,33.6251811 C7.82747087,31.8400967 7.01801809,29.8844473 6.56870125,27.8123264 C6.44443245,27.2382534 5.93663618,26.8288974 5.34940522,26.8288974 L2.49512206,26.8288974 L2.49512206,21.2017149 L5.35476586,21.2017149 C5.94102211,21.2017149 6.44833108,20.7933336 6.57357448,20.2202353 C7.02484076,18.1510384 7.83575542,16.198313 8.98341401,14.4156651 C9.30163964,13.9220014 9.23195162,13.2733671 8.81674772,12.8581632 L6.79043576,10.8318512 L10.7694732,6.85281382 L12.8006585,8.88399912 C13.2153751,9.2987156 13.8625474,9.36840361 14.3562111,9.05164013 C16.1378842,7.90934206 18.0891476,7.10281332 20.1563952,6.65447107 C20.7299808,6.53020227 21.1393368,6.02240601 21.1393368,5.43517504 L21.1393368,2.55750011 L26.7665193,2.55750011 L26.7665193,5.44053568 C26.7665193,6.02679193 27.175388,6.5341009 27.7484864,6.6593443 C29.8123227,7.10963586 31.7611495,7.91713932 33.5394113,9.06041198 C34.0335623,9.37815018 34.6812221,9.30846217 35.0964258,8.89325827 L37.1368704,6.85281382 L41.1159078,10.8318512 L39.0754634,12.8722958 C38.6602594,13.2870123 38.5905714,13.9351593 38.9078223,14.428823 C40.051095,16.2075721 40.8590858,18.1559116 41.3093773,20.2202353 C41.4346207,20.7933336 41.9419297,21.2017149 42.5281859,21.2017149 L45.4112215,21.2017149 L45.4112215,23.9848481 C43.3585937,23.0438168 41.0769215,22.5184766 38.6748792,22.5184766 C38.1397926,22.5184766 37.6105537,22.5452797 37.0881376,22.5959619 C36.7626021,19.5579558 35.4053922,16.7460702 33.1973066,14.5818441 C30.7104691,12.1452015 27.4234382,10.8030988 23.9414759,10.8030988 C16.6495791,10.8030988 10.717329,16.7353489 10.717329,24.0272457 C10.717329,30.8430224 15.9005552,36.470205 22.5321218,37.1763441 C22.4829016,37.6899883 22.4565858,38.2104552 22.4565858,38.73677 C22.4565858,41.1388123 22.9824134,43.4204845 23.9234448,45.4735996 L21.1393368,45.4735996 Z M23.9414759,28.6105705 C21.4141902,28.6105705 19.3576637,26.5545314 19.3576637,24.0272457 C19.3576637,21.49996 21.4141902,19.4439209 23.9414759,19.4439209 C26.4687616,19.4439209 28.5248007,21.49996 28.5248007,24.0272457 C28.5248007,26.5545314 26.4687616,28.6105705 23.9414759,28.6105705 Z M23.9414759,16.9487989 C20.0379745,16.9487989 16.8625416,20.1242316 16.8625416,24.0272457 C16.8625416,27.9302599 20.0379745,31.1056926 23.9414759,31.1056926 C24.0871872,31.1056926 24.2314364,31.0998446 24.3751982,31.0910728 C23.7670122,32.2241116 23.2894304,33.4365849 22.9629202,34.709487 C17.5038661,34.2133867 13.212451,29.6130054 13.212451,24.0272457 C13.212451,18.1110774 18.0253076,13.2982209 23.9414759,13.2982209 C29.4755787,13.2982209 34.1125096,17.5993824 34.6212806,23.0316335 C33.3493531,23.360093 32.1378544,23.8396243 31.0062775,24.4492722 C31.0145621,24.3098963 31.0199227,24.1690584 31.0199227,24.0272457 C31.0199227,20.1242316 27.84449,16.9487989 23.9414759,16.9487989 Z M24.9517079,38.73677 C24.9517079,31.1695326 31.1081292,25.0135987 38.6748792,25.0135987 C46.2416293,25.0135987 52.3980506,31.1695326 52.3980506,38.73677 C52.3980506,46.3035201 46.2416293,52.4599413 38.6748792,52.4599413 C31.1081292,52.4599413 24.9517079,46.3035201 24.9517079,38.73677 Z" id="Shape"></path>
                <path d="M38.6748792,33.1232327 C37.9857968,33.1232327 37.4273182,33.6817112 37.4273182,34.3707937 C37.4273182,35.0598763 37.9857968,35.6183547 38.6748792,35.6183547 C40.3941743,35.6183547 41.7932945,37.0169877 41.7932945,38.73677 C41.7932945,39.4253652 42.3517729,39.984331 43.0408555,39.984331 C43.7299381,39.984331 44.2884166,39.4253652 44.2884166,38.73677 C44.2884166,35.6412592 41.77039,33.1232327 38.6748792,33.1232327 L38.6748792,33.1232327 Z" id="Path"></path>
                <path d="M53.6514595,50.7430829 C53.6514595,51.0715424 53.7835256,51.3931792 54.016956,51.6251476 C54.2489244,51.857116 54.5710485,51.9906439 54.8990206,51.9906439 C55.2269928,51.9906439 55.5491169,51.857116 55.7810853,51.6251476 C56.0130537,51.3931792 56.1465816,51.0715424 56.1465816,50.7430829 C56.1465816,50.4136488 56.0130537,50.092012 55.7810853,49.8600436 C55.5491169,49.6280752 55.2269928,49.4945473 54.8990206,49.4945473 C54.5710485,49.4945473 54.2489244,49.6275879 54.016956,49.8600436 C53.7835256,50.092012 53.6514595,50.4136488 53.6514595,50.7430829 Z" id="Path"></path>
            </g>
        </g>
    </g>
</svg>