<?xml version="1.0" encoding="UTF-8"?>
<svg width="62px" height="64px" viewBox="0 0 62 64" version="1.1" xmlns="http://www.w3.org/2000/svg" xmlns:xlink="http://www.w3.org/1999/xlink">
    <!-- Generator: sketchtool 63.1 (101010) - https://sketch.com -->
    <title>8DE27D86-541A-4EDD-AC7A-8D42D0DF7202</title>
    <desc>Created with sketchtool.</desc>
    <g id="Main&amp;About" stroke="none" stroke-width="1" fill="none" fill-rule="evenodd">
        <g id="4.3.-More-technical-features--" transform="translate(-449.000000, -188.000000)" fill="#FFFFFF" fill-rule="nonzero">
            <g id="sensor" transform="translate(449.000000, 188.000000)">
                <path d="M21.7285156,4.34960938 L12.7490235,4.34960938 C12.0424805,4.34960938 11.4697265,4.92236325 11.4697265,5.62890625 C11.4697265,6.33544925 12.0424805,6.90820312 12.7490235,6.90820312 L21.7285156,6.90820312 C22.4350586,6.90820312 23.0078125,6.33544925 23.0078125,5.62890625 C23.0078125,4.92236325 22.4350586,4.34960938 21.7285156,4.34960938 Z" id="Path"></path>
                <path d="M56.8461914,36.6088867 L46.6538086,26.4165039 C44.5878906,24.350586 41.3300781,24.246582 39.3920899,26.1845703 C38.7329101,26.8432617 38.2944336,27.6635742 38.1054688,28.5668945 C37.3466797,28.1220703 36.496582,27.8666992 35.6191406,27.8295899 C35.2285156,27.8129883 34.8461914,27.8413086 34.4770508,27.9091797 L34.4770508,22.0234375 L45.5371094,22.0234375 C46.2436524,22.0234375 46.8164062,21.4511719 46.8164062,20.7446289 C46.8164062,20.038086 46.2436524,19.465332 45.5371094,19.465332 L34.4770508,19.465332 L34.4770508,5.665039 C34.4770508,2.54101562 31.9360351,0 28.8120118,0 L5.665039,0 C2.54150388,0 3.55271368e-15,2.54101562 3.55271368e-15,5.665039 L3.55271368e-15,14.680664 C3.55271368e-15,15.387207 0.572753875,15.959961 1.27929688,15.959961 C1.9853515,15.959961 2.5581055,15.387207 2.5581055,14.680664 L2.5581055,11.2895508 L31.9189453,11.2895508 L31.9189453,29.2807617 C31.3041993,29.9194336 30.8803711,30.7363281 30.6992188,31.6030274 C28.7070313,30.4370117 26.1835938,30.6367188 24.5722656,32.2480469 C23.953125,32.8666992 23.5429688,33.6201172 23.3378906,34.4257812 L18.9829101,30.0708007 C17.0458985,28.133789 14.0620118,27.9213867 12.0991211,29.4995117 C11.9682618,29.6044922 11.8422851,29.7177735 11.7211914,29.8388672 C9.78320313,31.7773437 9.887207,35.034668 11.953125,37.100586 L17.9697265,43.1171875 L2.5581055,43.1171875 L2.5581055,24.9394531 C2.5581055,24.2329101 1.9853515,23.6601562 1.27929688,23.6601562 C0.572753875,23.6601562 3.55271368e-15,24.2329101 3.55271368e-15,24.9394531 L3.55271368e-15,53.913086 C3.55271368e-15,57.0371094 2.54150388,59.578125 5.665039,59.578125 L20.4047851,59.578125 C20.7319336,62.0649414 22.8632813,63.991211 25.4375,63.991211 C25.4375,63.991211 45.3154298,64 45.491211,64 C49.730957,64 53.8422851,62.3051758 56.8461914,59.3012695 C63.102539,53.0449219 63.102539,42.8652344 56.8461914,36.6088867 L56.8461914,36.6088867 Z M2.5581055,8.730957 L2.5581055,5.665039 C2.5581055,3.9521485 3.9521485,2.5581055 5.665039,2.5581055 L28.8125,2.5581055 C30.5253906,2.5581055 31.9189452,3.9521485 31.9189452,5.665039 L31.9189452,8.730957 L2.5581055,8.730957 Z M2.55859375,53.913086 L2.55859375,45.6757812 L20.527832,45.6757812 L27.8305664,52.9785156 C27.1020507,52.9785156 26.3730469,52.9785156 25.6445312,52.9785156 C25.0820312,52.9785156 24.53125,53.03125 23.9887695,53.1904298 C23.1645507,53.4326173 22.4052735,53.8969726 21.8066406,54.512207 C21.1347656,55.2021485 20.663086,56.0766601 20.4663086,57.0200195 L5.665039,57.0200195 C3.9521485,57.0200195 2.55859375,55.6259765 2.55859375,53.913086 Z M55.0371094,57.4921875 C52.4033203,60.1264649 48.7578125,61.5634765 45.0292969,61.4335937 C45.0146485,61.4331055 25.4379883,61.4331055 25.4379883,61.4331055 C24.1347656,61.4331055 23.0161133,60.3920899 22.9248048,59.0917969 C22.9008789,58.7529297 22.9165039,58.4077149 22.918457,58.0683594 C22.9213868,57.4487305 23.1416015,56.8496094 23.5541993,56.3852539 C24.0292969,55.8500976 24.722168,55.5371094 25.4379883,55.5371094 L30.3891601,55.5371094 L32.3227539,57.4707031 C32.5727539,57.7207031 32.8999024,57.8457031 33.227539,57.8457031 C33.5546875,57.8457031 33.881836,57.7207031 34.131836,57.4707031 C34.6313476,56.9711914 34.6313476,56.1611328 34.131836,55.6616211 L13.762207,35.2919923 C13.0791015,34.6088868 12.7143555,33.5834961 12.9677735,32.631836 C13.0922851,32.1635743 13.3701173,31.7324219 13.7651368,31.4482423 C14.2539063,31.0961914 14.8422851,30.9609375 15.4384765,31.0253906 C16.0927735,31.0966798 16.7109375,31.4169923 17.1738281,31.8798828 L31.2402344,45.946289 C31.4902344,46.1958008 31.8173828,46.3208008 32.1445313,46.3208008 C32.472168,46.3208008 32.7993164,46.1958008 33.0493164,45.946289 C33.5488281,45.4467774 33.5488281,44.6367188 33.0493164,44.137207 L26.6132812,37.7011719 C25.5444336,36.6328125 25.4404298,34.9980469 26.3813476,34.0571289 C27.3217774,33.1166993 28.956543,33.2207031 30.0249024,34.2890625 L36.3881836,40.6523438 C36.6381836,40.9023438 36.965332,41.0268555 37.2924805,41.0268555 C37.6201173,41.0268555 37.9472656,40.9023438 38.1972656,40.6523438 C38.6967774,40.152832 38.6967774,39.3427735 38.1972656,38.8432618 L34.0229493,34.6689453 C33.8227539,34.46875 33.65625,34.2485351 33.5239258,34.0166015 C33.2602539,33.5532226 33.133789,33.0429688 33.149414,32.5527344 C33.1679688,31.980957 33.3793945,31.4370118 33.7910156,31.0253906 C33.8388673,30.977539 33.8896485,30.9331055 33.9414062,30.8901368 C33.9536133,30.8803711 33.965332,30.8701173 33.977539,30.8603515 C34.397461,30.5288086 34.934082,30.3613281 35.5102539,30.3852539 C36.2192383,30.4155274 36.902832,30.7250976 37.4350586,31.2573243 L41.6088867,35.4311524 C41.8588867,35.6811524 42.1860351,35.8061524 42.5136719,35.8061524 C42.8408202,35.8061524 43.1679688,35.6811524 43.4179688,35.4311524 C43.9174805,34.9321289 43.9174805,34.1220703 43.4179688,33.6225586 L41.4282226,31.6328125 C40.8989258,31.1015625 40.5913086,30.4199219 40.5610351,29.7128906 C40.5327149,29.0454101 40.7597656,28.4345703 41.2006836,27.9936524 C42.1416015,27.0527344 43.7758789,27.1567383 44.8447265,28.225586 L55.0371094,38.4179688 C60.2958985,43.6767578 60.2958985,52.2333985 55.0371094,57.4921875 L55.0371094,57.4921875 Z" id="Shape"></path>
                <path d="M0.0981445,20.2998047 C0.302734375,20.7949219 0.807128875,21.112793 1.34179687,21.0874024 C1.87548825,21.0625 2.3481445,20.6918945 2.50292975,20.1811524 C2.65136725,19.6928711 2.48583987,19.1445312 2.090332,18.821289 C1.65820312,18.46875 1.03369137,18.4394531 0.568847625,18.7470702 C0.06542975,19.0805664 -0.131347625,19.7441406 0.0981445,20.2998047 Z" id="Path"></path>
                <path d="M17.2387695,47.7021485 C15.234375,47.7021485 13.6035156,49.3330078 13.6035156,51.3374024 C13.6035156,53.3413086 15.234375,54.972168 17.2387695,54.972168 C19.243164,54.972168 20.8735351,53.3417969 20.8735351,51.3374024 C20.8735351,49.3330077 19.243164,47.7021485 17.2387695,47.7021485 L17.2387695,47.7021485 Z M17.2387695,52.4140625 C16.6450195,52.4140625 16.1621094,51.9311524 16.1621094,51.3374024 C16.1621094,50.7436524 16.6450195,50.2602539 17.2387695,50.2602539 C17.8325195,50.2602539 18.3154297,50.7436524 18.3154297,51.3374024 C18.3154297,51.9311524 17.8325195,52.4140625 17.2387695,52.4140625 Z" id="Shape"></path>
                <path d="M10.133789,26.7626953 C9.63427737,26.2631836 8.824707,26.2631836 8.324707,26.7626953 C6.56054688,28.5268555 5.58886725,30.8725586 5.58886725,33.3671875 C5.58886725,35.8623047 6.56054688,38.2075195 8.324707,39.9716797 C8.574707,40.2216797 8.9018555,40.3466797 9.22900388,40.3466797 C9.55664062,40.3466797 9.883789,40.2216797 10.133789,39.9716797 C10.6333008,39.472168 10.6333008,38.6621094 10.133789,38.1625976 C8.85302737,36.881836 8.147461,35.178711 8.147461,33.3671875 C8.147461,31.555664 8.85302737,29.852539 10.133789,28.5717774 C10.6333008,28.0722656 10.6333008,27.262207 10.133789,26.7626953 Z" id="Path"></path>
                <path d="M38.3256836,16.6967774 L48.836914,16.6967774 C49.543457,16.6967774 50.116211,16.1240235 50.116211,15.4174805 C50.116211,14.7109375 49.543457,14.1381836 48.836914,14.1381836 L38.3256836,14.1381836 C37.6196289,14.1381836 37.0463868,14.7109375 37.0463868,15.4174805 C37.0463868,16.1240235 37.6191406,16.6967774 38.3256836,16.6967774 L38.3256836,16.6967774 Z" id="Path"></path>
                <path d="M52.7817382,15.9072265 C52.987793,16.4057618 53.5048827,16.7290039 54.0444336,16.6938476 C54.5708007,16.6601563 55.0332031,16.2929688 55.1865235,15.7885743 C55.3422851,15.2753906 55.1518555,14.7016601 54.7177735,14.3862305 C54.2983399,14.081543 53.7285156,14.0615235 53.288086,14.3320312 C52.7597656,14.6567383 52.5458985,15.3374024 52.7817382,15.9072265 L52.7817382,15.9072265 Z" id="Path"></path>
            </g>
        </g>
    </g>
</svg>