<?xml version="1.0" encoding="UTF-8"?>
<svg width="64px" height="64px" viewBox="0 0 64 64" version="1.1" xmlns="http://www.w3.org/2000/svg" xmlns:xlink="http://www.w3.org/1999/xlink">
    <!-- Generator: sketchtool 63.1 (101010) - https://sketch.com -->
    <title>ED8725D3-8083-48EE-8BD7-9F1DDDBC7EFE</title>
    <desc>Created with sketchtool.</desc>
    <g id="Main&amp;About" stroke="none" stroke-width="1" fill="none" fill-rule="evenodd">
        <g id="Step-4.2.-Minor-features" transform="translate(-448.000000, -187.000000)" fill="#FFFFFF" fill-rule="nonzero">
            <g id="share" transform="translate(448.000000, 187.000000)">
                <path d="M42.37875,12.36625 C42.14625,12.13375 41.82375,12.00125 41.495,12.00125 C41.16625,12.00125 40.84375,12.13375 40.61125,12.36625 C40.37875,12.6 40.245,12.92125 40.245,13.25125 C40.245,13.58 40.37875,13.9025 40.61125,14.135 C40.84375,14.3675 41.16625,14.50125 41.495,14.50125 C41.82375,14.50125 42.14625,14.3675 42.37875,14.135 C42.61125,13.9025 42.745,13.58 42.745,13.25125 C42.745,12.92125 42.61125,12.6 42.37875,12.36625 Z" id="Path"></path>
                <path d="M23.31625,31.575 C23.08375,31.3425 22.76125,31.20875 22.4325,31.20875 C22.10375,31.20875 21.78125,31.3425 21.54875,31.575 C21.31625,31.8075 21.1825,32.13 21.1825,32.45875 C21.1825,32.7875 21.31625,33.11 21.54875,33.3425 C21.78125,33.575 22.10375,33.70875 22.4325,33.70875 C22.76125,33.70875 23.08375,33.575 23.31625,33.3425 C23.54875,33.11 23.6825,32.7875 23.6825,32.45875 C23.6825,32.13 23.54875,31.8075 23.31625,31.575 Z" id="Path"></path>
                <path d="M54.75,0.057125 C49.6495,0.057125 45.5,4.206625 45.5,9.307125 C45.5,14.407625 49.6495,18.557125 54.75,18.557125 C59.8505,18.557125 64,14.407625 64,9.307125 C64,4.206625 59.8505,0.057125 54.75,0.057125 Z M59.197125,14.37875 C58.0085,15.422375 56.4525,16.057125 54.750125,16.057125 C53.047375,16.057125 51.49125,15.422125 50.3025,14.378375 L50.3025,14.372625 C50.3025,13.77675 50.727625,13.265125 51.313375,13.155875 L52.160125,12.998 C52.85525,13.599625 53.760375,13.965 54.74975,13.965 C55.739125,13.965 56.64425,13.59975 57.339375,12.998 L58.18625,13.155875 C58.772,13.265125 59.197125,13.776875 59.197125,14.372625 L59.197125,14.37875 L59.197125,14.37875 Z M53.28675,10.001875 L53.28675,9.153125 C53.28675,8.346375 53.943,7.690125 54.74975,7.690125 C55.5565,7.690125 56.21275,8.346375 56.21275,9.153125 L56.21275,10.001875 C56.21275,10.808625 55.5565,11.464875 54.74975,11.464875 C53.943,11.464875 53.28675,10.8085 53.28675,10.001875 Z M60.90475,12.07325 C60.360375,11.376125 59.5715,10.872625 58.65,10.69925 C58.690375,10.472625 58.71275,10.239875 58.71275,10.00175 L58.71275,9.153 C58.71275,6.96775 56.935,5.19 54.74975,5.19 C52.5645,5.19 50.78675,6.96775 50.78675,9.153 L50.78675,10.00175 C50.78675,10.23975 50.809,10.472625 50.8495,10.69925 C49.92825,10.8725 49.139375,11.376 48.595125,12.07275 C48.214,11.228125 48,10.292375 48,9.307125 C48,5.585125 51.028,2.557125 54.75,2.557125 C58.472,2.557125 61.5,5.585125 61.5,9.307125 C61.5,10.292625 61.286,11.2285 60.90475,12.07325 Z" id="Shape"></path>
                <path d="M42.229625,40.442875 C39.4435,40.442875 36.881375,41.41825 34.865125,43.044625 L26.386,34.623375 C25.896125,34.13675 25.10475,34.1395 24.61825,34.629375 C24.13175,35.119125 24.1345,35.910625 24.62425,36.397125 L33.0955,44.810625 C31.460625,46.829625 30.4795,49.398625 30.4795,52.192875 C30.4795,58.671875 35.7505,63.942875 42.2295,63.942875 C48.7085,63.942875 53.9795,58.671875 53.9795,52.192875 C53.9795,45.713875 48.708625,40.442875 42.229625,40.442875 Z M48.457125,59.0265 C46.812375,60.52675 44.626125,61.442875 42.22975,61.442875 C39.833,61.442875 37.646625,60.526375 36.00175,59.025875 L36.00175,58.841375 C36.00175,57.87125 36.693875,57.038125 37.6475,56.86025 L38.94775,56.61775 C39.808,57.421875 40.961875,57.9155 42.2295,57.9155 C43.497125,57.9155 44.651,57.421875 45.511125,56.61775 L46.81125,56.86025 C47.764875,57.038125 48.457125,57.87125 48.457125,58.841375 L48.457125,59.0265 L48.457125,59.0265 Z M39.918625,53.104625 L39.918625,51.990625 C39.918625,50.7165 40.95525,49.679875 42.229375,49.679875 C43.5035,49.679875 44.540125,50.7165 44.540125,51.990625 L44.540125,53.104625 C44.540125,54.37875 43.5035,55.415375 42.229375,55.415375 C40.95525,55.415375 39.918625,54.37875 39.918625,53.104625 Z M50.36075,56.59975 C49.71975,55.48075 48.610125,54.652625 47.2695,54.4025 L46.881375,54.330125 C46.984625,53.938625 47.040125,53.528 47.040125,53.104625 L47.040125,51.990625 C47.040125,49.337875 44.882,47.179875 42.229375,47.179875 C39.57675,47.179875 37.418625,49.338 37.418625,51.990625 L37.418625,53.104625 C37.418625,53.528 37.474125,53.938625 37.577375,54.330125 L37.189125,54.4025 C35.848875,54.6525 34.739375,55.480375 34.09825,56.599125 C33.385125,55.288375 32.979625,53.787 32.979625,52.19275 C32.979625,47.09225 37.129125,42.94275 42.229625,42.94275 C47.330125,42.94275 51.479625,47.09225 51.479625,52.19275 C51.479625,53.787375 51.074125,55.288875 50.36075,56.59975 Z" id="Shape"></path>
                <path d="M38.172,14.171625 C37.98775,13.506375 37.299,13.116375 36.633625,13.300875 L22.67525,17.169 C20.949125,12.823875 16.702625,9.74375 11.75,9.74375 C5.271,9.74375 0,15.01475 0,21.49375 C0,27.97275 5.271,33.24375 11.75,33.24375 C18.229,33.24375 23.5,27.97275 23.5,21.49375 C23.5,20.8415 23.44575,20.20175 23.343,19.578125 L37.30125,15.71 C37.9665,15.525625 38.356375,14.836875 38.172,14.171625 Z M17.977375,28.327375 C16.3325,29.8275 14.146375,30.74375 11.75,30.74375 C9.353375,30.74375 7.166875,29.82725 5.522,28.32675 L5.522,28.14225 C5.522,27.172125 6.214125,26.339 7.16775,26.161125 L8.468,25.918625 C9.32825,26.72275 10.482125,27.21625 11.74975,27.21625 C13.017375,27.21625 14.17125,26.722625 15.031375,25.918625 L16.331625,26.161125 C17.28525,26.339 17.977375,27.172125 17.977375,28.14225 L17.977375,28.327375 Z M9.439,22.405625 L9.439,21.291625 C9.439,20.0175 10.475625,18.980875 11.74975,18.980875 C13.023875,18.980875 14.0605,20.0175 14.0605,21.291625 L14.0605,22.405625 C14.0605,23.67975 13.023875,24.716375 11.74975,24.716375 C10.475625,24.716375 9.439,23.679875 9.439,22.405625 Z M19.881125,25.900625 C19.240125,24.781625 18.1305,23.9535 16.789875,23.7035 L16.40175,23.631125 C16.505,23.239625 16.5605,22.829 16.5605,22.405625 L16.5605,21.291625 C16.5605,18.639 14.402375,16.480875 11.74975,16.480875 C9.097125,16.480875 6.939,18.639 6.939,21.291625 L6.939,22.405625 C6.939,22.829 6.9945,23.239625 7.09775,23.631125 L6.7095,23.7035 C5.36925,23.9535 4.25975,24.78125 3.618625,25.900125 C2.905375,24.58925 2.5,23.088 2.5,21.49375 C2.5,16.39325 6.6495,12.24375 11.75,12.24375 C16.8505,12.24375 21,16.39325 21,21.49375 C21,23.08825 20.594375,24.58975 19.881125,25.900625 Z" id="Shape"></path>
            </g>
        </g>
    </g>
</svg>