<?xml version="1.0" encoding="UTF-8"?>
<svg width="54px" height="64px" viewBox="0 0 54 64" version="1.1" xmlns="http://www.w3.org/2000/svg" xmlns:xlink="http://www.w3.org/1999/xlink">
    <!-- Generator: sketchtool 63.1 (101010) - https://sketch.com -->
    <title>A76BD275-874B-456D-A943-ECFB69CD1DFF</title>
    <desc>Created with sketchtool.</desc>
    <g id="Main&amp;About" stroke="none" stroke-width="1" fill="none" fill-rule="evenodd">
        <g id="-Step-1.2-Devices" transform="translate(-453.000000, -187.000000)" fill="#FFFFFF" fill-rule="nonzero">
            <g id="smartphones" transform="translate(453.000000, 187.000000)">
                <path d="M51.2743984,19.5926405 L36.6466726,19.5926405 C36.1352879,19.5926405 35.7212638,20.0066646 35.7212638,20.5180494 C35.7212638,21.0289523 36.1352879,21.4434583 36.6466726,21.4434583 L51.2748804,21.4434583 C51.5847958,21.4434583 51.8368734,21.6955358 51.8368734,22.0054514 L51.8368734,25.3214998 L34.1659022,25.3214998 L34.1659022,5.66282739 C34.1659022,2.54053653 31.6253657,0 28.5030747,0 C27.9921719,0 27.5776658,0.41450605 27.5776658,0.925408855 C27.5776658,1.43631166 27.9921719,1.85081771 28.5030747,1.85081771 C30.6050059,1.85081771 32.3150845,3.56089616 32.3150845,5.66282739 L32.3150845,6.79018748 L1.91251163,6.79018748 L1.91251163,5.66282739 C1.91251163,3.56089616 3.62259008,1.85081771 5.72452131,1.85081771 L24.6539523,1.85081771 C25.1653371,1.85081771 25.5793612,1.43631166 25.5793612,0.925408855 C25.5793612,0.41450605 25.1653371,0 24.6539523,0 L5.72452131,0 C2.60223045,0 0.0616939237,2.54053653 0.0616939237,5.66282739 L0.0616939237,48.8119432 C0.0616939237,51.9342342 2.60223045,54.4747707 5.72452131,54.4747707 L26.2589582,54.4747707 L26.2589582,60.761767 C26.2589582,62.0920422 27.3414938,63.1745778 28.6717691,63.1745778 L51.2758443,63.1745778 C52.6056375,63.1745778 53.6876911,62.0930062 53.6876911,60.763213 L53.6876911,22.0054514 C53.6876911,20.6746942 52.6051556,19.5926405 51.2743984,19.5926405 L51.2743984,19.5926405 Z M1.91251163,48.8119432 L1.91251163,8.64100519 L32.3150845,8.64100519 L32.3150845,45.550841 L4.79622061,45.550841 C4.28531781,45.550841 3.87081176,45.9648651 3.87081176,46.4762499 C3.87081176,46.9871527 4.28531781,47.4016587 4.79622061,47.4016587 L32.3150845,47.4016587 L32.3150845,48.8119432 C32.3150845,50.9138744 30.6050059,52.623953 28.5030747,52.623953 L5.72452131,52.623953 C3.62259008,52.623953 1.91251163,50.9138744 1.91251163,48.8119432 Z M28.5030747,54.4747707 C31.6258476,54.4747707 34.1659022,51.9342342 34.1659022,48.8119432 L34.1659022,27.1723175 L51.8368734,27.1723175 L51.8368734,55.5944189 L28.1097759,55.5944189 L28.1097759,54.4747707 L28.5030747,54.4747707 Z M28.1097759,60.761767 L28.1097759,57.4452366 L39.0479159,57.4452366 L39.0479159,61.3237601 L28.6717691,61.3237601 C28.3618535,61.3237601 28.1097759,61.0716826 28.1097759,60.761767 L28.1097759,60.761767 Z M51.2758443,61.3237601 L40.8987336,61.3237601 L40.8987336,57.4452366 L51.8363921,57.4452366 L51.8363921,60.763213 C51.8368734,61.0721647 51.5852779,61.3237601 51.2758443,61.3237601 L51.2758443,61.3237601 Z" id="Shape"></path>
                <path d="M17.0993385,48.164157 C16.04283,48.164157 15.1834531,49.0235341 15.1834531,50.0795606 C15.1834531,51.136069 16.04283,51.9954461 17.0993385,51.9954461 C18.155365,51.9954461 19.0147421,51.136069 19.0147421,50.0795606 C19.0147421,49.0235341 18.155365,48.164157 17.0993385,48.164157 Z M17.0993385,50.1446284 C17.0636718,50.1446284 17.0342708,50.1157093 17.0342708,50.0800425 C17.0342708,50.0443758 17.0636718,50.0149747 17.0993385,50.0149747 C17.1350053,50.0149747 17.1639244,50.0443758 17.1639244,50.0800425 C17.1639244,50.1157093 17.1350053,50.1446284 17.0993385,50.1446284 Z" id="Shape"></path>
            </g>
        </g>
    </g>
</svg>