<?xml version="1.0" encoding="UTF-8"?>
<svg width="39px" height="64px" viewBox="0 0 39 64" version="1.1" xmlns="http://www.w3.org/2000/svg" xmlns:xlink="http://www.w3.org/1999/xlink">
    <!-- Generator: sketchtool 63.1 (101010) - https://sketch.com -->
    <title>CC41AB18-CD14-4759-8D5E-CDC8F400F4ED</title>
    <desc>Created with sketchtool.</desc>
    <g id="Main&amp;About" stroke="none" stroke-width="1" fill="none" fill-rule="evenodd">
        <g id="Step--3.1--Sign-in-" transform="translate(-461.000000, -378.000000)" fill="#FFFFFF" fill-rule="nonzero">
            <g id="sms" transform="translate(461.000000, 378.000000)">
                <path d="M19.496625,37.65225 C18.87325,37.65225 18.322,37.25625 18.12325,36.66475 C18.11825,36.650125 18.113625,36.635375 18.10925,36.6205 L16.848875,32.348375 L16.0895,36.55575 C15.966875,37.235125 15.31725,37.686375 14.637375,37.563875 C13.958,37.44125 13.50675,36.791125 13.629375,36.11175 L15.176875,27.53775 C15.17775,27.533 15.178625,27.52825 15.1795,27.5235 C15.303875,26.877625 15.849,26.39575 16.505375,26.35175 C17.160625,26.3075 17.766375,26.712375 17.975875,27.336 C17.980875,27.35075 17.9855,27.3655 17.989875,27.380375 L19.479625,32.42975 L20.9155,27.39275 C20.919625,27.37825 20.924,27.363875 20.928625,27.3495 C21.131625,26.72425 21.7305,26.313 22.388375,26.35025 C23.04475,26.38725 23.595,26.863125 23.726375,27.507375 C23.727375,27.5125 23.728375,27.5175 23.729375,27.5225 L25.3685,36.099125 C25.498125,36.777125 25.053375,37.432 24.375375,37.5615 C23.69775,37.691125 23.0425,37.2465 22.913,36.568375 L22.104875,32.339625 L20.88825,36.607625 C20.884125,36.622 20.879875,36.636375 20.87525,36.6505 C20.682,37.2465 20.131125,37.649125 19.504625,37.652375 C19.50175,37.65225 19.49925,37.65225 19.496625,37.65225 L19.496625,37.65225 Z" id="Path"></path>
                <path d="M8.909125,37.65225 C7.35875,37.65225 5.902875,37.026875 4.914625,35.9365 C4.451,35.425 4.489875,34.634375 5.001375,34.170875 C5.51275,33.707375 6.3035,33.746125 6.767,34.257625 C7.274625,34.81775 8.075375,35.152125 8.909,35.152125 C9.671375,35.152125 10.2245,34.6965 10.299875,34.27425 C10.399625,33.71575 9.5145,33.343 9.240875,33.242125 C7.87075,32.73675 6.653875,32.195125 6.60275,32.17225 C6.5425,32.145375 6.484625,32.113875 6.429375,32.077875 C5.45175,31.4405 4.948125,30.322875 5.11475,29.16125 C5.291875,27.927 6.192,26.92225 7.46375,26.539125 C9.945125,25.791375 11.985875,27.474 12.0715,27.546 C12.6,27.99025 12.66825,28.778625 12.224,29.307125 C11.782,29.833125 10.998625,29.903375 10.470125,29.46575 C10.432625,29.436 9.34325,28.583875 8.18475,28.932875 C7.702,29.07825 7.6075,29.389375 7.58925,29.516375 C7.5745,29.619 7.577125,29.801375 7.736375,29.93975 C8.065,30.083375 9.049875,30.507 10.105875,30.8965 C12.413875,31.747875 12.990625,33.4265 12.76075,34.713625 C12.457,36.4165 10.837,37.65225 8.909125,37.65225 Z" id="Path"></path>
                <path d="M30.509875,37.65225 C28.9595,37.65225 27.503625,37.026875 26.5155,35.9365 C26.051875,35.425 26.09075,34.634375 26.60225,34.170875 C27.113625,33.707375 27.904375,33.746125 28.367875,34.257625 C28.8755,34.81775 29.67625,35.152125 30.509875,35.152125 C31.27225,35.152125 31.825375,34.6965 31.90075,34.27425 C32.0005,33.71575 31.115375,33.343 30.84175,33.242125 C29.471625,32.73675 28.25475,32.195125 28.203625,32.17225 C28.143375,32.145375 28.0855,32.113875 28.03025,32.077875 C27.052625,31.4405 26.548875,30.322875 26.715625,29.16125 C26.892875,27.927 27.792875,26.92225 29.06475,26.539125 C31.546375,25.791375 33.586875,27.474 33.6725,27.546 C34.201,27.99025 34.26925,28.778625 33.825,29.307125 C33.382875,29.833125 32.599625,29.903375 32.071125,29.46575 C32.03375,29.436 30.94425,28.583875 29.78575,28.932875 C29.303,29.07825 29.2085,29.389375 29.19025,29.516375 C29.1755,29.619 29.178125,29.801375 29.337375,29.939875 C29.666,30.083375 30.650875,30.507125 31.706875,30.8965 C34.014875,31.747875 34.591625,33.4265 34.36175,34.713625 C34.05775,36.4165 32.43775,37.65225 30.509875,37.65225 L30.509875,37.65225 Z" id="Path"></path>
                <path d="M32.38825,0 L6.61175,0 C2.966,0 0,2.966 0,6.61175 L0,57.388375 C0,61.034 2.966,64 6.61175,64 L32.388375,64 C36.034,64 39,61.034 39,57.38825 L39,6.61175 C39,2.966 36.034,0 32.38825,0 Z M2.5,9.87475 L36.5,9.87475 L36.5,20.649 L2.5,20.649 L2.5,9.87475 Z M2.5,23.148875 L36.5,23.148875 L36.5,40.851 L2.5,40.851 L2.5,23.148875 Z M2.5,6.61175 C2.5,4.3445 4.3445,2.5 6.61175,2.5 L32.388375,2.5 C34.6555,2.5 36.5,4.3445 36.5,6.61175 L36.5,7.37475 L2.5,7.37475 L2.5,6.61175 Z M36.5,57.38825 C36.5,59.6555 34.6555,61.5 32.38825,61.5 L6.61175,61.5 C4.3445,61.5 2.5,59.6555 2.5,57.38825 L2.5,55.37525 L13.22425,55.37525 C13.914625,55.37525 14.47425,54.815625 14.47425,54.12525 C14.47425,53.434875 13.914625,52.87525 13.22425,52.87525 L2.5,52.87525 L2.5,43.351 L36.5,43.351 L36.5,52.87525 L24.525875,52.87525 C23.8355,52.87525 23.275875,53.434875 23.275875,54.12525 C23.275875,54.815625 23.8355,55.37525 24.525875,55.37525 L36.5,55.37525 L36.5,57.38825 Z" id="Shape"></path>
                <path d="M18.8975,55.375 C18.375375,55.375 17.896875,55.038125 17.721875,54.546 C17.54975,54.062 17.6955,53.505 18.088875,53.17225 C18.49925,52.825125 19.1005,52.781875 19.557,53.06425 C19.994875,53.335125 20.2245,53.864875 20.123625,54.37 C20.008375,54.9475 19.48575,55.375 18.8975,55.375 L18.8975,55.375 Z" id="Path"></path>
            </g>
        </g>
    </g>
</svg>