<?xml version="1.0" encoding="UTF-8"?>
<svg width="64px" height="64px" viewBox="0 0 64 64" version="1.1" xmlns="http://www.w3.org/2000/svg" xmlns:xlink="http://www.w3.org/1999/xlink">
    <!-- Generator: sketchtool 63.1 (101010) - https://sketch.com -->
    <title>C9130307-35D8-4BC9-AA9B-BCDF54344AA3</title>
    <desc>Created with sketchtool.</desc>
    <g id="Main&amp;About" stroke="none" stroke-width="1" fill="none" fill-rule="evenodd">
        <g id="Step--3.1--Sign-in-" transform="translate(-718.000000, -378.000000)" fill="#FFFFFF" fill-rule="nonzero">
            <g id="social-media" transform="translate(718.000000, 378.000000)">
                <path d="M54.6274414,9.37255862 C48.5834961,3.32861325 40.5473633,0 32,0 C23.4521485,0 15.4165039,3.32861325 9.37255862,9.37255862 C3.32861325,15.4165039 -3.55271368e-15,23.4521485 -3.55271368e-15,32 C-3.55271368e-15,40.5473633 3.32861325,48.5834961 9.37255862,54.6274414 C15.4165039,60.6713868 23.4521485,64 32,64 C40.5473633,64 48.5834961,60.6713867 54.6274414,54.6274414 C60.6713867,48.5834961 64,40.5473633 64,32 C64,23.4521485 60.6713867,15.4165039 54.6274414,9.37255862 Z M16.0424805,55.2983399 C17.3808594,47.5922851 24.0585937,41.9082031 32,41.9082031 C39.9418945,41.9082031 46.6191406,47.5922851 47.9575195,55.2983399 C43.4140625,58.4199219 37.9169922,60.25 32,60.25 C26.0830078,60.25 20.5859375,58.4199219 16.0424805,55.2983399 Z M21.8251952,27.9833985 C21.8251952,22.3725586 26.3896485,17.8085938 32,17.8085938 C37.6103515,17.8085938 42.1748047,22.3730469 42.1748047,27.9833985 C42.1748047,33.59375 37.6103515,38.1582031 32,38.1582031 C26.3896485,38.1582031 21.8251952,33.59375 21.8251952,27.9833985 Z M51.2055664,52.6972656 C50.196289,49.1098633 48.1918945,45.8549805 45.3823242,43.3125 C43.6586914,41.7524414 41.6967774,40.5214844 39.5874024,39.6538086 C43.3999024,37.1669922 45.925293,32.8647461 45.925293,27.9833985 C45.925293,20.3051757 39.6782226,14.0585937 32,14.0585937 C24.3217774,14.0585937 18.0751952,20.3051757 18.0751952,27.9833985 C18.0751952,32.8647461 20.600586,37.1669922 24.4125976,39.6538086 C22.303711,40.5214844 20.3413086,41.7519531 18.6176757,43.3120117 C15.8085937,45.8544922 13.803711,49.109375 12.7944336,52.6972656 C7.2353515,47.5341797 3.75,40.1669922 3.75,32 C3.75,16.4228515 16.4228515,3.75 32,3.75 C47.5771485,3.75 60.25,16.4228515 60.25,32 C60.25,40.1674805 56.7646485,47.534668 51.2055664,52.6972656 Z" id="Shape"></path>
            </g>
        </g>
    </g>
</svg>