<?xml version="1.0" encoding="UTF-8"?>
<svg width="64px" height="64px" viewBox="0 0 64 64" version="1.1" xmlns="http://www.w3.org/2000/svg" xmlns:xlink="http://www.w3.org/1999/xlink">
    <!-- Generator: sketchtool 63.1 (101010) - https://sketch.com -->
    <title>8023DE57-D71B-4DD2-BDA5-16976CE6B6EE</title>
    <desc>Created with sketchtool.</desc>
    <g id="Main&amp;About" stroke="none" stroke-width="1" fill="none" fill-rule="evenodd">
        <g id="Step-2.2-Related-services" transform="translate(-718.000000, -376.000000)" fill="#FFFFFF" fill-rule="nonzero">
            <g id="style-sheet" transform="translate(718.000000, 376.000000)">
                <path d="M62.8607251,49.9826277 L60.0771618,47.1990643 L55.7375127,42.8594152 L55.7373879,42.8592904 L51.397614,38.5196413 C51.397614,38.5196413 51.397614,38.5195166 51.3974893,38.5195166 C51.3973645,38.5195166 51.3973645,38.5193918 51.3973645,38.5193918 L47.058963,34.1809903 C47.0584639,34.1804912 47.0580897,34.1799922 47.0575906,34.1794932 C47.0570916,34.1789942 47.0565926,34.1786199 47.0560936,34.1781209 L44.4352125,31.5573645 L56.8523353,19.140117 C56.9740975,19.0184795 57.0691618,18.8728889 57.1319142,18.712577 L63.7872904,1.70454581 C63.9678129,1.24294737 63.858152,0.718346979 63.5077115,0.367906433 C63.1570214,0.0173411306 62.6321715,-0.0924444444 62.1710721,0.0883274854 L45.1630409,6.7437037 C45.002729,6.80645614 44.8571384,6.90164522 44.7353762,7.02328265 L32.3182534,19.4404055 L29.6979961,16.8201481 C29.6978713,16.8200234 29.6977466,16.8198986 29.6976218,16.8197739 C29.6974971,16.8196491 29.6973723,16.8195244 29.6972476,16.8193996 L25.358347,12.480499 C25.3582222,12.4803743 25.3580975,12.4801248 25.3579727,12.48 C25.357848,12.4798752 25.3575984,12.4797505 25.3574737,12.479501 L21.0167018,8.13872904 C21.016577,8.13860429 21.0164522,8.13835478 21.0162027,8.13823002 C21.0159532,8.13810526 21.0158285,8.13798051 21.0157037,8.13773099 L16.6769279,3.79883041 C16.6768031,3.7985809 16.6765536,3.79845614 16.6764288,3.79820663 C16.6763041,3.79795712 16.6760546,3.79783236 16.6758051,3.7977076 L13.8927407,1.01451852 C13.2383938,0.360296296 12.3684678,0 11.4430253,0 C10.5178324,0 9.64790643,0.360296296 8.99368421,1.01451852 L1.01451852,8.99368421 C0.360296296,9.64790643 0,10.5178324 0,11.4431501 C0,12.3684678 0.360296296,13.2383938 1.01451852,13.892616 L19.4401559,32.3181287 L2.51184405,49.2465653 C0.893504873,50.864655 0.00237037037,53.0163275 0.00237037037,55.3048577 C0.00237037037,57.5935127 0.893504873,59.7450604 2.51184405,61.3633996 C4.18220663,63.0337622 6.3762963,63.8688811 8.57013645,63.8688811 C10.7643509,63.8688811 12.9583158,63.0337622 14.6286784,61.3633996 L31.5569903,44.4350877 L35.3120312,48.1901287 C35.7993294,48.6771774 36.5889123,48.6771774 37.0763353,48.1901287 C37.5635088,47.7029552 37.5635088,46.9131228 37.0763353,46.4258246 L32.4392671,41.7887563 L22.0866121,31.4361014 L2.77869786,12.1284366 C2.59568031,11.9452943 2.49487719,11.7020195 2.49487719,11.4431501 C2.49487719,11.1842807 2.59568031,10.9408811 2.77869786,10.7578635 L10.7577388,2.77882261 C10.9407563,2.59568031 11.1841559,2.49487719 11.4430253,2.49487719 C11.7018947,2.49487719 11.9452943,2.59568031 12.1283119,2.77869786 L14.029848,4.68023392 L10.9426277,7.7677037 C10.4554542,8.25487719 10.4554542,9.04470955 10.9426277,9.53188304 C11.1862768,9.77553216 11.5055283,9.89729435 11.824655,9.89729435 C12.1439064,9.89729435 12.4631579,9.77540741 12.7066823,9.53188304 L15.794152,6.44453801 L18.3698713,9.02025731 L17.3996413,9.99048733 C16.9124678,10.4776608 16.9124678,11.2674932 17.3996413,11.7546667 C17.6432904,11.9983158 17.9625419,12.120078 18.2816686,12.120078 C18.6009201,12.120078 18.9202963,11.998191 19.1636959,11.7546667 L20.1338012,10.7844366 L22.7112671,13.3619025 L19.623922,16.4492476 C19.1367485,16.9364211 19.1367485,17.7262534 19.623922,18.2134269 C19.8675712,18.457076 20.1868226,18.5788382 20.5059493,18.5788382 C20.825076,18.5788382 21.1444522,18.4569513 21.3879766,18.2134269 L24.4753216,15.1260819 L27.0510409,17.7018012 L26.0808109,18.6720312 C25.5936374,19.1592047 25.5936374,19.949037 26.0808109,20.4362105 C26.32446,20.6798596 26.6437115,20.8016218 26.9628382,20.8016218 C27.2820897,20.8016218 27.6013411,20.6797349 27.8448655,20.4362105 L28.8149708,19.4659805 L31.3906901,22.0416998 L28.303345,25.1290448 C27.8161715,25.6162183 27.8161715,26.4060507 28.303345,26.8932242 C28.5469942,27.1368733 28.8662456,27.2586355 29.1853723,27.2586355 C29.5046238,27.2586355 29.8238752,27.1367485 30.0673996,26.8932242 L33.1547446,23.8060039 L35.7304639,26.3817232 L34.7602339,27.3519532 C34.2730604,27.8391267 34.2730604,28.6289591 34.7602339,29.1161326 C35.003883,29.3597817 35.3231345,29.4815439 35.6422612,29.4815439 C35.9613879,29.4815439 36.2808889,29.3596569 36.5242885,29.1161326 L37.4943938,28.1459025 L40.0701131,30.7216218 L36.9841404,33.8075945 C36.4969669,34.294768 36.4969669,35.0846004 36.9841404,35.5718986 C37.2277895,35.815423 37.5470409,35.9373099 37.8661676,35.9373099 C38.1852943,35.9373099 38.5046706,35.815423 38.7481949,35.5718986 L41.8342924,32.4858012 L44.4100117,35.0615205 L43.4397817,36.0317505 C42.9526082,36.518924 42.9526082,37.3087563 43.4397817,37.7960546 C43.6834308,38.0395789 44.0026823,38.1614659 44.321809,38.1614659 C44.6409357,38.1614659 44.9603119,38.0395789 45.2038363,37.7960546 L46.1740663,36.8258246 L48.7497856,39.4015439 L45.6624405,42.4888889 C45.1752671,42.9760624 45.1752671,43.7658947 45.6624405,44.253193 C45.9060897,44.4967173 46.2253411,44.6186043 46.5444678,44.6186043 C46.8635945,44.6186043 47.1829708,44.4967173 47.4264951,44.253193 L50.5138402,41.165848 L53.0895595,43.7415673 L52.1192047,44.7117973 C51.6320312,45.1989708 51.6320312,45.9886784 52.1192047,46.4761014 C52.3628538,46.7196257 52.6821053,46.8415127 53.0013567,46.8415127 C53.3206082,46.8415127 53.6398596,46.7196257 53.883384,46.4761014 L54.8537388,45.5058713 L57.4294581,48.0815906 L54.3421131,51.1689357 C53.8549396,51.6561092 53.8549396,52.4459415 54.3421131,52.9332398 C54.5857622,53.1767641 54.9050136,53.2986511 55.2242651,53.2986511 C55.5435166,53.2986511 55.862768,53.1767641 56.1062924,52.9332398 L59.1936374,49.8458947 L61.0952982,51.7475556 C61.2783158,51.9305731 61.3789942,52.1739727 61.3789942,52.4328421 C61.3789942,52.6917115 61.278191,52.9351111 61.0951735,53.1181287 L53.1170058,61.0971696 C52.9339883,61.2803119 52.6905887,61.3809903 52.4317193,61.3809903 C52.1728499,61.3809903 51.9294503,61.2801871 51.7464327,61.0971696 L43.3858869,52.7367485 C42.8985887,52.2496998 42.1090058,52.2496998 41.6215828,52.7367485 C41.1344094,53.223922 41.1344094,54.0137544 41.6215828,54.5010526 L49.9821287,62.8613489 C50.6363509,63.5156959 51.5062768,63.8759922 52.4317193,63.8759922 C53.3569123,63.8759922 54.226963,63.5156959 54.8813099,62.8614737 L62.8603509,54.8824327 C63.5146979,54.2280858 63.8748697,53.3581598 63.8748697,52.4328421 C63.8748697,51.5067758 63.5148226,50.6368499 62.8607251,49.9826277 Z M12.864499,59.599345 C10.4968733,61.9672203 6.64402339,61.9674698 4.27602339,59.599345 C3.12901365,58.45246 2.49724756,56.9271891 2.49724756,55.3049825 C2.49724756,53.6827758 3.12888889,52.1577544 4.27602339,51.0108694 L8.20060819,47.0862846 L16.7890838,55.6747602 L12.864499,59.599345 Z M29.7928109,42.6709084 L18.5532632,53.9104561 L9.96491228,45.3219805 L21.2045848,34.0824327 L29.7928109,42.6709084 Z M60.4247329,3.45063548 L58.9653333,7.18035088 L56.6950175,4.91003509 L60.4247329,3.45063548 Z M54.1589708,5.90247173 L57.9730214,9.71652242 L55.5035945,16.0270721 L47.8482963,8.37177388 L54.1589708,5.90247173 Z M42.6706589,29.7928109 L38.3774191,25.4995712 C38.3772943,25.4994464 38.3771696,25.4993216 38.3771696,25.4991969 C38.3771696,25.4990721 38.3769201,25.4990721 38.3769201,25.4989474 L38.3764211,25.4984483 L34.0821832,21.2040858 L45.617154,9.66923977 L54.0683977,18.1204834 C54.1151813,18.1672671 54.1655828,18.2081871 54.2173567,18.2459883 L42.6706589,29.7928109 Z" id="Shape"></path>
                <path d="M40.4866745,49.8362885 C40.2545029,49.6029942 39.9326316,49.4707524 39.6046472,49.4707524 C39.2751657,49.4707524 38.9546667,49.6029942 38.7227446,49.8362885 C38.4894503,50.0683353 38.3572086,50.3902066 38.3572086,50.7183158 C38.3572086,51.046425 38.4894503,51.3670487 38.7227446,51.6002183 C38.9547914,51.8321404 39.2754152,51.9657544 39.6046472,51.9657544 C39.9327563,51.9657544 40.2546277,51.8322651 40.4866745,51.6002183 C40.7185965,51.3681715 40.850963,51.0463002 40.850963,50.7183158 C40.850963,50.3903314 40.7184717,50.0683353 40.4866745,49.8362885 Z" id="Path"></path>
            </g>
        </g>
    </g>
</svg>