<?xml version="1.0" encoding="UTF-8"?>
<svg width="64px" height="64px" viewBox="0 0 64 64" version="1.1" xmlns="http://www.w3.org/2000/svg" xmlns:xlink="http://www.w3.org/1999/xlink">
    <!-- Generator: sketchtool 63.1 (101010) - https://sketch.com -->
    <title>9388DAFB-88DE-4BD2-976D-1ACAE84A513D</title>
    <desc>Created with sketchtool.</desc>
    <g id="Main&amp;About" stroke="none" stroke-width="1" fill="none" fill-rule="evenodd">
        <g id="Step-5.-API-integrations" transform="translate(-448.000000, -188.000000)" fill="#FFFFFF" fill-rule="nonzero">
            <g id="support" transform="translate(448.000000, 188.000000)">
                <path d="M11.2563476,49.4936524 C10.3603515,49.4936524 9.4990235,49.7172851 8.73486325,50.137207 C4.70947263,44.9770508 2.5,38.5668945 2.5,32 C2.5,15.7333985 15.7333985,2.5 32,2.5 C33.977539,2.5 35.9541015,2.69677738 37.875,3.084961 C38.5507813,3.22167975 39.2109375,2.78417975 39.3476563,2.10742188 C39.484375,1.430664 39.046875,0.771484375 38.3701173,0.634277375 C36.2866211,0.213378875 34.1435548,0 32,0 C23.4526368,0 15.4165039,3.32861325 9.37255863,9.37255863 C3.32861325,15.4165039 0,23.4526367 0,32 C0,39.1899414 2.44140625,46.206543 6.8862305,51.831543 C6.31396488,52.6865235 6.00634763,53.6914063 6.00634763,54.7436524 C6.00634763,56.1459961 6.55273438,57.4643555 7.54443363,58.4555664 C8.5356445,59.4472656 9.85400388,59.9936524 11.2563476,59.9936524 C12.6586914,59.9936524 13.9770508,59.4472656 14.96875,58.4555664 C15.9604493,57.4643555 16.5063476,56.1455078 16.5063476,54.743164 C16.5063476,53.3413086 15.9604493,52.022461 14.96875,51.03125 C13.9770508,50.0395507 12.6586914,49.4936524 11.2563476,49.4936524 Z M13.2006836,56.6879883 C12.6816406,57.2075195 11.9907226,57.4936524 11.2563476,57.4936524 C10.5219726,57.4936524 9.831543,57.2075195 9.31201175,56.6879883 C8.7924805,56.168457 8.50634763,55.4780274 8.50634763,54.7436524 C8.50634763,54.008789 8.7924805,53.3183594 9.31201175,52.7988281 C9.83105475,52.2792969 10.5219726,51.9936524 11.2563476,51.9936524 C11.9907226,51.9936524 12.6811524,52.2797851 13.2006836,52.7988281 C13.7202149,53.3183594 14.0063476,54.008789 14.0063476,54.7436524 C14.0063476,55.4780274 13.7202149,56.168457 13.2006836,56.6879882 L13.2006836,56.6879883 Z" id="Shape"></path>
                <path d="M57.112793,12.1669922 C58.4716797,10.128418 58.253418,7.34130862 56.4560547,5.54394525 C55.4643555,4.55273437 54.1459961,4.00634762 52.7436524,4.00634762 C51.3413086,4.00634762 50.0229492,4.55273437 49.03125,5.54394525 C48.0395508,6.5356445 47.4936524,7.85400387 47.4936524,9.25634762 C47.4936524,10.6586914 48.0395508,11.9770507 49.03125,12.96875 C50.0229493,13.9604492 51.3413086,14.5063476 52.7436524,14.5063476 C53.6396485,14.5063476 54.5009765,14.2827149 55.2651367,13.862793 C59.2905274,19.0234375 61.5,25.4331055 61.5,32 C61.5,48.2666015 48.2666015,61.5 32,61.5 C30.0419923,61.5 28.0839844,61.3071289 26.1811524,60.9262695 C25.5043945,60.7910156 24.8457031,61.2299805 24.709961,61.9067383 C24.574707,62.5839844 25.0136719,63.2421875 25.6904298,63.3779298 C27.7543945,63.7905274 29.8774414,64 32,64 C40.5473633,64 48.5834961,60.6713867 54.6274414,54.6274414 C60.6713868,48.5834961 64,40.5473632 64,32 C64,24.8095703 61.5581055,17.7924805 57.112793,12.1669922 Z M50.7993164,11.2011719 C50.2797851,10.6816406 49.9936524,9.991211 49.9936524,9.25634762 C49.9936524,8.52197262 50.2797851,7.831543 50.7993164,7.31201175 C51.3183594,6.7924805 52.0092774,6.50634762 52.7436524,6.50634762 C53.4780274,6.50634762 54.1689452,6.7924805 54.6884765,7.31201175 C55.7602539,8.38427737 55.7602539,10.1289062 54.6884765,11.2011719 C54.1689452,11.7202149 53.4780274,12.0063476 52.7436524,12.0063476 C52.008789,12.0063476 51.3183594,11.7202149 50.7993164,11.2011719 Z" id="Shape"></path>
                <path d="M26.8417969,53.5 C26.8417969,54.1904297 27.4018555,54.75 28.0917969,54.75 L35.9077149,54.75 C36.5981445,54.75 37.1577149,54.1904297 37.1577149,53.5 L37.1577149,51.0766601 C38.8012695,50.6342774 40.3725586,49.9829101 41.8491211,49.1323243 L43.5600586,50.8432618 C43.7944336,51.0776368 44.1123047,51.2094726 44.444336,51.2094726 C44.7753906,51.2094726 45.09375,51.0776368 45.328125,50.8427735 L50.852539,45.3144531 C51.340332,44.8261719 51.340332,44.034668 50.852539,43.546875 L49.1435547,41.8378906 C49.9941406,40.3613281 50.6455078,38.790039 51.0878906,37.1464844 L53.5019531,37.1464844 C54.1923828,37.1464844 54.7519531,36.586914 54.7519531,35.8964844 L54.7519531,28.0805664 C54.7519531,27.3901368 54.1923828,26.8305664 53.5019531,26.8305664 L51.0874024,26.8305664 C50.6450195,25.1875 49.9941406,23.616211 49.1435547,22.1396485 L50.8432617,20.4399414 C51.0776367,20.2055664 51.2094726,19.887207 51.2094726,19.555664 C51.2089844,19.2241211 51.0771485,18.9057618 50.8427735,18.6713868 L45.3139649,13.1469726 C44.8261719,12.6591798 44.034668,12.6591798 43.5463867,13.147461 L41.8491211,14.8452149 C40.3725586,13.9946289 38.8012695,13.3432618 37.1577149,12.9008789 L37.1577149,10.5 C37.1577149,9.80957025 36.5981445,9.25 35.9077149,9.25 L28.0917969,9.25 C27.4018555,9.25 26.8417969,9.80957025 26.8417969,10.5 L26.8417969,12.9013673 C25.1987305,13.3432618 23.6274414,13.9946289 22.1508789,14.8452149 L20.453125,13.147461 C19.965332,12.659668 19.1738281,12.6591798 18.6855469,13.1469726 L13.1572265,18.671875 C12.9223632,18.90625 12.7905274,19.2241211 12.7905274,19.555664 C12.7905274,19.887207 12.9223632,20.2055664 13.1567382,20.4399414 L14.8564452,22.1396485 C14.0058594,23.616211 13.3544922,25.1870118 12.9121094,26.8305664 L10.5024414,26.8305664 C9.81201175,26.8305664 9.25244137,27.3901368 9.25244137,28.0800781 L9.24804552,35.8959961 C9.24755862,36.227539 9.3793945,36.5458985 9.6137695,36.7802735 C9.8481445,37.0146485 10.1660156,37.1464844 10.4980469,37.1464844 L12.9121094,37.1464844 C13.3544922,38.790039 14.0058594,40.3613281 14.8564452,41.8378906 L13.147461,43.546875 C12.659668,44.034668 12.6591797,44.8261719 13.147461,45.3144531 L18.671875,50.8427735 C18.90625,51.0771485 19.2241211,51.2094726 19.555664,51.2094726 L19.5561524,51.2094726 C19.8876952,51.2094726 20.2055664,51.0776368 20.4399414,50.8432618 L22.1503906,49.1323243 C23.6274414,49.9829101 25.1987305,50.6342774 26.8417969,51.0766601 L26.8417969,53.5 Z M22.640625,46.503418 C22.1459961,46.1835937 21.4951172,46.2529297 21.078125,46.6694336 L19.5561524,48.1914062 L15.7988281,44.4311524 L17.319336,42.9101562 C17.7358399,42.4936524 17.8051758,41.8427735 17.4853515,41.3481445 C16.3520508,39.5942383 15.5551758,37.671875 15.1176758,35.633789 C14.9936524,35.0581055 14.4848633,34.6464844 13.8955078,34.6464844 L11.7485351,34.6464844 L11.7514649,29.3305664 L13.8955078,29.3305664 C14.4848633,29.3305664 14.9936524,28.9194336 15.1176758,28.3432618 C15.5551758,26.305664 16.3520508,24.3833008 17.4853515,22.6293945 C17.8051758,22.1347656 17.7358399,21.4838868 17.319336,21.0673828 L15.8085938,19.5561524 L19.5688476,15.7988281 L21.078125,17.3085938 C21.4951172,17.7250976 22.1455078,17.7939453 22.640625,17.4746094 C24.394043,16.3413086 26.3164062,15.5444336 28.3544923,15.1069336 C28.9301758,14.9829101 29.3417969,14.4736328 29.3417969,13.8847656 L29.3417969,11.75 L34.6577149,11.75 L34.6577149,13.8842774 C34.6577149,14.4736328 35.0688476,14.9829101 35.6450195,15.1064453 C37.6826173,15.5444336 39.6054688,16.3408203 41.3588868,17.4741211 C41.8535156,17.7939453 42.5043945,17.7250976 42.9208985,17.3081055 L44.430664,15.7988281 L48.190918,19.5561524 L46.6801758,21.0668945 C46.2631836,21.4838868 46.194336,22.1347656 46.5141601,22.6293945 C47.647461,24.3833008 48.4438476,26.305664 48.881836,28.3432618 C49.0053711,28.9194336 49.5146485,29.3305664 50.1040039,29.3305664 L52.2519531,29.3305664 L52.2519531,34.6464844 L50.1040039,34.6464844 C49.5146485,34.6464844 49.0058594,35.0581055 48.881836,35.633789 C48.444336,37.6713868 47.647461,39.5942383 46.5141601,41.3476563 C46.194336,41.8427735 46.2636719,42.4936524 46.6801758,42.9101563 L48.2006836,44.430664 L44.4433594,48.190918 L42.9213867,46.6694336 C42.5043945,46.2524414 41.8535156,46.1835938 41.3588868,46.503418 C39.6049805,47.6367188 37.6826172,48.4331055 35.6450195,48.8710938 C35.0688476,48.9951173 34.6577149,49.5039063 34.6577149,50.0932618 L34.6577149,52.25 L29.3417969,52.25 L29.3417969,50.0932618 C29.3417969,49.5043945 28.9301758,48.9951173 28.3544922,48.8710938 C26.3168945,48.4335938 24.3945312,47.6367188 22.640625,46.503418 L22.640625,46.503418 Z" id="Shape"></path>
                <path d="M42.3286133,32 C42.3286133,26.3046875 37.6953125,21.6713867 32,21.6713867 C26.3046875,21.6713867 21.6713867,26.3046875 21.6713867,32 C21.6713867,37.6953125 26.3046875,42.3286133 32,42.3286133 C37.6953125,42.3286133 42.3286133,37.6953125 42.3286133,32 Z M24.1713867,32 C24.1713867,27.6831055 27.6831055,24.1713867 32,24.1713867 C36.3168945,24.1713867 39.8286133,27.6835938 39.8286133,32 C39.8286133,36.3164063 36.3168945,39.8286133 32,39.8286133 C27.6831055,39.8286133 24.1713867,36.3168945 24.1713867,32 Z" id="Shape"></path>
                <path d="M43.5097656,4.727539 C43.8388672,4.727539 44.1611328,4.59375 44.3935547,4.36132812 C44.6259765,4.12744138 44.7597656,3.80517575 44.7597656,3.47607425 C44.7597656,3.14892575 44.6264649,2.82617188 44.3935547,2.59228513 C44.1611328,2.35986325 43.8388672,2.22607425 43.5097656,2.22607425 C43.1796875,2.22607425 42.8588868,2.35986325 42.6264649,2.59228513 C42.3935548,2.82617188 42.2597656,3.147461 42.2597656,3.47607425 C42.2597656,3.80615237 42.3935547,4.12744138 42.6264649,4.36132812 C42.8588868,4.59375 43.1796875,4.727539 43.5097656,4.727539 Z" id="Path"></path>
                <path d="M20.5449219,59.2949219 C20.2163086,59.2949219 19.8935547,59.428711 19.6611328,59.6611328 C19.428711,59.8935547 19.2949219,60.2163086 19.2949219,60.5449219 C19.2949219,60.875 19.428711,61.196289 19.6611328,61.428711 C19.8935547,61.6611328 20.2163086,61.7949219 20.5449219,61.7949219 C20.8735351,61.7949219 21.196289,61.6611328 21.428711,61.428711 C21.6611328,61.196289 21.7949219,60.8735351 21.7949219,60.5449219 C21.7949219,60.2163086 21.6611328,59.8935547 21.428711,59.6611328 C21.196289,59.428711 20.8735351,59.2949219 20.5449219,59.2949219 Z" id="Path"></path>
            </g>
        </g>
    </g>
</svg>