<?xml version="1.0" encoding="UTF-8"?>
<svg width="64px" height="57px" viewBox="0 0 64 57" version="1.1" xmlns="http://www.w3.org/2000/svg" xmlns:xlink="http://www.w3.org/1999/xlink">
    <!-- Generator: sketchtool 63.1 (101010) - https://sketch.com -->
    <title>5D841D57-6D7D-4117-97E0-2AFD4D043503</title>
    <desc>Created with sketchtool.</desc>
    <g id="Main&amp;About" stroke="none" stroke-width="1" fill="none" fill-rule="evenodd">
        <g id="Step-6.1-Backend-and-Content-management--" transform="translate(-448.000000, -225.000000)" fill="#FFFFFF" fill-rule="nonzero">
            <g id="tick" transform="translate(448.000000, 225.000000)">
                <path d="M56.2145,26.23025 C56.146625,25.288375 55.32925,24.581375 54.386,24.647625 C53.444,24.7155 52.7355,25.534125 52.80325,26.476125 C52.845375,27.058 52.8665,27.655 52.8665,28.25 C52.8665,41.882625 41.77575,52.973375 28.14325,52.973375 C14.51075,52.973375 3.42,41.8825 3.42,28.25 C3.42,14.6175 14.51075,3.52675 28.143375,3.52675 C33.54225,3.52675 38.669625,5.23525 42.970875,8.467375 C43.726,9.034625 44.79775,8.8825 45.365125,8.127625 C45.932625,7.372625 45.7805,6.300625 45.0255,5.733375 C40.126875,2.0525 34.289125,0.106875 28.14325,0.106875 C12.625125,0.106875 0,12.731875 0,28.25 C0,43.768125 12.625125,56.393125 28.143375,56.393125 C43.661625,56.393125 56.2865,43.76825 56.2865,28.25 C56.2865,27.57325 56.262125,26.89375 56.2145,26.23025 Z" id="Path"></path>
                <path d="M62.049375,3.97125 C59.448375,1.370375 55.216125,1.370375 52.615125,3.97125 L27.976375,28.60975 L19.242125,19.875375 C16.641125,17.2745 12.408875,17.2745 9.807875,19.875375 C7.206875,22.476375 7.206875,26.708625 9.807875,29.309625 L24.8505,44.35225 C25.712375,45.214125 26.844375,45.645 27.976375,45.645 C29.1085,45.645 30.2405,45.214125 31.102375,44.35225 L62.049375,13.40525 C64.650125,10.804375 64.650125,6.572375 62.049375,3.97125 Z M59.631125,10.987125 L28.684,41.934375 C28.294,42.324375 27.659,42.324375 27.269,41.934375 L12.226375,26.891625 C10.95875,25.624 10.95875,23.561625 12.226375,22.294 C12.860125,21.66 13.6925,21.34325 14.525125,21.34325 C15.35775,21.34325 16.19025,21.660125 16.823875,22.294 L25.809125,31.27925 C26.388125,31.858125 27.158,32.176875 27.9765,32.176875 C28.795375,32.176875 29.56525,31.858 30.144125,31.279125 L55.0335,6.3895 C56.30075,5.121875 58.3635,5.121875 59.631125,6.3895 C60.898625,7.657125 60.898625,9.7195 59.631125,10.987125 Z" id="Shape"></path>
            </g>
        </g>
    </g>
</svg>