<?xml version="1.0" encoding="UTF-8"?>
<svg width="64px" height="64px" viewBox="0 0 64 64" version="1.1" xmlns="http://www.w3.org/2000/svg" xmlns:xlink="http://www.w3.org/1999/xlink">
    <!-- Generator: sketchtool 63.1 (101010) - https://sketch.com -->
    <title>5B5629E9-0E09-438C-A4DA-277295704E01</title>
    <desc>Created with sketchtool.</desc>
    <g id="Main&amp;About" stroke="none" stroke-width="1" fill="none" fill-rule="evenodd">
        <g id="Step-8.-General-Support--" transform="translate(-718.000000, -380.000000)" fill="#FFFFFF" fill-rule="nonzero">
            <g id="updates" transform="translate(718.000000, 380.000000)">
                <path d="M54.4946289,0 L23.1694336,0 C21.5424805,0 21.540039,2.534668 23.1694336,2.534668 L54.4946289,2.534668 C58.3378906,2.534668 61.465332,5.66162112 61.465332,9.50537112 L61.465332,54.4946289 C61.465332,58.3383789 58.3378906,61.465332 54.4946289,61.465332 L9.50537112,61.465332 C5.66162112,61.465332 2.534668,58.3383789 2.534668,54.4946289 L2.534668,9.50537113 C2.534668,5.66162113 5.66162112,2.534668 9.50537112,2.534668 L12.949707,2.534668 C14.5771485,2.534668 14.5795899,0 12.949707,0 L9.50537112,0 C4.26416012,0 -3.55271368e-15,4.26416013 -3.55271368e-15,9.50537113 L-3.55271368e-15,54.4946289 C-3.55271368e-15,59.7358399 4.26416012,64 9.50537112,64 L54.4946289,64 C59.7358399,64 64,59.7358399 64,54.4946289 L64,9.50537113 C64,4.26416013 59.7358399,0 54.4946289,0 Z" id="Path"></path>
                <path d="M8.18603513,6.53662113 C7.81298825,6.163086 7.22851563,6.06396488 6.7509765,6.28710938 C6.27294925,6.51074225 5.977539,7.027832 6.02880863,7.553711 C6.07958988,8.08007813 6.46337888,8.52832025 6.97509763,8.66113275 C7.48583988,8.793457 8.04296875,8.5825195 8.33837888,8.1450195 C8.67480475,7.64697263 8.61083987,6.96386725 8.18603513,6.53662113 C7.95068363,6.3012695 8.421875,6.77392575 8.18603513,6.53662113 Z" id="Path"></path>
                <path d="M57.1767578,8.70166013 C57.7060547,8.70166013 58.1889649,8.359375 58.3686524,7.862793 C58.5478515,7.3671875 58.3920899,6.79199225 57.984375,6.45605475 C57.5761719,6.1206055 56.9873047,6.07519525 56.5322265,6.3427735 C56.0776368,6.60986325 55.8320312,7.15429688 55.9321289,7.67138675 C56.046875,8.26074225 56.5756836,8.70166013 57.1767578,8.70166013 L57.1767578,8.70166013 Z" id="Path"></path>
                <path d="M17.9946289,2.53417975 C18.671875,2.53417975 19.2509765,1.96630863 19.2597656,1.28857425 C19.269043,0.58544925 18.6928711,0.004394525 17.9916992,0.00390505002 C17.2919922,0.0029296875 16.7133789,0.5981445 16.7280274,1.29736325 C16.7421875,1.97021488 17.3227539,2.53417975 17.9946289,2.53417975 Z" id="Path"></path>
                <path d="M56.2807618,57.2128906 C56.6542969,57.5864258 57.2387695,57.6855469 57.7163086,57.4624024 C58.194336,57.2392578 58.4892578,56.722168 58.4384765,56.196289 C58.3876953,55.6699219 58.0039062,55.2216798 57.4921875,55.0888673 C56.9814453,54.956543 56.4243164,55.1669923 56.1289062,55.6049805 C55.7924805,56.1035156 55.855957,56.7861328 56.2807618,57.2128906 C56.5166015,57.4487305 56.0449219,56.9760743 56.2807618,57.2128906 Z" id="Path"></path>
                <path d="M7.290039,55.0483399 C6.7612305,55.0483399 6.27832025,55.390625 6.09863275,55.887207 C5.91943362,56.3828125 6.07519525,56.9580078 6.48291013,57.293457 C6.890625,57.6289063 7.4799805,57.6743164 7.93505862,57.4072265 C8.3896485,57.1401368 8.63525388,56.5961914 8.534668,56.078125 C8.42041013,55.4887695 7.8916015,55.0483399 7.290039,55.0483399 L7.290039,55.0483399 Z" id="Path"></path>
                <path d="M48.8383789,30.6484375 C46.840332,30.6484375 45.215332,32.2734375 45.215332,34.2714844 L45.215332,39.6186524 L22.2128906,39.6186524 C22.175293,38.809082 21.7216797,38.0717774 21.0078125,37.6772461 C20.2617187,37.2646485 19.3500976,37.290039 18.628418,37.7426757 L13.0947265,41.2148438 C11.6611327,42.1142578 11.6601562,44.2841797 13.0947265,45.184082 L18.628418,48.65625 C19.3344726,49.0991211 20.2768555,49.1259765 21.0078125,48.7216797 C21.6967774,48.3408203 22.1435547,47.6411132 22.2080077,46.8647461 L48.8383789,46.8647461 C50.8359375,46.8647461 52.4609375,45.2392577 52.4609375,43.2416992 L52.4609375,34.2714844 C52.4609375,32.2734375 50.8359375,30.6484375 48.8383789,30.6484375 L48.8383789,30.6484375 Z M19.6821289,46.324707 L14.7006836,43.199707 L19.6821289,40.0742188 L19.6821289,46.324707 Z M49.9262695,43.2416993 C49.9262695,43.8413086 49.4379882,44.3295899 48.8383789,44.3295899 L22.2167969,44.3295899 L22.2167969,42.1533203 L46.4829101,42.1533203 C47.1826172,42.1533203 47.75,41.5859375 47.75,40.8862305 L47.75,34.2714844 C47.75,33.6713868 48.2382812,33.1831055 48.8383789,33.1831055 C49.4379883,33.1831055 49.9262695,33.6713867 49.9262695,34.2714844 L49.9262695,43.2416993 Z" id="Shape"></path>
                <path d="M11.6821289,23.0634765 L11.6821289,32.0341798 C11.6821289,34.0317383 13.3076172,35.6567383 15.3051758,35.6567383 C17.3027344,35.6567383 18.9277344,34.0317383 18.9277344,32.0341798 L18.9277344,26.6865235 L41.965332,26.6865235 C42.0166015,27.4799805 42.4677735,28.1977539 43.1689453,28.5859375 C43.9018555,28.991211 44.8408202,28.9643555 45.5483399,28.5205078 L51.0820312,25.0483399 C52.5161133,24.1489258 52.5166015,21.9790039 51.0820312,21.0786133 L45.5483399,17.6069336 C44.8266601,17.1538086 43.9145508,17.1289063 43.1689453,17.5415039 C42.4677735,17.9291993 42.0166015,18.647461 41.965332,19.4404298 L15.3051758,19.4404298 C13.3076173,19.440918 11.6821289,21.0664063 11.6821289,23.0634765 Z M44.4951173,19.9384765 L49.4760743,23.0634765 L44.4951173,26.1889649 L44.4951173,19.9384765 Z M14.2172851,23.0634765 C14.2172851,22.4638673 14.7050781,21.975586 15.3051758,21.975586 L41.9604493,21.975586 L41.9604493,24.1518555 L17.6606445,24.1518555 C16.9604493,24.1518555 16.3930664,24.7192383 16.3930664,25.4194336 L16.3930664,32.0341798 C16.3930664,32.633789 15.9052735,33.1220703 15.3051758,33.1220703 C14.7050781,33.1220703 14.2172851,32.633789 14.2172851,32.0341798 L14.2172851,23.0634765 Z" id="Shape"></path>
            </g>
        </g>
    </g>
</svg>