<?xml version="1.0" encoding="UTF-8"?>
<svg width="64px" height="64px" viewBox="0 0 64 64" version="1.1" xmlns="http://www.w3.org/2000/svg" xmlns:xlink="http://www.w3.org/1999/xlink">
    <!-- Generator: sketchtool 63.1 (101010) - https://sketch.com -->
    <title>BD78186E-AE10-4E35-BB92-BD14F68F3777</title>
    <desc>Created with sketchtool.</desc>
    <g id="Main&amp;About" stroke="none" stroke-width="1" fill="none" fill-rule="evenodd">
        <g id="Step-4.1-major-feautures" transform="translate(-448.000000, -378.000000)" fill="#FFFFFF" fill-rule="nonzero">
            <g id="upload" transform="translate(448.000000, 378.000000)">
                <path d="M46.666625,29.333375 C37.106625,29.333375 29.33325,37.10675 29.33325,46.66675 C29.33325,56.22675 37.106625,64 46.666625,64 C56.226625,64 64,56.226625 64,46.666625 C64,37.106625 56.226625,29.333375 46.666625,29.333375 Z M46.666625,61.333375 C38.56,61.333375 32,54.773375 32,46.666625 C32,38.559875 38.56,32 46.666625,32 C54.77325,32 61.33325,38.56 61.33325,46.666625 C61.32,54.76 54.76,61.32 46.666625,61.333375 Z" id="Shape"></path>
                <path d="M47.613375,38.453375 C47.093375,37.933375 46.253375,37.933375 45.733375,38.453375 L39.90675,44.26675 C39.400125,44.800125 39.413375,45.640125 39.933375,46.14675 C40.453375,46.640125 41.26675,46.640125 41.78675,46.14675 L45.333375,42.613375 L45.333375,53.94675 C45.333375,54.680125 45.933375,55.280125 46.66675,55.280125 C47.400125,55.280125 48.000125,54.680125 48.000125,53.94675 L48.000125,42.613375 L51.54675,46.16 C52.06675,46.68 52.920125,46.68 53.440125,46.16 C53.960125,45.64 53.960125,44.786625 53.440125,44.266625 L47.613375,38.453375 Z" id="Path"></path>
                <path d="M22.666625,48 L12.133375,48 C12.68,47.293375 13.08,46.48 13.293375,45.613375 C13.32,45.50675 13.333375,45.4 13.333375,45.293375 L13.333375,16 L53.333375,16 L53.333375,23.96 C53.333375,24.626625 53.813375,25.226625 54.46675,25.32 C55.293375,25.44 56,24.8 56,24 L56,14.666625 C56,13.93325 55.4,13.33325 54.666625,13.33325 L50.666625,13.33325 L50.666625,8 C50.666625,7.266625 50.066625,6.666625 49.33325,6.666625 L21.066625,6.666625 L17.226625,0.61325 C16.986625,0.226625 16.56,0 16.106625,0 L1.333375,0 C0.6,0 0,0.6 0,1.333375 L0,45.293375 C0,45.4 0.013375,45.50675 0.04,45.613375 C0.76,48.50675 3.28,50.46675 6.346625,50.6 C6.45325,50.64 6.56,50.653375 6.666625,50.666625 L22.626625,50.666625 C23.29325,50.666625 23.89325,50.186625 23.986625,49.53325 C24.106625,48.706625 23.466625,48 22.666625,48 Z M10.666625,14.666625 L10.666625,45.12 C10.066625,47.213375 8.146625,47.96 6.666625,47.96 C5.186625,47.96 3.266625,47.213375 2.666625,45.12 L2.666625,2.666625 L15.36,2.666625 L19.2,8.72 C19.44,9.106625 19.866625,9.333375 20.333375,9.333375 L48,9.333375 L48,13.333375 L12,13.333375 C11.266625,13.333375 10.666625,13.933375 10.666625,14.666625 Z" id="Shape"></path>
            </g>
        </g>
    </g>
</svg>