<?xml version="1.0" encoding="UTF-8"?>
<svg width="64px" height="64px" viewBox="0 0 64 64" version="1.1" xmlns="http://www.w3.org/2000/svg" xmlns:xlink="http://www.w3.org/1999/xlink">
    <!-- Generator: sketchtool 63.1 (101010) - https://sketch.com -->
    <title>1A00CB79-74BE-4B17-8BF7-3EE396ABBB24</title>
    <desc>Created with sketchtool.</desc>
    <g id="Main&amp;About" stroke="none" stroke-width="1" fill="none" fill-rule="evenodd">
        <g id="Step-4.2.-Minor-features" transform="translate(-988.000000, -186.000000)" fill="#FFFFFF" fill-rule="nonzero">
            <g id="world" transform="translate(988.000000, 186.000000)">
                <path d="M48.458,58.002125 C48.11175,57.405375 47.347125,57.202125 46.749625,57.548375 L46.7015,57.576125 C46.1045,57.9225 45.901375,58.687375 46.247625,59.2845 C46.4795,59.684125 46.898875,59.907375 47.329875,59.907375 C47.542625,59.907375 47.758625,59.85275 47.956,59.73825 L48.004125,59.7105 C48.601125,59.364125 48.80425,58.59925 48.458,58.002125 Z" id="Path"></path>
                <path d="M59.71175,16.01 C55.439,8.609375 48.540125,3.31575 40.285875,1.104 C32.031875,-1.10775 23.410375,0.027375 16.00975,4.3 C8.60925,8.572625 3.3155,15.471625 1.103875,23.72575 C-1.10775,31.979875 0.02725,40.6015 4.299875,48.002 C8.1325,54.640375 14.224,59.6855 21.45225,62.20775 C24.878625,63.40325 28.4555,63.999875 32.026875,63.999875 C35.91,63.999875 39.786125,63.294125 43.45,61.886 C44.094375,61.638375 44.415875,60.91525 44.168125,60.270875 C43.920375,59.6265 43.197125,59.304625 42.553,59.55275 C32.8005,63.301125 22.24275,61.598 14.354875,55.67725 L15.47475,49.831625 L16.014375,49.656375 C18.0535,48.993875 19.1735,46.795875 18.51125,44.756625 L18.11525,43.538 C18.023625,43.256 18.024125,42.957875 18.1165,42.676125 C18.463875,41.617125 18.33975,40.4585 17.775875,39.497 C17.212,38.535625 16.261375,37.8615 15.1675,37.647625 L12.34625,37.096375 L6.90275,32.957625 C6.576625,32.709625 6.14975,32.63725 5.76,32.76375 L2.573,33.799 C2.505375,32.659125 2.504375,31.519625 2.568625,30.386125 C2.694375,30.50325 2.77625,30.582875 2.826625,30.635125 C2.889,30.739 2.96625,30.83425 3.05675,30.91675 C3.317,31.15375 3.55275,31.26125 4.04775,31.26125 C4.502625,31.261125 5.176,31.1705 6.287875,31.00625 C7.342375,30.850375 8.391375,30.67475 8.40175,30.673 C8.822125,30.602625 9.1775,30.322625 9.34475,29.93075 C9.512,29.53875 9.467875,29.088625 9.22775,28.736375 L7.695125,26.488375 L9.890375,24.918625 C10.036625,24.814 10.158625,24.679125 10.248,24.523125 L13.650875,18.5825 L15.0225,17.11275 C16.424125,15.6105 16.824125,13.412625 16.041375,11.513125 C15.579625,10.39275 14.773125,9.46 13.764375,8.831375 C14.856875,7.9725 16.02175,7.1795 17.25975,6.464875 C21.802,3.842375 26.759,2.5715 31.663875,2.522875 L29.431875,5.32275 L21.155,8.224375 C20.818875,8.342125 20.548875,8.597875 20.413125,8.927125 L18.101625,14.530625 C17.9375,14.92875 17.989625,15.383 18.23975,15.7335 L21.61575,20.4625 C21.13225,20.903625 20.661625,21.546125 20.0995,22.343875 C19.853,22.69375 19.62025,23.024125 19.459375,23.209375 C19.3195,23.370625 19.1795,23.528125 19.04075,23.684125 C18.314625,24.501 17.563875,25.345875 17.0305,26.474375 C15.85775,28.95675 16.094625,31.842 17.648625,34.00425 C19.15125,36.094875 21.6285,37.157625 24.2725,36.846625 C24.70325,36.796125 25.104875,36.69675 25.4935,36.6005 C26.565125,36.335375 26.904625,36.308875 27.248375,36.630625 C27.415625,36.78725 27.431,36.816875 27.427625,37.348 C27.42525,37.686 27.422625,38.1065 27.539125,38.586625 C27.72575,39.35475 28.208125,39.885625 28.595625,40.312125 C28.78825,40.524 28.9875,40.74325 29.048875,40.890375 C29.43875,41.824625 29.269,42.342 28.897,43.47575 C28.865125,43.57275 28.832625,43.67175 28.8,43.77325 C28.234875,45.522625 29.022625,47.257875 29.717625,48.788625 C29.943375,49.28575 30.1565,49.755 30.296125,50.16975 C31.42,53.504625 32.2625,54.268375 32.938625,54.575875 C33.29275,54.736875 33.65925,54.8075 34.0295,54.807375 C35.831375,54.80725 37.711625,53.13425 38.575375,52.073625 C39.117875,51.407625 39.2515,50.74075 39.349,50.253625 C39.397625,50.011375 39.435875,49.820125 39.508875,49.695125 C39.620625,49.503875 39.75225,49.355625 39.918875,49.167875 C40.254,48.7905 40.671125,48.321 40.94125,47.469875 C41.1465,46.823375 41.295625,46.664875 41.7895,46.138875 C41.8755,46.0475 41.967125,45.94975 42.0655,45.84275 C43.730375,44.031125 43.301625,42.64725 42.8475,41.182 C42.465375,39.949125 43.13375,39.160625 44.74975,37.65575 C45.45025,37.003375 46.1745,36.328875 46.734375,35.518375 C46.979375,35.163625 47.72475,34.0845 47.2635,33.014875 C46.811375,31.966125 45.66225,31.789875 44.739,31.648375 C44.374375,31.592375 43.823375,31.507875 43.648,31.39325 C42.874625,30.887625 42.4015,29.832375 41.943875,28.81175 C41.85275,28.608625 41.762875,28.408125 41.67175,28.2135 C41.50925,27.86625 41.346875,27.446125 41.175,27.001375 C40.72025,25.824375 40.204875,24.49025 39.3275,23.56025 C38.538875,22.724625 37.05225,22.322125 35.740625,21.966875 C35.2995,21.8475 34.883125,21.73475 34.6085,21.633375 C34.378375,21.548375 34.128625,21.533 33.890375,21.589 C33.252,21.738625 32.85375,21.9035 32.558,22.1405 C32.479875,22.203125 32.2485,22.40875 32.113,22.73925 C31.655375,22.519625 31.026125,22.10025 30.638875,21.842125 C30.630875,21.83675 30.62275,21.831375 30.61475,21.826 C30.74525,21.30375 30.627125,20.884625 30.503375,20.622875 C29.805125,19.145875 27.48725,19.2615 27.03,19.300375 C26.77025,19.322125 26.441625,19.33375 26.094,19.346 C25.548,19.365375 24.9445,19.387125 24.347375,19.454125 L24.378125,19.368375 C24.831375,18.1055 26.037375,17.257 27.379125,17.257 L28.08975,17.257 C28.779875,17.257 29.339625,16.69725 29.339625,16.007125 C29.339625,15.317 28.779875,14.75725 28.08975,14.75725 L27.379125,14.75725 C25.387125,14.75725 23.563,15.805625 22.540625,17.45575 L20.67625,14.844125 L22.5105,10.398 L30.598375,7.5625 C30.820125,7.48475 31.015625,7.346 31.16225,7.162125 L34.757625,2.65225 C43.944375,3.526125 52.591875,8.676875 57.547125,17.259625 C58.867,19.54575 59.843375,21.9525 60.4925,24.414125 L59.962625,24.886625 C59.271,25.50375 58.86575,26.388875 58.85025,27.31525 C58.850125,27.325375 58.849875,27.335375 58.8495,27.345375 L57.98625,24.971375 C57.857625,24.617125 57.668125,24.29225 57.423375,24.005875 L55.8835,22.203 C55.2865,21.504125 54.41725,21.1035 53.498375,21.1035 L51.6135,21.1035 C50.944375,21.1035 50.332875,21.47 50.01725,22.059625 C49.701625,22.649375 49.736125,23.361625 50.10725,23.918125 L50.298,24.2045 C49.08,25.251875 47.67125,26.09 46.17125,26.65525 L43.5875,21.706125 L43.5875,20.602 C43.5875,20.2605 43.44775,19.933625 43.200625,19.698 L40.874,17.476875 C40.745625,17.354375 40.592625,17.260625 40.42525,17.20175 L38.330875,16.46575 C37.67925,16.2365 36.966,16.579375 36.73725,17.2305 C36.508375,17.881875 36.85075,18.59525 37.502,18.824125 L39.3425,19.471 L41.08775,21.136875 L41.08775,22.012875 C41.08775,22.21425 41.1365,22.41275 41.22975,22.591375 L44.464375,28.78725 C44.75525,29.34475 45.4155,29.5995 46.00475,29.3815 L46.946625,29.03425 C49.13475,28.22725 51.162875,26.929125 52.811875,25.280375 C53.233125,24.859 53.298625,24.199125 52.968,23.70325 L52.9015,23.603375 L53.498375,23.603375 C53.685,23.603375 53.861625,23.68475 53.982875,23.82675 L55.52275,25.629625 C55.572375,25.68775 55.61075,25.7535 55.637,25.825625 L57.336375,30.4985 C57.482375,30.9 57.823375,31.199 58.240125,31.2915 C58.330125,31.311375 58.42075,31.321125 58.510875,31.321125 C58.83875,31.321125 59.157875,31.192 59.394625,30.955 L60.2035,30.146125 C60.71575,29.63375 61.068375,28.9855 61.236875,28.266875 C62.487875,38.2925 58.55675,48.6635 50.2475,55.18525 C49.704375,55.611375 49.609625,56.397 50.036,56.940125 C50.462125,57.48325 51.247625,57.578 51.790875,57.151625 C57.789875,52.44325 61.911125,45.708875 63.3955,38.189 C64.89375,30.596625 63.585625,22.71975 59.71175,16.01 Z M5.91025,35.343375 L11.064375,39.26225 C11.21675,39.378125 11.3935,39.457375 11.58125,39.494 L14.68775,40.101 C15.08425,40.1785 15.415,40.413 15.619375,40.7615 C15.82375,41.109875 15.86675,41.513 15.741,41.896875 C15.48225,42.686 15.481,43.520625 15.737625,44.31025 L16.133625,45.52875 C16.37025,46.257 15.97,47.042125 15.241875,47.27875 L13.99975,47.682375 C13.566375,47.823125 13.244125,48.188625 13.1585,48.635875 L12.15875,53.8545 C9.960875,51.842875 8.031125,49.465375 6.46475,46.75225 C4.55375,43.442625 3.35975,39.9125 2.8335,36.343 L5.91025,35.343375 Z M13.194875,15.40725 L11.7245,16.982625 C11.658875,17.053 11.6015,17.13075 11.553625,17.21425 L8.214625,23.04375 L5.247,25.16575 C4.69425,25.561 4.5585,26.325125 4.94125,26.886625 L6.051125,28.514625 C5.411375,28.609875 4.83725,28.688375 4.4555,28.73 C4.382125,28.659625 4.305375,28.58825 4.226,28.5145 C3.928875,28.2385 3.516,27.869875 2.9005,27.33125 C3.915625,21.048375 6.943125,15.129375 11.704625,10.61125 C12.616375,10.898375 13.364625,11.5785 13.730125,12.465625 C14.141375,13.463375 13.931125,14.618125 13.194875,15.40725 Z M23.386125,22.237625 C23.943625,21.923875 25.237625,21.878 26.182375,21.8445 C26.561,21.831125 26.91875,21.818375 27.23825,21.791625 C27.406875,21.7775 27.594125,21.780125 27.77075,21.793875 C27.691875,21.996375 27.66625,22.218625 27.7005,22.439125 C27.760625,22.827 27.99975,23.163875 28.34575,23.349 C28.58025,23.4745 28.906625,23.692125 29.252125,23.9225 C30.229,24.57375 31.336375,25.311875 32.376625,25.378125 C33.322625,25.4395 33.849,24.900375 34.0745,24.67075 C34.0925,24.6525 34.1095,24.63425 34.1275,24.617625 C34.2545,24.514125 34.3735,24.375375 34.462,24.208 C34.661875,24.265125 34.871875,24.322 35.087125,24.380375 C35.82725,24.58075 37.204875,24.95375 37.50925,25.27625 C38.049875,25.849375 38.47125,26.94025 38.843125,27.902625 C39.031,28.389 39.2085,28.848 39.407625,29.273625 C39.493125,29.45625 39.57725,29.644375 39.66275,29.834875 C40.2395,31.121375 40.89325,32.579625 42.280125,33.486125 C42.909,33.89725 43.679875,34.015375 44.360125,34.11975 C44.442375,34.132375 44.536625,34.146875 44.632375,34.162625 C44.228625,34.725875 43.65375,35.261125 43.046375,35.82675 C41.499,37.26775 39.57325,39.06125 40.460125,41.922375 C40.87875,43.273375 40.89825,43.419375 40.225125,44.151625 C40.133375,44.2515 40.047875,44.3425 39.96775,44.42775 C39.39125,45.0415 38.935875,45.52625 38.558875,46.71375 C38.449375,47.058625 38.3075,47.218375 38.049875,47.508375 C37.843875,47.740375 37.58725,48.029375 37.350625,48.434375 C37.067125,48.919625 36.973375,49.386875 36.89825,49.76225 C36.824125,50.131625 36.782125,50.317 36.637125,50.495 C36.307,50.90025 35.69125,51.48875 35.059125,51.890375 C34.471625,52.263375 34.128625,52.314375 34.01175,52.307375 C33.878375,52.164375 33.39525,51.53825 32.66525,49.371625 C32.48525,48.837125 32.2355,48.287125 31.994,47.75525 C31.461625,46.58275 30.91125,45.37025 31.179,44.541625 C31.210625,44.443875 31.241875,44.348375 31.272625,44.255 C31.700375,42.95125 32.104125,41.720125 31.356125,39.927625 C31.128375,39.38175 30.76575,38.982875 30.446125,38.630875 C30.23925,38.40325 30.004875,38.14525 29.96875,37.99675 C29.92475,37.815625 29.926125,37.6065 29.92775,37.364375 C29.932,36.71125 29.9385,35.724375 28.957375,34.805625 C27.574125,33.510875 25.961125,33.90975 24.893625,34.17375 C24.56575,34.25475 24.256,34.3315 23.9815,34.36375 C22.2255,34.5695 20.65775,33.907 19.679,32.545 C18.655125,31.120375 18.5065,29.20325 19.29125,27.542 C19.671125,26.738125 20.245,26.09225 20.9095,25.34475 C21.054625,25.181375 21.201125,25.016625 21.347625,24.847875 C21.591375,24.566875 21.859625,24.186375 22.14325,23.7835 C22.481875,23.302875 23.112375,22.407875 23.386125,22.237625 Z" id="Shape"></path>
                <path d="M51.25275,43.03475 L50.651375,40.768 C50.52,40.273 50.1,39.90825 49.591625,39.8475 C49.082625,39.788 48.589,40.0425 48.344625,40.492625 C48.207625,40.745125 48.08425,41.012625 47.965,41.27125 C47.764375,41.706375 47.556875,42.156375 47.341,42.40475 C47.21975,42.54425 46.90825,42.694625 46.60725,42.839875 C45.887625,43.187125 44.902,43.66275 44.5255,44.863 C44.29175,45.6075 44.379,46.1965 44.44275,46.6265 C44.497875,46.999375 44.510625,47.128625 44.41075,47.363125 L44.39825,47.39225 C44.000375,48.325875 43.260125,50.064 44.298125,51.541625 C45.03875,52.596125 45.8175,52.8672598 46.422625,52.8672598 C46.54075,52.867625 46.6525,52.85725 46.755875,52.840375 C48.030875,52.632 48.989375,51.30575 49.772625,48.66625 L51.242875,43.711125 C51.30825,43.49075 51.31175,43.25675 51.25275,43.03475 Z M47.37625,47.955125 C46.977,49.300875 46.62375,49.929125 46.419875,50.207625 C46.396375,50.177625 46.370875,50.143625 46.343625,50.10475 C46.10475,49.7645 46.46175,48.9265 46.698,48.371875 L46.710625,48.342625 C47.091625,47.448375 46.98975,46.761625 46.915625,46.260125 C46.868,45.939 46.851,45.801 46.910625,45.611375 C46.959625,45.4555 47.2525,45.30425 47.69375,45.09125 C47.889375,44.99675 48.10475,44.892875 48.322125,44.767125 L47.37625,47.955125 Z" id="Shape"></path>
                <path d="M33.75375,14.8575 L33.669375,14.828 C33.0185,14.6 32.30475,14.942375 32.07625,15.59375 C31.84775,16.24525 32.190625,16.958375 32.842,17.186875 L32.92625,17.216375 C33.063125,17.264375 33.202625,17.287125 33.34,17.287125 C33.856,17.287125 34.339,16.965 34.5195,16.450625 C34.748,15.799125 34.405125,15.085875 33.75375,14.8575 Z" id="Path"></path>
            </g>
        </g>
    </g>
</svg>